G04*
G04 #@! TF.GenerationSoftware,Altium Limited,Altium Designer,20.1.8 (145)*
G04*
G04 Layer_Color=65535*
%FSLAX25Y25*%
%MOIN*%
G70*
G04*
G04 #@! TF.SameCoordinates,DCF3A4A8-B772-48C9-94DF-C36B93A42D3A*
G04*
G04*
G04 #@! TF.FilePolarity,Positive*
G04*
G01*
G75*
%ADD10C,0.00984*%
%ADD11C,0.01181*%
%ADD12C,0.00787*%
%ADD13C,0.00984*%
%ADD14C,0.01000*%
%ADD15C,0.00800*%
%ADD16C,0.00600*%
%ADD17R,0.14087X0.09000*%
D10*
X88492Y237500D02*
G03*
X88492Y237500I-492J0D01*
G01*
Y154000D02*
G03*
X88492Y154000I-492J0D01*
G01*
Y185500D02*
G03*
X88492Y185500I-492J0D01*
G01*
Y102000D02*
G03*
X88492Y102000I-492J0D01*
G01*
X171992Y220000D02*
G03*
X171992Y220000I-492J0D01*
G01*
Y253000D02*
G03*
X171992Y253000I-492J0D01*
G01*
X134992Y220000D02*
G03*
X134992Y220000I-492J0D01*
G01*
Y253000D02*
G03*
X134992Y253000I-492J0D01*
G01*
X59394Y83244D02*
G03*
X59394Y83244I-492J0D01*
G01*
X84591Y157756D02*
G03*
X84591Y157756I-492J0D01*
G01*
X59394Y166744D02*
G03*
X59394Y166744I-492J0D01*
G01*
X84992Y291000D02*
G03*
X84992Y291000I-492J0D01*
G01*
X84591Y241256D02*
G03*
X84591Y241256I-492J0D01*
G01*
X113122Y329583D02*
G03*
X113122Y329583I-492J0D01*
G01*
D02*
G03*
X113122Y329583I-492J0D01*
G01*
Y305583D02*
G03*
X113122Y305583I-492J0D01*
G01*
D02*
G03*
X113122Y305583I-492J0D01*
G01*
X45862Y328417D02*
G03*
X45862Y328417I-492J0D01*
G01*
D02*
G03*
X45862Y328417I-492J0D01*
G01*
Y352417D02*
G03*
X45862Y352417I-492J0D01*
G01*
D02*
G03*
X45862Y352417I-492J0D01*
G01*
X201000Y238000D02*
Y256000D01*
X193000Y238000D02*
X201000D01*
X193000D02*
Y256000D01*
X201000D01*
X193000Y250000D02*
X201000D01*
X193000Y244000D02*
X201000D01*
X193000Y197000D02*
X201000D01*
X193000Y211000D02*
X201000D01*
X193000Y225000D02*
X201000D01*
X193000Y191000D02*
Y225000D01*
Y191000D02*
X201000D01*
Y225000D01*
X188000Y72000D02*
Y80000D01*
X191000Y136000D02*
X199500D01*
X191000Y146000D02*
X200000D01*
X191000Y152000D02*
X200000D01*
X191000Y161000D02*
X200000D01*
X191000Y114000D02*
Y161000D01*
Y114000D02*
X200000D01*
Y161000D01*
X171000Y72000D02*
X206000D01*
X171000D02*
Y80000D01*
X206000D01*
Y72000D02*
Y80000D01*
X200000Y72000D02*
Y80000D01*
X194000Y72000D02*
Y80000D01*
X182000Y72000D02*
Y80000D01*
X177000Y72000D02*
Y80000D01*
X94500Y331157D02*
X109500D01*
X94500Y350842D02*
X109500D01*
X94500Y307157D02*
X109500D01*
X94500Y326842D02*
X109500D01*
X48500D02*
X63500D01*
X48500Y307157D02*
X63500D01*
X48500Y350842D02*
X63500D01*
X48500Y331157D02*
X63500D01*
D11*
X156435Y173441D02*
G03*
X156435Y173441I-565J0D01*
G01*
D12*
X77331Y122500D02*
G03*
X77331Y122500I-500J0D01*
G01*
Y104500D02*
G03*
X77331Y104500I-500J0D01*
G01*
Y188000D02*
G03*
X77331Y188000I-500J0D01*
G01*
Y206000D02*
G03*
X77331Y206000I-500J0D01*
G01*
X100000Y259669D02*
G03*
X100000Y259669I-500J0D01*
G01*
X114000Y282331D02*
G03*
X114000Y282331I-500J0D01*
G01*
X77669Y266500D02*
G03*
X77669Y266500I-500J0D01*
G01*
X80000Y277831D02*
G03*
X80000Y277831I-500J0D01*
G01*
X32500Y259669D02*
G03*
X32500Y259669I-500J0D01*
G01*
X46500Y282331D02*
G03*
X46500Y282331I-500J0D01*
G01*
X95500Y224783D02*
Y235216D01*
X88500Y224783D02*
Y235216D01*
Y141284D02*
Y151716D01*
X95500Y141284D02*
Y151716D01*
Y172784D02*
Y183217D01*
X88500Y172784D02*
Y183217D01*
Y89284D02*
Y99717D01*
X95500Y89284D02*
Y99717D01*
X168803Y115362D02*
X169197D01*
X168803Y110638D02*
X169197D01*
X168803Y118638D02*
X169197Y118638D01*
X168803Y123362D02*
X169197D01*
X168803Y126638D02*
X169197D01*
X168803Y131362D02*
X169197Y131362D01*
X153638Y124303D02*
Y124697D01*
X158362Y124303D02*
Y124697D01*
X145531Y133809D02*
X145809Y133531D01*
X142191Y130469D02*
X142469Y130191D01*
X178304Y154626D02*
X178930Y154000D01*
X178304Y153374D02*
X178930Y154000D01*
X141070D02*
X141696Y153374D01*
X141070Y154000D02*
X141696Y154626D01*
X159374Y135696D02*
X160000Y135070D01*
X160626Y135696D01*
X159374Y172304D02*
X160626D01*
X140691Y175531D02*
X140969Y175810D01*
X144031Y172190D02*
X144309Y172469D01*
X132303Y176638D02*
X132697D01*
X132303Y181362D02*
X132697D01*
X127690Y144969D02*
X127969Y144691D01*
X131031Y148310D02*
X131309Y148031D01*
X131191Y166031D02*
X131469Y166309D01*
X134531Y162690D02*
X134810Y162969D01*
X125362Y162803D02*
Y163197D01*
X120638Y162803D02*
Y163197D01*
X190190Y171469D02*
X190469Y171191D01*
X193531Y174810D02*
X193809Y174531D01*
X179191Y169469D02*
X179469Y169191D01*
X182531Y172810D02*
X182809Y172531D01*
X132303Y184138D02*
X132697D01*
X132303Y188862D02*
X132697D01*
X191362Y247803D02*
Y248197D01*
X186638Y247803D02*
Y248197D01*
X191362Y234803D02*
Y235197D01*
X186638Y234803D02*
Y235197D01*
X191362Y214803D02*
Y215197D01*
X186638Y214803D02*
Y215197D01*
X191362Y201803D02*
Y202197D01*
X186638Y201803D02*
Y202197D01*
X182531Y185810D02*
X182809Y185531D01*
X179191Y182469D02*
X179469Y182191D01*
X169531Y185810D02*
X169809Y185531D01*
X166191Y182469D02*
X166469Y182191D01*
X165362Y207803D02*
Y208197D01*
X160638Y207803D02*
Y208197D01*
X154362Y201803D02*
Y202197D01*
X149638Y201803D02*
Y202197D01*
X154362Y214803D02*
Y215197D01*
X149638Y214803D02*
Y215197D01*
X180500Y198000D02*
Y218000D01*
X171500Y198000D02*
Y218000D01*
X180500Y231000D02*
Y251000D01*
X171500Y231000D02*
Y251000D01*
X165362Y240803D02*
Y241197D01*
X160638Y240803D02*
Y241197D01*
X154362Y234803D02*
Y235197D01*
X149638Y234803D02*
Y235197D01*
X154362Y247803D02*
Y248197D01*
X149638Y247803D02*
Y248197D01*
X143500Y198000D02*
Y218000D01*
X134500Y198000D02*
Y218000D01*
X143500Y231000D02*
Y251000D01*
X134500Y231000D02*
Y251000D01*
X128362Y240803D02*
Y241197D01*
X123638Y240803D02*
Y241197D01*
X128362Y207803D02*
Y208197D01*
X123638Y207803D02*
Y208197D01*
X221400Y227000D02*
Y265988D01*
X202581Y227000D02*
X225219D01*
X202581Y265988D02*
X225219D01*
X202581Y227000D02*
Y265988D01*
X225219Y227000D02*
Y265988D01*
X221400Y185500D02*
Y224488D01*
X202581Y185500D02*
X225219D01*
X202581Y224488D02*
X225219D01*
X202581Y185500D02*
Y224488D01*
X225219Y185500D02*
Y224488D01*
X225100Y114200D02*
Y182776D01*
X202500D02*
X225100D01*
X221400D02*
X221400Y114200D01*
X202500D02*
Y182776D01*
Y114200D02*
X225100D01*
X157700Y82900D02*
Y105500D01*
X226276D01*
X157700Y86600D02*
X226276Y86600D01*
Y82900D02*
Y105500D01*
X157700Y82900D02*
X226276D01*
X148900Y82933D02*
Y112067D01*
X130081D02*
X152719D01*
Y82933D02*
Y112067D01*
X130081Y82933D02*
X152719D01*
X130081D02*
Y112067D01*
X82000Y49063D02*
X102000D01*
X82000Y56937D02*
X102000D01*
Y49063D02*
Y56937D01*
X82000Y49063D02*
Y56937D01*
X102000Y53000D02*
X106000D01*
X78000D02*
X82000D01*
X104862Y94303D02*
Y94697D01*
X100138Y94303D02*
Y94697D01*
X99303Y123138D02*
X99697D01*
X99303Y127862D02*
X99697D01*
X86303D02*
X86697D01*
X86303Y123138D02*
X86697D01*
X86303Y113862D02*
X86697D01*
X86303Y109138D02*
X86697D01*
X99303D02*
X99697D01*
X99303Y113862D02*
X99697D01*
X69941Y136500D02*
X75059D01*
X69941Y122500D02*
X75059D01*
X69941D02*
Y125500D01*
Y133500D02*
Y136500D01*
Y118500D02*
X75059D01*
X69941Y104500D02*
X75059D01*
X69941D02*
Y107500D01*
Y115500D02*
Y118500D01*
X62504Y83244D02*
X80496D01*
X62504Y98756D02*
X80496D01*
X39862Y90803D02*
Y91197D01*
X35138Y90803D02*
Y91197D01*
X32500Y134500D02*
X60500D01*
X32500Y106500D02*
X60500D01*
Y134500D01*
X32500Y106500D02*
Y134500D01*
X53803Y142362D02*
X54197D01*
X53803Y137638D02*
X54197D01*
X39803D02*
X40197D01*
X39803Y142362D02*
X40197D01*
X40362Y162303D02*
Y162697D01*
X35638Y162303D02*
Y162697D01*
X40303Y186862D02*
X40697D01*
X40303Y182138D02*
X40697D01*
X54303D02*
X54697D01*
X54303Y186862D02*
X54697D01*
X62504Y157756D02*
X80496D01*
X62504Y142244D02*
X80496D01*
X62504Y166744D02*
X80496D01*
X62504Y182256D02*
X80496D01*
X104862Y177803D02*
Y178197D01*
X100138Y177803D02*
Y178197D01*
X99303Y192638D02*
X99697D01*
X99303Y197362D02*
X99697D01*
X86303D02*
X86697D01*
X86303Y192638D02*
X86697D01*
X86303Y211362D02*
X86697D01*
X86303Y206638D02*
X86697D01*
X99303D02*
X99697D01*
X99303Y211362D02*
X99697D01*
X104862Y229803D02*
Y230197D01*
X100138Y229803D02*
Y230197D01*
X69941Y199000D02*
Y202000D01*
Y188000D02*
Y191000D01*
Y188000D02*
X75059D01*
X69941Y202000D02*
X75059D01*
X69941Y217000D02*
Y220000D01*
Y206000D02*
Y209000D01*
Y206000D02*
X75059D01*
X69941Y220000D02*
X75059D01*
X60500Y190000D02*
Y218000D01*
X32500Y190000D02*
Y218000D01*
X60500D01*
X32500Y190000D02*
X60500D01*
X106303Y255862D02*
X106697D01*
X106303Y251138D02*
X106697D01*
X113500Y261441D02*
Y266559D01*
X99500Y261441D02*
Y266559D01*
X102500D01*
X110500D02*
X113500D01*
X106303Y290862D02*
X106697D01*
X106303Y286138D02*
X106697D01*
X122362Y284803D02*
Y285197D01*
X117638Y284803D02*
Y285197D01*
X122362Y271303D02*
Y271697D01*
X117638Y271303D02*
Y271697D01*
X99500Y275441D02*
Y280559D01*
X113500Y275441D02*
Y280559D01*
X110500Y275441D02*
X113500D01*
X99500D02*
X102500D01*
X62500Y282000D02*
X82500D01*
X62500Y291000D02*
X82500D01*
X93362Y285303D02*
Y285697D01*
X88638Y285303D02*
Y285697D01*
X93362Y270303D02*
Y270697D01*
X88638Y270303D02*
Y270697D01*
X78941Y252500D02*
X84059D01*
X78941Y266500D02*
X84059D01*
Y263500D02*
Y266500D01*
Y252500D02*
Y255500D01*
X70862Y259303D02*
Y259697D01*
X66138Y259303D02*
Y259697D01*
X62504Y241256D02*
X80496D01*
X62504Y225744D02*
X80496D01*
X65500Y270941D02*
Y276059D01*
X79500Y270941D02*
Y276059D01*
X76500Y270941D02*
X79500D01*
X65500D02*
X68500D01*
X54862Y284803D02*
Y285197D01*
X50138Y284803D02*
Y285197D01*
X54862Y271303D02*
Y271697D01*
X50138Y271303D02*
Y271697D01*
X40362Y233303D02*
Y233697D01*
X35638Y233303D02*
Y233697D01*
X38803Y255862D02*
X39197D01*
X38803Y251138D02*
X39197D01*
X46000Y261441D02*
Y266559D01*
X32000Y261441D02*
Y266559D01*
X35000D01*
X43000D02*
X46000D01*
X32000Y275441D02*
Y280559D01*
X46000Y275441D02*
Y280559D01*
X43000Y275441D02*
X46000D01*
X32000D02*
X35000D01*
X38803Y286138D02*
X39197D01*
X38803Y290862D02*
X39197D01*
X189000Y282000D02*
Y287000D01*
Y317000D02*
Y322000D01*
X181913Y287000D02*
X196087D01*
X181913Y317000D02*
X196087D01*
Y287000D02*
Y317000D01*
X181913Y287000D02*
Y317000D01*
X167362Y304803D02*
Y305197D01*
X162638Y304803D02*
Y305197D01*
X167362Y288803D02*
Y289197D01*
X162638Y288803D02*
Y289197D01*
X135945Y281362D02*
Y326638D01*
X154055Y281362D02*
Y326638D01*
X135945D02*
X154055D01*
X135945Y281362D02*
X154055D01*
X145000Y279000D02*
Y281362D01*
Y326638D02*
Y329000D01*
X101803Y359362D02*
X102197D01*
X101803Y354638D02*
X102197D01*
X55803Y359362D02*
X56197D01*
X55803Y354638D02*
X56197D01*
X104862Y146303D02*
Y146697D01*
X100138Y146303D02*
Y146697D01*
X2800Y138000D02*
Y186900D01*
X6600Y138000D02*
Y186900D01*
X2800D02*
X25419D01*
Y138000D02*
Y186900D01*
X2800Y138000D02*
X25419D01*
D13*
X191000Y120000D02*
X200000D01*
X191000Y130000D02*
X200000D01*
D14*
X188000Y32000D02*
Y39997D01*
X191999D01*
X193332Y38664D01*
Y35999D01*
X191999Y34666D01*
X188000D01*
X195997Y32000D02*
Y37332D01*
X198663Y39997D01*
X201329Y37332D01*
Y32000D01*
Y35999D01*
X195997D01*
X209326Y38664D02*
X207994Y39997D01*
X205328D01*
X203995Y38664D01*
Y33333D01*
X205328Y32000D01*
X207994D01*
X209326Y33333D01*
X211992Y39997D02*
Y32000D01*
Y34666D01*
X217324Y39997D01*
X213325Y35999D01*
X217324Y32000D01*
X219990Y35999D02*
X225321D01*
X188000Y348000D02*
Y355997D01*
X191999D01*
X193332Y354664D01*
Y351999D01*
X191999Y350666D01*
X188000D01*
X195997Y348000D02*
Y353332D01*
X198663Y355997D01*
X201329Y353332D01*
Y348000D01*
Y351999D01*
X195997D01*
X209326Y354664D02*
X207994Y355997D01*
X205328D01*
X203995Y354664D01*
Y349333D01*
X205328Y348000D01*
X207994D01*
X209326Y349333D01*
X211992Y355997D02*
Y348000D01*
Y350666D01*
X217324Y355997D01*
X213325Y351999D01*
X217324Y348000D01*
X219990Y351999D02*
X225321D01*
X222655Y354664D02*
Y349333D01*
X3000Y39997D02*
Y32000D01*
X6999D01*
X8332Y33333D01*
Y34666D01*
X6999Y35999D01*
X3000D01*
X6999D01*
X8332Y37332D01*
Y38664D01*
X6999Y39997D01*
X3000D01*
X10997Y32000D02*
Y37332D01*
X13663Y39997D01*
X16329Y37332D01*
Y32000D01*
Y35999D01*
X10997D01*
X18995Y39997D02*
X24326D01*
X21661D01*
Y32000D01*
X26992Y39997D02*
X32324D01*
X29658D01*
Y32000D01*
X34990Y35999D02*
X40321D01*
X4000Y358997D02*
Y351000D01*
X7999D01*
X9332Y352333D01*
Y353666D01*
X7999Y354999D01*
X4000D01*
X7999D01*
X9332Y356332D01*
Y357664D01*
X7999Y358997D01*
X4000D01*
X11997Y351000D02*
Y356332D01*
X14663Y358997D01*
X17329Y356332D01*
Y351000D01*
Y354999D01*
X11997D01*
X19995Y358997D02*
X25326D01*
X22661D01*
Y351000D01*
X27992Y358997D02*
X33324D01*
X30658D01*
Y351000D01*
X35990Y354999D02*
X41321D01*
X38655Y357664D02*
Y352333D01*
D15*
X195868Y242466D02*
X195201Y241799D01*
Y240466D01*
X195868Y239800D01*
X198533D01*
X199200Y240466D01*
Y241799D01*
X198533Y242466D01*
X197201D01*
Y241133D01*
X195201Y245800D02*
X199200D01*
Y247799D01*
X198533Y248466D01*
X195868D01*
X195201Y247799D01*
Y245800D01*
X195868Y254466D02*
X195201Y253799D01*
Y252466D01*
X195868Y251800D01*
X198533D01*
X199200Y252466D01*
Y253799D01*
X198533Y254466D01*
X195201Y212800D02*
X199200D01*
Y214799D01*
X198533Y215466D01*
X195868D01*
X195201Y214799D01*
Y212800D01*
X199200Y216799D02*
X196534D01*
X195201Y218132D01*
X196534Y219464D01*
X199200D01*
X197201D01*
Y216799D01*
X195201Y220797D02*
Y223463D01*
Y222130D01*
X199200D01*
X195868Y201466D02*
X195201Y200799D01*
Y199467D01*
X195868Y198800D01*
X198533D01*
X199200Y199467D01*
Y200799D01*
X198533Y201466D01*
X195201Y202799D02*
X199200D01*
Y205465D01*
X195201Y206797D02*
X199200D01*
X197867D01*
X195201Y209463D01*
X197201Y207464D01*
X199200Y209463D01*
X195868Y195466D02*
X195201Y194799D01*
Y193466D01*
X195868Y192800D01*
X198533D01*
X199200Y193466D01*
Y194799D01*
X198533Y195466D01*
X197201D01*
Y194133D01*
X195200Y115800D02*
Y118466D01*
Y131800D02*
Y134466D01*
X194201Y121800D02*
Y124466D01*
Y123133D01*
X198200D01*
X194868Y125799D02*
X194201Y126465D01*
Y127798D01*
X194868Y128464D01*
X195534D01*
X196201Y127798D01*
Y127132D01*
Y127798D01*
X196867Y128464D01*
X197534D01*
X198200Y127798D01*
Y126465D01*
X197534Y125799D01*
X194201Y137800D02*
Y140466D01*
Y139133D01*
X198200D01*
Y144465D02*
Y141799D01*
X195534Y144465D01*
X194868D01*
X194201Y143798D01*
Y142465D01*
X194868Y141799D01*
X195200Y147800D02*
Y150466D01*
X194201Y153800D02*
Y156466D01*
Y155133D01*
X198200D01*
Y157799D02*
Y159132D01*
Y158465D01*
X194201D01*
X194868Y157799D01*
X172800Y76133D02*
X175466D01*
X174133Y77466D02*
Y74800D01*
X204466Y77799D02*
X201800D01*
Y75799D01*
X203133Y76466D01*
X203799D01*
X204466Y75799D01*
Y74466D01*
X203799Y73800D01*
X202467D01*
X201800Y74466D01*
X197799Y73800D02*
Y77799D01*
X195800Y75799D01*
X198466D01*
X189800Y77132D02*
X190466Y77799D01*
X191799D01*
X192466Y77132D01*
Y76466D01*
X191799Y75799D01*
X191133D01*
X191799D01*
X192466Y75133D01*
Y74466D01*
X191799Y73800D01*
X190466D01*
X189800Y74466D01*
X186466Y73800D02*
X183800D01*
X186466Y76466D01*
Y77132D01*
X185799Y77799D01*
X184467D01*
X183800Y77132D01*
X178800Y73800D02*
X180133D01*
X179466D01*
Y77799D01*
X178800Y77132D01*
D16*
X176334Y146999D02*
Y143667D01*
X177001Y143001D01*
X178333D01*
X179000Y143667D01*
Y146999D01*
X180333Y143001D02*
X181666D01*
X180999D01*
Y146999D01*
X180333Y146333D01*
X88668Y252001D02*
Y255999D01*
X90668D01*
X91334Y255333D01*
Y254000D01*
X90668Y253334D01*
X88668D01*
X90001D02*
X91334Y252001D01*
X94666D02*
Y255999D01*
X92667Y254000D01*
X95333D01*
X96666Y255333D02*
X97332Y255999D01*
X98665D01*
X99332Y255333D01*
Y252667D01*
X98665Y252001D01*
X97332D01*
X96666Y252667D01*
Y255333D01*
X35333Y341667D02*
Y344333D01*
X34667Y344999D01*
X33334D01*
X32668Y344333D01*
Y341667D01*
X33334Y341001D01*
X34667D01*
X34001Y342334D02*
X35333Y341001D01*
X34667D02*
X35333Y341667D01*
X39332Y344999D02*
X37999Y344333D01*
X36666Y343000D01*
Y341667D01*
X37333Y341001D01*
X38666D01*
X39332Y341667D01*
Y342334D01*
X38666Y343000D01*
X36666D01*
X87335Y43001D02*
Y46999D01*
X89334D01*
X90001Y46333D01*
Y45000D01*
X89334Y44334D01*
X87335D01*
X88668D02*
X90001Y43001D01*
X93333D02*
Y46999D01*
X91334Y45000D01*
X93999D01*
X95332Y43001D02*
X96665D01*
X95999D01*
Y46999D01*
X95332Y46333D01*
X20668Y252001D02*
Y255999D01*
X22668D01*
X23334Y255333D01*
Y254000D01*
X22668Y253334D01*
X20668D01*
X22001D02*
X23334Y252001D01*
X24667Y255333D02*
X25333Y255999D01*
X26666D01*
X27333Y255333D01*
Y254666D01*
X26666Y254000D01*
X26000D01*
X26666D01*
X27333Y253334D01*
Y252667D01*
X26666Y252001D01*
X25333D01*
X24667Y252667D01*
X28666D02*
X29332Y252001D01*
X30665D01*
X31332Y252667D01*
Y255333D01*
X30665Y255999D01*
X29332D01*
X28666Y255333D01*
Y254666D01*
X29332Y254000D01*
X31332D01*
X128999Y266668D02*
X125001D01*
Y268668D01*
X125667Y269334D01*
X127000D01*
X127666Y268668D01*
Y266668D01*
Y268001D02*
X128999Y269334D01*
X125667Y270667D02*
X125001Y271334D01*
Y272666D01*
X125667Y273333D01*
X126333D01*
X127000Y272666D01*
Y272000D01*
Y272666D01*
X127666Y273333D01*
X128333D01*
X128999Y272666D01*
Y271334D01*
X128333Y270667D01*
X125667Y274666D02*
X125001Y275332D01*
Y276665D01*
X125667Y277332D01*
X126333D01*
X127000Y276665D01*
X127666Y277332D01*
X128333D01*
X128999Y276665D01*
Y275332D01*
X128333Y274666D01*
X127666D01*
X127000Y275332D01*
X126333Y274666D01*
X125667D01*
X127000Y275332D02*
Y276665D01*
X60500Y268001D02*
X57500D01*
Y269501D01*
X58000Y270001D01*
X59000D01*
X59500Y269501D01*
Y268001D01*
Y269001D02*
X60500Y270001D01*
X58000Y271000D02*
X57500Y271500D01*
Y272500D01*
X58000Y273000D01*
X58500D01*
X59000Y272500D01*
Y272000D01*
Y272500D01*
X59500Y273000D01*
X60000D01*
X60500Y272500D01*
Y271500D01*
X60000Y271000D01*
X57500Y273999D02*
Y275999D01*
X58000D01*
X60000Y273999D01*
X60500D01*
X63999Y254668D02*
X60001D01*
Y256668D01*
X60667Y257334D01*
X62000D01*
X62666Y256668D01*
Y254668D01*
Y256001D02*
X63999Y257334D01*
X60667Y258667D02*
X60001Y259334D01*
Y260666D01*
X60667Y261333D01*
X61334D01*
X62000Y260666D01*
Y260000D01*
Y260666D01*
X62666Y261333D01*
X63333D01*
X63999Y260666D01*
Y259334D01*
X63333Y258667D01*
X60001Y265332D02*
X60667Y263999D01*
X62000Y262666D01*
X63333D01*
X63999Y263332D01*
Y264665D01*
X63333Y265332D01*
X62666D01*
X62000Y264665D01*
Y262666D01*
X128999Y279668D02*
X125001D01*
Y281668D01*
X125667Y282334D01*
X127000D01*
X127666Y281668D01*
Y279668D01*
Y281001D02*
X128999Y282334D01*
X125667Y283667D02*
X125001Y284334D01*
Y285666D01*
X125667Y286333D01*
X126333D01*
X127000Y285666D01*
Y285000D01*
Y285666D01*
X127666Y286333D01*
X128333D01*
X128999Y285666D01*
Y284334D01*
X128333Y283667D01*
X125001Y290332D02*
Y287666D01*
X127000D01*
X126333Y288999D01*
Y289665D01*
X127000Y290332D01*
X128333D01*
X128999Y289665D01*
Y288332D01*
X128333Y287666D01*
X60500Y281001D02*
X57500D01*
Y282501D01*
X58000Y283001D01*
X59000D01*
X59500Y282501D01*
Y281001D01*
Y282001D02*
X60500Y283001D01*
X58000Y284000D02*
X57500Y284500D01*
Y285500D01*
X58000Y286000D01*
X58500D01*
X59000Y285500D01*
Y285000D01*
Y285500D01*
X59500Y286000D01*
X60000D01*
X60500Y285500D01*
Y284500D01*
X60000Y284000D01*
X60500Y288499D02*
X57500D01*
X59000Y286999D01*
Y288999D01*
X98000Y266501D02*
X95000D01*
Y268001D01*
X95500Y268501D01*
X96500D01*
X97000Y268001D01*
Y266501D01*
Y267501D02*
X98000Y268501D01*
X95500Y269500D02*
X95000Y270000D01*
Y271000D01*
X95500Y271500D01*
X96000D01*
X96500Y271000D01*
Y270500D01*
Y271000D01*
X97000Y271500D01*
X97500D01*
X98000Y271000D01*
Y270000D01*
X97500Y269500D01*
X95500Y272499D02*
X95000Y272999D01*
Y273999D01*
X95500Y274499D01*
X96000D01*
X96500Y273999D01*
Y273499D01*
Y273999D01*
X97000Y274499D01*
X97500D01*
X98000Y273999D01*
Y272999D01*
X97500Y272499D01*
X101168Y293001D02*
Y296999D01*
X103168D01*
X103834Y296333D01*
Y295000D01*
X103168Y294334D01*
X101168D01*
X102501D02*
X103834Y293001D01*
X105167Y296333D02*
X105833Y296999D01*
X107167D01*
X107833Y296333D01*
Y295666D01*
X107167Y295000D01*
X106500D01*
X107167D01*
X107833Y294334D01*
Y293667D01*
X107167Y293001D01*
X105833D01*
X105167Y293667D01*
X111832Y293001D02*
X109166D01*
X111832Y295666D01*
Y296333D01*
X111165Y296999D01*
X109832D01*
X109166Y296333D01*
X34335Y293501D02*
Y297499D01*
X36334D01*
X37001Y296833D01*
Y295500D01*
X36334Y294834D01*
X34335D01*
X35668D02*
X37001Y293501D01*
X38334Y296833D02*
X39000Y297499D01*
X40333D01*
X40999Y296833D01*
Y296166D01*
X40333Y295500D01*
X39666D01*
X40333D01*
X40999Y294834D01*
Y294167D01*
X40333Y293501D01*
X39000D01*
X38334Y294167D01*
X42332Y293501D02*
X43665D01*
X42999D01*
Y297499D01*
X42332Y296833D01*
X98500Y281501D02*
X95500D01*
Y283001D01*
X96000Y283501D01*
X97000D01*
X97500Y283001D01*
Y281501D01*
Y282501D02*
X98500Y283501D01*
X96000Y284500D02*
X95500Y285000D01*
Y286000D01*
X96000Y286500D01*
X96500D01*
X97000Y286000D01*
Y285500D01*
Y286000D01*
X97500Y286500D01*
X98000D01*
X98500Y286000D01*
Y285000D01*
X98000Y284500D01*
X96000Y287499D02*
X95500Y287999D01*
Y288999D01*
X96000Y289499D01*
X98000D01*
X98500Y288999D01*
Y287999D01*
X98000Y287499D01*
X96000D01*
X123668Y301001D02*
Y304999D01*
X125668D01*
X126334Y304333D01*
Y303000D01*
X125668Y302334D01*
X123668D01*
X125001D02*
X126334Y301001D01*
X130333D02*
X127667D01*
X130333Y303666D01*
Y304333D01*
X129666Y304999D01*
X128333D01*
X127667Y304333D01*
X131666Y301667D02*
X132332Y301001D01*
X133665D01*
X134332Y301667D01*
Y304333D01*
X133665Y304999D01*
X132332D01*
X131666Y304333D01*
Y303666D01*
X132332Y303000D01*
X134332D01*
X107668Y92001D02*
Y95999D01*
X109668D01*
X110334Y95333D01*
Y94000D01*
X109668Y93334D01*
X107668D01*
X109001D02*
X110334Y92001D01*
X114333D02*
X111667D01*
X114333Y94666D01*
Y95333D01*
X113666Y95999D01*
X112334D01*
X111667Y95333D01*
X115666D02*
X116332Y95999D01*
X117665D01*
X118332Y95333D01*
Y94666D01*
X117665Y94000D01*
X118332Y93334D01*
Y92667D01*
X117665Y92001D01*
X116332D01*
X115666Y92667D01*
Y93334D01*
X116332Y94000D01*
X115666Y94666D01*
Y95333D01*
X116332Y94000D02*
X117665D01*
X93668Y117001D02*
Y120999D01*
X95668D01*
X96334Y120333D01*
Y119000D01*
X95668Y118333D01*
X93668D01*
X95001D02*
X96334Y117001D01*
X100333D02*
X97667D01*
X100333Y119667D01*
Y120333D01*
X99666Y120999D01*
X98334D01*
X97667Y120333D01*
X101666Y120999D02*
X104332D01*
Y120333D01*
X101666Y117667D01*
Y117001D01*
X32668Y145001D02*
Y148999D01*
X34668D01*
X35334Y148333D01*
Y147000D01*
X34668Y146334D01*
X32668D01*
X34001D02*
X35334Y145001D01*
X39333D02*
X36667D01*
X39333Y147667D01*
Y148333D01*
X38666Y148999D01*
X37334D01*
X36667Y148333D01*
X43332Y148999D02*
X41999Y148333D01*
X40666Y147000D01*
Y145667D01*
X41332Y145001D01*
X42665D01*
X43332Y145667D01*
Y146334D01*
X42665Y147000D01*
X40666D01*
X106668Y176001D02*
Y179999D01*
X108668D01*
X109334Y179333D01*
Y178000D01*
X108668Y177333D01*
X106668D01*
X108001D02*
X109334Y176001D01*
X113333D02*
X110667D01*
X113333Y178666D01*
Y179333D01*
X112666Y179999D01*
X111334D01*
X110667Y179333D01*
X117332Y179999D02*
X114666D01*
Y178000D01*
X115999Y178666D01*
X116665D01*
X117332Y178000D01*
Y176667D01*
X116665Y176001D01*
X115332D01*
X114666Y176667D01*
X93668Y132001D02*
Y135999D01*
X95668D01*
X96334Y135333D01*
Y134000D01*
X95668Y133334D01*
X93668D01*
X95001D02*
X96334Y132001D01*
X100333D02*
X97667D01*
X100333Y134667D01*
Y135333D01*
X99666Y135999D01*
X98334D01*
X97667Y135333D01*
X103665Y132001D02*
Y135999D01*
X101666Y134000D01*
X104332D01*
X93668Y200001D02*
Y203999D01*
X95668D01*
X96334Y203333D01*
Y202000D01*
X95668Y201333D01*
X93668D01*
X95001D02*
X96334Y200001D01*
X100333D02*
X97667D01*
X100333Y202666D01*
Y203333D01*
X99666Y203999D01*
X98334D01*
X97667Y203333D01*
X101666D02*
X102332Y203999D01*
X103665D01*
X104332Y203333D01*
Y202666D01*
X103665Y202000D01*
X102999D01*
X103665D01*
X104332Y201333D01*
Y200667D01*
X103665Y200001D01*
X102332D01*
X101666Y200667D01*
X98800Y157200D02*
Y161199D01*
X100799D01*
X101466Y160532D01*
Y159199D01*
X100799Y158533D01*
X98800D01*
X100133D02*
X101466Y157200D01*
X105464D02*
X102799D01*
X105464Y159866D01*
Y160532D01*
X104798Y161199D01*
X103465D01*
X102799Y160532D01*
X109463Y157200D02*
X106797D01*
X109463Y159866D01*
Y160532D01*
X108797Y161199D01*
X107464D01*
X106797Y160532D01*
X33335Y176001D02*
Y179999D01*
X35334D01*
X36001Y179333D01*
Y178000D01*
X35334Y177333D01*
X33335D01*
X34668D02*
X36001Y176001D01*
X39999D02*
X37334D01*
X39999Y178666D01*
Y179333D01*
X39333Y179999D01*
X38000D01*
X37334Y179333D01*
X41332Y176001D02*
X42665D01*
X41999D01*
Y179999D01*
X41332Y179333D01*
X93668Y215001D02*
Y218999D01*
X95668D01*
X96334Y218333D01*
Y217000D01*
X95668Y216334D01*
X93668D01*
X95001D02*
X96334Y215001D01*
X100333D02*
X97667D01*
X100333Y217666D01*
Y218333D01*
X99666Y218999D01*
X98334D01*
X97667Y218333D01*
X101666D02*
X102332Y218999D01*
X103665D01*
X104332Y218333D01*
Y215667D01*
X103665Y215001D01*
X102332D01*
X101666Y215667D01*
Y218333D01*
X107002Y228001D02*
Y231999D01*
X109001D01*
X109667Y231333D01*
Y230000D01*
X109001Y229334D01*
X107002D01*
X108335D02*
X109667Y228001D01*
X111000D02*
X112333D01*
X111667D01*
Y231999D01*
X111000Y231333D01*
X114333Y228667D02*
X114999Y228001D01*
X116332D01*
X116998Y228667D01*
Y231333D01*
X116332Y231999D01*
X114999D01*
X114333Y231333D01*
Y230666D01*
X114999Y230000D01*
X116998D01*
X124002Y171001D02*
Y174999D01*
X126001D01*
X126667Y174333D01*
Y173000D01*
X126001Y172334D01*
X124002D01*
X125335D02*
X126667Y171001D01*
X128000D02*
X129333D01*
X128667D01*
Y174999D01*
X128000Y174333D01*
X131333D02*
X131999Y174999D01*
X133332D01*
X133998Y174333D01*
Y173667D01*
X133332Y173000D01*
X133998Y172334D01*
Y171667D01*
X133332Y171001D01*
X131999D01*
X131333Y171667D01*
Y172334D01*
X131999Y173000D01*
X131333Y173667D01*
Y174333D01*
X131999Y173000D02*
X133332D01*
X128002Y191001D02*
Y194999D01*
X130001D01*
X130667Y194333D01*
Y193000D01*
X130001Y192333D01*
X128002D01*
X129334D02*
X130667Y191001D01*
X132000D02*
X133333D01*
X132667D01*
Y194999D01*
X132000Y194333D01*
X135333Y194999D02*
X137998D01*
Y194333D01*
X135333Y191667D01*
Y191001D01*
X176002Y127001D02*
Y130999D01*
X178001D01*
X178667Y130333D01*
Y129000D01*
X178001Y128333D01*
X176002D01*
X177334D02*
X178667Y127001D01*
X180000D02*
X181333D01*
X180667D01*
Y130999D01*
X180000Y130333D01*
X185998Y130999D02*
X184666Y130333D01*
X183333Y129000D01*
Y127667D01*
X183999Y127001D01*
X185332D01*
X185998Y127667D01*
Y128333D01*
X185332Y129000D01*
X183333D01*
X121002Y248001D02*
Y251999D01*
X123001D01*
X123667Y251333D01*
Y250000D01*
X123001Y249334D01*
X121002D01*
X122335D02*
X123667Y248001D01*
X125000D02*
X126333D01*
X125667D01*
Y251999D01*
X125000Y251333D01*
X130998Y251999D02*
X128333D01*
Y250000D01*
X129666Y250666D01*
X130332D01*
X130998Y250000D01*
Y248667D01*
X130332Y248001D01*
X128999D01*
X128333Y248667D01*
X158002Y248001D02*
Y251999D01*
X160001D01*
X160667Y251333D01*
Y250000D01*
X160001Y249334D01*
X158002D01*
X159335D02*
X160667Y248001D01*
X162000D02*
X163333D01*
X162667D01*
Y251999D01*
X162000Y251333D01*
X167332Y248001D02*
Y251999D01*
X165333Y250000D01*
X167998D01*
X185000Y198251D02*
X182001D01*
Y199751D01*
X182500Y200251D01*
X183500D01*
X184000Y199751D01*
Y198251D01*
Y199251D02*
X185000Y200251D01*
Y201250D02*
Y202250D01*
Y201750D01*
X182001D01*
X182500Y201250D01*
Y203749D02*
X182001Y204249D01*
Y205249D01*
X182500Y205749D01*
X183000D01*
X183500Y205249D01*
Y204749D01*
Y205249D01*
X184000Y205749D01*
X184500D01*
X185000Y205249D01*
Y204249D01*
X184500Y203749D01*
X121002Y215001D02*
Y218999D01*
X123001D01*
X123667Y218333D01*
Y217000D01*
X123001Y216334D01*
X121002D01*
X122335D02*
X123667Y215001D01*
X125000D02*
X126333D01*
X125667D01*
Y218999D01*
X125000Y218333D01*
X130998Y215001D02*
X128333D01*
X130998Y217666D01*
Y218333D01*
X130332Y218999D01*
X128999D01*
X128333Y218333D01*
X148000Y211751D02*
X145001D01*
Y213251D01*
X145500Y213750D01*
X146500D01*
X147000Y213251D01*
Y211751D01*
Y212751D02*
X148000Y213750D01*
Y214750D02*
Y215750D01*
Y215250D01*
X145001D01*
X145500Y214750D01*
X148000Y217249D02*
Y218249D01*
Y217749D01*
X145001D01*
X145500Y217249D01*
X148000Y198251D02*
X145001D01*
Y199751D01*
X145500Y200251D01*
X146500D01*
X147000Y199751D01*
Y198251D01*
Y199251D02*
X148000Y200251D01*
Y201250D02*
Y202250D01*
Y201750D01*
X145001D01*
X145500Y201250D01*
Y203749D02*
X145001Y204249D01*
Y205249D01*
X145500Y205749D01*
X147500D01*
X148000Y205249D01*
Y204249D01*
X147500Y203749D01*
X145500D01*
X185000Y212501D02*
X182001D01*
Y214000D01*
X182500Y214500D01*
X183500D01*
X184000Y214000D01*
Y212501D01*
Y213500D02*
X185000Y214500D01*
X184500Y215500D02*
X185000Y216000D01*
Y216999D01*
X184500Y217499D01*
X182500D01*
X182001Y216999D01*
Y216000D01*
X182500Y215500D01*
X183000D01*
X183500Y216000D01*
Y217499D01*
X159668Y215001D02*
Y218999D01*
X161667D01*
X162334Y218333D01*
Y217000D01*
X161667Y216334D01*
X159668D01*
X161001D02*
X162334Y215001D01*
X163666Y218333D02*
X164333Y218999D01*
X165666D01*
X166332Y218333D01*
Y217666D01*
X165666Y217000D01*
X166332Y216334D01*
Y215667D01*
X165666Y215001D01*
X164333D01*
X163666Y215667D01*
Y216334D01*
X164333Y217000D01*
X163666Y217666D01*
Y218333D01*
X164333Y217000D02*
X165666D01*
X185000Y245501D02*
X182001D01*
Y247000D01*
X182500Y247500D01*
X183500D01*
X184000Y247000D01*
Y245501D01*
Y246500D02*
X185000Y247500D01*
X182001Y248500D02*
Y250499D01*
X182500D01*
X184500Y248500D01*
X185000D01*
Y232501D02*
X182001D01*
Y234000D01*
X182500Y234500D01*
X183500D01*
X184000Y234000D01*
Y232501D01*
Y233501D02*
X185000Y234500D01*
X182001Y237499D02*
X182500Y236500D01*
X183500Y235500D01*
X184500D01*
X185000Y236000D01*
Y236999D01*
X184500Y237499D01*
X184000D01*
X183500Y236999D01*
Y235500D01*
X148000Y245501D02*
X145001D01*
Y247000D01*
X145500Y247500D01*
X146500D01*
X147000Y247000D01*
Y245501D01*
Y246500D02*
X148000Y247500D01*
X145001Y250499D02*
Y248500D01*
X146500D01*
X146000Y249500D01*
Y249999D01*
X146500Y250499D01*
X147500D01*
X148000Y249999D01*
Y249000D01*
X147500Y248500D01*
X148000Y232501D02*
X145001D01*
Y234000D01*
X145500Y234500D01*
X146500D01*
X147000Y234000D01*
Y232501D01*
Y233501D02*
X148000Y234500D01*
Y236999D02*
X145001D01*
X146500Y235500D01*
Y237499D01*
X176668Y111001D02*
Y114999D01*
X178667D01*
X179333Y114333D01*
Y113000D01*
X178667Y112334D01*
X176668D01*
X178001D02*
X179333Y111001D01*
X180666Y114333D02*
X181333Y114999D01*
X182666D01*
X183332Y114333D01*
Y113666D01*
X182666Y113000D01*
X181999D01*
X182666D01*
X183332Y112334D01*
Y111667D01*
X182666Y111001D01*
X181333D01*
X180666Y111667D01*
X117999Y159668D02*
X114001D01*
Y161667D01*
X114667Y162334D01*
X116000D01*
X116666Y161667D01*
Y159668D01*
Y161001D02*
X117999Y162334D01*
Y166332D02*
Y163666D01*
X115333Y166332D01*
X114667D01*
X114001Y165666D01*
Y164333D01*
X114667Y163666D01*
X146334Y120001D02*
Y123999D01*
X148334D01*
X149000Y123333D01*
Y122000D01*
X148334Y121334D01*
X146334D01*
X147667D02*
X149000Y120001D01*
X150333D02*
X151666D01*
X150999D01*
Y123999D01*
X150333Y123333D01*
X118667Y260667D02*
Y263333D01*
X118001Y263999D01*
X116668D01*
X116002Y263333D01*
Y260667D01*
X116668Y260001D01*
X118001D01*
X117334Y261334D02*
X118667Y260001D01*
X118001D02*
X118667Y260667D01*
X120000Y260001D02*
X121333D01*
X120667D01*
Y263999D01*
X120000Y263333D01*
X125332Y260001D02*
Y263999D01*
X123333Y262000D01*
X125998D01*
X21667Y262667D02*
Y265333D01*
X21001Y265999D01*
X19668D01*
X19002Y265333D01*
Y262667D01*
X19668Y262001D01*
X21001D01*
X20335Y263334D02*
X21667Y262001D01*
X21001D02*
X21667Y262667D01*
X23000Y262001D02*
X24333D01*
X23667D01*
Y265999D01*
X23000Y265333D01*
X26333D02*
X26999Y265999D01*
X28332D01*
X28998Y265333D01*
Y264666D01*
X28332Y264000D01*
X27665D01*
X28332D01*
X28998Y263334D01*
Y262667D01*
X28332Y262001D01*
X26999D01*
X26333Y262667D01*
X79167Y247167D02*
Y249833D01*
X78501Y250499D01*
X77168D01*
X76502Y249833D01*
Y247167D01*
X77168Y246501D01*
X78501D01*
X77834Y247834D02*
X79167Y246501D01*
X78501D02*
X79167Y247167D01*
X80500Y246501D02*
X81833D01*
X81167D01*
Y250499D01*
X80500Y249833D01*
X86498Y246501D02*
X83833D01*
X86498Y249166D01*
Y249833D01*
X85832Y250499D01*
X84499D01*
X83833Y249833D01*
X102500Y269750D02*
X100500D01*
X100001Y269251D01*
Y268251D01*
X100500Y267751D01*
X102500D01*
X102999Y268251D01*
Y269251D01*
X102000Y268751D02*
X102999Y269750D01*
Y269251D02*
X102500Y269750D01*
X102999Y270750D02*
Y271750D01*
Y271250D01*
X100001D01*
X100500Y270750D01*
X102999Y273249D02*
Y274249D01*
Y273749D01*
X100001D01*
X100500Y273249D01*
X21667Y269667D02*
Y272333D01*
X21001Y272999D01*
X19668D01*
X19002Y272333D01*
Y269667D01*
X19668Y269001D01*
X21001D01*
X20335Y270334D02*
X21667Y269001D01*
X21001D02*
X21667Y269667D01*
X23000Y269001D02*
X24333D01*
X23667D01*
Y272999D01*
X23000Y272333D01*
X26333D02*
X26999Y272999D01*
X28332D01*
X28998Y272333D01*
Y269667D01*
X28332Y269001D01*
X26999D01*
X26333Y269667D01*
Y272333D01*
X81334Y320667D02*
Y323333D01*
X80667Y323999D01*
X79334D01*
X78668Y323333D01*
Y320667D01*
X79334Y320001D01*
X80667D01*
X80001Y321334D02*
X81334Y320001D01*
X80667D02*
X81334Y320667D01*
X82666D02*
X83333Y320001D01*
X84666D01*
X85332Y320667D01*
Y323333D01*
X84666Y323999D01*
X83333D01*
X82666Y323333D01*
Y322666D01*
X83333Y322000D01*
X85332D01*
X35333Y320667D02*
Y323333D01*
X34667Y323999D01*
X33334D01*
X32668Y323333D01*
Y320667D01*
X33334Y320001D01*
X34667D01*
X34001Y321334D02*
X35333Y320001D01*
X34667D02*
X35333Y320667D01*
X36666Y323333D02*
X37333Y323999D01*
X38666D01*
X39332Y323333D01*
Y322666D01*
X38666Y322000D01*
X39332Y321334D01*
Y320667D01*
X38666Y320001D01*
X37333D01*
X36666Y320667D01*
Y321334D01*
X37333Y322000D01*
X36666Y322666D01*
Y323333D01*
X37333Y322000D02*
X38666D01*
X81334Y344667D02*
Y347333D01*
X80667Y347999D01*
X79334D01*
X78668Y347333D01*
Y344667D01*
X79334Y344001D01*
X80667D01*
X80001Y345334D02*
X81334Y344001D01*
X80667D02*
X81334Y344667D01*
X82666Y347999D02*
X85332D01*
Y347333D01*
X82666Y344667D01*
Y344001D01*
X84333Y273334D02*
X81667D01*
X81001Y272667D01*
Y271334D01*
X81667Y270668D01*
X84333D01*
X84999Y271334D01*
Y272667D01*
X83666Y272001D02*
X84999Y273334D01*
Y272667D02*
X84333Y273334D01*
X81001Y277332D02*
Y274667D01*
X83000D01*
X82333Y275999D01*
Y276666D01*
X83000Y277332D01*
X84333D01*
X84999Y276666D01*
Y275333D01*
X84333Y274667D01*
X64333Y115667D02*
Y118333D01*
X63667Y118999D01*
X62334D01*
X61668Y118333D01*
Y115667D01*
X62334Y115001D01*
X63667D01*
X63001Y116333D02*
X64333Y115001D01*
X63667D02*
X64333Y115667D01*
X67666Y115001D02*
Y118999D01*
X65666Y117000D01*
X68332D01*
X64333Y133667D02*
Y136333D01*
X63667Y136999D01*
X62334D01*
X61668Y136333D01*
Y133667D01*
X62334Y133001D01*
X63667D01*
X63001Y134334D02*
X64333Y133001D01*
X63667D02*
X64333Y133667D01*
X65666Y136333D02*
X66333Y136999D01*
X67666D01*
X68332Y136333D01*
Y135667D01*
X67666Y135000D01*
X66999D01*
X67666D01*
X68332Y134334D01*
Y133667D01*
X67666Y133001D01*
X66333D01*
X65666Y133667D01*
X64333Y200667D02*
Y203333D01*
X63667Y203999D01*
X62334D01*
X61668Y203333D01*
Y200667D01*
X62334Y200001D01*
X63667D01*
X63001Y201333D02*
X64333Y200001D01*
X63667D02*
X64333Y200667D01*
X68332Y200001D02*
X65666D01*
X68332Y202666D01*
Y203333D01*
X67666Y203999D01*
X66333D01*
X65666Y203333D01*
X65000Y218667D02*
Y221333D01*
X64333Y221999D01*
X63001D01*
X62334Y221333D01*
Y218667D01*
X63001Y218001D01*
X64333D01*
X63667Y219334D02*
X65000Y218001D01*
X64333D02*
X65000Y218667D01*
X66333Y218001D02*
X67666D01*
X66999D01*
Y221999D01*
X66333Y221333D01*
X19668Y121999D02*
Y118001D01*
X22333D01*
X26332D02*
X23666D01*
X26332Y120667D01*
Y121333D01*
X25666Y121999D01*
X24333D01*
X23666Y121333D01*
X22334Y205999D02*
Y202001D01*
X25000D01*
X26333D02*
X27666D01*
X26999D01*
Y205999D01*
X26333Y205333D01*
X216667Y69999D02*
X215335D01*
X216001D01*
Y66667D01*
X215335Y66001D01*
X214668D01*
X214002Y66667D01*
X218000Y66001D02*
X219333D01*
X218667D01*
Y69999D01*
X218000Y69333D01*
X221333D02*
X221999Y69999D01*
X223332D01*
X223998Y69333D01*
Y66667D01*
X223332Y66001D01*
X221999D01*
X221333Y66667D01*
Y69333D01*
X7333Y68999D02*
X6001D01*
X6667D01*
Y65667D01*
X6001Y65001D01*
X5334D01*
X4668Y65667D01*
X8666D02*
X9333Y65001D01*
X10666D01*
X11332Y65667D01*
Y68333D01*
X10666Y68999D01*
X9333D01*
X8666Y68333D01*
Y67666D01*
X9333Y67000D01*
X11332D01*
X196334Y188999D02*
X195001D01*
X195667D01*
Y185667D01*
X195001Y185001D01*
X194334D01*
X193668Y185667D01*
X197667Y188333D02*
X198333Y188999D01*
X199666D01*
X200332Y188333D01*
Y187666D01*
X199666Y187000D01*
X200332Y186334D01*
Y185667D01*
X199666Y185001D01*
X198333D01*
X197667Y185667D01*
Y186334D01*
X198333Y187000D01*
X197667Y187666D01*
Y188333D01*
X198333Y187000D02*
X199666D01*
X196334Y232999D02*
X195001D01*
X195667D01*
Y229667D01*
X195001Y229001D01*
X194334D01*
X193668Y229667D01*
X197667Y232999D02*
X200332D01*
Y232333D01*
X197667Y229667D01*
Y229001D01*
X158334Y110999D02*
X157001D01*
X157667D01*
Y107667D01*
X157001Y107001D01*
X156334D01*
X155668Y107667D01*
X162332Y110999D02*
X160999Y110333D01*
X159667Y109000D01*
Y107667D01*
X160333Y107001D01*
X161666D01*
X162332Y107667D01*
Y108334D01*
X161666Y109000D01*
X159667D01*
X4466Y193899D02*
X3133D01*
X3799D01*
Y190567D01*
X3133Y189900D01*
X2466D01*
X1800Y190567D01*
X8465Y193899D02*
X5799D01*
Y191899D01*
X7132Y192566D01*
X7798D01*
X8465Y191899D01*
Y190567D01*
X7798Y189900D01*
X6465D01*
X5799Y190567D01*
X122334Y87999D02*
X121001D01*
X121667D01*
Y84667D01*
X121001Y84001D01*
X120334D01*
X119668Y84667D01*
X125666Y84001D02*
Y87999D01*
X123667Y86000D01*
X126332D01*
X218334Y111999D02*
X217001D01*
X217667D01*
Y108667D01*
X217001Y108001D01*
X216334D01*
X215668Y108667D01*
X219667Y111333D02*
X220333Y111999D01*
X221666D01*
X222332Y111333D01*
Y110667D01*
X221666Y110000D01*
X220999D01*
X221666D01*
X222332Y109334D01*
Y108667D01*
X221666Y108001D01*
X220333D01*
X219667Y108667D01*
X219334Y344999D02*
X218001D01*
X218667D01*
Y341667D01*
X218001Y341001D01*
X217334D01*
X216668Y341667D01*
X223332Y341001D02*
X220666D01*
X223332Y343666D01*
Y344333D01*
X222666Y344999D01*
X221333D01*
X220666Y344333D01*
X8000Y345999D02*
X6667D01*
X7333D01*
Y342667D01*
X6667Y342001D01*
X6001D01*
X5334Y342667D01*
X9333Y342001D02*
X10666D01*
X9999D01*
Y345999D01*
X9333Y345333D01*
X200002Y313999D02*
Y310001D01*
X202001D01*
X202667Y310667D01*
Y313333D01*
X202001Y313999D01*
X200002D01*
X204000Y310001D02*
X205333D01*
X204667D01*
Y313999D01*
X204000Y313333D01*
X209332Y310001D02*
Y313999D01*
X207333Y312000D01*
X209998D01*
X68002Y296999D02*
Y293001D01*
X70001D01*
X70667Y293667D01*
Y296333D01*
X70001Y296999D01*
X68002D01*
X72000Y293001D02*
X73333D01*
X72667D01*
Y296999D01*
X72000Y296333D01*
X75333D02*
X75999Y296999D01*
X77332D01*
X77998Y296333D01*
Y295666D01*
X77332Y295000D01*
X76666D01*
X77332D01*
X77998Y294334D01*
Y293667D01*
X77332Y293001D01*
X75999D01*
X75333Y293667D01*
X89002Y83999D02*
Y80001D01*
X91001D01*
X91667Y80667D01*
Y83333D01*
X91001Y83999D01*
X89002D01*
X93000Y80001D02*
X94333D01*
X93667D01*
Y83999D01*
X93000Y83333D01*
X98998Y80001D02*
X96333D01*
X98998Y82666D01*
Y83333D01*
X98332Y83999D01*
X96999D01*
X96333Y83333D01*
X46668Y92999D02*
Y89001D01*
X48667D01*
X49334Y89667D01*
Y92333D01*
X48667Y92999D01*
X46668D01*
X50667Y89001D02*
X52000D01*
X51333D01*
Y92999D01*
X50667Y92333D01*
X53999Y89001D02*
X55332D01*
X54665D01*
Y92999D01*
X53999Y92333D01*
X96002Y188999D02*
Y185001D01*
X98001D01*
X98667Y185667D01*
Y188333D01*
X98001Y188999D01*
X96002D01*
X100000Y185001D02*
X101333D01*
X100667D01*
Y188999D01*
X100000Y188333D01*
X103333D02*
X103999Y188999D01*
X105332D01*
X105998Y188333D01*
Y185667D01*
X105332Y185001D01*
X103999D01*
X103333Y185667D01*
Y188333D01*
X48668Y156999D02*
Y153001D01*
X50667D01*
X51333Y153667D01*
Y156333D01*
X50667Y156999D01*
X48668D01*
X52666Y153667D02*
X53333Y153001D01*
X54666D01*
X55332Y153667D01*
Y156333D01*
X54666Y156999D01*
X53333D01*
X52666Y156333D01*
Y155666D01*
X53333Y155000D01*
X55332D01*
X47668Y173999D02*
Y170001D01*
X49667D01*
X50333Y170667D01*
Y173333D01*
X49667Y173999D01*
X47668D01*
X51666Y173333D02*
X52333Y173999D01*
X53666D01*
X54332Y173333D01*
Y172667D01*
X53666Y172000D01*
X54332Y171334D01*
Y170667D01*
X53666Y170001D01*
X52333D01*
X51666Y170667D01*
Y171334D01*
X52333Y172000D01*
X51666Y172667D01*
Y173333D01*
X52333Y172000D02*
X53666D01*
X89668Y159999D02*
Y156001D01*
X91667D01*
X92334Y156667D01*
Y159333D01*
X91667Y159999D01*
X89668D01*
X93666D02*
X96332D01*
Y159333D01*
X93666Y156667D01*
Y156001D01*
X49668Y234999D02*
Y231001D01*
X51667D01*
X52333Y231667D01*
Y234333D01*
X51667Y234999D01*
X49668D01*
X56332D02*
X54999Y234333D01*
X53666Y233000D01*
Y231667D01*
X54333Y231001D01*
X55666D01*
X56332Y231667D01*
Y232334D01*
X55666Y233000D01*
X53666D01*
X87668Y243999D02*
Y240001D01*
X89667D01*
X90333Y240667D01*
Y243333D01*
X89667Y243999D01*
X87668D01*
X94332D02*
X91666D01*
Y242000D01*
X92999Y242666D01*
X93666D01*
X94332Y242000D01*
Y240667D01*
X93666Y240001D01*
X92333D01*
X91666Y240667D01*
X172668Y225999D02*
Y222001D01*
X174667D01*
X175333Y222667D01*
Y225333D01*
X174667Y225999D01*
X172668D01*
X178666Y222001D02*
Y225999D01*
X176666Y224000D01*
X179332D01*
X135668Y225999D02*
Y222001D01*
X137667D01*
X138333Y222667D01*
Y225333D01*
X137667Y225999D01*
X135668D01*
X139666Y225333D02*
X140333Y225999D01*
X141666D01*
X142332Y225333D01*
Y224666D01*
X141666Y224000D01*
X140999D01*
X141666D01*
X142332Y223334D01*
Y222667D01*
X141666Y222001D01*
X140333D01*
X139666Y222667D01*
X135668Y258999D02*
Y255001D01*
X137667D01*
X138333Y255667D01*
Y258333D01*
X137667Y258999D01*
X135668D01*
X142332Y255001D02*
X139666D01*
X142332Y257666D01*
Y258333D01*
X141666Y258999D01*
X140333D01*
X139666Y258333D01*
X173334Y257999D02*
Y254001D01*
X175333D01*
X176000Y254667D01*
Y257333D01*
X175333Y257999D01*
X173334D01*
X177333Y254001D02*
X178666D01*
X177999D01*
Y257999D01*
X177333Y257333D01*
X171334Y303333D02*
X170668Y303999D01*
X169335D01*
X168668Y303333D01*
Y300667D01*
X169335Y300001D01*
X170668D01*
X171334Y300667D01*
X175333Y300001D02*
X172667D01*
X175333Y302666D01*
Y303333D01*
X174666Y303999D01*
X173334D01*
X172667Y303333D01*
X179332Y300001D02*
X176666D01*
X179332Y302666D01*
Y303333D01*
X178665Y303999D01*
X177332D01*
X176666Y303333D01*
X172001Y290333D02*
X171334Y290999D01*
X170001D01*
X169335Y290333D01*
Y287667D01*
X170001Y287001D01*
X171334D01*
X172001Y287667D01*
X175999Y287001D02*
X173334D01*
X175999Y289666D01*
Y290333D01*
X175333Y290999D01*
X174000D01*
X173334Y290333D01*
X177332Y287001D02*
X178665D01*
X177999D01*
Y290999D01*
X177332Y290333D01*
X112334Y358333D02*
X111668Y358999D01*
X110335D01*
X109668Y358333D01*
Y355667D01*
X110335Y355001D01*
X111668D01*
X112334Y355667D01*
X116333Y355001D02*
X113667D01*
X116333Y357666D01*
Y358333D01*
X115666Y358999D01*
X114333D01*
X113667Y358333D01*
X117666D02*
X118332Y358999D01*
X119665D01*
X120332Y358333D01*
Y355667D01*
X119665Y355001D01*
X118332D01*
X117666Y355667D01*
Y358333D01*
X66667D02*
X66001Y358999D01*
X64668D01*
X64002Y358333D01*
Y355667D01*
X64668Y355001D01*
X66001D01*
X66667Y355667D01*
X68000Y355001D02*
X69333D01*
X68667D01*
Y358999D01*
X68000Y358333D01*
X71333Y355667D02*
X71999Y355001D01*
X73332D01*
X73998Y355667D01*
Y358333D01*
X73332Y358999D01*
X71999D01*
X71333Y358333D01*
Y357666D01*
X71999Y357000D01*
X73998D01*
X20667Y93333D02*
X20001Y93999D01*
X18668D01*
X18002Y93333D01*
Y90667D01*
X18668Y90001D01*
X20001D01*
X20667Y90667D01*
X22000Y90001D02*
X23333D01*
X22667D01*
Y93999D01*
X22000Y93333D01*
X25333D02*
X25999Y93999D01*
X27332D01*
X27998Y93333D01*
Y92666D01*
X27332Y92000D01*
X27998Y91334D01*
Y90667D01*
X27332Y90001D01*
X25999D01*
X25333Y90667D01*
Y91334D01*
X25999Y92000D01*
X25333Y92666D01*
Y93333D01*
X25999Y92000D02*
X27332D01*
X83667Y120333D02*
X83001Y120999D01*
X81668D01*
X81002Y120333D01*
Y117667D01*
X81668Y117001D01*
X83001D01*
X83667Y117667D01*
X85000Y117001D02*
X86333D01*
X85667D01*
Y120999D01*
X85000Y120333D01*
X88333Y120999D02*
X90998D01*
Y120333D01*
X88333Y117667D01*
Y117001D01*
X48667Y148333D02*
X48001Y148999D01*
X46668D01*
X46002Y148333D01*
Y145667D01*
X46668Y145001D01*
X48001D01*
X48667Y145667D01*
X50000Y145001D02*
X51333D01*
X50667D01*
Y148999D01*
X50000Y148333D01*
X55998Y148999D02*
X54665Y148333D01*
X53333Y147000D01*
Y145667D01*
X53999Y145001D01*
X55332D01*
X55998Y145667D01*
Y146334D01*
X55332Y147000D01*
X53333D01*
X47667Y164333D02*
X47001Y164999D01*
X45668D01*
X45002Y164333D01*
Y161667D01*
X45668Y161001D01*
X47001D01*
X47667Y161667D01*
X49000Y161001D02*
X50333D01*
X49667D01*
Y164999D01*
X49000Y164333D01*
X54998Y164999D02*
X52333D01*
Y163000D01*
X53666Y163666D01*
X54332D01*
X54998Y163000D01*
Y161667D01*
X54332Y161001D01*
X52999D01*
X52333Y161667D01*
X83667Y135333D02*
X83001Y135999D01*
X81668D01*
X81002Y135333D01*
Y132667D01*
X81668Y132001D01*
X83001D01*
X83667Y132667D01*
X85000Y132001D02*
X86333D01*
X85667D01*
Y135999D01*
X85000Y135333D01*
X90332Y132001D02*
Y135999D01*
X88333Y134000D01*
X90998D01*
X83667Y203333D02*
X83001Y203999D01*
X81668D01*
X81002Y203333D01*
Y200667D01*
X81668Y200001D01*
X83001D01*
X83667Y200667D01*
X85000Y200001D02*
X86333D01*
X85667D01*
Y203999D01*
X85000Y203333D01*
X88333D02*
X88999Y203999D01*
X90332D01*
X90998Y203333D01*
Y202666D01*
X90332Y202000D01*
X89666D01*
X90332D01*
X90998Y201333D01*
Y200667D01*
X90332Y200001D01*
X88999D01*
X88333Y200667D01*
X47667Y179333D02*
X47001Y179999D01*
X45668D01*
X45002Y179333D01*
Y176667D01*
X45668Y176001D01*
X47001D01*
X47667Y176667D01*
X49000Y176001D02*
X50333D01*
X49667D01*
Y179999D01*
X49000Y179333D01*
X54998Y176001D02*
X52333D01*
X54998Y178666D01*
Y179333D01*
X54332Y179999D01*
X52999D01*
X52333Y179333D01*
X27334Y237333D02*
X26667Y237999D01*
X25335D01*
X24668Y237333D01*
Y234667D01*
X25335Y234001D01*
X26667D01*
X27334Y234667D01*
X28667Y234001D02*
X30000D01*
X29333D01*
Y237999D01*
X28667Y237333D01*
X31999Y234001D02*
X33332D01*
X32666D01*
Y237999D01*
X31999Y237333D01*
X83667Y218333D02*
X83001Y218999D01*
X81668D01*
X81002Y218333D01*
Y215667D01*
X81668Y215001D01*
X83001D01*
X83667Y215667D01*
X85000Y215001D02*
X86333D01*
X85667D01*
Y218999D01*
X85000Y218333D01*
X88333D02*
X88999Y218999D01*
X90332D01*
X90998Y218333D01*
Y215667D01*
X90332Y215001D01*
X88999D01*
X88333Y215667D01*
Y218333D01*
X150333Y181333D02*
X149667Y181999D01*
X148334D01*
X147668Y181333D01*
Y178667D01*
X148334Y178001D01*
X149667D01*
X150333Y178667D01*
X151666D02*
X152333Y178001D01*
X153666D01*
X154332Y178667D01*
Y181333D01*
X153666Y181999D01*
X152333D01*
X151666Y181333D01*
Y180666D01*
X152333Y180000D01*
X154332D01*
X135334Y157333D02*
X134667Y157999D01*
X133334D01*
X132668Y157333D01*
Y154667D01*
X133334Y154001D01*
X134667D01*
X135334Y154667D01*
X136667Y157333D02*
X137333Y157999D01*
X138666D01*
X139332Y157333D01*
Y156667D01*
X138666Y156000D01*
X139332Y155333D01*
Y154667D01*
X138666Y154001D01*
X137333D01*
X136667Y154667D01*
Y155333D01*
X137333Y156000D01*
X136667Y156667D01*
Y157333D01*
X137333Y156000D02*
X138666D01*
X137334Y128333D02*
X136667Y128999D01*
X135334D01*
X134668Y128333D01*
Y125667D01*
X135334Y125001D01*
X136667D01*
X137334Y125667D01*
X138666Y128999D02*
X141332D01*
Y128333D01*
X138666Y125667D01*
Y125001D01*
X159334Y192333D02*
X158667Y192999D01*
X157334D01*
X156668Y192333D01*
Y189667D01*
X157334Y189001D01*
X158667D01*
X159334Y189667D01*
X163332Y192999D02*
X161999Y192333D01*
X160667Y191000D01*
Y189667D01*
X161333Y189001D01*
X162666D01*
X163332Y189667D01*
Y190333D01*
X162666Y191000D01*
X160667D01*
X121334Y144333D02*
X120667Y144999D01*
X119334D01*
X118668Y144333D01*
Y141667D01*
X119334Y141001D01*
X120667D01*
X121334Y141667D01*
X125332Y144999D02*
X122667D01*
Y143000D01*
X123999Y143667D01*
X124666D01*
X125332Y143000D01*
Y141667D01*
X124666Y141001D01*
X123333D01*
X122667Y141667D01*
X186334Y190333D02*
X185667Y190999D01*
X184334D01*
X183668Y190333D01*
Y187667D01*
X184334Y187001D01*
X185667D01*
X186334Y187667D01*
X189666Y187001D02*
Y190999D01*
X187666Y189000D01*
X190332D01*
X187334Y165333D02*
X186667Y165999D01*
X185334D01*
X184668Y165333D01*
Y162667D01*
X185334Y162001D01*
X186667D01*
X187334Y162667D01*
X188666Y165333D02*
X189333Y165999D01*
X190666D01*
X191332Y165333D01*
Y164666D01*
X190666Y164000D01*
X189999D01*
X190666D01*
X191332Y163333D01*
Y162667D01*
X190666Y162001D01*
X189333D01*
X188666Y162667D01*
X196334Y180333D02*
X195667Y180999D01*
X194334D01*
X193668Y180333D01*
Y177667D01*
X194334Y177001D01*
X195667D01*
X196334Y177667D01*
X200332Y177001D02*
X197667D01*
X200332Y179666D01*
Y180333D01*
X199666Y180999D01*
X198333D01*
X197667Y180333D01*
X179000Y122333D02*
X178333Y122999D01*
X177001D01*
X176334Y122333D01*
Y119667D01*
X177001Y119001D01*
X178333D01*
X179000Y119667D01*
X180333Y119001D02*
X181666D01*
X180999D01*
Y122999D01*
X180333Y122333D01*
D17*
X189043Y312500D02*
D03*
M02*
