G04*
G04 #@! TF.GenerationSoftware,Altium Limited,Altium Designer,20.1.8 (145)*
G04*
G04 Layer_Physical_Order=2*
G04 Layer_Color=36540*
%FSLAX25Y25*%
%MOIN*%
G70*
G04*
G04 #@! TF.SameCoordinates,DCF3A4A8-B772-48C9-94DF-C36B93A42D3A*
G04*
G04*
G04 #@! TF.FilePolarity,Positive*
G04*
G01*
G75*
%ADD58C,0.01500*%
%ADD61C,0.07284*%
%ADD62R,0.07284X0.07284*%
%ADD64R,0.11811X0.19685*%
%ADD65C,0.09055*%
%ADD66C,0.07240*%
%ADD68C,0.06890*%
%ADD69C,0.02362*%
%ADD70C,0.01772*%
G36*
X39000Y312000D02*
X2094D01*
Y352000D01*
X39000D01*
X39000Y312000D01*
D02*
G37*
G36*
X86000Y306500D02*
X72000D01*
Y352000D01*
X86000D01*
Y306500D01*
D02*
G37*
G36*
X225905D02*
X119000Y306500D01*
X119000Y346000D01*
X225905Y346000D01*
X225905Y306500D01*
D02*
G37*
G36*
X80365Y243312D02*
X80399Y243299D01*
X80445Y243288D01*
X80504Y243278D01*
X80660Y243262D01*
X80865Y243253D01*
X81121Y243250D01*
Y241750D01*
X80987Y241749D01*
X80445Y241712D01*
X80399Y241701D01*
X80365Y241688D01*
X80344Y241673D01*
Y243327D01*
X80365Y243312D01*
D02*
G37*
G36*
X175479Y190582D02*
X175889Y190225D01*
X175930Y190200D01*
X175963Y190186D01*
X175988Y190181D01*
X174819Y189012D01*
X174814Y189037D01*
X174800Y189070D01*
X174775Y189111D01*
X174740Y189160D01*
X174641Y189281D01*
X174502Y189433D01*
X174323Y189616D01*
X175384Y190677D01*
X175479Y190582D01*
D02*
G37*
G36*
X92500Y187784D02*
X84255D01*
X83851Y188055D01*
X83000Y188224D01*
X82149Y188055D01*
X81428Y187573D01*
X80945Y186851D01*
X80776Y186000D01*
X80945Y185149D01*
X81428Y184427D01*
X82149Y183946D01*
X83000Y183776D01*
X83851Y183946D01*
X84249Y184211D01*
X84317Y184216D01*
X92500D01*
X92500Y127500D01*
X31511Y127500D01*
X31124Y128000D01*
X31224Y128500D01*
X31054Y129351D01*
X30573Y130072D01*
X30307Y130250D01*
Y130750D01*
X30573Y130928D01*
X31054Y131649D01*
X31224Y132500D01*
X31054Y133351D01*
X30573Y134072D01*
X29851Y134555D01*
X29000Y134724D01*
X28149Y134555D01*
X27428Y134072D01*
X26945Y133351D01*
X26776Y132500D01*
X26945Y131649D01*
X27428Y130928D01*
X27693Y130750D01*
Y130250D01*
X27428Y130072D01*
X26945Y129351D01*
X26776Y128500D01*
X26876Y128000D01*
X26489Y127500D01*
X25000D01*
X25000Y163500D01*
X5000D01*
Y171500D01*
X25000D01*
X25000Y235000D01*
X92500Y235000D01*
X92500Y187784D01*
D02*
G37*
G36*
X177186Y188963D02*
X177200Y188930D01*
X177225Y188889D01*
X177260Y188840D01*
X177359Y188719D01*
X177498Y188567D01*
X177677Y188384D01*
X176616Y187323D01*
X176521Y187418D01*
X176111Y187775D01*
X176070Y187800D01*
X176037Y187814D01*
X176012Y187819D01*
X177181Y188988D01*
X177186Y188963D01*
D02*
G37*
G36*
X83865Y186812D02*
X83899Y186799D01*
X83945Y186788D01*
X84004Y186778D01*
X84159Y186762D01*
X84365Y186753D01*
X84621Y186750D01*
Y185250D01*
X84487Y185249D01*
X83945Y185212D01*
X83899Y185201D01*
X83865Y185188D01*
X83843Y185173D01*
Y186827D01*
X83865Y186812D01*
D02*
G37*
G36*
X186479Y186432D02*
X186889Y186075D01*
X186930Y186050D01*
X186963Y186036D01*
X186988Y186031D01*
X185819Y184862D01*
X185814Y184887D01*
X185800Y184920D01*
X185775Y184961D01*
X185740Y185010D01*
X185641Y185131D01*
X185502Y185283D01*
X185323Y185466D01*
X186384Y186526D01*
X186479Y186432D01*
D02*
G37*
G36*
X188186Y184813D02*
X188200Y184780D01*
X188225Y184739D01*
X188260Y184690D01*
X188359Y184569D01*
X188498Y184417D01*
X188677Y184234D01*
X187616Y183173D01*
X187521Y183268D01*
X187111Y183625D01*
X187070Y183649D01*
X187037Y183664D01*
X187012Y183669D01*
X188181Y184838D01*
X188186Y184813D01*
D02*
G37*
G36*
X198751Y175337D02*
X198788Y174795D01*
X198799Y174749D01*
X198812Y174715D01*
X198827Y174693D01*
X197173D01*
X197188Y174715D01*
X197201Y174749D01*
X197212Y174795D01*
X197222Y174854D01*
X197238Y175009D01*
X197247Y175215D01*
X197250Y175471D01*
X198750D01*
X198751Y175337D01*
D02*
G37*
G36*
X212679Y128286D02*
X213232Y127817D01*
X213476Y127646D01*
X213699Y127517D01*
X213900Y127431D01*
X214080Y127388D01*
X214239Y127387D01*
X214376Y127428D01*
X214492Y127511D01*
X212382Y125402D01*
X212466Y125518D01*
X212507Y125655D01*
X212506Y125813D01*
X212462Y125993D01*
X212376Y126195D01*
X212248Y126418D01*
X212077Y126662D01*
X211863Y126927D01*
X211310Y127523D01*
X212370Y128584D01*
X212679Y128286D01*
D02*
G37*
G36*
X163677Y113616D02*
X163582Y113521D01*
X163225Y113111D01*
X163200Y113070D01*
X163186Y113037D01*
X163181Y113012D01*
X162012Y114181D01*
X162037Y114186D01*
X162070Y114200D01*
X162111Y114225D01*
X162160Y114260D01*
X162281Y114359D01*
X162433Y114498D01*
X162616Y114677D01*
X163677Y113616D01*
D02*
G37*
G36*
X76822Y34500D02*
X2094Y34500D01*
Y70500D01*
X76822Y70500D01*
Y34500D01*
D02*
G37*
G36*
X225905Y34500D02*
X107180Y34500D01*
Y70500D01*
X225905Y70500D01*
Y34500D01*
D02*
G37*
%LPC*%
G36*
X145500Y338216D02*
Y334500D01*
X149216D01*
X149136Y335108D01*
X148708Y336141D01*
X148028Y337028D01*
X147141Y337708D01*
X146108Y338136D01*
X145500Y338216D01*
D02*
G37*
G36*
X144500Y338216D02*
X143892Y338136D01*
X142859Y337708D01*
X141972Y337028D01*
X141292Y336141D01*
X140864Y335108D01*
X140784Y334500D01*
X144500D01*
Y338216D01*
D02*
G37*
G36*
X149216Y333500D02*
X145500D01*
Y329784D01*
X146108Y329864D01*
X147141Y330292D01*
X148028Y330973D01*
X148708Y331859D01*
X149136Y332892D01*
X149216Y333500D01*
D02*
G37*
G36*
X144500D02*
X140784D01*
X140864Y332892D01*
X141292Y331859D01*
X141972Y330973D01*
X142859Y330292D01*
X143892Y329864D01*
X144500Y329784D01*
Y333500D01*
D02*
G37*
G36*
X78500Y203724D02*
X77649Y203555D01*
X76928Y203073D01*
X76750Y202807D01*
X76250D01*
X76073Y203073D01*
X75351Y203555D01*
X74500Y203724D01*
X73649Y203555D01*
X72927Y203073D01*
X72445Y202351D01*
X72276Y201500D01*
X72445Y200649D01*
X72927Y199927D01*
X73649Y199445D01*
X74500Y199276D01*
X75351Y199445D01*
X76073Y199927D01*
X76250Y200193D01*
X76750D01*
X76928Y199927D01*
X77649Y199445D01*
X78500Y199276D01*
X79351Y199445D01*
X80072Y199927D01*
X80554Y200649D01*
X80724Y201500D01*
X80554Y202351D01*
X80072Y203073D01*
X79351Y203555D01*
X78500Y203724D01*
D02*
G37*
G36*
Y198224D02*
X77649Y198055D01*
X76928Y197573D01*
X76750Y197307D01*
X76250D01*
X76073Y197573D01*
X75351Y198055D01*
X74500Y198224D01*
X73649Y198055D01*
X72927Y197573D01*
X72445Y196851D01*
X72276Y196000D01*
X72445Y195149D01*
X72927Y194428D01*
X73649Y193946D01*
X74500Y193776D01*
X75351Y193946D01*
X76073Y194428D01*
X76250Y194693D01*
X76750D01*
X76928Y194428D01*
X77649Y193946D01*
X78500Y193776D01*
X79351Y193946D01*
X80072Y194428D01*
X80554Y195149D01*
X80724Y196000D01*
X80554Y196851D01*
X80072Y197573D01*
X79351Y198055D01*
X78500Y198224D01*
D02*
G37*
G36*
X84929Y168724D02*
X84078Y168554D01*
X83357Y168072D01*
X82875Y167351D01*
X82705Y166500D01*
X82875Y165649D01*
X83357Y164927D01*
X84078Y164445D01*
X84929Y164276D01*
X85780Y164445D01*
X86502Y164927D01*
X86984Y165649D01*
X87153Y166500D01*
X86984Y167351D01*
X86502Y168072D01*
X85780Y168554D01*
X84929Y168724D01*
D02*
G37*
G36*
X79929D02*
X79078Y168554D01*
X78357Y168072D01*
X77875Y167351D01*
X77705Y166500D01*
X77875Y165649D01*
X78357Y164927D01*
X79078Y164445D01*
X79929Y164276D01*
X80780Y164445D01*
X81502Y164927D01*
X81984Y165649D01*
X82153Y166500D01*
X81984Y167351D01*
X81502Y168072D01*
X80780Y168554D01*
X79929Y168724D01*
D02*
G37*
G36*
X74929D02*
X74078Y168554D01*
X73357Y168072D01*
X72875Y167351D01*
X72705Y166500D01*
X72875Y165649D01*
X73357Y164927D01*
X74078Y164445D01*
X74929Y164276D01*
X75780Y164445D01*
X76502Y164927D01*
X76984Y165649D01*
X77153Y166500D01*
X76984Y167351D01*
X76502Y168072D01*
X75780Y168554D01*
X74929Y168724D01*
D02*
G37*
G36*
X44000Y161224D02*
X43149Y161055D01*
X42428Y160573D01*
X41945Y159851D01*
X41776Y159000D01*
X41945Y158149D01*
X42428Y157428D01*
X42693Y157250D01*
Y156750D01*
X42428Y156572D01*
X41945Y155851D01*
X41776Y155000D01*
X41317Y154743D01*
X40851Y155054D01*
X40000Y155224D01*
X39149Y155054D01*
X38427Y154572D01*
X38250Y154307D01*
X37750D01*
X37573Y154572D01*
X36851Y155054D01*
X36000Y155224D01*
X35149Y155054D01*
X34683Y154743D01*
X34224Y155000D01*
X34055Y155851D01*
X33573Y156572D01*
X33307Y156750D01*
Y157250D01*
X33573Y157428D01*
X34055Y158149D01*
X34224Y159000D01*
X34055Y159851D01*
X33573Y160573D01*
X32851Y161055D01*
X32000Y161224D01*
X31149Y161055D01*
X30428Y160573D01*
X29945Y159851D01*
X29776Y159000D01*
X29945Y158149D01*
X30428Y157428D01*
X30693Y157250D01*
Y156750D01*
X30428Y156572D01*
X29945Y155851D01*
X29776Y155000D01*
X29945Y154149D01*
X30428Y153428D01*
X31149Y152945D01*
X32000Y152776D01*
X32851Y152945D01*
X33318Y153257D01*
X33776Y153000D01*
X33945Y152149D01*
X34427Y151427D01*
X35149Y150945D01*
X36000Y150776D01*
X36851Y150945D01*
X37573Y151427D01*
X37750Y151693D01*
X38250D01*
X38427Y151427D01*
X39149Y150945D01*
X40000Y150776D01*
X40851Y150945D01*
X41572Y151427D01*
X42055Y152149D01*
X42224Y153000D01*
X42682Y153257D01*
X43149Y152945D01*
X44000Y152776D01*
X44851Y152945D01*
X45573Y153428D01*
X46055Y154149D01*
X46224Y155000D01*
X46055Y155851D01*
X45573Y156572D01*
X45307Y156750D01*
Y157250D01*
X45573Y157428D01*
X46055Y158149D01*
X46224Y159000D01*
X46055Y159851D01*
X45573Y160573D01*
X44851Y161055D01*
X44000Y161224D01*
D02*
G37*
%LPD*%
D58*
X176500Y161000D02*
X178500D01*
X174500Y163000D02*
Y165000D01*
Y163000D02*
X176500Y161000D01*
X189500Y140500D02*
Y175500D01*
X162000Y113000D02*
X189500Y140500D01*
X176000Y189000D02*
X189500Y175500D01*
X194000Y145894D02*
X216000Y123894D01*
X187000Y184850D02*
X194000Y177850D01*
Y145894D02*
Y177850D01*
X180500Y211000D02*
X198000Y193500D01*
X141500Y211000D02*
X180500D01*
X198000Y174000D02*
Y193500D01*
X173000Y192000D02*
X176000Y189000D01*
X83000Y186000D02*
X110000D01*
X116000Y192000D01*
X173000D01*
X86000Y206500D02*
X106000D01*
X115500Y197000D02*
X174850D01*
X106000Y206500D02*
X115500Y197000D01*
X174850D02*
X187000Y184850D01*
X79500Y242500D02*
X110000D01*
X141500Y211000D01*
X76500Y137000D02*
X76590Y137090D01*
D61*
X12000Y167421D02*
D03*
D62*
X216000Y123894D02*
D03*
D64*
X220000Y53000D02*
D03*
X8000D02*
D03*
Y329000D02*
D03*
X220000D02*
D03*
D65*
X111685Y53000D02*
D03*
X72315D02*
D03*
D66*
X189000Y327000D02*
D03*
D68*
X145000Y334000D02*
D03*
D69*
X182500Y323000D02*
D03*
Y333000D02*
D03*
Y328000D02*
D03*
X83000Y186000D02*
D03*
X172500Y308000D02*
D03*
Y313000D02*
D03*
X220000Y38000D02*
D03*
X78500Y130500D02*
D03*
Y136000D02*
D03*
X74500D02*
D03*
Y130500D02*
D03*
X85000Y158000D02*
D03*
X80000D02*
D03*
X75000D02*
D03*
X176000Y189000D02*
D03*
X79500Y242500D02*
D03*
X187000Y184850D02*
D03*
X44000Y166000D02*
D03*
Y170000D02*
D03*
X40000Y172000D02*
D03*
X36000D02*
D03*
X32000Y166000D02*
D03*
Y170000D02*
D03*
X29000Y192000D02*
D03*
Y196000D02*
D03*
Y200000D02*
D03*
Y204000D02*
D03*
Y208000D02*
D03*
Y212000D02*
D03*
Y216000D02*
D03*
X44000Y226000D02*
D03*
Y230000D02*
D03*
X40000Y224000D02*
D03*
X36000D02*
D03*
X32000Y226000D02*
D03*
Y230000D02*
D03*
X198000Y173850D02*
D03*
X195000Y68000D02*
D03*
Y63000D02*
D03*
Y58000D02*
D03*
Y53000D02*
D03*
Y48000D02*
D03*
Y43000D02*
D03*
Y38000D02*
D03*
X190000D02*
D03*
Y43000D02*
D03*
Y48000D02*
D03*
Y53000D02*
D03*
Y58000D02*
D03*
Y63000D02*
D03*
Y68000D02*
D03*
X205000D02*
D03*
Y63000D02*
D03*
Y58000D02*
D03*
Y53000D02*
D03*
Y48000D02*
D03*
Y43000D02*
D03*
Y38000D02*
D03*
X200000D02*
D03*
Y43000D02*
D03*
Y48000D02*
D03*
Y53000D02*
D03*
Y58000D02*
D03*
Y63000D02*
D03*
Y68000D02*
D03*
X215000D02*
D03*
Y38000D02*
D03*
X210000D02*
D03*
Y43000D02*
D03*
Y48000D02*
D03*
Y53000D02*
D03*
Y58000D02*
D03*
Y63000D02*
D03*
Y68000D02*
D03*
X220000D02*
D03*
X160000D02*
D03*
Y63000D02*
D03*
Y58000D02*
D03*
Y53000D02*
D03*
Y48000D02*
D03*
Y43000D02*
D03*
Y38000D02*
D03*
X155000D02*
D03*
Y43000D02*
D03*
Y48000D02*
D03*
Y53000D02*
D03*
Y58000D02*
D03*
Y63000D02*
D03*
Y68000D02*
D03*
X170000D02*
D03*
Y63000D02*
D03*
Y58000D02*
D03*
Y53000D02*
D03*
Y48000D02*
D03*
Y43000D02*
D03*
Y38000D02*
D03*
X165000D02*
D03*
Y43000D02*
D03*
Y48000D02*
D03*
Y53000D02*
D03*
Y58000D02*
D03*
Y63000D02*
D03*
Y68000D02*
D03*
X180000D02*
D03*
Y63000D02*
D03*
Y58000D02*
D03*
Y53000D02*
D03*
Y48000D02*
D03*
Y43000D02*
D03*
Y38000D02*
D03*
X175000D02*
D03*
Y43000D02*
D03*
Y48000D02*
D03*
Y53000D02*
D03*
Y58000D02*
D03*
Y63000D02*
D03*
Y68000D02*
D03*
X185000Y38000D02*
D03*
Y43000D02*
D03*
Y48000D02*
D03*
Y53000D02*
D03*
Y58000D02*
D03*
Y63000D02*
D03*
Y68000D02*
D03*
X125000D02*
D03*
Y63000D02*
D03*
Y58000D02*
D03*
Y53000D02*
D03*
Y48000D02*
D03*
Y43000D02*
D03*
Y38000D02*
D03*
X120000D02*
D03*
Y43000D02*
D03*
Y48000D02*
D03*
Y53000D02*
D03*
Y58000D02*
D03*
Y63000D02*
D03*
Y68000D02*
D03*
X135000D02*
D03*
Y63000D02*
D03*
Y58000D02*
D03*
Y53000D02*
D03*
Y48000D02*
D03*
Y43000D02*
D03*
Y38000D02*
D03*
X130000D02*
D03*
Y43000D02*
D03*
Y48000D02*
D03*
Y53000D02*
D03*
Y58000D02*
D03*
Y63000D02*
D03*
Y68000D02*
D03*
X145000D02*
D03*
Y63000D02*
D03*
Y58000D02*
D03*
Y53000D02*
D03*
Y48000D02*
D03*
Y43000D02*
D03*
Y38000D02*
D03*
X140000D02*
D03*
Y43000D02*
D03*
Y48000D02*
D03*
Y53000D02*
D03*
Y58000D02*
D03*
Y63000D02*
D03*
Y68000D02*
D03*
X150000Y38000D02*
D03*
Y43000D02*
D03*
Y48000D02*
D03*
Y53000D02*
D03*
Y58000D02*
D03*
Y63000D02*
D03*
Y68000D02*
D03*
X110000Y38000D02*
D03*
Y43000D02*
D03*
X115000Y38000D02*
D03*
Y43000D02*
D03*
X110000Y63000D02*
D03*
Y68000D02*
D03*
X115000Y63000D02*
D03*
Y68000D02*
D03*
X75000Y43000D02*
D03*
Y38000D02*
D03*
X70000Y43000D02*
D03*
Y38000D02*
D03*
X75000Y68000D02*
D03*
Y63000D02*
D03*
X70000Y68000D02*
D03*
Y63000D02*
D03*
X60000Y68000D02*
D03*
Y63000D02*
D03*
Y58000D02*
D03*
Y53000D02*
D03*
Y48000D02*
D03*
Y43000D02*
D03*
Y38000D02*
D03*
X65000D02*
D03*
Y43000D02*
D03*
Y48000D02*
D03*
Y53000D02*
D03*
Y58000D02*
D03*
Y63000D02*
D03*
Y68000D02*
D03*
X50000D02*
D03*
Y63000D02*
D03*
Y58000D02*
D03*
Y53000D02*
D03*
Y48000D02*
D03*
Y43000D02*
D03*
Y38000D02*
D03*
X55000D02*
D03*
Y43000D02*
D03*
Y48000D02*
D03*
Y53000D02*
D03*
Y58000D02*
D03*
Y63000D02*
D03*
Y68000D02*
D03*
X40000D02*
D03*
Y63000D02*
D03*
Y58000D02*
D03*
Y53000D02*
D03*
Y48000D02*
D03*
Y43000D02*
D03*
Y38000D02*
D03*
X45000D02*
D03*
Y43000D02*
D03*
Y48000D02*
D03*
Y53000D02*
D03*
Y58000D02*
D03*
Y63000D02*
D03*
Y68000D02*
D03*
X30000D02*
D03*
Y63000D02*
D03*
Y58000D02*
D03*
Y53000D02*
D03*
Y48000D02*
D03*
Y43000D02*
D03*
Y38000D02*
D03*
X35000D02*
D03*
Y43000D02*
D03*
Y48000D02*
D03*
Y53000D02*
D03*
Y58000D02*
D03*
Y63000D02*
D03*
Y68000D02*
D03*
X25000D02*
D03*
Y63000D02*
D03*
Y58000D02*
D03*
Y53000D02*
D03*
Y48000D02*
D03*
Y43000D02*
D03*
Y38000D02*
D03*
X5000D02*
D03*
X10000D02*
D03*
X15000D02*
D03*
X20000D02*
D03*
Y43000D02*
D03*
Y48000D02*
D03*
Y53000D02*
D03*
Y58000D02*
D03*
Y63000D02*
D03*
Y68000D02*
D03*
X15000D02*
D03*
X10000D02*
D03*
X5000D02*
D03*
X147500Y343000D02*
D03*
X142500D02*
D03*
X122500Y313000D02*
D03*
Y318000D02*
D03*
Y328000D02*
D03*
Y333000D02*
D03*
Y343000D02*
D03*
X127500Y313000D02*
D03*
Y318000D02*
D03*
Y328000D02*
D03*
Y333000D02*
D03*
Y343000D02*
D03*
X137500Y313000D02*
D03*
Y318000D02*
D03*
Y328000D02*
D03*
Y333000D02*
D03*
Y343000D02*
D03*
X142500Y313000D02*
D03*
Y318000D02*
D03*
X152500Y313000D02*
D03*
Y318000D02*
D03*
Y328000D02*
D03*
Y333000D02*
D03*
Y343000D02*
D03*
X157500Y313000D02*
D03*
Y318000D02*
D03*
X162500D02*
D03*
X157500Y328000D02*
D03*
X162500D02*
D03*
X157500Y333000D02*
D03*
X162500D02*
D03*
X157500Y343000D02*
D03*
X162500D02*
D03*
X167500Y318000D02*
D03*
Y328000D02*
D03*
Y333000D02*
D03*
Y343000D02*
D03*
X177500Y313000D02*
D03*
Y318000D02*
D03*
Y328000D02*
D03*
Y333000D02*
D03*
Y343000D02*
D03*
X182500Y313000D02*
D03*
Y318000D02*
D03*
Y343000D02*
D03*
X192500Y313000D02*
D03*
Y318000D02*
D03*
Y343000D02*
D03*
X197500Y313000D02*
D03*
X202500D02*
D03*
X197500Y318000D02*
D03*
X202500D02*
D03*
X197500Y328000D02*
D03*
X202500D02*
D03*
X197500Y333000D02*
D03*
X202500D02*
D03*
X197500Y343000D02*
D03*
X202500D02*
D03*
X207500Y313000D02*
D03*
Y318000D02*
D03*
Y328000D02*
D03*
Y333000D02*
D03*
Y343000D02*
D03*
X217500Y313000D02*
D03*
Y343000D02*
D03*
X222500Y313000D02*
D03*
Y343000D02*
D03*
X122500Y308000D02*
D03*
Y338000D02*
D03*
Y323000D02*
D03*
X127500Y308000D02*
D03*
Y323000D02*
D03*
Y338000D02*
D03*
X137500Y308000D02*
D03*
Y323000D02*
D03*
Y338000D02*
D03*
X142500Y308000D02*
D03*
Y323000D02*
D03*
X152500Y308000D02*
D03*
Y323000D02*
D03*
Y338000D02*
D03*
X157500Y308000D02*
D03*
Y323000D02*
D03*
Y338000D02*
D03*
X162500D02*
D03*
Y323000D02*
D03*
X167500Y338000D02*
D03*
Y323000D02*
D03*
X177500Y308000D02*
D03*
Y323000D02*
D03*
Y338000D02*
D03*
X182500Y308000D02*
D03*
Y338000D02*
D03*
X192500Y308000D02*
D03*
Y338000D02*
D03*
X197500Y308000D02*
D03*
X202500D02*
D03*
X197500Y323000D02*
D03*
Y338000D02*
D03*
X202500Y323000D02*
D03*
Y338000D02*
D03*
X207500Y308000D02*
D03*
Y323000D02*
D03*
Y338000D02*
D03*
X217500Y308000D02*
D03*
X222500D02*
D03*
X132500Y313000D02*
D03*
X147500D02*
D03*
X132500Y318000D02*
D03*
X147500D02*
D03*
X132500Y328000D02*
D03*
Y333000D02*
D03*
Y343000D02*
D03*
X187500Y313000D02*
D03*
X172500Y318000D02*
D03*
X187500D02*
D03*
X172500Y328000D02*
D03*
Y333000D02*
D03*
Y343000D02*
D03*
X187500D02*
D03*
X212500Y313000D02*
D03*
Y343000D02*
D03*
X132500Y308000D02*
D03*
X147500D02*
D03*
X132500Y323000D02*
D03*
Y338000D02*
D03*
X147500Y323000D02*
D03*
X187500Y308000D02*
D03*
X172500Y323000D02*
D03*
Y338000D02*
D03*
X187500D02*
D03*
X212500Y308000D02*
D03*
X5000Y315000D02*
D03*
X10000D02*
D03*
X15000D02*
D03*
X35000D02*
D03*
Y320000D02*
D03*
X30000Y315000D02*
D03*
Y320000D02*
D03*
X25000Y315000D02*
D03*
Y320000D02*
D03*
X20000Y315000D02*
D03*
Y320000D02*
D03*
X35000Y325000D02*
D03*
Y330000D02*
D03*
X30000Y325000D02*
D03*
Y330000D02*
D03*
X25000Y325000D02*
D03*
Y330000D02*
D03*
X35000Y335000D02*
D03*
Y340000D02*
D03*
X30000Y335000D02*
D03*
Y340000D02*
D03*
X25000Y335000D02*
D03*
Y340000D02*
D03*
Y350000D02*
D03*
Y345000D02*
D03*
X30000Y350000D02*
D03*
Y345000D02*
D03*
X35000Y350000D02*
D03*
Y345000D02*
D03*
X20000Y325000D02*
D03*
Y330000D02*
D03*
Y335000D02*
D03*
Y340000D02*
D03*
Y345000D02*
D03*
Y350000D02*
D03*
X15000Y345000D02*
D03*
Y350000D02*
D03*
X10000Y345000D02*
D03*
Y350000D02*
D03*
X5000Y345000D02*
D03*
Y350000D02*
D03*
X84000Y309500D02*
D03*
X79000D02*
D03*
X74000D02*
D03*
Y319500D02*
D03*
X79000D02*
D03*
X84000D02*
D03*
X74000Y314500D02*
D03*
X79000D02*
D03*
X84000D02*
D03*
X74000Y329500D02*
D03*
X79000D02*
D03*
X84000D02*
D03*
X74000Y324500D02*
D03*
X79000D02*
D03*
X84000D02*
D03*
X74000Y339500D02*
D03*
X79000D02*
D03*
X84000D02*
D03*
X74000Y334500D02*
D03*
X79000D02*
D03*
X84000D02*
D03*
Y344500D02*
D03*
X79000D02*
D03*
X74000D02*
D03*
X84000Y349500D02*
D03*
X79000D02*
D03*
X74000D02*
D03*
X162000Y113000D02*
D03*
D70*
X178500Y161000D02*
D03*
X174500Y165000D02*
D03*
M02*
