G04*
G04 #@! TF.GenerationSoftware,Altium Limited,Altium Designer,20.1.8 (145)*
G04*
G04 Layer_Color=16711935*
%FSLAX25Y25*%
%MOIN*%
G70*
G04*
G04 #@! TF.SameCoordinates,DCF3A4A8-B772-48C9-94DF-C36B93A42D3A*
G04*
G04*
G04 #@! TF.FilePolarity,Negative*
G04*
G01*
G75*
%ADD48C,0.26142*%
%ADD49C,0.07835*%
%ADD50R,0.07835X0.07835*%
%ADD51R,0.07835X0.07835*%
%ADD52R,0.12362X0.20236*%
%ADD53C,0.09606*%
%ADD54C,0.07791*%
%ADD55R,0.07791X0.07791*%
%ADD56C,0.07441*%
D48*
X212000Y16000D02*
D03*
X16000D02*
D03*
X212000Y288000D02*
D03*
X16000D02*
D03*
D49*
X216000Y256343D02*
D03*
Y246500D02*
D03*
Y214843D02*
D03*
Y205000D02*
D03*
Y143579D02*
D03*
Y153421D02*
D03*
Y163264D02*
D03*
Y173106D02*
D03*
Y133736D02*
D03*
X177236Y92000D02*
D03*
X216606D02*
D03*
X206764D02*
D03*
X196921D02*
D03*
X187079D02*
D03*
X143500Y102421D02*
D03*
X12000Y167421D02*
D03*
Y157579D02*
D03*
Y147736D02*
D03*
D50*
X216000Y236658D02*
D03*
Y195158D02*
D03*
Y123894D02*
D03*
X143500Y92579D02*
D03*
X12000Y177264D02*
D03*
D51*
X167394Y92000D02*
D03*
D52*
X220000Y53000D02*
D03*
X8000D02*
D03*
Y329000D02*
D03*
X220000D02*
D03*
D53*
X111685Y53000D02*
D03*
X72315D02*
D03*
D54*
X189000Y327000D02*
D03*
D55*
Y277000D02*
D03*
D56*
X145000Y274000D02*
D03*
Y334000D02*
D03*
M02*
