G04*
G04 #@! TF.GenerationSoftware,Altium Limited,Altium Designer,20.1.8 (145)*
G04*
G04 Layer_Color=8388736*
%FSLAX25Y25*%
%MOIN*%
G70*
G04*
G04 #@! TF.SameCoordinates,DCF3A4A8-B772-48C9-94DF-C36B93A42D3A*
G04*
G04*
G04 #@! TF.FilePolarity,Negative*
G04*
G01*
G75*
%ADD33R,0.04291X0.04095*%
%ADD34R,0.04291X0.06063*%
%ADD35R,0.06063X0.04291*%
G04:AMPARAMS|DCode=36|XSize=60.63mil|YSize=42.91mil|CornerRadius=0mil|HoleSize=0mil|Usage=FLASHONLY|Rotation=45.000|XOffset=0mil|YOffset=0mil|HoleType=Round|Shape=Rectangle|*
%AMROTATEDRECTD36*
4,1,4,-0.00626,-0.03661,-0.03661,-0.00626,0.00626,0.03661,0.03661,0.00626,-0.00626,-0.03661,0.0*
%
%ADD36ROTATEDRECTD36*%

G04:AMPARAMS|DCode=37|XSize=14.96mil|YSize=29.13mil|CornerRadius=0mil|HoleSize=0mil|Usage=FLASHONLY|Rotation=135.000|XOffset=0mil|YOffset=0mil|HoleType=Round|Shape=Rectangle|*
%AMROTATEDRECTD37*
4,1,4,0.01559,0.00501,-0.00501,-0.01559,-0.01559,-0.00501,0.00501,0.01559,0.01559,0.00501,0.0*
%
%ADD37ROTATEDRECTD37*%

G04:AMPARAMS|DCode=38|XSize=14.96mil|YSize=29.13mil|CornerRadius=0mil|HoleSize=0mil|Usage=FLASHONLY|Rotation=45.000|XOffset=0mil|YOffset=0mil|HoleType=Round|Shape=Rectangle|*
%AMROTATEDRECTD38*
4,1,4,0.00501,-0.01559,-0.01559,0.00501,-0.00501,0.01559,0.01559,-0.00501,0.00501,-0.01559,0.0*
%
%ADD38ROTATEDRECTD38*%

%ADD39P,0.30289X4X360.0*%
G04:AMPARAMS|DCode=40|XSize=60.63mil|YSize=42.91mil|CornerRadius=0mil|HoleSize=0mil|Usage=FLASHONLY|Rotation=315.000|XOffset=0mil|YOffset=0mil|HoleType=Round|Shape=Rectangle|*
%AMROTATEDRECTD40*
4,1,4,-0.03661,0.00626,-0.00626,0.03661,0.03661,-0.00626,0.00626,-0.03661,-0.03661,0.00626,0.0*
%
%ADD40ROTATEDRECTD40*%

%ADD41R,0.07244X0.05669*%
%ADD42R,0.04095X0.03701*%
%ADD43R,0.10394X0.09606*%
%ADD44R,0.09016X0.25354*%
%ADD45R,0.03701X0.04095*%
%ADD46R,0.05669X0.07244*%
%ADD47R,0.06653X0.02913*%
%ADD48C,0.26142*%
%ADD49C,0.07835*%
%ADD50R,0.07835X0.07835*%
%ADD51R,0.07835X0.07835*%
%ADD52R,0.12362X0.20236*%
%ADD53C,0.09606*%
%ADD54C,0.07791*%
%ADD55R,0.07791X0.07791*%
%ADD56C,0.07441*%
D33*
X92000Y236201D02*
D03*
Y223799D02*
D03*
Y140299D02*
D03*
Y152701D02*
D03*
Y184201D02*
D03*
Y171799D02*
D03*
Y88299D02*
D03*
Y100701D02*
D03*
D34*
X165358Y113000D02*
D03*
X172642D02*
D03*
Y121000D02*
D03*
X165358D02*
D03*
X172642Y129000D02*
D03*
X165358D02*
D03*
X136142Y179000D02*
D03*
X128858D02*
D03*
X136142Y186500D02*
D03*
X128858D02*
D03*
X103142Y125500D02*
D03*
X95858D02*
D03*
X82858D02*
D03*
X90142D02*
D03*
X82858Y111500D02*
D03*
X90142D02*
D03*
X103142D02*
D03*
X95858D02*
D03*
X50358Y140000D02*
D03*
X57642D02*
D03*
X43642D02*
D03*
X36358D02*
D03*
X36858Y184500D02*
D03*
X44142D02*
D03*
X58142D02*
D03*
X50858D02*
D03*
X103142Y195000D02*
D03*
X95858D02*
D03*
X82858D02*
D03*
X90142D02*
D03*
X82858Y209000D02*
D03*
X90142D02*
D03*
X103142D02*
D03*
X95858D02*
D03*
X102858Y253500D02*
D03*
X110142D02*
D03*
X102858Y288500D02*
D03*
X110142D02*
D03*
X35358Y253500D02*
D03*
X42642D02*
D03*
Y288500D02*
D03*
X35358D02*
D03*
X98358Y357000D02*
D03*
X105642D02*
D03*
X52358D02*
D03*
X59642D02*
D03*
D35*
X156000Y120858D02*
D03*
Y128142D02*
D03*
X123000Y166642D02*
D03*
Y159358D02*
D03*
X189000Y251642D02*
D03*
Y244358D02*
D03*
Y238642D02*
D03*
Y231358D02*
D03*
Y218642D02*
D03*
Y211358D02*
D03*
Y205642D02*
D03*
Y198358D02*
D03*
X163000Y211642D02*
D03*
Y204358D02*
D03*
X152000Y205642D02*
D03*
Y198358D02*
D03*
Y218642D02*
D03*
Y211358D02*
D03*
X163000Y244642D02*
D03*
Y237358D02*
D03*
X152000Y238642D02*
D03*
Y231358D02*
D03*
Y251642D02*
D03*
Y244358D02*
D03*
X126000Y244642D02*
D03*
Y237358D02*
D03*
Y211642D02*
D03*
Y204358D02*
D03*
X102500Y98142D02*
D03*
Y90858D02*
D03*
X37500Y94642D02*
D03*
Y87358D02*
D03*
X38000Y166142D02*
D03*
Y158858D02*
D03*
X102500Y181642D02*
D03*
Y174358D02*
D03*
Y233642D02*
D03*
Y226358D02*
D03*
X120000Y288642D02*
D03*
Y281358D02*
D03*
Y275142D02*
D03*
Y267858D02*
D03*
X91000Y289142D02*
D03*
Y281858D02*
D03*
Y274142D02*
D03*
Y266858D02*
D03*
X68500Y263142D02*
D03*
Y255858D02*
D03*
X52500Y288642D02*
D03*
Y281358D02*
D03*
X52500Y275142D02*
D03*
Y267858D02*
D03*
X38000Y237142D02*
D03*
Y229858D02*
D03*
X165000Y308642D02*
D03*
Y301358D02*
D03*
Y292642D02*
D03*
Y285358D02*
D03*
X102500Y150142D02*
D03*
Y142858D02*
D03*
D36*
X141425Y134575D02*
D03*
X146575Y129425D02*
D03*
X132075Y143925D02*
D03*
X126925Y149075D02*
D03*
X194575Y170425D02*
D03*
X189425Y175575D02*
D03*
X183575Y168425D02*
D03*
X178425Y173575D02*
D03*
Y186575D02*
D03*
X183575Y181425D02*
D03*
X165425Y186575D02*
D03*
X170575Y181425D02*
D03*
D37*
X142879Y152190D02*
D03*
X161810Y171121D02*
D03*
X149839Y145231D02*
D03*
X148447Y146623D02*
D03*
X147055Y148015D02*
D03*
X145663Y149407D02*
D03*
X164593Y168337D02*
D03*
X168769Y164161D02*
D03*
X167377Y165553D02*
D03*
X165985Y166945D02*
D03*
X155407Y139663D02*
D03*
X154015Y141055D02*
D03*
X152623Y142447D02*
D03*
X151231Y143839D02*
D03*
X170161Y162769D02*
D03*
X174337Y158593D02*
D03*
X172945Y159985D02*
D03*
X171553Y161377D02*
D03*
X158191Y136879D02*
D03*
X177121Y155809D02*
D03*
X144271Y150798D02*
D03*
X163201Y169729D02*
D03*
X156799Y138271D02*
D03*
X175729Y157202D02*
D03*
D38*
X142879Y155809D02*
D03*
X145663Y158593D02*
D03*
X147055Y159985D02*
D03*
X148447Y161377D02*
D03*
X149839Y162769D02*
D03*
X151231Y164161D02*
D03*
X152623Y165553D02*
D03*
X154015Y166945D02*
D03*
X155407Y168337D02*
D03*
X158191Y171121D02*
D03*
X161810Y136879D02*
D03*
X168769Y143839D02*
D03*
X167377Y142447D02*
D03*
X165985Y141055D02*
D03*
X164593Y139663D02*
D03*
X174337Y149407D02*
D03*
X172945Y148015D02*
D03*
X171553Y146623D02*
D03*
X170161Y145231D02*
D03*
X177121Y152190D02*
D03*
X144271Y157202D02*
D03*
X156799Y169729D02*
D03*
X163201Y138271D02*
D03*
X175729Y150798D02*
D03*
D39*
X160000Y154000D02*
D03*
D40*
X139925Y171425D02*
D03*
X145075Y176575D02*
D03*
X130425Y161925D02*
D03*
X135575Y167075D02*
D03*
D41*
X176000Y201110D02*
D03*
Y214890D02*
D03*
Y234110D02*
D03*
Y247890D02*
D03*
X139000Y201110D02*
D03*
Y214890D02*
D03*
Y234110D02*
D03*
Y247890D02*
D03*
D42*
X68563Y129500D02*
D03*
X76437Y133240D02*
D03*
Y125760D02*
D03*
X68563Y111500D02*
D03*
X76437Y115240D02*
D03*
Y107760D02*
D03*
Y191260D02*
D03*
Y198740D02*
D03*
X68563Y195000D02*
D03*
X76437Y209260D02*
D03*
Y216740D02*
D03*
X68563Y213000D02*
D03*
X85437Y259500D02*
D03*
X77563Y255760D02*
D03*
Y263240D02*
D03*
D43*
X63035Y91000D02*
D03*
X79965D02*
D03*
Y150000D02*
D03*
X63035D02*
D03*
Y174500D02*
D03*
X79965D02*
D03*
X79965Y233500D02*
D03*
X63035D02*
D03*
D44*
X54669Y120500D02*
D03*
X38331D02*
D03*
X54669Y204000D02*
D03*
X38331D02*
D03*
D45*
X106500Y267937D02*
D03*
X110240Y260063D02*
D03*
X102760D02*
D03*
X106500Y274063D02*
D03*
X102760Y281937D02*
D03*
X110240D02*
D03*
X72500Y269563D02*
D03*
X68760Y277437D02*
D03*
X76240D02*
D03*
X39000Y267937D02*
D03*
X42740Y260063D02*
D03*
X35260D02*
D03*
X39000Y274063D02*
D03*
X35260Y281937D02*
D03*
X42740D02*
D03*
D46*
X65610Y286500D02*
D03*
X79390D02*
D03*
D47*
X91370Y333500D02*
D03*
Y338500D02*
D03*
Y343500D02*
D03*
Y348500D02*
D03*
X112630D02*
D03*
Y343500D02*
D03*
Y338500D02*
D03*
Y333500D02*
D03*
X91370Y309500D02*
D03*
Y314500D02*
D03*
Y319500D02*
D03*
Y324500D02*
D03*
X112630D02*
D03*
Y319500D02*
D03*
Y314500D02*
D03*
Y309500D02*
D03*
X66630Y324500D02*
D03*
Y319500D02*
D03*
Y314500D02*
D03*
Y309500D02*
D03*
X45370D02*
D03*
Y314500D02*
D03*
Y319500D02*
D03*
Y324500D02*
D03*
X66630Y348500D02*
D03*
Y343500D02*
D03*
Y338500D02*
D03*
Y333500D02*
D03*
X45370D02*
D03*
Y338500D02*
D03*
Y343500D02*
D03*
Y348500D02*
D03*
D48*
X212000Y16000D02*
D03*
X16000D02*
D03*
X212000Y288000D02*
D03*
X16000D02*
D03*
D49*
X216000Y256343D02*
D03*
Y246500D02*
D03*
Y214843D02*
D03*
Y205000D02*
D03*
Y143579D02*
D03*
Y153421D02*
D03*
Y163264D02*
D03*
Y173106D02*
D03*
Y133736D02*
D03*
X177236Y92000D02*
D03*
X216606D02*
D03*
X206764D02*
D03*
X196921D02*
D03*
X187079D02*
D03*
X143500Y102421D02*
D03*
X12000Y167421D02*
D03*
Y157579D02*
D03*
Y147736D02*
D03*
D50*
X216000Y236658D02*
D03*
Y195158D02*
D03*
Y123894D02*
D03*
X143500Y92579D02*
D03*
X12000Y177264D02*
D03*
D51*
X167394Y92000D02*
D03*
D52*
X220000Y53000D02*
D03*
X8000D02*
D03*
Y329000D02*
D03*
X220000D02*
D03*
D53*
X111685Y53000D02*
D03*
X72315D02*
D03*
D54*
X189000Y327000D02*
D03*
D55*
Y277000D02*
D03*
D56*
X145000Y274000D02*
D03*
Y334000D02*
D03*
M02*
