G04*
G04 #@! TF.GenerationSoftware,Altium Limited,Altium Designer,20.1.8 (145)*
G04*
G04 Layer_Physical_Order=3*
G04 Layer_Color=16440176*
%FSLAX25Y25*%
%MOIN*%
G70*
G04*
G04 #@! TF.SameCoordinates,DCF3A4A8-B772-48C9-94DF-C36B93A42D3A*
G04*
G04*
G04 #@! TF.FilePolarity,Positive*
G04*
G01*
G75*
%ADD58C,0.01500*%
%ADD61C,0.07284*%
%ADD62R,0.07284X0.07284*%
%ADD64R,0.11811X0.19685*%
%ADD65C,0.09055*%
%ADD66C,0.07240*%
%ADD67R,0.07240X0.07240*%
%ADD68C,0.06890*%
%ADD69C,0.02362*%
%ADD70C,0.01772*%
%ADD71C,0.00906*%
G36*
X39000Y312000D02*
X2094D01*
Y352000D01*
X39000D01*
X39000Y312000D01*
D02*
G37*
G36*
X86000Y306500D02*
X72000D01*
Y352000D01*
X86000D01*
Y306500D01*
D02*
G37*
G36*
X225905D02*
X119000Y306500D01*
X119000Y346000D01*
X225905Y346000D01*
X225905Y306500D01*
D02*
G37*
G36*
X166838Y238941D02*
X167247Y238583D01*
X167288Y238559D01*
X167321Y238544D01*
X167347Y238539D01*
X166177Y237370D01*
X166173Y237396D01*
X166158Y237429D01*
X166133Y237470D01*
X166098Y237518D01*
X165999Y237639D01*
X165860Y237791D01*
X165682Y237974D01*
X166742Y239035D01*
X166838Y238941D01*
D02*
G37*
G36*
X198332Y285835D02*
X198839Y283724D01*
X199670Y281718D01*
X200805Y279866D01*
X202215Y278215D01*
X203866Y276805D01*
X205718Y275670D01*
X207724Y274839D01*
X209835Y274332D01*
X212000Y274162D01*
X214165Y274332D01*
X216276Y274839D01*
X218282Y275670D01*
X220134Y276805D01*
X221785Y278215D01*
X223195Y279866D01*
X224330Y281718D01*
X225161Y283724D01*
X225406Y284744D01*
X225905Y284685D01*
X225905Y70000D01*
Y34500D01*
X107177Y34500D01*
Y70500D01*
X202500Y70500D01*
X202500Y89110D01*
X203000Y89280D01*
X203453Y88690D01*
X204423Y87945D01*
X205552Y87478D01*
X206764Y87318D01*
X207976Y87478D01*
X209105Y87945D01*
X210074Y88690D01*
X210818Y89659D01*
X211286Y90788D01*
X211395Y91612D01*
X211433Y91904D01*
X211937D01*
X211976Y91612D01*
X212084Y90788D01*
X212552Y89659D01*
X213296Y88690D01*
X214265Y87945D01*
X215395Y87478D01*
X216606Y87318D01*
X217818Y87478D01*
X218947Y87945D01*
X219917Y88690D01*
X220661Y89659D01*
X221129Y90788D01*
X221288Y92000D01*
X221129Y93212D01*
X220661Y94341D01*
X219917Y95310D01*
X218947Y96055D01*
X217818Y96522D01*
X216606Y96682D01*
X215395Y96522D01*
X214265Y96055D01*
X213296Y95310D01*
X212552Y94341D01*
X212084Y93212D01*
X211976Y92388D01*
X211937Y92096D01*
X211433D01*
X211395Y92388D01*
X211286Y93212D01*
X210818Y94341D01*
X210074Y95310D01*
X209105Y96055D01*
X207976Y96522D01*
X206764Y96682D01*
X205552Y96522D01*
X204423Y96055D01*
X203453Y95310D01*
X203000Y94720D01*
X202500Y94890D01*
X202500Y204500D01*
X136500Y204500D01*
X136500Y247500D01*
X154693Y247500D01*
X165209Y236984D01*
X165304Y236507D01*
X165786Y235786D01*
X166507Y235304D01*
X167358Y235134D01*
X168209Y235304D01*
X168931Y235786D01*
X169413Y236507D01*
X169582Y237358D01*
X169413Y238209D01*
X168931Y238931D01*
X168209Y239413D01*
X167740Y239506D01*
X167689Y239551D01*
X156500Y250740D01*
X156500Y288000D01*
X198162Y288000D01*
X198332Y285835D01*
D02*
G37*
G36*
X72203Y265500D02*
X72355Y265000D01*
X71927Y264714D01*
X71445Y263993D01*
X71276Y263142D01*
X71445Y262291D01*
X71927Y261569D01*
X72649Y261087D01*
X73500Y260918D01*
X74351Y261087D01*
X75072Y261569D01*
X75555Y262291D01*
X75724Y263142D01*
X75555Y263993D01*
X75072Y264714D01*
X74645Y265000D01*
X74796Y265500D01*
X129500Y265500D01*
X129500Y200500D01*
X193000Y200500D01*
X193000Y94515D01*
X192867Y94341D01*
X192399Y93212D01*
X192290Y92388D01*
X192252Y92096D01*
X191748D01*
X191709Y92388D01*
X191601Y93212D01*
X191133Y94341D01*
X190389Y95310D01*
X189420Y96055D01*
X188291Y96522D01*
X187079Y96682D01*
X185867Y96522D01*
X184738Y96055D01*
X183768Y95310D01*
X183024Y94341D01*
X182556Y93212D01*
X182448Y92388D01*
X182410Y92096D01*
X181905D01*
X181867Y92388D01*
X181758Y93212D01*
X181291Y94341D01*
X180547Y95310D01*
X179577Y96055D01*
X178448Y96522D01*
X177236Y96682D01*
X176024Y96522D01*
X174895Y96055D01*
X173926Y95310D01*
X173182Y94341D01*
X172714Y93212D01*
X172554Y92000D01*
X172714Y90788D01*
X173182Y89659D01*
X173926Y88690D01*
X174895Y87945D01*
X176024Y87478D01*
X177236Y87318D01*
X178448Y87478D01*
X179577Y87945D01*
X180547Y88690D01*
X181291Y89659D01*
X181758Y90788D01*
X181867Y91612D01*
X181905Y91904D01*
X182410D01*
X182448Y91612D01*
X182556Y90788D01*
X183024Y89659D01*
X183768Y88690D01*
X184738Y87945D01*
X185867Y87478D01*
X187079Y87318D01*
X188291Y87478D01*
X189420Y87945D01*
X190389Y88690D01*
X191133Y89659D01*
X191601Y90788D01*
X191709Y91612D01*
X191748Y91904D01*
X192252D01*
X192290Y91612D01*
X192399Y90788D01*
X192867Y89659D01*
X193000Y89485D01*
Y78500D01*
X102000Y78500D01*
Y34500D01*
X82000Y34500D01*
Y78500D01*
X5000Y78500D01*
Y152000D01*
X18491D01*
X18510Y89500D01*
X71000Y89500D01*
X71000Y121000D01*
X98000Y121000D01*
Y210000D01*
X43500D01*
Y223481D01*
X43887Y223799D01*
X44000Y223776D01*
X44851Y223945D01*
X45573Y224428D01*
X46055Y225149D01*
X46224Y226000D01*
X46055Y226851D01*
X45573Y227572D01*
X45307Y227750D01*
Y228250D01*
X45573Y228428D01*
X46055Y229149D01*
X46224Y230000D01*
X46055Y230851D01*
X45573Y231573D01*
X44851Y232055D01*
X44000Y232224D01*
X43887Y232201D01*
X43500Y232519D01*
Y265500D01*
X72203Y265500D01*
D02*
G37*
G36*
X92500Y126000D02*
X65000Y126000D01*
X65000Y92500D01*
X25000D01*
X25000Y153500D01*
X5000Y153500D01*
Y161500D01*
X25000Y161500D01*
X25000Y204000D01*
X26776D01*
X26945Y203149D01*
X27428Y202428D01*
X27693Y202250D01*
Y201750D01*
X27428Y201572D01*
X26945Y200851D01*
X26776Y200000D01*
X26945Y199149D01*
X27428Y198427D01*
X27693Y198250D01*
Y197750D01*
X27428Y197573D01*
X26945Y196851D01*
X26776Y196000D01*
X26945Y195149D01*
X27428Y194428D01*
X27693Y194250D01*
Y193750D01*
X27428Y193572D01*
X26945Y192851D01*
X26776Y192000D01*
X26945Y191149D01*
X27428Y190427D01*
X28149Y189945D01*
X29000Y189776D01*
X29851Y189945D01*
X30573Y190427D01*
X31054Y191149D01*
X31224Y192000D01*
X31054Y192851D01*
X30573Y193572D01*
X30307Y193750D01*
Y194250D01*
X30573Y194428D01*
X31054Y195149D01*
X31224Y196000D01*
X31054Y196851D01*
X30573Y197573D01*
X30307Y197750D01*
Y198250D01*
X30573Y198427D01*
X31054Y199149D01*
X31224Y200000D01*
X31054Y200851D01*
X30573Y201572D01*
X30307Y201750D01*
Y202250D01*
X30573Y202428D01*
X31054Y203149D01*
X31224Y204000D01*
X92500D01*
X92500Y126000D01*
D02*
G37*
G36*
X76813Y34500D02*
X2094Y34500D01*
Y70500D01*
X76813Y70500D01*
Y34500D01*
D02*
G37*
%LPC*%
G36*
X145500Y338216D02*
Y334500D01*
X149216D01*
X149136Y335108D01*
X148708Y336141D01*
X148028Y337028D01*
X147141Y337708D01*
X146108Y338136D01*
X145500Y338216D01*
D02*
G37*
G36*
X144500Y338216D02*
X143892Y338136D01*
X142859Y337708D01*
X141972Y337028D01*
X141292Y336141D01*
X140864Y335108D01*
X140784Y334500D01*
X144500D01*
Y338216D01*
D02*
G37*
G36*
X149216Y333500D02*
X145500D01*
Y329784D01*
X146108Y329864D01*
X147141Y330292D01*
X148028Y330973D01*
X148708Y331859D01*
X149136Y332892D01*
X149216Y333500D01*
D02*
G37*
G36*
X144500D02*
X140784D01*
X140864Y332892D01*
X141292Y331859D01*
X141972Y330973D01*
X142859Y330292D01*
X143892Y329864D01*
X144500Y329784D01*
Y333500D01*
D02*
G37*
G36*
X216000Y261024D02*
X214788Y260865D01*
X213659Y260397D01*
X212689Y259653D01*
X211945Y258683D01*
X211478Y257554D01*
X211318Y256343D01*
X211478Y255131D01*
X211945Y254002D01*
X212689Y253032D01*
X213659Y252288D01*
X214788Y251820D01*
X215612Y251712D01*
X215904Y251673D01*
Y251169D01*
X215612Y251131D01*
X214788Y251022D01*
X213659Y250554D01*
X212689Y249811D01*
X211945Y248841D01*
X211478Y247712D01*
X211318Y246500D01*
X211478Y245288D01*
X211945Y244159D01*
X212689Y243190D01*
X213659Y242445D01*
X214788Y241978D01*
X216000Y241818D01*
X217212Y241978D01*
X218341Y242445D01*
X219310Y243190D01*
X220055Y244159D01*
X220522Y245288D01*
X220682Y246500D01*
X220522Y247712D01*
X220055Y248841D01*
X219310Y249811D01*
X218341Y250554D01*
X217212Y251022D01*
X216388Y251131D01*
X216096Y251169D01*
Y251673D01*
X216388Y251712D01*
X217212Y251820D01*
X218341Y252288D01*
X219310Y253032D01*
X220055Y254002D01*
X220522Y255131D01*
X220682Y256343D01*
X220522Y257554D01*
X220055Y258683D01*
X219310Y259653D01*
X218341Y260397D01*
X217212Y260865D01*
X216000Y261024D01*
D02*
G37*
G36*
X220442Y241099D02*
X216500D01*
Y237158D01*
X220442D01*
Y241099D01*
D02*
G37*
G36*
X215500D02*
X211558D01*
Y237158D01*
X215500D01*
Y241099D01*
D02*
G37*
G36*
X220442Y236157D02*
X216500D01*
Y232216D01*
X220442D01*
Y236157D01*
D02*
G37*
G36*
X215500D02*
X211558D01*
Y232216D01*
X215500D01*
Y236157D01*
D02*
G37*
G36*
X184000Y233582D02*
X183149Y233413D01*
X182428Y232931D01*
X181945Y232209D01*
X181776Y231358D01*
X181945Y230507D01*
X182428Y229786D01*
X183149Y229304D01*
X184000Y229134D01*
X184851Y229304D01*
X185573Y229786D01*
X186055Y230507D01*
X186224Y231358D01*
X186055Y232209D01*
X185573Y232931D01*
X184851Y233413D01*
X184000Y233582D01*
D02*
G37*
G36*
X152000Y229724D02*
X151149Y229555D01*
X150427Y229072D01*
X149945Y228351D01*
X149776Y227500D01*
X149945Y226649D01*
X150427Y225927D01*
X151149Y225445D01*
X152000Y225276D01*
X152851Y225445D01*
X153572Y225927D01*
X154054Y226649D01*
X154224Y227500D01*
X154054Y228351D01*
X153572Y229072D01*
X152851Y229555D01*
X152000Y229724D01*
D02*
G37*
G36*
X216000Y219524D02*
X214788Y219365D01*
X213659Y218897D01*
X212689Y218153D01*
X211945Y217183D01*
X211478Y216054D01*
X211318Y214843D01*
X211478Y213631D01*
X211945Y212502D01*
X212689Y211532D01*
X213659Y210788D01*
X214788Y210320D01*
X215612Y210212D01*
X215904Y210173D01*
Y209669D01*
X215612Y209631D01*
X214788Y209522D01*
X213659Y209054D01*
X212689Y208311D01*
X211945Y207341D01*
X211478Y206212D01*
X211318Y205000D01*
X211478Y203788D01*
X211945Y202659D01*
X212689Y201690D01*
X213659Y200945D01*
X214788Y200478D01*
X216000Y200318D01*
X217212Y200478D01*
X218341Y200945D01*
X219310Y201690D01*
X220055Y202659D01*
X220522Y203788D01*
X220682Y205000D01*
X220522Y206212D01*
X220055Y207341D01*
X219310Y208311D01*
X218341Y209054D01*
X217212Y209522D01*
X216388Y209631D01*
X216096Y209669D01*
Y210173D01*
X216388Y210212D01*
X217212Y210320D01*
X218341Y210788D01*
X219310Y211532D01*
X220055Y212502D01*
X220522Y213631D01*
X220682Y214843D01*
X220522Y216054D01*
X220055Y217183D01*
X219310Y218153D01*
X218341Y218897D01*
X217212Y219365D01*
X216000Y219524D01*
D02*
G37*
G36*
X220442Y199599D02*
X216500D01*
Y195658D01*
X220442D01*
Y199599D01*
D02*
G37*
G36*
X215500D02*
X211558D01*
Y195658D01*
X215500D01*
Y199599D01*
D02*
G37*
G36*
X220442Y194658D02*
X216500D01*
Y190716D01*
X220442D01*
Y194658D01*
D02*
G37*
G36*
X215500D02*
X211558D01*
Y190716D01*
X215500D01*
Y194658D01*
D02*
G37*
G36*
X216000Y177788D02*
X214788Y177629D01*
X213659Y177161D01*
X212689Y176417D01*
X211945Y175447D01*
X211478Y174318D01*
X211318Y173106D01*
X211478Y171895D01*
X211945Y170765D01*
X212689Y169796D01*
X213659Y169052D01*
X214788Y168584D01*
X215612Y168476D01*
X215904Y168437D01*
Y167933D01*
X215612Y167894D01*
X214788Y167786D01*
X213659Y167318D01*
X212689Y166574D01*
X211945Y165605D01*
X211478Y164476D01*
X211318Y163264D01*
X211478Y162052D01*
X211945Y160923D01*
X212689Y159953D01*
X213659Y159209D01*
X214788Y158741D01*
X215612Y158633D01*
X215904Y158595D01*
Y158090D01*
X215612Y158052D01*
X214788Y157943D01*
X213659Y157476D01*
X212689Y156732D01*
X211945Y155762D01*
X211478Y154633D01*
X211318Y153421D01*
X211478Y152209D01*
X211945Y151080D01*
X212689Y150111D01*
X213659Y149367D01*
X214788Y148899D01*
X215612Y148791D01*
X215904Y148752D01*
Y148248D01*
X215612Y148210D01*
X214788Y148101D01*
X213659Y147633D01*
X212689Y146889D01*
X211945Y145920D01*
X211478Y144790D01*
X211318Y143579D01*
X211478Y142367D01*
X211945Y141238D01*
X212689Y140268D01*
X213659Y139524D01*
X214788Y139057D01*
X215612Y138948D01*
X215904Y138910D01*
Y138405D01*
X215612Y138367D01*
X214788Y138259D01*
X213659Y137791D01*
X212689Y137047D01*
X211945Y136077D01*
X211478Y134948D01*
X211318Y133736D01*
X211478Y132525D01*
X211945Y131395D01*
X212689Y130426D01*
X213659Y129682D01*
X214788Y129214D01*
X216000Y129054D01*
X217212Y129214D01*
X218341Y129682D01*
X219310Y130426D01*
X220055Y131395D01*
X220522Y132525D01*
X220682Y133736D01*
X220522Y134948D01*
X220055Y136077D01*
X219310Y137047D01*
X218341Y137791D01*
X217212Y138259D01*
X216388Y138367D01*
X216096Y138405D01*
Y138910D01*
X216388Y138948D01*
X217212Y139057D01*
X218341Y139524D01*
X219310Y140268D01*
X220055Y141238D01*
X220522Y142367D01*
X220682Y143579D01*
X220522Y144790D01*
X220055Y145920D01*
X219310Y146889D01*
X218341Y147633D01*
X217212Y148101D01*
X216388Y148210D01*
X216096Y148248D01*
Y148752D01*
X216388Y148791D01*
X217212Y148899D01*
X218341Y149367D01*
X219310Y150111D01*
X220055Y151080D01*
X220522Y152209D01*
X220682Y153421D01*
X220522Y154633D01*
X220055Y155762D01*
X219310Y156732D01*
X218341Y157476D01*
X217212Y157943D01*
X216388Y158052D01*
X216096Y158090D01*
Y158595D01*
X216388Y158633D01*
X217212Y158741D01*
X218341Y159209D01*
X219310Y159953D01*
X220055Y160923D01*
X220522Y162052D01*
X220682Y163264D01*
X220522Y164476D01*
X220055Y165605D01*
X219310Y166574D01*
X218341Y167318D01*
X217212Y167786D01*
X216388Y167894D01*
X216096Y167933D01*
Y168437D01*
X216388Y168476D01*
X217212Y168584D01*
X218341Y169052D01*
X219310Y169796D01*
X220055Y170765D01*
X220522Y171895D01*
X220682Y173106D01*
X220522Y174318D01*
X220055Y175447D01*
X219310Y176417D01*
X218341Y177161D01*
X217212Y177629D01*
X216000Y177788D01*
D02*
G37*
G36*
X220642Y128535D02*
X211358D01*
Y119252D01*
X220642D01*
Y128535D01*
D02*
G37*
G36*
X93000Y251224D02*
X92149Y251055D01*
X91427Y250572D01*
X90945Y249851D01*
X90776Y249000D01*
X90945Y248149D01*
X91427Y247428D01*
X92149Y246945D01*
X93000Y246776D01*
X93851Y246945D01*
X94573Y247428D01*
X95055Y248149D01*
X95224Y249000D01*
X95055Y249851D01*
X94573Y250572D01*
X93851Y251055D01*
X93000Y251224D01*
D02*
G37*
G36*
X79500Y244724D02*
X78649Y244555D01*
X77928Y244073D01*
X77445Y243351D01*
X77276Y242500D01*
X77445Y241649D01*
X77928Y240928D01*
X78649Y240445D01*
X79500Y240276D01*
X80351Y240445D01*
X81072Y240928D01*
X81555Y241649D01*
X81724Y242500D01*
X81555Y243351D01*
X81072Y244073D01*
X80351Y244555D01*
X79500Y244724D01*
D02*
G37*
G36*
X103142Y215724D02*
X102291Y215555D01*
X101569Y215072D01*
X101087Y214351D01*
X100918Y213500D01*
X101087Y212649D01*
X101569Y211928D01*
X102291Y211445D01*
X103142Y211276D01*
X103993Y211445D01*
X104714Y211928D01*
X105196Y212649D01*
X105366Y213500D01*
X105196Y214351D01*
X104714Y215072D01*
X103993Y215555D01*
X103142Y215724D01*
D02*
G37*
G36*
Y201724D02*
X102291Y201554D01*
X101569Y201073D01*
X101087Y200351D01*
X100918Y199500D01*
X101087Y198649D01*
X101569Y197927D01*
X102291Y197445D01*
X103142Y197276D01*
X103993Y197445D01*
X104714Y197927D01*
X105196Y198649D01*
X105366Y199500D01*
X105196Y200351D01*
X104714Y201073D01*
X103993Y201554D01*
X103142Y201724D01*
D02*
G37*
G36*
X176000Y191224D02*
X175149Y191054D01*
X174427Y190573D01*
X173945Y189851D01*
X173776Y189000D01*
X173945Y188149D01*
X174427Y187427D01*
X175149Y186945D01*
X176000Y186776D01*
X176851Y186945D01*
X177573Y187427D01*
X178054Y188149D01*
X178224Y189000D01*
X178054Y189851D01*
X177573Y190573D01*
X176851Y191054D01*
X176000Y191224D01*
D02*
G37*
G36*
X142500Y190361D02*
X141764Y190214D01*
X141140Y189797D01*
X140724Y189174D01*
X140577Y188438D01*
X140724Y187702D01*
X141140Y187078D01*
X141764Y186662D01*
X142500Y186515D01*
X143236Y186662D01*
X143860Y187078D01*
X144276Y187702D01*
X144423Y188438D01*
X144276Y189174D01*
X143860Y189797D01*
X143236Y190214D01*
X142500Y190361D01*
D02*
G37*
G36*
X123600Y188724D02*
X122749Y188555D01*
X122028Y188073D01*
X121545Y187351D01*
X121376Y186500D01*
X121545Y185649D01*
X122028Y184927D01*
X122749Y184446D01*
X123600Y184276D01*
X124451Y184446D01*
X125172Y184927D01*
X125654Y185649D01*
X125824Y186500D01*
X125654Y187351D01*
X125172Y188073D01*
X124451Y188555D01*
X123600Y188724D01*
D02*
G37*
G36*
X187000Y187074D02*
X186149Y186904D01*
X185427Y186422D01*
X184945Y185701D01*
X184776Y184850D01*
X184945Y183999D01*
X185427Y183277D01*
X186149Y182795D01*
X187000Y182626D01*
X187851Y182795D01*
X188573Y183277D01*
X189055Y183999D01*
X189224Y184850D01*
X189055Y185701D01*
X188573Y186422D01*
X187851Y186904D01*
X187000Y187074D01*
D02*
G37*
G36*
X143549Y184874D02*
X142813Y184728D01*
X142189Y184311D01*
X141772Y183687D01*
X141626Y182951D01*
X141772Y182215D01*
X142189Y181591D01*
X142813Y181175D01*
X143549Y181028D01*
X144285Y181175D01*
X144908Y181591D01*
X145325Y182215D01*
X145472Y182951D01*
X145325Y183687D01*
X144908Y184311D01*
X144285Y184728D01*
X143549Y184874D01*
D02*
G37*
G36*
X177001Y181923D02*
X176265Y181776D01*
X175641Y181360D01*
X175224Y180736D01*
X175078Y180000D01*
X175224Y179264D01*
X175641Y178640D01*
X176265Y178224D01*
X177001Y178077D01*
X177737Y178224D01*
X178360Y178640D01*
X178777Y179264D01*
X178924Y180000D01*
X178777Y180736D01*
X178360Y181360D01*
X177737Y181776D01*
X177001Y181923D01*
D02*
G37*
G36*
X123600Y181224D02*
X122749Y181054D01*
X122028Y180572D01*
X121545Y179851D01*
X121376Y179000D01*
X121545Y178149D01*
X122028Y177427D01*
X122749Y176945D01*
X123600Y176776D01*
X124451Y176945D01*
X125172Y177427D01*
X125654Y178149D01*
X125824Y179000D01*
X125654Y179851D01*
X125172Y180572D01*
X124451Y181054D01*
X123600Y181224D01*
D02*
G37*
G36*
X172500Y175382D02*
X171764Y175236D01*
X171140Y174819D01*
X170724Y174196D01*
X170577Y173460D01*
X170724Y172724D01*
X171140Y172100D01*
X171764Y171683D01*
X172500Y171537D01*
X173236Y171683D01*
X173860Y172100D01*
X174276Y172724D01*
X174423Y173460D01*
X174276Y174196D01*
X173860Y174819D01*
X173236Y175236D01*
X172500Y175382D01*
D02*
G37*
G36*
X128201Y169925D02*
X127350Y169756D01*
X126629Y169274D01*
X126147Y168552D01*
X125978Y167701D01*
X126147Y166850D01*
X126629Y166129D01*
X127350Y165647D01*
X128201Y165478D01*
X129052Y165647D01*
X129774Y166129D01*
X130256Y166850D01*
X130425Y167701D01*
X130256Y168552D01*
X129774Y169274D01*
X129052Y169756D01*
X128201Y169925D01*
D02*
G37*
G36*
X174500Y166923D02*
X173764Y166776D01*
X173140Y166360D01*
X172724Y165736D01*
X172577Y165000D01*
X172724Y164264D01*
X173140Y163640D01*
X173764Y163224D01*
X174500Y163077D01*
X175236Y163224D01*
X175860Y163640D01*
X176276Y164264D01*
X176423Y165000D01*
X176276Y165736D01*
X175860Y166360D01*
X175236Y166776D01*
X174500Y166923D01*
D02*
G37*
G36*
X140500Y165423D02*
X139764Y165276D01*
X139140Y164860D01*
X138724Y164236D01*
X138577Y163500D01*
X138724Y162764D01*
X138404Y162342D01*
X138000Y162423D01*
X137264Y162276D01*
X136640Y161860D01*
X136224Y161236D01*
X136077Y160500D01*
X136224Y159764D01*
X136640Y159140D01*
X137264Y158724D01*
X138000Y158577D01*
X138736Y158724D01*
X139360Y159140D01*
X139776Y159764D01*
X139923Y160500D01*
X139776Y161236D01*
X140096Y161658D01*
X140500Y161577D01*
X141236Y161724D01*
X141860Y162140D01*
X142276Y162764D01*
X142423Y163500D01*
X142276Y164236D01*
X141860Y164860D01*
X141236Y165276D01*
X140500Y165423D01*
D02*
G37*
G36*
X180045Y165923D02*
X179309Y165776D01*
X178686Y165360D01*
X178269Y164736D01*
X178122Y164000D01*
X178245Y163382D01*
X178059Y162835D01*
X177764Y162776D01*
X177140Y162360D01*
X176724Y161736D01*
X176577Y161000D01*
X176724Y160264D01*
X177140Y159640D01*
X177764Y159224D01*
X178500Y159077D01*
X179236Y159224D01*
X179860Y159640D01*
X180276Y160264D01*
X180423Y161000D01*
X180300Y161618D01*
X180487Y162165D01*
X180781Y162224D01*
X181405Y162640D01*
X181822Y163264D01*
X181968Y164000D01*
X181822Y164736D01*
X181405Y165360D01*
X180781Y165776D01*
X180045Y165923D01*
D02*
G37*
G36*
X168500Y138923D02*
X167764Y138776D01*
X167140Y138360D01*
X166724Y137736D01*
X166577Y137000D01*
X166724Y136264D01*
X167140Y135640D01*
X167764Y135224D01*
X168500Y135077D01*
X169236Y135224D01*
X169860Y135640D01*
X170276Y136264D01*
X170423Y137000D01*
X170276Y137736D01*
X169860Y138360D01*
X169236Y138776D01*
X168500Y138923D01*
D02*
G37*
G36*
X156000Y134224D02*
X155149Y134055D01*
X154428Y133572D01*
X153945Y132851D01*
X153776Y132000D01*
X153945Y131149D01*
X154428Y130428D01*
X155149Y129946D01*
X156000Y129776D01*
X156851Y129946D01*
X157572Y130428D01*
X158054Y131149D01*
X158224Y132000D01*
X158054Y132851D01*
X157572Y133572D01*
X156851Y134055D01*
X156000Y134224D01*
D02*
G37*
G36*
X103142Y132224D02*
X102291Y132054D01*
X101569Y131572D01*
X101087Y130851D01*
X100918Y130000D01*
X101087Y129149D01*
X101569Y128428D01*
X102291Y127945D01*
X103142Y127776D01*
X103993Y127945D01*
X104714Y128428D01*
X105196Y129149D01*
X105366Y130000D01*
X105196Y130851D01*
X104714Y131572D01*
X103993Y132054D01*
X103142Y132224D01*
D02*
G37*
G36*
X133500Y129423D02*
X132764Y129276D01*
X132140Y128860D01*
X131724Y128236D01*
X131577Y127500D01*
X131724Y126764D01*
X132140Y126140D01*
X132764Y125724D01*
X133500Y125577D01*
X134236Y125724D01*
X134860Y126140D01*
X135276Y126764D01*
X135423Y127500D01*
X135276Y128236D01*
X134860Y128860D01*
X134236Y129276D01*
X133500Y129423D01*
D02*
G37*
G36*
X128500Y126923D02*
X127764Y126776D01*
X127140Y126360D01*
X126724Y125736D01*
X126577Y125000D01*
X126724Y124264D01*
X127140Y123640D01*
X127764Y123224D01*
X128500Y123077D01*
X129236Y123224D01*
X129860Y123640D01*
X130276Y124264D01*
X130423Y125000D01*
X130276Y125736D01*
X129860Y126360D01*
X129236Y126776D01*
X128500Y126923D01*
D02*
G37*
G36*
X139000Y125923D02*
X138264Y125776D01*
X137640Y125360D01*
X137224Y124736D01*
X137077Y124000D01*
X137224Y123264D01*
X137640Y122640D01*
X138264Y122224D01*
X139000Y122077D01*
X139736Y122224D01*
X140360Y122640D01*
X140776Y123264D01*
X140923Y124000D01*
X140776Y124736D01*
X140360Y125360D01*
X139736Y125776D01*
X139000Y125923D01*
D02*
G37*
G36*
X122500Y117923D02*
X121764Y117776D01*
X121140Y117360D01*
X120724Y116736D01*
X120577Y116000D01*
X120724Y115264D01*
X121140Y114640D01*
X121764Y114224D01*
X122500Y114077D01*
X123236Y114224D01*
X123860Y114640D01*
X124276Y115264D01*
X124423Y116000D01*
X124276Y116736D01*
X123860Y117360D01*
X123236Y117776D01*
X122500Y117923D01*
D02*
G37*
G36*
X103142Y118224D02*
X102291Y118054D01*
X101569Y117572D01*
X101087Y116851D01*
X100918Y116000D01*
X101087Y115149D01*
X101569Y114427D01*
X102291Y113945D01*
X103142Y113776D01*
X103993Y113945D01*
X104714Y114427D01*
X105196Y115149D01*
X105366Y116000D01*
X105196Y116851D01*
X104714Y117572D01*
X103993Y118054D01*
X103142Y118224D01*
D02*
G37*
G36*
X162000Y115224D02*
X161149Y115055D01*
X160427Y114573D01*
X159945Y113851D01*
X159776Y113000D01*
X159945Y112149D01*
X160427Y111427D01*
X161149Y110945D01*
X162000Y110776D01*
X162851Y110945D01*
X163573Y111427D01*
X164055Y112149D01*
X164224Y113000D01*
X164055Y113851D01*
X163573Y114573D01*
X162851Y115055D01*
X162000Y115224D01*
D02*
G37*
G36*
X143500Y107103D02*
X142288Y106944D01*
X141159Y106476D01*
X140190Y105732D01*
X139445Y104762D01*
X138978Y103633D01*
X138818Y102421D01*
X138978Y101209D01*
X139445Y100080D01*
X140190Y99111D01*
X141159Y98367D01*
X142288Y97899D01*
X143500Y97739D01*
X144712Y97899D01*
X145841Y98367D01*
X146810Y99111D01*
X147555Y100080D01*
X148022Y101209D01*
X148182Y102421D01*
X148022Y103633D01*
X147555Y104762D01*
X146810Y105732D01*
X145841Y106476D01*
X144712Y106944D01*
X143500Y107103D01*
D02*
G37*
G36*
X147942Y97021D02*
X144000D01*
Y93079D01*
X147942D01*
Y97021D01*
D02*
G37*
G36*
X143000D02*
X139058D01*
Y93079D01*
X143000D01*
Y97021D01*
D02*
G37*
G36*
X147942Y92079D02*
X144000D01*
Y88137D01*
X147942D01*
Y92079D01*
D02*
G37*
G36*
X143000D02*
X139058D01*
Y88137D01*
X143000D01*
Y92079D01*
D02*
G37*
G36*
X172035Y96642D02*
X162752D01*
Y87358D01*
X172035D01*
Y96642D01*
D02*
G37*
G36*
X40000Y174224D02*
X39149Y174055D01*
X38427Y173573D01*
X38250Y173307D01*
X37750D01*
X37573Y173573D01*
X36851Y174055D01*
X36000Y174224D01*
X35149Y174055D01*
X34427Y173573D01*
X33945Y172851D01*
X33776Y172000D01*
X33318Y171743D01*
X32851Y172055D01*
X32000Y172224D01*
X31149Y172055D01*
X30428Y171572D01*
X29945Y170851D01*
X29776Y170000D01*
X29945Y169149D01*
X30428Y168428D01*
X30693Y168250D01*
Y167750D01*
X30428Y167572D01*
X29945Y166851D01*
X29776Y166000D01*
X29945Y165149D01*
X30428Y164427D01*
X31149Y163945D01*
X32000Y163776D01*
X32851Y163945D01*
X33573Y164427D01*
X34055Y165149D01*
X34224Y166000D01*
X34055Y166851D01*
X33573Y167572D01*
X33307Y167750D01*
Y168250D01*
X33573Y168428D01*
X34055Y169149D01*
X34224Y170000D01*
X34683Y170257D01*
X35149Y169946D01*
X36000Y169776D01*
X36851Y169946D01*
X37573Y170428D01*
X37750Y170693D01*
X38250D01*
X38427Y170428D01*
X39149Y169946D01*
X40000Y169776D01*
X40851Y169946D01*
X41317Y170257D01*
X41776Y170000D01*
X41945Y169149D01*
X42428Y168428D01*
X42693Y168250D01*
Y167750D01*
X42428Y167572D01*
X41945Y166851D01*
X41776Y166000D01*
X41945Y165149D01*
X42428Y164427D01*
X43149Y163945D01*
X44000Y163776D01*
X44851Y163945D01*
X45573Y164427D01*
X46055Y165149D01*
X46224Y166000D01*
X46055Y166851D01*
X45573Y167572D01*
X45307Y167750D01*
Y168250D01*
X45573Y168428D01*
X46055Y169149D01*
X46224Y170000D01*
X46055Y170851D01*
X45573Y171572D01*
X44851Y172055D01*
X44000Y172224D01*
X43149Y172055D01*
X42682Y171743D01*
X42224Y172000D01*
X42055Y172851D01*
X41572Y173573D01*
X40851Y174055D01*
X40000Y174224D01*
D02*
G37*
G36*
X85000Y160224D02*
X84149Y160055D01*
X83428Y159573D01*
X82945Y158851D01*
X82776Y158000D01*
X82945Y157149D01*
X83428Y156428D01*
X84149Y155946D01*
X85000Y155776D01*
X85851Y155946D01*
X86572Y156428D01*
X87055Y157149D01*
X87224Y158000D01*
X87055Y158851D01*
X86572Y159573D01*
X85851Y160055D01*
X85000Y160224D01*
D02*
G37*
G36*
X80000D02*
X79149Y160055D01*
X78427Y159573D01*
X77945Y158851D01*
X77776Y158000D01*
X77945Y157149D01*
X78427Y156428D01*
X79149Y155946D01*
X80000Y155776D01*
X80851Y155946D01*
X81573Y156428D01*
X82055Y157149D01*
X82224Y158000D01*
X82055Y158851D01*
X81573Y159573D01*
X80851Y160055D01*
X80000Y160224D01*
D02*
G37*
G36*
X75000D02*
X74149Y160055D01*
X73427Y159573D01*
X72945Y158851D01*
X72776Y158000D01*
X72945Y157149D01*
X73427Y156428D01*
X74149Y155946D01*
X75000Y155776D01*
X75851Y155946D01*
X76573Y156428D01*
X77055Y157149D01*
X77224Y158000D01*
X77055Y158851D01*
X76573Y159573D01*
X75851Y160055D01*
X75000Y160224D01*
D02*
G37*
G36*
X78500Y138224D02*
X77649Y138055D01*
X76928Y137573D01*
X76750Y137307D01*
X76250D01*
X76073Y137573D01*
X75351Y138055D01*
X74500Y138224D01*
X73649Y138055D01*
X72927Y137573D01*
X72445Y136851D01*
X72276Y136000D01*
X72445Y135149D01*
X72927Y134427D01*
X73649Y133946D01*
X74500Y133776D01*
X75351Y133946D01*
X76073Y134427D01*
X76250Y134693D01*
X76750D01*
X76928Y134427D01*
X77649Y133946D01*
X78500Y133776D01*
X79351Y133946D01*
X80072Y134427D01*
X80554Y135149D01*
X80724Y136000D01*
X80554Y136851D01*
X80072Y137573D01*
X79351Y138055D01*
X78500Y138224D01*
D02*
G37*
G36*
Y132724D02*
X77649Y132554D01*
X76928Y132072D01*
X76750Y131807D01*
X76250D01*
X76073Y132072D01*
X75351Y132554D01*
X74500Y132724D01*
X73649Y132554D01*
X72927Y132072D01*
X72445Y131351D01*
X72276Y130500D01*
X72445Y129649D01*
X72927Y128928D01*
X73649Y128445D01*
X74500Y128276D01*
X75351Y128445D01*
X76073Y128928D01*
X76250Y129193D01*
X76750D01*
X76928Y128928D01*
X77649Y128445D01*
X78500Y128276D01*
X79351Y128445D01*
X80072Y128928D01*
X80554Y129649D01*
X80724Y130500D01*
X80554Y131351D01*
X80072Y132072D01*
X79351Y132554D01*
X78500Y132724D01*
D02*
G37*
%LPD*%
D58*
X126000Y253500D02*
X151216D01*
X167358Y237358D01*
D61*
X12000Y157579D02*
D03*
Y147736D02*
D03*
D62*
X216000Y236658D02*
D03*
Y195158D02*
D03*
X143500Y92579D02*
D03*
D64*
X220000Y53000D02*
D03*
X8000D02*
D03*
Y329000D02*
D03*
X220000D02*
D03*
D65*
X111685Y53000D02*
D03*
X72315D02*
D03*
D66*
X189000Y327000D02*
D03*
D67*
Y277000D02*
D03*
D68*
X145000Y334000D02*
D03*
D69*
X159000Y285500D02*
D03*
Y281500D02*
D03*
X163000Y279500D02*
D03*
X167000D02*
D03*
X171000Y285500D02*
D03*
Y281500D02*
D03*
X182500Y323000D02*
D03*
Y333000D02*
D03*
Y328000D02*
D03*
X31500Y98500D02*
D03*
Y94500D02*
D03*
X35500Y100500D02*
D03*
X39500D02*
D03*
X43500Y98500D02*
D03*
Y94500D02*
D03*
X43500Y83500D02*
D03*
Y87500D02*
D03*
X39500Y81500D02*
D03*
X35500D02*
D03*
X31500Y83500D02*
D03*
Y87500D02*
D03*
X175500Y176500D02*
D03*
X186000Y164500D02*
D03*
X126000Y201000D02*
D03*
Y234000D02*
D03*
X176000Y206500D02*
D03*
X139000D02*
D03*
X184500Y198358D02*
D03*
X83000Y186000D02*
D03*
X176000Y238500D02*
D03*
X172500Y308000D02*
D03*
Y313000D02*
D03*
X220000Y38000D02*
D03*
X74500Y112500D02*
D03*
Y118000D02*
D03*
X78500D02*
D03*
Y112500D02*
D03*
Y196000D02*
D03*
X74500D02*
D03*
Y201500D02*
D03*
X78500D02*
D03*
X74929Y83000D02*
D03*
X79929D02*
D03*
X84929D02*
D03*
Y166500D02*
D03*
X79929D02*
D03*
X74929D02*
D03*
X29000Y132500D02*
D03*
Y128500D02*
D03*
Y124500D02*
D03*
Y120500D02*
D03*
Y116500D02*
D03*
Y112500D02*
D03*
Y108500D02*
D03*
X32000Y159000D02*
D03*
Y155000D02*
D03*
X36000Y153000D02*
D03*
X40000D02*
D03*
X44000Y159000D02*
D03*
Y155000D02*
D03*
X162124Y183274D02*
D03*
X133850Y158500D02*
D03*
X139000Y238500D02*
D03*
X167358Y237358D02*
D03*
X113635Y260063D02*
D03*
X46000D02*
D03*
X195000Y68000D02*
D03*
Y63000D02*
D03*
Y58000D02*
D03*
Y53000D02*
D03*
Y48000D02*
D03*
Y43000D02*
D03*
Y38000D02*
D03*
X190000D02*
D03*
Y43000D02*
D03*
Y48000D02*
D03*
Y53000D02*
D03*
Y58000D02*
D03*
Y63000D02*
D03*
Y68000D02*
D03*
X205000D02*
D03*
Y63000D02*
D03*
Y58000D02*
D03*
Y53000D02*
D03*
Y48000D02*
D03*
Y43000D02*
D03*
Y38000D02*
D03*
X200000D02*
D03*
Y43000D02*
D03*
Y48000D02*
D03*
Y53000D02*
D03*
Y58000D02*
D03*
Y63000D02*
D03*
Y68000D02*
D03*
X215000D02*
D03*
Y38000D02*
D03*
X210000D02*
D03*
Y43000D02*
D03*
Y48000D02*
D03*
Y53000D02*
D03*
Y58000D02*
D03*
Y63000D02*
D03*
Y68000D02*
D03*
X220000D02*
D03*
X160000D02*
D03*
Y63000D02*
D03*
Y58000D02*
D03*
Y53000D02*
D03*
Y48000D02*
D03*
Y43000D02*
D03*
Y38000D02*
D03*
X155000D02*
D03*
Y43000D02*
D03*
Y48000D02*
D03*
Y53000D02*
D03*
Y58000D02*
D03*
Y63000D02*
D03*
Y68000D02*
D03*
X170000D02*
D03*
Y63000D02*
D03*
Y58000D02*
D03*
Y53000D02*
D03*
Y48000D02*
D03*
Y43000D02*
D03*
Y38000D02*
D03*
X165000D02*
D03*
Y43000D02*
D03*
Y48000D02*
D03*
Y53000D02*
D03*
Y58000D02*
D03*
Y63000D02*
D03*
Y68000D02*
D03*
X180000D02*
D03*
Y63000D02*
D03*
Y58000D02*
D03*
Y53000D02*
D03*
Y48000D02*
D03*
Y43000D02*
D03*
Y38000D02*
D03*
X175000D02*
D03*
Y43000D02*
D03*
Y48000D02*
D03*
Y53000D02*
D03*
Y58000D02*
D03*
Y63000D02*
D03*
Y68000D02*
D03*
X185000Y38000D02*
D03*
Y43000D02*
D03*
Y48000D02*
D03*
Y53000D02*
D03*
Y58000D02*
D03*
Y63000D02*
D03*
Y68000D02*
D03*
X125000D02*
D03*
Y63000D02*
D03*
Y58000D02*
D03*
Y53000D02*
D03*
Y48000D02*
D03*
Y43000D02*
D03*
Y38000D02*
D03*
X120000D02*
D03*
Y43000D02*
D03*
Y48000D02*
D03*
Y53000D02*
D03*
Y58000D02*
D03*
Y63000D02*
D03*
Y68000D02*
D03*
X135000D02*
D03*
Y63000D02*
D03*
Y58000D02*
D03*
Y53000D02*
D03*
Y48000D02*
D03*
Y43000D02*
D03*
Y38000D02*
D03*
X130000D02*
D03*
Y43000D02*
D03*
Y48000D02*
D03*
Y53000D02*
D03*
Y58000D02*
D03*
Y63000D02*
D03*
Y68000D02*
D03*
X145000D02*
D03*
Y63000D02*
D03*
Y58000D02*
D03*
Y53000D02*
D03*
Y48000D02*
D03*
Y43000D02*
D03*
Y38000D02*
D03*
X140000D02*
D03*
Y43000D02*
D03*
Y48000D02*
D03*
Y53000D02*
D03*
Y58000D02*
D03*
Y63000D02*
D03*
Y68000D02*
D03*
X150000Y38000D02*
D03*
Y43000D02*
D03*
Y48000D02*
D03*
Y53000D02*
D03*
Y58000D02*
D03*
Y63000D02*
D03*
Y68000D02*
D03*
X110000Y38000D02*
D03*
Y43000D02*
D03*
X115000Y38000D02*
D03*
Y43000D02*
D03*
X110000Y63000D02*
D03*
Y68000D02*
D03*
X115000Y63000D02*
D03*
Y68000D02*
D03*
X75000Y43000D02*
D03*
Y38000D02*
D03*
X70000Y43000D02*
D03*
Y38000D02*
D03*
X75000Y68000D02*
D03*
Y63000D02*
D03*
X70000Y68000D02*
D03*
Y63000D02*
D03*
X60000Y68000D02*
D03*
Y63000D02*
D03*
Y58000D02*
D03*
Y53000D02*
D03*
Y48000D02*
D03*
Y43000D02*
D03*
Y38000D02*
D03*
X65000D02*
D03*
Y43000D02*
D03*
Y48000D02*
D03*
Y53000D02*
D03*
Y58000D02*
D03*
Y63000D02*
D03*
Y68000D02*
D03*
X50000D02*
D03*
Y63000D02*
D03*
Y58000D02*
D03*
Y53000D02*
D03*
Y48000D02*
D03*
Y43000D02*
D03*
Y38000D02*
D03*
X55000D02*
D03*
Y43000D02*
D03*
Y48000D02*
D03*
Y53000D02*
D03*
Y58000D02*
D03*
Y63000D02*
D03*
Y68000D02*
D03*
X40000D02*
D03*
Y63000D02*
D03*
Y58000D02*
D03*
Y53000D02*
D03*
Y48000D02*
D03*
Y43000D02*
D03*
Y38000D02*
D03*
X45000D02*
D03*
Y43000D02*
D03*
Y48000D02*
D03*
Y53000D02*
D03*
Y58000D02*
D03*
Y63000D02*
D03*
Y68000D02*
D03*
X30000D02*
D03*
Y63000D02*
D03*
Y58000D02*
D03*
Y53000D02*
D03*
Y48000D02*
D03*
Y43000D02*
D03*
Y38000D02*
D03*
X35000D02*
D03*
Y43000D02*
D03*
Y48000D02*
D03*
Y53000D02*
D03*
Y58000D02*
D03*
Y63000D02*
D03*
Y68000D02*
D03*
X25000D02*
D03*
Y63000D02*
D03*
Y58000D02*
D03*
Y53000D02*
D03*
Y48000D02*
D03*
Y43000D02*
D03*
Y38000D02*
D03*
X5000D02*
D03*
X10000D02*
D03*
X15000D02*
D03*
X20000D02*
D03*
Y43000D02*
D03*
Y48000D02*
D03*
Y53000D02*
D03*
Y58000D02*
D03*
Y63000D02*
D03*
Y68000D02*
D03*
X15000D02*
D03*
X10000D02*
D03*
X5000D02*
D03*
X147500Y343000D02*
D03*
X142500D02*
D03*
X122500Y313000D02*
D03*
Y318000D02*
D03*
Y328000D02*
D03*
Y333000D02*
D03*
Y343000D02*
D03*
X127500Y313000D02*
D03*
Y318000D02*
D03*
Y328000D02*
D03*
Y333000D02*
D03*
Y343000D02*
D03*
X137500Y313000D02*
D03*
Y318000D02*
D03*
Y328000D02*
D03*
Y333000D02*
D03*
Y343000D02*
D03*
X142500Y313000D02*
D03*
Y318000D02*
D03*
X152500Y313000D02*
D03*
Y318000D02*
D03*
Y328000D02*
D03*
Y333000D02*
D03*
Y343000D02*
D03*
X157500Y313000D02*
D03*
Y318000D02*
D03*
X162500D02*
D03*
X157500Y328000D02*
D03*
X162500D02*
D03*
X157500Y333000D02*
D03*
X162500D02*
D03*
X157500Y343000D02*
D03*
X162500D02*
D03*
X167500Y318000D02*
D03*
Y328000D02*
D03*
Y333000D02*
D03*
Y343000D02*
D03*
X177500Y313000D02*
D03*
Y318000D02*
D03*
Y328000D02*
D03*
Y333000D02*
D03*
Y343000D02*
D03*
X182500Y313000D02*
D03*
Y318000D02*
D03*
Y343000D02*
D03*
X192500Y313000D02*
D03*
Y318000D02*
D03*
Y343000D02*
D03*
X197500Y313000D02*
D03*
X202500D02*
D03*
X197500Y318000D02*
D03*
X202500D02*
D03*
X197500Y328000D02*
D03*
X202500D02*
D03*
X197500Y333000D02*
D03*
X202500D02*
D03*
X197500Y343000D02*
D03*
X202500D02*
D03*
X207500Y313000D02*
D03*
Y318000D02*
D03*
Y328000D02*
D03*
Y333000D02*
D03*
Y343000D02*
D03*
X217500Y313000D02*
D03*
Y343000D02*
D03*
X222500Y313000D02*
D03*
Y343000D02*
D03*
X122500Y308000D02*
D03*
Y338000D02*
D03*
Y323000D02*
D03*
X127500Y308000D02*
D03*
Y323000D02*
D03*
Y338000D02*
D03*
X137500Y308000D02*
D03*
Y323000D02*
D03*
Y338000D02*
D03*
X142500Y308000D02*
D03*
Y323000D02*
D03*
X152500Y308000D02*
D03*
Y323000D02*
D03*
Y338000D02*
D03*
X157500Y308000D02*
D03*
Y323000D02*
D03*
Y338000D02*
D03*
X162500D02*
D03*
Y323000D02*
D03*
X167500Y338000D02*
D03*
Y323000D02*
D03*
X177500Y308000D02*
D03*
Y323000D02*
D03*
Y338000D02*
D03*
X182500Y308000D02*
D03*
Y338000D02*
D03*
X192500Y308000D02*
D03*
Y338000D02*
D03*
X197500Y308000D02*
D03*
X202500D02*
D03*
X197500Y323000D02*
D03*
Y338000D02*
D03*
X202500Y323000D02*
D03*
Y338000D02*
D03*
X207500Y308000D02*
D03*
Y323000D02*
D03*
Y338000D02*
D03*
X217500Y308000D02*
D03*
X222500D02*
D03*
X132500Y313000D02*
D03*
X147500D02*
D03*
X132500Y318000D02*
D03*
X147500D02*
D03*
X132500Y328000D02*
D03*
Y333000D02*
D03*
Y343000D02*
D03*
X187500Y313000D02*
D03*
X172500Y318000D02*
D03*
X187500D02*
D03*
X172500Y328000D02*
D03*
Y333000D02*
D03*
Y343000D02*
D03*
X187500D02*
D03*
X212500Y313000D02*
D03*
Y343000D02*
D03*
X132500Y308000D02*
D03*
X147500D02*
D03*
X132500Y323000D02*
D03*
Y338000D02*
D03*
X147500Y323000D02*
D03*
X187500Y308000D02*
D03*
X172500Y323000D02*
D03*
Y338000D02*
D03*
X187500D02*
D03*
X212500Y308000D02*
D03*
X5000Y315000D02*
D03*
X10000D02*
D03*
X15000D02*
D03*
X35000D02*
D03*
Y320000D02*
D03*
X30000Y315000D02*
D03*
Y320000D02*
D03*
X25000Y315000D02*
D03*
Y320000D02*
D03*
X20000Y315000D02*
D03*
Y320000D02*
D03*
X35000Y325000D02*
D03*
Y330000D02*
D03*
X30000Y325000D02*
D03*
Y330000D02*
D03*
X25000Y325000D02*
D03*
Y330000D02*
D03*
X35000Y335000D02*
D03*
Y340000D02*
D03*
X30000Y335000D02*
D03*
Y340000D02*
D03*
X25000Y335000D02*
D03*
Y340000D02*
D03*
Y350000D02*
D03*
Y345000D02*
D03*
X30000Y350000D02*
D03*
Y345000D02*
D03*
X35000Y350000D02*
D03*
Y345000D02*
D03*
X20000Y325000D02*
D03*
Y330000D02*
D03*
Y335000D02*
D03*
Y340000D02*
D03*
Y345000D02*
D03*
Y350000D02*
D03*
X15000Y345000D02*
D03*
Y350000D02*
D03*
X10000Y345000D02*
D03*
Y350000D02*
D03*
X5000Y345000D02*
D03*
Y350000D02*
D03*
X84000Y309500D02*
D03*
X79000D02*
D03*
X74000D02*
D03*
Y319500D02*
D03*
X79000D02*
D03*
X84000D02*
D03*
X74000Y314500D02*
D03*
X79000D02*
D03*
X84000D02*
D03*
X74000Y329500D02*
D03*
X79000D02*
D03*
X84000D02*
D03*
X74000Y324500D02*
D03*
X79000D02*
D03*
X84000D02*
D03*
X74000Y339500D02*
D03*
X79000D02*
D03*
X84000D02*
D03*
X74000Y334500D02*
D03*
X79000D02*
D03*
X84000D02*
D03*
Y344500D02*
D03*
X79000D02*
D03*
X74000D02*
D03*
X84000Y349500D02*
D03*
X79000D02*
D03*
X74000D02*
D03*
D70*
X172642Y133500D02*
D03*
X161500Y179500D02*
D03*
D71*
X163118Y164245D02*
D03*
X156437Y150437D02*
D03*
X163563Y157563D02*
D03*
X166681Y160681D02*
D03*
X160000Y154000D02*
D03*
X149755Y157118D02*
D03*
X156882Y164245D02*
D03*
X149755Y150882D02*
D03*
X152873Y154000D02*
D03*
X156882Y143755D02*
D03*
X160000Y146873D02*
D03*
X167127Y154000D02*
D03*
X170245Y157118D02*
D03*
X163118Y143755D02*
D03*
X170245Y150882D02*
D03*
X153319Y160681D02*
D03*
X156437Y157563D02*
D03*
X163563Y150437D02*
D03*
X166681Y147319D02*
D03*
X153319D02*
D03*
X160000Y161127D02*
D03*
M02*
