G04*
G04 #@! TF.GenerationSoftware,Altium Limited,Altium Designer,20.1.8 (145)*
G04*
G04 Layer_Physical_Order=1*
G04 Layer_Color=255*
%FSLAX25Y25*%
%MOIN*%
G70*
G04*
G04 #@! TF.SameCoordinates,DCF3A4A8-B772-48C9-94DF-C36B93A42D3A*
G04*
G04*
G04 #@! TF.FilePolarity,Positive*
G04*
G01*
G75*
%ADD15C,0.00800*%
%ADD19R,0.03740X0.03543*%
%ADD20R,0.03740X0.05512*%
%ADD21R,0.05512X0.03740*%
G04:AMPARAMS|DCode=22|XSize=55.12mil|YSize=37.4mil|CornerRadius=0mil|HoleSize=0mil|Usage=FLASHONLY|Rotation=45.000|XOffset=0mil|YOffset=0mil|HoleType=Round|Shape=Rectangle|*
%AMROTATEDRECTD22*
4,1,4,-0.00626,-0.03271,-0.03271,-0.00626,0.00626,0.03271,0.03271,0.00626,-0.00626,-0.03271,0.0*
%
%ADD22ROTATEDRECTD22*%

G04:AMPARAMS|DCode=23|XSize=9.45mil|YSize=23.62mil|CornerRadius=0mil|HoleSize=0mil|Usage=FLASHONLY|Rotation=135.000|XOffset=0mil|YOffset=0mil|HoleType=Round|Shape=Rectangle|*
%AMROTATEDRECTD23*
4,1,4,0.01169,0.00501,-0.00501,-0.01169,-0.01169,-0.00501,0.00501,0.01169,0.01169,0.00501,0.0*
%
%ADD23ROTATEDRECTD23*%

G04:AMPARAMS|DCode=24|XSize=9.45mil|YSize=23.62mil|CornerRadius=0mil|HoleSize=0mil|Usage=FLASHONLY|Rotation=45.000|XOffset=0mil|YOffset=0mil|HoleType=Round|Shape=Rectangle|*
%AMROTATEDRECTD24*
4,1,4,0.00501,-0.01169,-0.01169,0.00501,-0.00501,0.01169,0.01169,-0.00501,0.00501,-0.01169,0.0*
%
%ADD24ROTATEDRECTD24*%

G04:AMPARAMS|DCode=25|XSize=55.12mil|YSize=37.4mil|CornerRadius=0mil|HoleSize=0mil|Usage=FLASHONLY|Rotation=315.000|XOffset=0mil|YOffset=0mil|HoleType=Round|Shape=Rectangle|*
%AMROTATEDRECTD25*
4,1,4,-0.03271,0.00626,-0.00626,0.03271,0.03271,-0.00626,0.00626,-0.03271,-0.03271,0.00626,0.0*
%
%ADD25ROTATEDRECTD25*%

%ADD26R,0.06693X0.05118*%
%ADD27R,0.03543X0.03150*%
%ADD28R,0.09843X0.09055*%
%ADD29R,0.08465X0.24803*%
%ADD30R,0.03150X0.03543*%
%ADD31R,0.05118X0.06693*%
%ADD32R,0.06102X0.02362*%
%ADD57P,0.29509X4X360.0*%
%ADD58C,0.01500*%
%ADD59C,0.02000*%
%ADD60C,0.25591*%
%ADD61C,0.07284*%
%ADD62R,0.07284X0.07284*%
%ADD63R,0.07284X0.07284*%
%ADD64R,0.11811X0.19685*%
%ADD65C,0.09055*%
%ADD66C,0.07240*%
%ADD67R,0.07240X0.07240*%
%ADD68C,0.06890*%
%ADD69C,0.02362*%
%ADD70C,0.01772*%
%ADD71C,0.00906*%
G36*
X107515Y358358D02*
X107560Y358230D01*
X107635Y358118D01*
X107740Y358020D01*
X107875Y357938D01*
X108040Y357870D01*
X108235Y357818D01*
X108460Y357780D01*
X108715Y357757D01*
X109000Y357750D01*
Y356250D01*
X108715Y356242D01*
X108460Y356220D01*
X108235Y356183D01*
X108040Y356130D01*
X107875Y356063D01*
X107740Y355980D01*
X107635Y355883D01*
X107560Y355770D01*
X107515Y355643D01*
X107500Y355500D01*
Y358500D01*
X107515Y358358D01*
D02*
G37*
G36*
X96512Y355500D02*
X96497Y355643D01*
X96452Y355770D01*
X96376Y355883D01*
X96270Y355980D01*
X96134Y356063D01*
X95968Y356130D01*
X95771Y356183D01*
X95544Y356220D01*
X95288Y356242D01*
X95000Y356250D01*
Y357750D01*
X95288Y357757D01*
X95544Y357780D01*
X95771Y357818D01*
X95968Y357870D01*
X96134Y357938D01*
X96270Y358020D01*
X96376Y358118D01*
X96452Y358230D01*
X96497Y358358D01*
X96512Y358500D01*
Y355500D01*
D02*
G37*
G36*
X61515Y358358D02*
X61560Y358230D01*
X61635Y358118D01*
X61740Y358020D01*
X61875Y357938D01*
X62040Y357870D01*
X62235Y357818D01*
X62460Y357780D01*
X62715Y357757D01*
X63000Y357750D01*
Y356250D01*
X62715Y356242D01*
X62460Y356220D01*
X62235Y356183D01*
X62040Y356130D01*
X61875Y356063D01*
X61740Y355980D01*
X61635Y355883D01*
X61560Y355770D01*
X61515Y355643D01*
X61500Y355500D01*
Y358500D01*
X61515Y358358D01*
D02*
G37*
G36*
X50512Y355500D02*
X50497Y355643D01*
X50452Y355770D01*
X50376Y355883D01*
X50270Y355980D01*
X50134Y356063D01*
X49968Y356130D01*
X49771Y356183D01*
X49545Y356220D01*
X49288Y356242D01*
X49000Y356250D01*
Y357750D01*
X49288Y357757D01*
X49545Y357780D01*
X49771Y357818D01*
X49968Y357870D01*
X50134Y357938D01*
X50270Y358020D01*
X50376Y358118D01*
X50452Y358230D01*
X50497Y358358D01*
X50512Y358500D01*
Y355500D01*
D02*
G37*
G36*
X109591Y347331D02*
X109576Y347410D01*
X109531Y347482D01*
X109456Y347545D01*
X109351Y347599D01*
X109216Y347645D01*
X109051Y347683D01*
X108856Y347712D01*
X108631Y347733D01*
X108370Y347741D01*
X107945Y347712D01*
X107899Y347701D01*
X107865Y347688D01*
X107843Y347673D01*
Y349327D01*
X107865Y349312D01*
X107899Y349299D01*
X107945Y349288D01*
X108004Y349278D01*
X108159Y349262D01*
X108349Y349254D01*
X108376Y349254D01*
X108856Y349288D01*
X109051Y349317D01*
X109216Y349355D01*
X109351Y349401D01*
X109456Y349455D01*
X109531Y349518D01*
X109576Y349589D01*
X109591Y349669D01*
Y347331D01*
D02*
G37*
G36*
X48424Y334590D02*
X48469Y334518D01*
X48544Y334455D01*
X48649Y334401D01*
X48784Y334355D01*
X48949Y334317D01*
X49144Y334288D01*
X49369Y334267D01*
X49909Y334250D01*
Y332750D01*
X49624Y332746D01*
X49144Y332712D01*
X48949Y332683D01*
X48784Y332645D01*
X48649Y332599D01*
X48544Y332545D01*
X48469Y332482D01*
X48424Y332411D01*
X48409Y332331D01*
Y334669D01*
X48424Y334590D01*
D02*
G37*
G36*
X109591Y323331D02*
X109576Y323411D01*
X109531Y323482D01*
X109456Y323545D01*
X109351Y323599D01*
X109216Y323645D01*
X109051Y323683D01*
X108856Y323712D01*
X108631Y323733D01*
X108370Y323741D01*
X107946Y323713D01*
X107899Y323701D01*
X107865Y323688D01*
X107844Y323674D01*
X107847Y325327D01*
X107868Y325313D01*
X107902Y325300D01*
X107949Y325288D01*
X108008Y325278D01*
X108163Y325262D01*
X108352Y325254D01*
X108376Y325254D01*
X108856Y325288D01*
X109051Y325317D01*
X109216Y325355D01*
X109351Y325401D01*
X109456Y325455D01*
X109531Y325518D01*
X109576Y325589D01*
X109591Y325669D01*
Y323331D01*
D02*
G37*
G36*
X50500Y336000D02*
X39000D01*
Y329000D01*
X50500Y329000D01*
Y312000D01*
X2094Y312000D01*
Y352000D01*
X50500D01*
Y336000D01*
D02*
G37*
G36*
X53621Y310561D02*
X53425Y310354D01*
X53258Y310160D01*
X53123Y309977D01*
X53018Y309807D01*
X52943Y309648D01*
X52899Y309501D01*
X52886Y309365D01*
X52904Y309242D01*
X52952Y309130D01*
X53030Y309030D01*
X51970Y307970D01*
X51806Y308118D01*
X51629Y308251D01*
X51437Y308368D01*
X51230Y308469D01*
X51009Y308555D01*
X50774Y308625D01*
X50525Y308680D01*
X50261Y308719D01*
X49982Y308742D01*
X49768Y308748D01*
X49624Y308746D01*
X49144Y308712D01*
X48949Y308683D01*
X48784Y308645D01*
X48649Y308599D01*
X48544Y308545D01*
X48469Y308482D01*
X48424Y308411D01*
X48409Y308331D01*
Y310669D01*
X48424Y310590D01*
X48469Y310518D01*
X48544Y310455D01*
X48649Y310401D01*
X48784Y310355D01*
X48949Y310317D01*
X49144Y310288D01*
X49369Y310267D01*
X49791Y310254D01*
X49985Y310261D01*
X50272Y310292D01*
X50550Y310346D01*
X50819Y310420D01*
X51079Y310515D01*
X51331Y310632D01*
X51574Y310770D01*
X51808Y310929D01*
X52034Y311109D01*
X52250Y311311D01*
X53621Y310561D01*
D02*
G37*
G36*
X44452Y308331D02*
X44336Y308416D01*
X44198Y308458D01*
X44039D01*
X43858Y308416D01*
X43657Y308331D01*
X43434Y308204D01*
X43190Y308034D01*
X42925Y307822D01*
X42331Y307270D01*
X41270Y308331D01*
X41567Y308639D01*
X42034Y309190D01*
X42204Y309434D01*
X42331Y309657D01*
X42416Y309858D01*
X42458Y310039D01*
Y310198D01*
X42416Y310336D01*
X42331Y310452D01*
X44452Y308331D01*
D02*
G37*
G36*
X96500Y306500D02*
X61500D01*
Y352000D01*
X96500D01*
Y306500D01*
D02*
G37*
G36*
X225905D02*
X168556Y306500D01*
Y308142D01*
X161444D01*
Y306500D01*
X107500Y306500D01*
X107500Y322000D01*
X119000D01*
Y329000D01*
X107500D01*
Y346000D01*
X225905Y346000D01*
X225905Y306500D01*
D02*
G37*
G36*
X166358Y299485D02*
X166230Y299440D01*
X166118Y299365D01*
X166020Y299260D01*
X165937Y299125D01*
X165870Y298960D01*
X165817Y298765D01*
X165780Y298540D01*
X165758Y298285D01*
X165750Y298000D01*
X164250D01*
X164242Y298285D01*
X164220Y298540D01*
X164182Y298765D01*
X164130Y298960D01*
X164062Y299125D01*
X163980Y299260D01*
X163883Y299365D01*
X163770Y299440D01*
X163643Y299485D01*
X163500Y299500D01*
X166500D01*
X166358Y299485D01*
D02*
G37*
G36*
X108621Y298061D02*
X108430Y297849D01*
X108282Y297636D01*
X108176Y297424D01*
X108112Y297212D01*
X108091Y297000D01*
X108112Y296788D01*
X108176Y296576D01*
X108282Y296364D01*
X108430Y296151D01*
X108621Y295939D01*
X107250Y295189D01*
X107034Y295391D01*
X106808Y295571D01*
X106574Y295730D01*
X106331Y295868D01*
X106079Y295985D01*
X105819Y296080D01*
X105550Y296154D01*
X105272Y296208D01*
X104985Y296239D01*
X104689Y296250D01*
Y297750D01*
X104985Y297761D01*
X105272Y297792D01*
X105550Y297846D01*
X105819Y297920D01*
X106079Y298015D01*
X106331Y298132D01*
X106574Y298270D01*
X106808Y298429D01*
X107034Y298609D01*
X107250Y298811D01*
X108621Y298061D01*
D02*
G37*
G36*
X165758Y295712D02*
X165780Y295456D01*
X165817Y295229D01*
X165870Y295032D01*
X165937Y294866D01*
X166020Y294730D01*
X166118Y294624D01*
X166230Y294548D01*
X166358Y294503D01*
X166500Y294488D01*
X163500D01*
X163643Y294503D01*
X163770Y294548D01*
X163883Y294624D01*
X163980Y294730D01*
X164062Y294866D01*
X164130Y295032D01*
X164182Y295229D01*
X164220Y295456D01*
X164242Y295712D01*
X164250Y296000D01*
X165750D01*
X165758Y295712D01*
D02*
G37*
G36*
X120757Y291715D02*
X120763Y291656D01*
X120827D01*
X120812Y291635D01*
X120799Y291601D01*
X120788Y291555D01*
X120778Y291496D01*
X120777Y291492D01*
X120780Y291460D01*
X120817Y291235D01*
X120870Y291040D01*
X120938Y290875D01*
X121020Y290740D01*
X121117Y290635D01*
X121230Y290560D01*
X121358Y290515D01*
X121500Y290500D01*
X118500D01*
X118642Y290515D01*
X118770Y290560D01*
X118883Y290635D01*
X118980Y290740D01*
X119062Y290875D01*
X119130Y291040D01*
X119183Y291235D01*
X119219Y291455D01*
X119212Y291555D01*
X119201Y291601D01*
X119188Y291635D01*
X119173Y291656D01*
X119237D01*
X119243Y291715D01*
X119250Y292000D01*
X120750D01*
X120757Y291715D01*
D02*
G37*
G36*
X110899Y292457D02*
X110922Y292200D01*
X110959Y291973D01*
X111012Y291776D01*
X111079Y291610D01*
X111162Y291474D01*
X111259Y291368D01*
X111372Y291292D01*
X111499Y291247D01*
X111642Y291232D01*
X108642D01*
X108784Y291247D01*
X108912Y291292D01*
X109024Y291368D01*
X109122Y291474D01*
X109204Y291610D01*
X109272Y291776D01*
X109324Y291973D01*
X109362Y292200D01*
X109384Y292457D01*
X109392Y292744D01*
X110892D01*
X110899Y292457D01*
D02*
G37*
G36*
X103614Y292515D02*
X103685D01*
X103671Y292494D01*
X103657Y292460D01*
X103646Y292413D01*
X103636Y292354D01*
X103630Y292294D01*
X103638Y292200D01*
X103676Y291973D01*
X103728Y291776D01*
X103796Y291610D01*
X103878Y291474D01*
X103976Y291368D01*
X104088Y291292D01*
X104216Y291247D01*
X104358Y291232D01*
X101358D01*
X101501Y291247D01*
X101628Y291292D01*
X101741Y291368D01*
X101838Y291474D01*
X101921Y291610D01*
X101988Y291776D01*
X102041Y291973D01*
X102078Y292200D01*
X102082Y292244D01*
X102071Y292413D01*
X102059Y292460D01*
X102046Y292494D01*
X102032Y292515D01*
X102102D01*
X102108Y292744D01*
X103608D01*
X103614Y292515D01*
D02*
G37*
G36*
X43399Y292457D02*
X43422Y292200D01*
X43429Y292157D01*
X43468D01*
X43454Y292135D01*
X43441Y292101D01*
X43439Y292094D01*
X43459Y291973D01*
X43512Y291776D01*
X43579Y291610D01*
X43662Y291474D01*
X43759Y291368D01*
X43872Y291292D01*
X43999Y291247D01*
X44142Y291232D01*
X41142D01*
X41284Y291247D01*
X41412Y291292D01*
X41524Y291368D01*
X41622Y291474D01*
X41704Y291610D01*
X41772Y291776D01*
X41824Y291973D01*
X41844Y292094D01*
X41843Y292101D01*
X41829Y292135D01*
X41815Y292157D01*
X41855D01*
X41862Y292200D01*
X41884Y292457D01*
X41892Y292744D01*
X43392D01*
X43399Y292457D01*
D02*
G37*
G36*
X36116D02*
X36138Y292200D01*
X36176Y291973D01*
X36228Y291776D01*
X36296Y291610D01*
X36378Y291474D01*
X36476Y291368D01*
X36588Y291292D01*
X36716Y291247D01*
X36858Y291232D01*
X33858D01*
X34001Y291247D01*
X34128Y291292D01*
X34241Y291368D01*
X34338Y291474D01*
X34421Y291610D01*
X34488Y291776D01*
X34541Y291973D01*
X34578Y292200D01*
X34601Y292457D01*
X34608Y292744D01*
X36108D01*
X36116Y292457D01*
D02*
G37*
G36*
X94805Y291000D02*
X94508Y290692D01*
X94041Y290141D01*
X93871Y289897D01*
X93744Y289674D01*
X93659Y289473D01*
X93617Y289292D01*
Y289133D01*
X93659Y288995D01*
X93744Y288878D01*
X91623Y291000D01*
X91739Y290915D01*
X91877Y290873D01*
X92036D01*
X92216Y290915D01*
X92418Y291000D01*
X92641Y291127D01*
X92885Y291297D01*
X93150Y291509D01*
X93744Y292060D01*
X94805Y291000D01*
D02*
G37*
G36*
X53258Y291715D02*
X53280Y291460D01*
X53317Y291235D01*
X53370Y291040D01*
X53438Y290875D01*
X53520Y290740D01*
X53618Y290635D01*
X53730Y290560D01*
X53857Y290515D01*
X54000Y290500D01*
X51000D01*
X51143Y290515D01*
X51270Y290560D01*
X51382Y290635D01*
X51480Y290740D01*
X51562Y290875D01*
X51630Y291040D01*
X51683Y291235D01*
X51720Y291460D01*
X51743Y291715D01*
X51750Y292000D01*
X53250D01*
X53258Y291715D01*
D02*
G37*
G36*
X69218Y289834D02*
X68921Y289527D01*
X68454Y288975D01*
X68285Y288731D01*
X68157Y288509D01*
X68072Y288307D01*
X68030Y288127D01*
Y287968D01*
X68072Y287830D01*
X68157Y287713D01*
X66036Y289834D01*
X66153Y289750D01*
X66290Y289707D01*
X66450D01*
X66630Y289750D01*
X66831Y289834D01*
X67054Y289962D01*
X67298Y290131D01*
X67563Y290344D01*
X68157Y290895D01*
X69218Y289834D01*
D02*
G37*
G36*
X172500Y278000D02*
X157500D01*
Y287228D01*
X161444D01*
Y285858D01*
X168556D01*
Y287228D01*
X172500D01*
Y278000D01*
D02*
G37*
G36*
X81952Y287858D02*
X81997Y287730D01*
X82072Y287617D01*
X82177Y287520D01*
X82312Y287438D01*
X82477Y287370D01*
X82672Y287317D01*
X82897Y287280D01*
X83152Y287258D01*
X83437Y287250D01*
Y285750D01*
X83152Y285742D01*
X82897Y285720D01*
X82672Y285683D01*
X82477Y285630D01*
X82312Y285562D01*
X82177Y285480D01*
X82072Y285383D01*
X81997Y285270D01*
X81952Y285142D01*
X81937Y285000D01*
Y288000D01*
X81952Y287858D01*
D02*
G37*
G36*
X111598Y285753D02*
X111470Y285708D01*
X111358Y285632D01*
X111260Y285526D01*
X111178Y285390D01*
X111110Y285224D01*
X111058Y285027D01*
X111020Y284800D01*
X111014Y284726D01*
X111020Y284652D01*
X111058Y284425D01*
X111110Y284229D01*
X111178Y284063D01*
X111260Y283927D01*
X111358Y283821D01*
X111470Y283745D01*
X111598Y283700D01*
X111740Y283685D01*
X108740D01*
X108883Y283700D01*
X109010Y283745D01*
X109123Y283821D01*
X109220Y283927D01*
X109303Y284063D01*
X109370Y284229D01*
X109423Y284425D01*
X109460Y284652D01*
X109467Y284726D01*
X109460Y284800D01*
X109423Y285027D01*
X109370Y285224D01*
X109303Y285390D01*
X109220Y285526D01*
X109123Y285632D01*
X109010Y285708D01*
X108883Y285753D01*
X108740Y285768D01*
X111740D01*
X111598Y285753D01*
D02*
G37*
G36*
X104117D02*
X103990Y285708D01*
X103877Y285632D01*
X103780Y285526D01*
X103697Y285390D01*
X103630Y285224D01*
X103577Y285027D01*
X103540Y284800D01*
X103533Y284726D01*
X103540Y284652D01*
X103577Y284425D01*
X103630Y284229D01*
X103697Y284063D01*
X103780Y283927D01*
X103877Y283821D01*
X103990Y283745D01*
X104117Y283700D01*
X104260Y283685D01*
X101260D01*
X101402Y283700D01*
X101530Y283745D01*
X101642Y283821D01*
X101740Y283927D01*
X101822Y284063D01*
X101890Y284229D01*
X101942Y284425D01*
X101980Y284652D01*
X101986Y284726D01*
X101980Y284800D01*
X101942Y285027D01*
X101890Y285224D01*
X101822Y285390D01*
X101740Y285526D01*
X101642Y285632D01*
X101530Y285708D01*
X101402Y285753D01*
X101260Y285768D01*
X104260D01*
X104117Y285753D01*
D02*
G37*
G36*
X44098D02*
X43970Y285708D01*
X43858Y285632D01*
X43760Y285526D01*
X43678Y285390D01*
X43610Y285224D01*
X43558Y285027D01*
X43520Y284800D01*
X43514Y284726D01*
X43520Y284652D01*
X43558Y284425D01*
X43610Y284229D01*
X43678Y284063D01*
X43760Y283927D01*
X43858Y283821D01*
X43970Y283745D01*
X44098Y283700D01*
X44240Y283685D01*
X41240D01*
X41383Y283700D01*
X41510Y283745D01*
X41623Y283821D01*
X41720Y283927D01*
X41803Y284063D01*
X41870Y284229D01*
X41923Y284425D01*
X41960Y284652D01*
X41967Y284726D01*
X41960Y284800D01*
X41923Y285027D01*
X41870Y285224D01*
X41803Y285390D01*
X41720Y285526D01*
X41623Y285632D01*
X41510Y285708D01*
X41383Y285753D01*
X41240Y285768D01*
X44240D01*
X44098Y285753D01*
D02*
G37*
G36*
X36617D02*
X36490Y285708D01*
X36377Y285632D01*
X36280Y285526D01*
X36197Y285390D01*
X36130Y285224D01*
X36077Y285027D01*
X36040Y284800D01*
X36033Y284726D01*
X36040Y284652D01*
X36077Y284425D01*
X36130Y284229D01*
X36197Y284063D01*
X36280Y283927D01*
X36377Y283821D01*
X36490Y283745D01*
X36617Y283700D01*
X36760Y283685D01*
X33760D01*
X33902Y283700D01*
X34030Y283745D01*
X34142Y283821D01*
X34240Y283927D01*
X34322Y284063D01*
X34390Y284229D01*
X34442Y284425D01*
X34480Y284652D01*
X34486Y284726D01*
X34480Y284800D01*
X34442Y285027D01*
X34390Y285224D01*
X34322Y285390D01*
X34240Y285526D01*
X34142Y285632D01*
X34030Y285708D01*
X33902Y285753D01*
X33760Y285768D01*
X36760D01*
X36617Y285753D01*
D02*
G37*
G36*
X78048Y283178D02*
X78024Y283179D01*
X77978Y283156D01*
X77912Y283109D01*
X77823Y283038D01*
X77429Y282680D01*
X76843Y282105D01*
X75782Y283166D01*
X75998Y283383D01*
X76856Y284347D01*
X76855Y284371D01*
X78048Y283178D01*
D02*
G37*
G36*
X68155Y284346D02*
X68177Y284299D01*
X68222Y284232D01*
X68292Y284143D01*
X68504Y283902D01*
X69218Y283166D01*
X68157Y282105D01*
X67941Y282319D01*
X66977Y283168D01*
X66952Y283166D01*
X68157Y284371D01*
X68155Y284346D01*
D02*
G37*
G36*
X88564Y284480D02*
X89115Y284013D01*
X89359Y283844D01*
X89582Y283716D01*
X89783Y283631D01*
X89964Y283589D01*
X90123D01*
X90261Y283631D01*
X90377Y283716D01*
X88256Y281595D01*
X88341Y281712D01*
X88383Y281850D01*
Y282009D01*
X88341Y282189D01*
X88256Y282390D01*
X88129Y282613D01*
X87959Y282857D01*
X87747Y283122D01*
X87195Y283716D01*
X88256Y284777D01*
X88564Y284480D01*
D02*
G37*
G36*
X76998Y280409D02*
X77020Y280152D01*
X77058Y279925D01*
X77110Y279729D01*
X77178Y279563D01*
X77260Y279427D01*
X77358Y279321D01*
X77470Y279245D01*
X77598Y279200D01*
X77740Y279185D01*
X74740D01*
X74883Y279200D01*
X75010Y279245D01*
X75123Y279321D01*
X75220Y279427D01*
X75303Y279563D01*
X75370Y279729D01*
X75423Y279925D01*
X75460Y280152D01*
X75483Y280409D01*
X75490Y280697D01*
X76990D01*
X76998Y280409D01*
D02*
G37*
G36*
X69517D02*
X69540Y280152D01*
X69577Y279925D01*
X69630Y279729D01*
X69697Y279563D01*
X69780Y279427D01*
X69877Y279321D01*
X69990Y279245D01*
X70117Y279200D01*
X70260Y279185D01*
X67260D01*
X67402Y279200D01*
X67530Y279245D01*
X67642Y279321D01*
X67740Y279427D01*
X67822Y279563D01*
X67890Y279729D01*
X67942Y279925D01*
X67980Y280152D01*
X68002Y280409D01*
X68010Y280697D01*
X69510D01*
X69517Y280409D01*
D02*
G37*
G36*
X92357Y279997D02*
X92230Y279952D01*
X92118Y279876D01*
X92020Y279770D01*
X91938Y279634D01*
X91870Y279468D01*
X91817Y279271D01*
X91780Y279045D01*
X91758Y278787D01*
X91750Y278500D01*
X90250D01*
X90242Y278787D01*
X90220Y279045D01*
X90183Y279271D01*
X90130Y279468D01*
X90062Y279634D01*
X89980Y279770D01*
X89882Y279876D01*
X89770Y279952D01*
X89643Y279997D01*
X89500Y280012D01*
X92500D01*
X92357Y279997D01*
D02*
G37*
G36*
X121358Y279497D02*
X121230Y279452D01*
X121117Y279376D01*
X121020Y279270D01*
X120938Y279134D01*
X120870Y278968D01*
X120817Y278771D01*
X120780Y278544D01*
X120757Y278288D01*
X120756Y278251D01*
X120757Y278215D01*
X120780Y277960D01*
X120817Y277735D01*
X120870Y277540D01*
X120938Y277375D01*
X121020Y277240D01*
X121117Y277135D01*
X121230Y277060D01*
X121358Y277015D01*
X121500Y277000D01*
X118500D01*
X118642Y277015D01*
X118770Y277060D01*
X118883Y277135D01*
X118980Y277240D01*
X119062Y277375D01*
X119130Y277540D01*
X119183Y277735D01*
X119220Y277960D01*
X119243Y278215D01*
X119243Y278251D01*
X119243Y278288D01*
X119220Y278544D01*
X119183Y278771D01*
X119130Y278968D01*
X119062Y279134D01*
X118980Y279270D01*
X118883Y279376D01*
X118770Y279452D01*
X118642Y279497D01*
X118500Y279512D01*
X121500D01*
X121358Y279497D01*
D02*
G37*
G36*
X53857D02*
X53730Y279452D01*
X53618Y279376D01*
X53520Y279270D01*
X53438Y279134D01*
X53370Y278968D01*
X53317Y278771D01*
X53280Y278544D01*
X53258Y278288D01*
X53256Y278251D01*
X53258Y278215D01*
X53280Y277960D01*
X53317Y277735D01*
X53370Y277540D01*
X53438Y277375D01*
X53520Y277240D01*
X53618Y277135D01*
X53730Y277060D01*
X53857Y277015D01*
X54000Y277000D01*
X51000D01*
X51143Y277015D01*
X51270Y277060D01*
X51382Y277135D01*
X51480Y277240D01*
X51562Y277375D01*
X51630Y277540D01*
X51683Y277735D01*
X51720Y277960D01*
X51743Y278215D01*
X51743Y278251D01*
X51743Y278288D01*
X51720Y278544D01*
X51683Y278771D01*
X51630Y278968D01*
X51562Y279134D01*
X51480Y279270D01*
X51382Y279376D01*
X51270Y279452D01*
X51143Y279497D01*
X51000Y279512D01*
X54000D01*
X53857Y279497D01*
D02*
G37*
G36*
X91758Y277215D02*
X91780Y276960D01*
X91817Y276735D01*
X91870Y276540D01*
X91938Y276375D01*
X92020Y276240D01*
X92118Y276135D01*
X92230Y276060D01*
X92357Y276015D01*
X92500Y276000D01*
X89500D01*
X89643Y276015D01*
X89770Y276060D01*
X89882Y276135D01*
X89980Y276240D01*
X90062Y276375D01*
X90130Y276540D01*
X90183Y276735D01*
X90220Y276960D01*
X90242Y277215D01*
X90250Y277500D01*
X91750D01*
X91758Y277215D01*
D02*
G37*
G36*
X117268Y273642D02*
X117253Y273784D01*
X117208Y273912D01*
X117132Y274024D01*
X117026Y274122D01*
X116890Y274204D01*
X116724Y274272D01*
X116527Y274324D01*
X116300Y274362D01*
X116043Y274384D01*
X115756Y274392D01*
Y275892D01*
X116043Y275899D01*
X116300Y275922D01*
X116527Y275959D01*
X116724Y276012D01*
X116890Y276079D01*
X117026Y276162D01*
X117132Y276259D01*
X117208Y276372D01*
X117253Y276499D01*
X117268Y276642D01*
Y273642D01*
D02*
G37*
G36*
X49768D02*
X49753Y273784D01*
X49708Y273912D01*
X49632Y274024D01*
X49526Y274122D01*
X49390Y274204D01*
X49224Y274272D01*
X49027Y274324D01*
X48800Y274362D01*
X48543Y274384D01*
X48256Y274392D01*
Y275892D01*
X48543Y275899D01*
X48800Y275922D01*
X49027Y275959D01*
X49224Y276012D01*
X49390Y276079D01*
X49526Y276162D01*
X49632Y276259D01*
X49708Y276372D01*
X49753Y276499D01*
X49768Y276642D01*
Y273642D01*
D02*
G37*
G36*
X108066Y275420D02*
X108111Y275293D01*
X108187Y275181D01*
X108293Y275083D01*
X108429Y275001D01*
X108595Y274933D01*
X108792Y274881D01*
X109019Y274843D01*
X109275Y274820D01*
X109563Y274813D01*
Y273313D01*
X109275Y273306D01*
X109019Y273283D01*
X108792Y273246D01*
X108595Y273193D01*
X108429Y273126D01*
X108293Y273043D01*
X108187Y272945D01*
X108111Y272833D01*
X108066Y272706D01*
X108051Y272563D01*
Y275563D01*
X108066Y275420D01*
D02*
G37*
G36*
X40566D02*
X40611Y275293D01*
X40687Y275181D01*
X40793Y275083D01*
X40929Y275001D01*
X41095Y274933D01*
X41292Y274881D01*
X41519Y274843D01*
X41776Y274820D01*
X42063Y274813D01*
Y273313D01*
X41776Y273306D01*
X41519Y273283D01*
X41292Y273246D01*
X41095Y273193D01*
X40929Y273126D01*
X40793Y273043D01*
X40687Y272945D01*
X40611Y272833D01*
X40566Y272706D01*
X40551Y272563D01*
Y275563D01*
X40566Y275420D01*
D02*
G37*
G36*
X74065Y270917D02*
X74109Y270843D01*
X74181Y270777D01*
X74283Y270720D01*
X74413Y270672D01*
X74572Y270633D01*
X74761Y270602D01*
X74978Y270581D01*
X75500Y270563D01*
Y268563D01*
X75225Y268559D01*
X74761Y268524D01*
X74572Y268493D01*
X74413Y268454D01*
X74283Y268406D01*
X74181Y268349D01*
X74109Y268283D01*
X74065Y268209D01*
X74051Y268126D01*
Y271000D01*
X74065Y270917D01*
D02*
G37*
G36*
X117268Y266398D02*
X117253Y266540D01*
X117208Y266668D01*
X117132Y266780D01*
X117026Y266878D01*
X116890Y266960D01*
X116724Y267028D01*
X116527Y267080D01*
X116300Y267118D01*
X116043Y267140D01*
X115756Y267148D01*
Y268648D01*
X116043Y268655D01*
X116300Y268678D01*
X116527Y268715D01*
X116724Y268768D01*
X116890Y268835D01*
X117026Y268918D01*
X117132Y269015D01*
X117208Y269128D01*
X117253Y269255D01*
X117268Y269398D01*
Y266398D01*
D02*
G37*
G36*
X108066Y269255D02*
X108111Y269128D01*
X108187Y269015D01*
X108293Y268918D01*
X108429Y268835D01*
X108595Y268768D01*
X108792Y268715D01*
X109019Y268678D01*
X109275Y268655D01*
X109563Y268648D01*
Y267148D01*
X109275Y267140D01*
X109019Y267118D01*
X108792Y267080D01*
X108595Y267028D01*
X108429Y266960D01*
X108293Y266878D01*
X108187Y266780D01*
X108111Y266668D01*
X108066Y266540D01*
X108051Y266398D01*
Y269398D01*
X108066Y269255D01*
D02*
G37*
G36*
X49768Y266398D02*
X49753Y266540D01*
X49708Y266668D01*
X49632Y266780D01*
X49526Y266878D01*
X49390Y266960D01*
X49224Y267028D01*
X49027Y267080D01*
X48800Y267118D01*
X48543Y267140D01*
X48256Y267148D01*
Y268648D01*
X48543Y268655D01*
X48800Y268678D01*
X49027Y268715D01*
X49224Y268768D01*
X49390Y268835D01*
X49526Y268918D01*
X49632Y269015D01*
X49708Y269128D01*
X49753Y269255D01*
X49768Y269398D01*
Y266398D01*
D02*
G37*
G36*
X40566Y269255D02*
X40611Y269128D01*
X40687Y269015D01*
X40793Y268918D01*
X40929Y268835D01*
X41095Y268768D01*
X41292Y268715D01*
X41519Y268678D01*
X41776Y268655D01*
X42063Y268648D01*
Y267148D01*
X41776Y267140D01*
X41519Y267118D01*
X41292Y267080D01*
X41095Y267028D01*
X40929Y266960D01*
X40793Y266878D01*
X40687Y266780D01*
X40611Y266668D01*
X40566Y266540D01*
X40551Y266398D01*
Y269398D01*
X40566Y269255D01*
D02*
G37*
G36*
X90377Y265012D02*
X90262Y265096D01*
X90125Y265137D01*
X89966Y265136D01*
X89786Y265092D01*
X89585Y265006D01*
X89362Y264878D01*
X89118Y264707D01*
X88852Y264493D01*
X88256Y263939D01*
X87195Y265000D01*
X87494Y265309D01*
X87963Y265862D01*
X88134Y266106D01*
X88262Y266329D01*
X88348Y266530D01*
X88392Y266710D01*
X88393Y266869D01*
X88352Y267006D01*
X88268Y267122D01*
X90377Y265012D01*
D02*
G37*
G36*
X75803Y261677D02*
X75788Y261813D01*
X75743Y261934D01*
X75668Y262042D01*
X75563Y262135D01*
X75428Y262213D01*
X75263Y262277D01*
X75068Y262327D01*
X74843Y262363D01*
X74725Y262373D01*
X74445Y262354D01*
X74399Y262343D01*
X74365Y262330D01*
X74344Y262315D01*
Y262391D01*
X74303Y262392D01*
Y263892D01*
X74344Y263893D01*
Y263968D01*
X74365Y263954D01*
X74399Y263941D01*
X74445Y263929D01*
X74504Y263919D01*
X74652Y263905D01*
X74847Y263922D01*
X75073Y263959D01*
X75270Y264012D01*
X75436Y264079D01*
X75572Y264162D01*
X75678Y264259D01*
X75754Y264372D01*
X75800Y264499D01*
X75815Y264642D01*
X75803Y261677D01*
D02*
G37*
G36*
X71247Y264499D02*
X71292Y264372D01*
X71368Y264259D01*
X71474Y264162D01*
X71610Y264079D01*
X71776Y264012D01*
X71973Y263959D01*
X72200Y263922D01*
X72306Y263912D01*
X72555Y263929D01*
X72601Y263941D01*
X72635Y263954D01*
X72657Y263968D01*
Y263894D01*
X72744Y263892D01*
Y262392D01*
X72657Y262389D01*
Y262315D01*
X72635Y262330D01*
X72601Y262343D01*
X72555Y262354D01*
X72496Y262364D01*
X72369Y262377D01*
X72200Y262362D01*
X71973Y262324D01*
X71776Y262272D01*
X71610Y262204D01*
X71474Y262122D01*
X71368Y262024D01*
X71292Y261912D01*
X71247Y261784D01*
X71232Y261642D01*
Y264642D01*
X71247Y264499D01*
D02*
G37*
G36*
X86191Y261966D02*
X86220Y261605D01*
X86246Y261458D01*
X86279Y261333D01*
X86320Y261232D01*
X86367Y261153D01*
X86423Y261096D01*
X86485Y261062D01*
X86555Y261051D01*
X84319D01*
X84389Y261062D01*
X84451Y261096D01*
X84506Y261153D01*
X84554Y261232D01*
X84595Y261333D01*
X84628Y261458D01*
X84654Y261605D01*
X84672Y261774D01*
X84687Y262181D01*
X86187D01*
X86191Y261966D01*
D02*
G37*
G36*
X111806Y261420D02*
X111851Y261293D01*
X111927Y261180D01*
X112033Y261083D01*
X112169Y261000D01*
X112335Y260933D01*
X112532Y260880D01*
X112699Y260853D01*
X112736Y260862D01*
X112770Y260875D01*
X112792Y260890D01*
Y260840D01*
X113016Y260821D01*
X113303Y260813D01*
Y259313D01*
X113016Y259306D01*
X112792Y259286D01*
Y259236D01*
X112770Y259251D01*
X112736Y259264D01*
X112699Y259273D01*
X112532Y259245D01*
X112335Y259193D01*
X112169Y259125D01*
X112033Y259043D01*
X111927Y258945D01*
X111851Y258833D01*
X111806Y258705D01*
X111791Y258563D01*
Y261563D01*
X111806Y261420D01*
D02*
G37*
G36*
X44306D02*
X44351Y261293D01*
X44427Y261180D01*
X44533Y261083D01*
X44669Y261000D01*
X44835Y260933D01*
X45032Y260880D01*
X45114Y260867D01*
X45135Y260875D01*
X45156Y260890D01*
Y260860D01*
X45259Y260843D01*
X45516Y260821D01*
X45803Y260813D01*
Y259313D01*
X45516Y259306D01*
X45259Y259283D01*
X45156Y259266D01*
Y259236D01*
X45135Y259251D01*
X45114Y259259D01*
X45032Y259245D01*
X44835Y259193D01*
X44669Y259125D01*
X44533Y259043D01*
X44427Y258945D01*
X44351Y258833D01*
X44306Y258705D01*
X44291Y258563D01*
Y261563D01*
X44306Y261420D01*
D02*
G37*
G36*
X111548Y258300D02*
X111421Y258255D01*
X111308Y258179D01*
X111211Y258073D01*
X111128Y257937D01*
X111061Y257771D01*
X111008Y257575D01*
X110971Y257348D01*
X110965Y257274D01*
X110971Y257200D01*
X111008Y256973D01*
X111061Y256776D01*
X111128Y256610D01*
X111211Y256474D01*
X111308Y256368D01*
X111421Y256292D01*
X111548Y256247D01*
X111691Y256232D01*
X108691D01*
X108833Y256247D01*
X108961Y256292D01*
X109073Y256368D01*
X109171Y256474D01*
X109253Y256610D01*
X109321Y256776D01*
X109373Y256973D01*
X109411Y257200D01*
X109417Y257274D01*
X109411Y257348D01*
X109373Y257575D01*
X109321Y257771D01*
X109253Y257937D01*
X109171Y258073D01*
X109073Y258179D01*
X108961Y258255D01*
X108833Y258300D01*
X108691Y258315D01*
X111691D01*
X111548Y258300D01*
D02*
G37*
G36*
X104167D02*
X104039Y258255D01*
X103927Y258179D01*
X103829Y258073D01*
X103747Y257937D01*
X103679Y257771D01*
X103627Y257575D01*
X103589Y257348D01*
X103583Y257274D01*
X103589Y257200D01*
X103627Y256973D01*
X103679Y256776D01*
X103747Y256610D01*
X103829Y256474D01*
X103927Y256368D01*
X104039Y256292D01*
X104167Y256247D01*
X104309Y256232D01*
X101309D01*
X101452Y256247D01*
X101579Y256292D01*
X101691Y256368D01*
X101789Y256474D01*
X101872Y256610D01*
X101939Y256776D01*
X101991Y256973D01*
X102029Y257200D01*
X102035Y257274D01*
X102029Y257348D01*
X101991Y257575D01*
X101939Y257771D01*
X101872Y257937D01*
X101789Y258073D01*
X101691Y258179D01*
X101579Y258255D01*
X101452Y258300D01*
X101309Y258315D01*
X104309D01*
X104167Y258300D01*
D02*
G37*
G36*
X44048D02*
X43921Y258255D01*
X43808Y258179D01*
X43711Y258073D01*
X43628Y257937D01*
X43561Y257771D01*
X43508Y257575D01*
X43471Y257348D01*
X43464Y257274D01*
X43471Y257200D01*
X43508Y256973D01*
X43561Y256776D01*
X43628Y256610D01*
X43711Y256474D01*
X43808Y256368D01*
X43921Y256292D01*
X44048Y256247D01*
X44191Y256232D01*
X41191D01*
X41333Y256247D01*
X41461Y256292D01*
X41573Y256368D01*
X41671Y256474D01*
X41753Y256610D01*
X41821Y256776D01*
X41873Y256973D01*
X41911Y257200D01*
X41917Y257274D01*
X41911Y257348D01*
X41873Y257575D01*
X41821Y257771D01*
X41753Y257937D01*
X41671Y258073D01*
X41573Y258179D01*
X41461Y258255D01*
X41333Y258300D01*
X41191Y258315D01*
X44191D01*
X44048Y258300D01*
D02*
G37*
G36*
X36667D02*
X36539Y258255D01*
X36426Y258179D01*
X36329Y258073D01*
X36247Y257937D01*
X36179Y257771D01*
X36127Y257575D01*
X36089Y257348D01*
X36083Y257274D01*
X36089Y257200D01*
X36127Y256973D01*
X36179Y256776D01*
X36247Y256610D01*
X36329Y256474D01*
X36426Y256368D01*
X36539Y256292D01*
X36667Y256247D01*
X36809Y256232D01*
X33809D01*
X33952Y256247D01*
X34079Y256292D01*
X34192Y256368D01*
X34289Y256474D01*
X34372Y256610D01*
X34439Y256776D01*
X34492Y256973D01*
X34529Y257200D01*
X34536Y257274D01*
X34529Y257348D01*
X34492Y257575D01*
X34439Y257771D01*
X34372Y257937D01*
X34289Y258073D01*
X34192Y258179D01*
X34079Y258255D01*
X33952Y258300D01*
X33809Y258315D01*
X36809D01*
X36667Y258300D01*
D02*
G37*
G36*
X75815Y254309D02*
X75800Y254451D01*
X75755Y254579D01*
X75679Y254692D01*
X75573Y254789D01*
X75437Y254872D01*
X75271Y254939D01*
X75074Y254992D01*
X74848Y255029D01*
X74591Y255051D01*
X74303Y255059D01*
Y256559D01*
X74591Y256567D01*
X74848Y256589D01*
X75074Y256627D01*
X75271Y256679D01*
X75437Y256747D01*
X75573Y256829D01*
X75679Y256926D01*
X75755Y257039D01*
X75800Y257167D01*
X75815Y257309D01*
Y254309D01*
D02*
G37*
G36*
X71247Y257167D02*
X71292Y257039D01*
X71368Y256926D01*
X71474Y256829D01*
X71610Y256747D01*
X71776Y256679D01*
X71973Y256627D01*
X72200Y256589D01*
X72457Y256567D01*
X72744Y256559D01*
Y255059D01*
X72457Y255051D01*
X72200Y255029D01*
X71973Y254992D01*
X71776Y254939D01*
X71610Y254872D01*
X71474Y254789D01*
X71368Y254692D01*
X71292Y254579D01*
X71247Y254451D01*
X71232Y254309D01*
Y257309D01*
X71247Y257167D01*
D02*
G37*
G36*
X213399Y253793D02*
X213050Y254135D01*
X212375Y254711D01*
X212049Y254945D01*
X211731Y255143D01*
X211420Y255305D01*
X211116Y255431D01*
X210820Y255521D01*
X210532Y255574D01*
X210251Y255592D01*
Y257092D01*
X210532Y257111D01*
X210820Y257165D01*
X211116Y257254D01*
X211420Y257380D01*
X211731Y257542D01*
X212049Y257740D01*
X212375Y257974D01*
X212709Y258244D01*
X213399Y258892D01*
Y253793D01*
D02*
G37*
G36*
X79277Y255266D02*
X79255Y255193D01*
Y255108D01*
X79277Y255012D01*
X79323Y254904D01*
X79391Y254785D01*
X79481Y254655D01*
X79594Y254514D01*
X79888Y254197D01*
X79323Y253631D01*
X79159Y253790D01*
X78864Y254039D01*
X78734Y254129D01*
X78615Y254197D01*
X78508Y254242D01*
X78412Y254265D01*
X78327D01*
X78254Y254242D01*
X78191Y254197D01*
X79323Y255328D01*
X79277Y255266D01*
D02*
G37*
G36*
X155805Y253500D02*
X155508Y253192D01*
X155041Y252641D01*
X154871Y252397D01*
X154744Y252174D01*
X154659Y251973D01*
X154617Y251792D01*
Y251633D01*
X154659Y251495D01*
X154744Y251378D01*
X152623Y253500D01*
X152739Y253415D01*
X152877Y253373D01*
X153036D01*
X153217Y253415D01*
X153418Y253500D01*
X153641Y253627D01*
X153885Y253797D01*
X154150Y254009D01*
X154744Y254560D01*
X155805Y253500D01*
D02*
G37*
G36*
X104660Y251826D02*
X104639Y251754D01*
X104640Y251669D01*
X104664Y251574D01*
X104710Y251466D01*
X104779Y251347D01*
X104871Y251217D01*
X104985Y251075D01*
X105282Y250756D01*
X104716Y250190D01*
X104551Y250350D01*
X104256Y250601D01*
X104125Y250693D01*
X104006Y250762D01*
X103899Y250809D01*
X103803Y250832D01*
X103719Y250834D01*
X103646Y250812D01*
X103585Y250768D01*
X104704Y251887D01*
X104660Y251826D01*
D02*
G37*
G36*
X191747Y252999D02*
X191792Y252872D01*
X191868Y252759D01*
X191974Y252662D01*
X192110Y252579D01*
X192276Y252512D01*
X192473Y252459D01*
X192700Y252422D01*
X192957Y252399D01*
X193244Y252392D01*
Y250892D01*
X192957Y250884D01*
X192700Y250862D01*
X192473Y250824D01*
X192276Y250772D01*
X192110Y250704D01*
X191974Y250622D01*
X191868Y250524D01*
X191792Y250412D01*
X191747Y250284D01*
X191732Y250142D01*
Y253142D01*
X191747Y252999D01*
D02*
G37*
G36*
X36716Y250753D02*
X36588Y250708D01*
X36476Y250632D01*
X36378Y250526D01*
X36296Y250390D01*
X36228Y250224D01*
X36176Y250027D01*
X36156Y249906D01*
X36157Y249899D01*
X36170Y249865D01*
X36185Y249844D01*
X36145D01*
X36138Y249800D01*
X36116Y249543D01*
X36108Y249256D01*
X34608D01*
X34601Y249543D01*
X34578Y249800D01*
X34571Y249844D01*
X34532D01*
X34546Y249865D01*
X34559Y249899D01*
X34561Y249906D01*
X34541Y250027D01*
X34488Y250224D01*
X34421Y250390D01*
X34338Y250526D01*
X34241Y250632D01*
X34128Y250708D01*
X34001Y250753D01*
X33858Y250768D01*
X36858D01*
X36716Y250753D01*
D02*
G37*
G36*
X94184Y248871D02*
X94195Y248757D01*
X94213Y248648D01*
X94240Y248543D01*
X94275Y248441D01*
X94318Y248344D01*
X94369Y248251D01*
X94428Y248162D01*
X94495Y248077D01*
X94570Y247996D01*
X94004Y247430D01*
X93923Y247505D01*
X93838Y247572D01*
X93749Y247631D01*
X93656Y247682D01*
X93559Y247725D01*
X93457Y247760D01*
X93352Y247786D01*
X93243Y247805D01*
X93129Y247816D01*
X93012Y247819D01*
X94181Y248988D01*
X94184Y248871D01*
D02*
G37*
G36*
X212677Y250909D02*
X212919Y250744D01*
X213191Y250598D01*
X213495Y250473D01*
X213829Y250367D01*
X214195Y250282D01*
X214591Y250217D01*
X215018Y250172D01*
X215964Y250142D01*
X212358Y246536D01*
X212353Y247025D01*
X212283Y247909D01*
X212218Y248305D01*
X212133Y248671D01*
X212027Y249005D01*
X211902Y249309D01*
X211756Y249581D01*
X211591Y249823D01*
X211405Y250035D01*
X212465Y251095D01*
X212677Y250909D01*
D02*
G37*
G36*
X174067Y245355D02*
X174024Y245374D01*
X173959Y245364D01*
X173872Y245327D01*
X173764Y245262D01*
X173635Y245169D01*
X173484Y245048D01*
X172902Y244515D01*
X172666Y244282D01*
X171605Y245343D01*
X171838Y245579D01*
X172585Y246441D01*
X172650Y246549D01*
X172687Y246636D01*
X172696Y246701D01*
X172678Y246745D01*
X174067Y245355D01*
D02*
G37*
G36*
X137067D02*
X137024Y245374D01*
X136959Y245364D01*
X136872Y245327D01*
X136764Y245262D01*
X136635Y245169D01*
X136484Y245048D01*
X135902Y244515D01*
X135666Y244282D01*
X134605Y245343D01*
X134838Y245579D01*
X135585Y246441D01*
X135650Y246549D01*
X135687Y246636D01*
X135696Y246701D01*
X135678Y246745D01*
X137067Y245355D01*
D02*
G37*
G36*
X179253Y247211D02*
X179222Y247089D01*
X179231Y246946D01*
X179279Y246781D01*
X179367Y246595D01*
X179493Y246388D01*
X179660Y246159D01*
X179866Y245908D01*
X180395Y245343D01*
X179334Y244282D01*
X179041Y244566D01*
X178518Y245017D01*
X178289Y245184D01*
X178082Y245311D01*
X177896Y245398D01*
X177731Y245446D01*
X177588Y245455D01*
X177466Y245425D01*
X177366Y245355D01*
X179322Y247312D01*
X179253Y247211D01*
D02*
G37*
G36*
X142253D02*
X142222Y247089D01*
X142231Y246946D01*
X142279Y246781D01*
X142367Y246595D01*
X142493Y246388D01*
X142660Y246159D01*
X142866Y245908D01*
X143395Y245343D01*
X142334Y244282D01*
X142041Y244566D01*
X141518Y245017D01*
X141289Y245184D01*
X141082Y245311D01*
X140896Y245398D01*
X140731Y245446D01*
X140588Y245455D01*
X140466Y245425D01*
X140366Y245355D01*
X142322Y247312D01*
X142253Y247211D01*
D02*
G37*
G36*
X165747Y245999D02*
X165792Y245872D01*
X165868Y245759D01*
X165974Y245662D01*
X166110Y245579D01*
X166276Y245512D01*
X166473Y245459D01*
X166700Y245422D01*
X166957Y245399D01*
X167244Y245392D01*
Y243892D01*
X166957Y243884D01*
X166700Y243862D01*
X166473Y243824D01*
X166276Y243772D01*
X166110Y243704D01*
X165974Y243622D01*
X165868Y243524D01*
X165792Y243412D01*
X165747Y243284D01*
X165732Y243142D01*
Y246142D01*
X165747Y245999D01*
D02*
G37*
G36*
X128747D02*
X128792Y245872D01*
X128868Y245759D01*
X128974Y245662D01*
X129110Y245579D01*
X129276Y245512D01*
X129473Y245459D01*
X129700Y245422D01*
X129957Y245399D01*
X130244Y245392D01*
Y243892D01*
X129957Y243884D01*
X129700Y243862D01*
X129473Y243824D01*
X129276Y243772D01*
X129110Y243704D01*
X128974Y243622D01*
X128868Y243524D01*
X128792Y243412D01*
X128747Y243284D01*
X128732Y243142D01*
Y246142D01*
X128747Y245999D01*
D02*
G37*
G36*
X186268Y242858D02*
X186253Y243001D01*
X186208Y243128D01*
X186132Y243241D01*
X186026Y243338D01*
X185890Y243421D01*
X185724Y243488D01*
X185527Y243541D01*
X185300Y243578D01*
X185043Y243601D01*
X184756Y243608D01*
Y245108D01*
X185043Y245116D01*
X185300Y245138D01*
X185527Y245176D01*
X185724Y245228D01*
X185890Y245296D01*
X186026Y245378D01*
X186132Y245476D01*
X186208Y245588D01*
X186253Y245716D01*
X186268Y245858D01*
Y242858D01*
D02*
G37*
G36*
X149268D02*
X149253Y243001D01*
X149208Y243128D01*
X149132Y243241D01*
X149026Y243338D01*
X148890Y243421D01*
X148724Y243488D01*
X148527Y243541D01*
X148300Y243578D01*
X148043Y243601D01*
X147756Y243608D01*
Y245108D01*
X148043Y245116D01*
X148300Y245138D01*
X148527Y245176D01*
X148724Y245228D01*
X148890Y245296D01*
X149026Y245378D01*
X149132Y245476D01*
X149208Y245588D01*
X149253Y245716D01*
X149268Y245858D01*
Y242858D01*
D02*
G37*
G36*
X190357Y242497D02*
X190230Y242452D01*
X190118Y242376D01*
X190020Y242270D01*
X189937Y242134D01*
X189870Y241968D01*
X189818Y241771D01*
X189780Y241545D01*
X189776Y241502D01*
X189780Y241460D01*
X189818Y241235D01*
X189870Y241040D01*
X189937Y240875D01*
X190020Y240740D01*
X190118Y240635D01*
X190230Y240560D01*
X190357Y240515D01*
X190500Y240500D01*
X187500D01*
X187643Y240515D01*
X187770Y240560D01*
X187882Y240635D01*
X187980Y240740D01*
X188063Y240875D01*
X188130Y241040D01*
X188182Y241235D01*
X188220Y241460D01*
X188224Y241502D01*
X188220Y241545D01*
X188182Y241771D01*
X188130Y241968D01*
X188063Y242134D01*
X187980Y242270D01*
X187882Y242376D01*
X187770Y242452D01*
X187643Y242497D01*
X187500Y242512D01*
X190500D01*
X190357Y242497D01*
D02*
G37*
G36*
X153358D02*
X153230Y242452D01*
X153118Y242376D01*
X153020Y242270D01*
X152937Y242134D01*
X152870Y241968D01*
X152817Y241771D01*
X152780Y241545D01*
X152776Y241502D01*
X152780Y241460D01*
X152817Y241235D01*
X152870Y241040D01*
X152937Y240875D01*
X153020Y240740D01*
X153118Y240635D01*
X153230Y240560D01*
X153358Y240515D01*
X153500Y240500D01*
X150500D01*
X150643Y240515D01*
X150770Y240560D01*
X150882Y240635D01*
X150980Y240740D01*
X151063Y240875D01*
X151130Y241040D01*
X151182Y241235D01*
X151220Y241460D01*
X151224Y241502D01*
X151220Y241545D01*
X151182Y241771D01*
X151130Y241968D01*
X151063Y242134D01*
X150980Y242270D01*
X150882Y242376D01*
X150770Y242452D01*
X150643Y242497D01*
X150500Y242512D01*
X153500D01*
X153358Y242497D01*
D02*
G37*
G36*
X176758Y237872D02*
X176777Y237656D01*
X176827D01*
X176812Y237635D01*
X176799Y237601D01*
X176789Y237562D01*
X176818Y237392D01*
X176870Y237197D01*
X176937Y237032D01*
X177020Y236897D01*
X177118Y236792D01*
X177230Y236717D01*
X177357Y236672D01*
X177500Y236657D01*
X174500D01*
X174643Y236672D01*
X174770Y236717D01*
X174882Y236792D01*
X174980Y236897D01*
X175063Y237032D01*
X175130Y237197D01*
X175182Y237392D01*
X175211Y237562D01*
X175201Y237601D01*
X175188Y237635D01*
X175173Y237656D01*
X175224D01*
X175242Y237872D01*
X175250Y238157D01*
X176750D01*
X176758Y237872D01*
D02*
G37*
G36*
X139758D02*
X139777Y237656D01*
X139827D01*
X139812Y237635D01*
X139799Y237601D01*
X139789Y237562D01*
X139818Y237392D01*
X139870Y237197D01*
X139937Y237032D01*
X140020Y236897D01*
X140118Y236792D01*
X140230Y236717D01*
X140357Y236672D01*
X140500Y236657D01*
X137500D01*
X137643Y236672D01*
X137770Y236717D01*
X137882Y236792D01*
X137980Y236897D01*
X138063Y237032D01*
X138130Y237197D01*
X138182Y237392D01*
X138211Y237562D01*
X138201Y237601D01*
X138188Y237635D01*
X138173Y237656D01*
X138224D01*
X138242Y237872D01*
X138250Y238157D01*
X139750D01*
X139758Y237872D01*
D02*
G37*
G36*
X165747Y238716D02*
X165792Y238588D01*
X165868Y238476D01*
X165974Y238378D01*
X166110Y238296D01*
X166276Y238228D01*
X166473Y238176D01*
X166496Y238172D01*
X166515Y238185D01*
Y238169D01*
X166700Y238138D01*
X166957Y238116D01*
X167244Y238108D01*
Y236608D01*
X166957Y236601D01*
X166700Y236578D01*
X166515Y236548D01*
Y236531D01*
X166496Y236545D01*
X166473Y236541D01*
X166276Y236488D01*
X166110Y236421D01*
X165974Y236338D01*
X165868Y236241D01*
X165792Y236128D01*
X165747Y236001D01*
X165732Y235858D01*
Y238858D01*
X165747Y238716D01*
D02*
G37*
G36*
X92024Y234441D02*
X91931Y234505D01*
X91817Y234530D01*
X91682Y234518D01*
X91526Y234469D01*
X91348Y234381D01*
X91149Y234257D01*
X90929Y234094D01*
X90688Y233894D01*
X90142Y233381D01*
X89081Y234441D01*
X89357Y234725D01*
X89795Y235229D01*
X89957Y235449D01*
X90082Y235647D01*
X90169Y235825D01*
X90219Y235981D01*
X90231Y236117D01*
X90205Y236231D01*
X90142Y236323D01*
X92024Y234441D01*
D02*
G37*
G36*
X126751Y235512D02*
X127500D01*
X127357Y235497D01*
X127230Y235452D01*
X127118Y235376D01*
X127020Y235270D01*
X126937Y235134D01*
X126870Y234968D01*
X126818Y234771D01*
X126780Y234544D01*
X126758Y234288D01*
X126750Y234000D01*
X125250D01*
X125242Y234288D01*
X125220Y234544D01*
X125182Y234771D01*
X125130Y234968D01*
X125063Y235134D01*
X124980Y235270D01*
X124882Y235376D01*
X124770Y235452D01*
X124643Y235497D01*
X124500Y235512D01*
X125249D01*
X125250Y235621D01*
X126750Y235621D01*
X126751Y235512D01*
D02*
G37*
G36*
X93809Y235977D02*
X93805Y235892D01*
X93832Y235786D01*
X93891Y235658D01*
X93983Y235509D01*
X94106Y235338D01*
X94261Y235146D01*
X94668Y234698D01*
X94919Y234441D01*
X93858Y233381D01*
X93602Y233632D01*
X92961Y234193D01*
X92791Y234316D01*
X92641Y234408D01*
X92514Y234467D01*
X92407Y234494D01*
X92323Y234490D01*
X92259Y234453D01*
X93846Y236040D01*
X93809Y235977D01*
D02*
G37*
G36*
X99768Y232142D02*
X99753Y232284D01*
X99708Y232412D01*
X99632Y232524D01*
X99526Y232622D01*
X99390Y232704D01*
X99224Y232772D01*
X99027Y232824D01*
X98800Y232862D01*
X98543Y232884D01*
X98256Y232892D01*
Y234392D01*
X98543Y234399D01*
X98800Y234422D01*
X99027Y234459D01*
X99224Y234512D01*
X99390Y234579D01*
X99526Y234662D01*
X99632Y234759D01*
X99708Y234872D01*
X99753Y234999D01*
X99768Y235142D01*
Y232142D01*
D02*
G37*
G36*
X186268Y229858D02*
X186253Y230001D01*
X186208Y230128D01*
X186132Y230241D01*
X186026Y230338D01*
X185890Y230421D01*
X185724Y230488D01*
X185527Y230541D01*
X185300Y230578D01*
X185194Y230588D01*
X184945Y230571D01*
X184899Y230559D01*
X184865Y230546D01*
X184844Y230532D01*
Y230606D01*
X184756Y230608D01*
Y232108D01*
X184844Y232111D01*
Y232185D01*
X184865Y232170D01*
X184899Y232157D01*
X184945Y232146D01*
X185004Y232136D01*
X185131Y232123D01*
X185300Y232138D01*
X185527Y232176D01*
X185724Y232228D01*
X185890Y232296D01*
X186026Y232378D01*
X186132Y232476D01*
X186208Y232588D01*
X186253Y232716D01*
X186268Y232858D01*
Y229858D01*
D02*
G37*
G36*
X45500Y222500D02*
X30500D01*
Y231728D01*
X34444D01*
Y230358D01*
X41556D01*
Y231728D01*
X45500D01*
Y222500D01*
D02*
G37*
G36*
X153358Y229497D02*
X153230Y229452D01*
X153118Y229376D01*
X153020Y229270D01*
X152937Y229134D01*
X152870Y228968D01*
X152817Y228771D01*
X152781Y228548D01*
X152788Y228445D01*
X152799Y228399D01*
X152812Y228365D01*
X152827Y228344D01*
X152762D01*
X152758Y228288D01*
X152750Y228000D01*
X151250D01*
X151242Y228288D01*
X151238Y228344D01*
X151173D01*
X151188Y228365D01*
X151201Y228399D01*
X151212Y228445D01*
X151222Y228504D01*
X151223Y228510D01*
X151220Y228544D01*
X151182Y228771D01*
X151130Y228968D01*
X151063Y229134D01*
X150980Y229270D01*
X150882Y229376D01*
X150770Y229452D01*
X150643Y229497D01*
X150500Y229512D01*
X153500D01*
X153358Y229497D01*
D02*
G37*
G36*
X94919Y225559D02*
X94668Y225302D01*
X94106Y224662D01*
X93983Y224491D01*
X93891Y224342D01*
X93832Y224214D01*
X93805Y224108D01*
X93809Y224023D01*
X93846Y223960D01*
X92259Y225547D01*
X92323Y225510D01*
X92407Y225506D01*
X92514Y225533D01*
X92641Y225592D01*
X92791Y225683D01*
X92961Y225807D01*
X93153Y225962D01*
X93602Y226368D01*
X93858Y226620D01*
X94919Y225559D01*
D02*
G37*
G36*
X99768Y224858D02*
X99753Y225001D01*
X99708Y225128D01*
X99632Y225241D01*
X99526Y225338D01*
X99390Y225421D01*
X99224Y225488D01*
X99027Y225541D01*
X98800Y225578D01*
X98543Y225601D01*
X98256Y225608D01*
Y227108D01*
X98543Y227116D01*
X98800Y227138D01*
X99027Y227176D01*
X99224Y227228D01*
X99390Y227296D01*
X99526Y227378D01*
X99632Y227476D01*
X99708Y227588D01*
X99753Y227716D01*
X99768Y227858D01*
Y224858D01*
D02*
G37*
G36*
X92362Y222052D02*
X92242Y222131D01*
X92101Y222169D01*
X91940Y222165D01*
X91759Y222120D01*
X91557Y222033D01*
X91335Y221905D01*
X91092Y221736D01*
X90828Y221525D01*
X90240Y220979D01*
X89081Y221941D01*
X89384Y222254D01*
X89859Y222813D01*
X90031Y223059D01*
X90160Y223282D01*
X90246Y223483D01*
X90288Y223662D01*
X90287Y223818D01*
X90242Y223951D01*
X90154Y224062D01*
X92362Y222052D01*
D02*
G37*
G36*
X155805Y220500D02*
X155508Y220192D01*
X155041Y219641D01*
X154871Y219397D01*
X154744Y219174D01*
X154659Y218972D01*
X154617Y218792D01*
Y218633D01*
X154659Y218495D01*
X154744Y218378D01*
X152623Y220500D01*
X152739Y220415D01*
X152877Y220373D01*
X153036D01*
X153217Y220415D01*
X153418Y220500D01*
X153641Y220627D01*
X153885Y220797D01*
X154150Y221009D01*
X154744Y221561D01*
X155805Y220500D01*
D02*
G37*
G36*
X191747Y219999D02*
X191792Y219872D01*
X191868Y219759D01*
X191974Y219662D01*
X192110Y219579D01*
X192276Y219512D01*
X192473Y219459D01*
X192700Y219422D01*
X192957Y219399D01*
X193244Y219392D01*
Y217892D01*
X192957Y217884D01*
X192700Y217862D01*
X192473Y217824D01*
X192276Y217772D01*
X192110Y217704D01*
X191974Y217622D01*
X191868Y217524D01*
X191792Y217412D01*
X191747Y217284D01*
X191732Y217142D01*
Y220142D01*
X191747Y219999D01*
D02*
G37*
G36*
X212677Y219252D02*
X212919Y219086D01*
X213191Y218941D01*
X213495Y218815D01*
X213829Y218710D01*
X214195Y218625D01*
X214591Y218559D01*
X215018Y218514D01*
X215964Y218484D01*
X212358Y214879D01*
X212353Y215367D01*
X212283Y216252D01*
X212218Y216648D01*
X212133Y217013D01*
X212027Y217348D01*
X211902Y217651D01*
X211756Y217924D01*
X211591Y218166D01*
X211405Y218377D01*
X212465Y219438D01*
X212677Y219252D01*
D02*
G37*
G36*
X87000Y240000D02*
Y227500D01*
X81500D01*
X80000Y226000D01*
X80000Y213500D01*
X73000Y213500D01*
X73000Y238500D01*
X69500Y242000D01*
X50500D01*
X43500Y235000D01*
X41556D01*
Y236642D01*
X34444D01*
Y235000D01*
X29000D01*
X20000Y226000D01*
X20000Y172510D01*
X5354Y172491D01*
X5000Y172844D01*
X5000Y246000D01*
X81000Y246000D01*
X87000Y240000D01*
D02*
G37*
G36*
X174067Y212355D02*
X174024Y212374D01*
X173959Y212365D01*
X173872Y212327D01*
X173764Y212262D01*
X173635Y212169D01*
X173484Y212048D01*
X172902Y211515D01*
X172666Y211282D01*
X171605Y212343D01*
X171838Y212579D01*
X172585Y213441D01*
X172650Y213549D01*
X172687Y213636D01*
X172696Y213701D01*
X172678Y213745D01*
X174067Y212355D01*
D02*
G37*
G36*
X137067D02*
X137024Y212374D01*
X136959Y212365D01*
X136872Y212327D01*
X136764Y212262D01*
X136635Y212169D01*
X136484Y212048D01*
X135902Y211515D01*
X135666Y211282D01*
X134605Y212343D01*
X134838Y212579D01*
X135585Y213441D01*
X135650Y213549D01*
X135687Y213636D01*
X135696Y213701D01*
X135678Y213745D01*
X137067Y212355D01*
D02*
G37*
G36*
X103899Y212957D02*
X103922Y212700D01*
X103929Y212656D01*
X103969D01*
X103954Y212635D01*
X103941Y212601D01*
X103939Y212594D01*
X103959Y212473D01*
X104012Y212276D01*
X104079Y212110D01*
X104162Y211974D01*
X104259Y211868D01*
X104372Y211792D01*
X104499Y211747D01*
X104642Y211732D01*
X101642D01*
X101784Y211747D01*
X101912Y211792D01*
X102024Y211868D01*
X102122Y211974D01*
X102204Y212110D01*
X102272Y212276D01*
X102324Y212473D01*
X102344Y212594D01*
X102343Y212601D01*
X102330Y212635D01*
X102315Y212656D01*
X102355D01*
X102362Y212700D01*
X102384Y212957D01*
X102392Y213244D01*
X103892D01*
X103899Y212957D01*
D02*
G37*
G36*
X83616D02*
X83638Y212700D01*
X83676Y212473D01*
X83728Y212276D01*
X83796Y212110D01*
X83878Y211974D01*
X83976Y211868D01*
X84088Y211792D01*
X84216Y211747D01*
X84358Y211732D01*
X81358D01*
X81501Y211747D01*
X81628Y211792D01*
X81741Y211868D01*
X81838Y211974D01*
X81921Y212110D01*
X81988Y212276D01*
X82041Y212473D01*
X82078Y212700D01*
X82101Y212957D01*
X82108Y213244D01*
X83608D01*
X83616Y212957D01*
D02*
G37*
G36*
X179253Y214211D02*
X179222Y214089D01*
X179231Y213946D01*
X179279Y213781D01*
X179367Y213595D01*
X179493Y213388D01*
X179660Y213159D01*
X179866Y212908D01*
X180395Y212343D01*
X179334Y211282D01*
X179041Y211566D01*
X178518Y212017D01*
X178289Y212184D01*
X178082Y212311D01*
X177896Y212398D01*
X177731Y212446D01*
X177588Y212455D01*
X177466Y212425D01*
X177366Y212355D01*
X179322Y214312D01*
X179253Y214211D01*
D02*
G37*
G36*
X142253D02*
X142222Y214089D01*
X142231Y213946D01*
X142279Y213781D01*
X142367Y213595D01*
X142493Y213388D01*
X142660Y213159D01*
X142866Y212908D01*
X143395Y212343D01*
X142334Y211282D01*
X142041Y211566D01*
X141518Y212017D01*
X141289Y212184D01*
X141082Y212311D01*
X140896Y212398D01*
X140731Y212446D01*
X140588Y212455D01*
X140466Y212425D01*
X140366Y212355D01*
X142322Y214312D01*
X142253Y214211D01*
D02*
G37*
G36*
X165747Y212999D02*
X165792Y212872D01*
X165868Y212759D01*
X165974Y212662D01*
X166110Y212579D01*
X166276Y212512D01*
X166473Y212459D01*
X166700Y212422D01*
X166957Y212399D01*
X167244Y212392D01*
Y210892D01*
X166957Y210884D01*
X166700Y210862D01*
X166473Y210824D01*
X166276Y210772D01*
X166110Y210704D01*
X165974Y210622D01*
X165868Y210524D01*
X165792Y210412D01*
X165747Y210284D01*
X165732Y210142D01*
Y213142D01*
X165747Y212999D01*
D02*
G37*
G36*
X128747D02*
X128792Y212872D01*
X128868Y212759D01*
X128974Y212662D01*
X129110Y212579D01*
X129276Y212512D01*
X129473Y212459D01*
X129700Y212422D01*
X129957Y212399D01*
X130244Y212392D01*
Y210892D01*
X129957Y210884D01*
X129700Y210862D01*
X129473Y210824D01*
X129276Y210772D01*
X129110Y210704D01*
X128974Y210622D01*
X128868Y210524D01*
X128792Y210412D01*
X128747Y210284D01*
X128732Y210142D01*
Y213142D01*
X128747Y212999D01*
D02*
G37*
G36*
X81000Y207760D02*
X80985Y207902D01*
X80940Y208030D01*
X80865Y208142D01*
X80760Y208240D01*
X80625Y208322D01*
X80460Y208390D01*
X80265Y208442D01*
X80040Y208480D01*
X79785Y208502D01*
X79598Y208507D01*
X79409Y208502D01*
X79152Y208480D01*
X78926Y208442D01*
X78729Y208390D01*
X78563Y208322D01*
X78427Y208240D01*
X78321Y208142D01*
X78245Y208030D01*
X78200Y207902D01*
X78185Y207760D01*
Y210760D01*
X78200Y210617D01*
X78245Y210490D01*
X78321Y210377D01*
X78427Y210280D01*
X78563Y210197D01*
X78729Y210130D01*
X78926Y210077D01*
X79152Y210040D01*
X79409Y210017D01*
X79598Y210012D01*
X79785Y210017D01*
X80040Y210040D01*
X80265Y210077D01*
X80460Y210130D01*
X80625Y210197D01*
X80760Y210280D01*
X80865Y210377D01*
X80940Y210490D01*
X80985Y210617D01*
X81000Y210760D01*
Y207760D01*
D02*
G37*
G36*
X186268Y209858D02*
X186253Y210001D01*
X186208Y210128D01*
X186132Y210241D01*
X186026Y210338D01*
X185890Y210421D01*
X185724Y210488D01*
X185527Y210541D01*
X185300Y210578D01*
X185043Y210601D01*
X184756Y210608D01*
Y212108D01*
X185043Y212116D01*
X185300Y212138D01*
X185527Y212176D01*
X185724Y212228D01*
X185890Y212296D01*
X186026Y212378D01*
X186132Y212476D01*
X186208Y212588D01*
X186253Y212716D01*
X186268Y212858D01*
Y209858D01*
D02*
G37*
G36*
X149268D02*
X149253Y210001D01*
X149208Y210128D01*
X149132Y210241D01*
X149026Y210338D01*
X148890Y210421D01*
X148724Y210488D01*
X148527Y210541D01*
X148300Y210578D01*
X148043Y210601D01*
X147756Y210608D01*
Y212108D01*
X148043Y212116D01*
X148300Y212138D01*
X148527Y212176D01*
X148724Y212228D01*
X148890Y212296D01*
X149026Y212378D01*
X149132Y212476D01*
X149208Y212588D01*
X149253Y212716D01*
X149268Y212858D01*
Y209858D01*
D02*
G37*
G36*
X94000Y207500D02*
X93985Y207643D01*
X93940Y207770D01*
X93865Y207882D01*
X93760Y207980D01*
X93625Y208063D01*
X93460Y208130D01*
X93265Y208183D01*
X93040Y208220D01*
X92998Y208224D01*
X92955Y208220D01*
X92729Y208183D01*
X92532Y208130D01*
X92366Y208063D01*
X92230Y207980D01*
X92124Y207882D01*
X92048Y207770D01*
X92003Y207643D01*
X91988Y207500D01*
Y210500D01*
X92003Y210357D01*
X92048Y210230D01*
X92124Y210118D01*
X92230Y210020D01*
X92366Y209938D01*
X92532Y209870D01*
X92729Y209818D01*
X92955Y209780D01*
X92998Y209776D01*
X93040Y209780D01*
X93265Y209818D01*
X93460Y209870D01*
X93625Y209938D01*
X93760Y210020D01*
X93865Y210118D01*
X93940Y210230D01*
X93985Y210357D01*
X94000Y210500D01*
Y207500D01*
D02*
G37*
G36*
X190357Y209497D02*
X190230Y209452D01*
X190118Y209376D01*
X190020Y209270D01*
X189937Y209134D01*
X189870Y208968D01*
X189818Y208771D01*
X189780Y208544D01*
X189776Y208502D01*
X189780Y208460D01*
X189818Y208235D01*
X189870Y208040D01*
X189937Y207875D01*
X190020Y207740D01*
X190118Y207635D01*
X190230Y207560D01*
X190357Y207515D01*
X190500Y207500D01*
X187500D01*
X187643Y207515D01*
X187770Y207560D01*
X187882Y207635D01*
X187980Y207740D01*
X188063Y207875D01*
X188130Y208040D01*
X188182Y208235D01*
X188220Y208460D01*
X188224Y208502D01*
X188220Y208544D01*
X188182Y208771D01*
X188130Y208968D01*
X188063Y209134D01*
X187980Y209270D01*
X187882Y209376D01*
X187770Y209452D01*
X187643Y209497D01*
X187500Y209512D01*
X190500D01*
X190357Y209497D01*
D02*
G37*
G36*
X153358D02*
X153230Y209452D01*
X153118Y209376D01*
X153020Y209270D01*
X152937Y209134D01*
X152870Y208968D01*
X152817Y208771D01*
X152780Y208544D01*
X152776Y208502D01*
X152780Y208460D01*
X152817Y208235D01*
X152870Y208040D01*
X152937Y207875D01*
X153020Y207740D01*
X153118Y207635D01*
X153230Y207560D01*
X153358Y207515D01*
X153500Y207500D01*
X150500D01*
X150643Y207515D01*
X150770Y207560D01*
X150882Y207635D01*
X150980Y207740D01*
X151063Y207875D01*
X151130Y208040D01*
X151182Y208235D01*
X151220Y208460D01*
X151224Y208502D01*
X151220Y208544D01*
X151182Y208771D01*
X151130Y208968D01*
X151063Y209134D01*
X150980Y209270D01*
X150882Y209376D01*
X150770Y209452D01*
X150643Y209497D01*
X150500Y209512D01*
X153500D01*
X153358Y209497D01*
D02*
G37*
G36*
X212677Y209409D02*
X212919Y209244D01*
X213191Y209098D01*
X213495Y208973D01*
X213829Y208867D01*
X214195Y208782D01*
X214591Y208717D01*
X215018Y208672D01*
X215964Y208642D01*
X212358Y205036D01*
X212353Y205525D01*
X212283Y206409D01*
X212218Y206805D01*
X212133Y207171D01*
X212027Y207505D01*
X211902Y207809D01*
X211756Y208081D01*
X211591Y208323D01*
X211405Y208535D01*
X212465Y209595D01*
X212677Y209409D01*
D02*
G37*
G36*
X176812Y205635D02*
X176799Y205601D01*
X176788Y205555D01*
X176778Y205496D01*
X176762Y205341D01*
X176753Y205135D01*
X176752Y205070D01*
X176758Y204872D01*
X176780Y204617D01*
X176818Y204392D01*
X176870Y204197D01*
X176937Y204032D01*
X177020Y203897D01*
X177118Y203792D01*
X177230Y203717D01*
X177357Y203672D01*
X177500Y203657D01*
X174500D01*
X174643Y203672D01*
X174770Y203717D01*
X174882Y203792D01*
X174980Y203897D01*
X175063Y204032D01*
X175130Y204197D01*
X175182Y204392D01*
X175220Y204617D01*
X175242Y204872D01*
X175247Y205045D01*
X175212Y205555D01*
X175201Y205601D01*
X175188Y205635D01*
X175173Y205657D01*
X176827D01*
X176812Y205635D01*
D02*
G37*
G36*
X139812D02*
X139799Y205601D01*
X139788Y205555D01*
X139778Y205496D01*
X139762Y205341D01*
X139753Y205135D01*
X139752Y205070D01*
X139758Y204872D01*
X139780Y204617D01*
X139818Y204392D01*
X139870Y204197D01*
X139937Y204032D01*
X140020Y203897D01*
X140118Y203792D01*
X140230Y203717D01*
X140357Y203672D01*
X140500Y203657D01*
X137500D01*
X137643Y203672D01*
X137770Y203717D01*
X137882Y203792D01*
X137980Y203897D01*
X138063Y204032D01*
X138130Y204197D01*
X138182Y204392D01*
X138220Y204617D01*
X138242Y204872D01*
X138247Y205045D01*
X138212Y205555D01*
X138201Y205601D01*
X138188Y205635D01*
X138173Y205657D01*
X139827D01*
X139812Y205635D01*
D02*
G37*
G36*
X165688Y203570D02*
X165666Y203498D01*
X165668Y203414D01*
X165691Y203318D01*
X165738Y203210D01*
X165807Y203091D01*
X165899Y202961D01*
X166013Y202819D01*
X166310Y202500D01*
X165744Y201935D01*
X165579Y202094D01*
X165283Y202345D01*
X165153Y202437D01*
X165034Y202506D01*
X164926Y202553D01*
X164831Y202576D01*
X164746Y202578D01*
X164674Y202556D01*
X164612Y202512D01*
X165732Y203632D01*
X165688Y203570D01*
D02*
G37*
G36*
X126751Y202512D02*
X127500D01*
X127357Y202497D01*
X127230Y202452D01*
X127118Y202376D01*
X127020Y202270D01*
X126937Y202134D01*
X126870Y201968D01*
X126818Y201771D01*
X126780Y201544D01*
X126758Y201288D01*
X126750Y201000D01*
X125250D01*
X125242Y201288D01*
X125220Y201544D01*
X125182Y201771D01*
X125130Y201968D01*
X125063Y202134D01*
X124980Y202270D01*
X124882Y202376D01*
X124770Y202452D01*
X124643Y202497D01*
X124500Y202512D01*
X125249D01*
X125250Y202621D01*
X126750D01*
X126751Y202512D01*
D02*
G37*
G36*
X79060Y200460D02*
X78271Y199316D01*
X77084Y200251D01*
X77178Y200347D01*
X77438Y200651D01*
X77475Y200708D01*
X77500Y200757D01*
X77514Y200798D01*
X77517Y200832D01*
X77508Y200858D01*
X79060Y200460D01*
D02*
G37*
G36*
X75420Y200748D02*
X75423Y200718D01*
X75438Y200680D01*
X75464Y200634D01*
X75501Y200580D01*
X75549Y200517D01*
X75680Y200367D01*
X75857Y200184D01*
X74622Y199297D01*
X73881Y200494D01*
X75428Y200770D01*
X75420Y200748D01*
D02*
G37*
G36*
X186268Y196858D02*
X186253Y197001D01*
X186208Y197128D01*
X186132Y197241D01*
X186026Y197338D01*
X185890Y197421D01*
X185724Y197488D01*
X185527Y197541D01*
X185406Y197561D01*
X185399Y197559D01*
X185365Y197546D01*
X185344Y197531D01*
Y197571D01*
X185300Y197578D01*
X185043Y197601D01*
X184756Y197608D01*
Y199108D01*
X185043Y199116D01*
X185300Y199138D01*
X185344Y199145D01*
Y199185D01*
X185365Y199170D01*
X185399Y199157D01*
X185406Y199156D01*
X185527Y199176D01*
X185724Y199228D01*
X185890Y199296D01*
X186026Y199378D01*
X186132Y199476D01*
X186208Y199588D01*
X186253Y199716D01*
X186268Y199858D01*
Y196858D01*
D02*
G37*
G36*
X103899Y198957D02*
X103922Y198700D01*
X103929Y198656D01*
X103969D01*
X103954Y198635D01*
X103941Y198601D01*
X103939Y198594D01*
X103959Y198473D01*
X104012Y198276D01*
X104079Y198110D01*
X104162Y197974D01*
X104259Y197868D01*
X104372Y197792D01*
X104499Y197747D01*
X104642Y197732D01*
X101642D01*
X101784Y197747D01*
X101912Y197792D01*
X102024Y197868D01*
X102122Y197974D01*
X102204Y198110D01*
X102272Y198276D01*
X102324Y198473D01*
X102344Y198594D01*
X102343Y198601D01*
X102330Y198635D01*
X102315Y198656D01*
X102355D01*
X102362Y198700D01*
X102384Y198957D01*
X102392Y199244D01*
X103892D01*
X103899Y198957D01*
D02*
G37*
G36*
X75866Y197305D02*
X75772Y197210D01*
X75511Y196910D01*
X75474Y196855D01*
X75448Y196808D01*
X75434Y196769D01*
X75431Y196739D01*
X75439Y196716D01*
X73890Y197011D01*
X74640Y198200D01*
X75866Y197305D01*
D02*
G37*
G36*
X79051Y197045D02*
X77500Y196628D01*
X77508Y196655D01*
X77506Y196689D01*
X77492Y196731D01*
X77466Y196780D01*
X77429Y196837D01*
X77381Y196902D01*
X77251Y197055D01*
X77076Y197238D01*
X78254Y198180D01*
X79051Y197045D01*
D02*
G37*
G36*
X154688Y197570D02*
X154666Y197498D01*
X154668Y197414D01*
X154691Y197318D01*
X154738Y197210D01*
X154807Y197091D01*
X154899Y196961D01*
X155013Y196819D01*
X155310Y196500D01*
X154744Y195934D01*
X154579Y196094D01*
X154283Y196345D01*
X154153Y196437D01*
X154034Y196506D01*
X153926Y196553D01*
X153831Y196576D01*
X153746Y196578D01*
X153674Y196556D01*
X153612Y196512D01*
X154732Y197632D01*
X154688Y197570D01*
D02*
G37*
G36*
X94000Y193500D02*
X93985Y193642D01*
X93940Y193770D01*
X93865Y193883D01*
X93760Y193980D01*
X93625Y194062D01*
X93460Y194130D01*
X93265Y194183D01*
X93040Y194220D01*
X92998Y194224D01*
X92955Y194220D01*
X92729Y194183D01*
X92532Y194130D01*
X92366Y194062D01*
X92230Y193980D01*
X92124Y193883D01*
X92048Y193770D01*
X92003Y193642D01*
X91988Y193500D01*
Y196500D01*
X92003Y196358D01*
X92048Y196230D01*
X92124Y196117D01*
X92230Y196020D01*
X92366Y195938D01*
X92532Y195870D01*
X92729Y195817D01*
X92955Y195780D01*
X92998Y195776D01*
X93040Y195780D01*
X93265Y195817D01*
X93460Y195870D01*
X93625Y195938D01*
X93760Y196020D01*
X93865Y196117D01*
X93940Y196230D01*
X93985Y196358D01*
X94000Y196500D01*
Y193500D01*
D02*
G37*
G36*
X84621Y194262D02*
X84579Y194125D01*
X84581Y193966D01*
X84624Y193786D01*
X84710Y193585D01*
X84839Y193362D01*
X85010Y193118D01*
X85223Y192852D01*
X85777Y192256D01*
X84716Y191195D01*
X84408Y191494D01*
X83855Y191963D01*
X83610Y192134D01*
X83388Y192262D01*
X83186Y192348D01*
X83006Y192392D01*
X82856Y192393D01*
X82993Y192256D01*
X82889Y192329D01*
X82764Y192363D01*
X82744Y192362D01*
X82711Y192352D01*
X82595Y192268D01*
X82686Y192359D01*
X82618Y192356D01*
X82450Y192310D01*
X82262Y192224D01*
X82052Y192098D01*
X81821Y191932D01*
X81568Y191726D01*
X81000Y191195D01*
X79940Y192256D01*
X80225Y192551D01*
X80676Y193077D01*
X80842Y193308D01*
X80968Y193517D01*
X81054Y193706D01*
X81100Y193874D01*
X81107Y194020D01*
X81073Y194145D01*
X81000Y194249D01*
X82788Y192461D01*
X84704Y194377D01*
X84621Y194262D01*
D02*
G37*
G36*
X78200Y192617D02*
X78245Y192490D01*
X78321Y192377D01*
X78427Y192280D01*
X78563Y192197D01*
X78729Y192130D01*
X78926Y192077D01*
X79152Y192040D01*
X79409Y192017D01*
X79697Y192010D01*
Y190510D01*
X79409Y190502D01*
X79152Y190480D01*
X78926Y190442D01*
X78729Y190390D01*
X78563Y190322D01*
X78427Y190240D01*
X78321Y190142D01*
X78245Y190030D01*
X78200Y189902D01*
X78185Y189760D01*
Y192760D01*
X78200Y192617D01*
D02*
G37*
G36*
X45000Y189000D02*
X26000D01*
X26000Y219000D01*
X45000D01*
X45000Y189000D01*
D02*
G37*
G36*
X176787Y189284D02*
X176984Y189119D01*
X177169Y188987D01*
X177176Y188983D01*
X177181Y188988D01*
X177183Y188979D01*
X177344Y188886D01*
X177509Y188817D01*
X177663Y188780D01*
X177806Y188775D01*
X177938Y188801D01*
X178060Y188859D01*
X178172Y188950D01*
X177642Y188420D01*
X177677Y188384D01*
X176616Y187323D01*
X176581Y187358D01*
X176050Y186828D01*
X176140Y186940D01*
X176199Y187062D01*
X176225Y187194D01*
X176220Y187337D01*
X176183Y187491D01*
X176114Y187656D01*
X176021Y187817D01*
X176012Y187819D01*
X176017Y187824D01*
X176013Y187831D01*
X175881Y188016D01*
X175716Y188212D01*
X175520Y188419D01*
X176581Y189480D01*
X176787Y189284D01*
D02*
G37*
G36*
X37616Y188457D02*
X37638Y188200D01*
X37676Y187973D01*
X37728Y187776D01*
X37796Y187610D01*
X37878Y187474D01*
X37976Y187368D01*
X38088Y187292D01*
X38216Y187247D01*
X38358Y187232D01*
X35358D01*
X35501Y187247D01*
X35628Y187292D01*
X35741Y187368D01*
X35838Y187474D01*
X35921Y187610D01*
X35988Y187776D01*
X36041Y187973D01*
X36078Y188200D01*
X36101Y188457D01*
X36108Y188744D01*
X37608D01*
X37616Y188457D01*
D02*
G37*
G36*
X143388Y188367D02*
X143398Y188305D01*
X143414Y188242D01*
X143437Y188178D01*
X143467Y188114D01*
X143504Y188050D01*
X143547Y187985D01*
X143597Y187919D01*
X143654Y187853D01*
X143718Y187786D01*
X143152Y187220D01*
X143085Y187284D01*
X142953Y187391D01*
X142888Y187434D01*
X142824Y187471D01*
X142760Y187501D01*
X142696Y187523D01*
X142633Y187540D01*
X142571Y187549D01*
X142509Y187552D01*
X143386Y188429D01*
X143388Y188367D01*
D02*
G37*
G36*
X92753Y186800D02*
X92776Y186464D01*
X92796Y186327D01*
X92822Y186211D01*
X92854Y186117D01*
X92892Y186043D01*
X92935Y185991D01*
X92985Y185959D01*
X93040Y185948D01*
X90960D01*
X91015Y185959D01*
X91065Y185991D01*
X91108Y186043D01*
X91146Y186117D01*
X91178Y186211D01*
X91204Y186327D01*
X91224Y186464D01*
X91238Y186621D01*
X91250Y187000D01*
X92750D01*
X92753Y186800D01*
D02*
G37*
G36*
X124465Y187312D02*
X124499Y187299D01*
X124545Y187288D01*
X124604Y187278D01*
X124759Y187262D01*
X124965Y187253D01*
X125221Y187250D01*
Y185750D01*
X125087Y185749D01*
X124545Y185712D01*
X124499Y185701D01*
X124465Y185688D01*
X124443Y185673D01*
Y187327D01*
X124465Y187312D01*
D02*
G37*
G36*
X122757Y185673D02*
X122735Y185688D01*
X122701Y185701D01*
X122655Y185712D01*
X122596Y185722D01*
X122441Y185738D01*
X122235Y185747D01*
X121979Y185750D01*
Y187250D01*
X122113Y187251D01*
X122655Y187288D01*
X122701Y187299D01*
X122735Y187312D01*
X122757Y187327D01*
Y185673D01*
D02*
G37*
G36*
X127012Y185000D02*
X126997Y185143D01*
X126952Y185270D01*
X126876Y185382D01*
X126770Y185480D01*
X126634Y185563D01*
X126468Y185630D01*
X126271Y185682D01*
X126044Y185720D01*
X125787Y185742D01*
X125500Y185750D01*
Y187250D01*
X125787Y187258D01*
X126044Y187280D01*
X126271Y187318D01*
X126468Y187370D01*
X126634Y187437D01*
X126770Y187520D01*
X126876Y187618D01*
X126952Y187730D01*
X126997Y187857D01*
X127012Y188000D01*
Y185000D01*
D02*
G37*
G36*
X187106Y183896D02*
X186938Y183719D01*
X186988Y183669D01*
X186963Y183664D01*
X186930Y183649D01*
X186889Y183625D01*
X186840Y183590D01*
X186799Y183556D01*
X186743Y183489D01*
X186609Y183302D01*
X186507Y183126D01*
X186437Y182961D01*
X186399Y182807D01*
X186393Y182663D01*
X186419Y182530D01*
X186477Y182407D01*
X186567Y182296D01*
X184446Y184417D01*
X184558Y184327D01*
X184680Y184269D01*
X184813Y184243D01*
X184957Y184249D01*
X185111Y184287D01*
X185276Y184357D01*
X185453Y184459D01*
X185640Y184592D01*
X185669Y184617D01*
X185775Y184739D01*
X185800Y184780D01*
X185814Y184813D01*
X185819Y184838D01*
X185869Y184788D01*
X186046Y184956D01*
X187106Y183896D01*
D02*
G37*
G36*
X177128Y184009D02*
X177102Y184022D01*
X177065Y184020D01*
X177017Y184004D01*
X176958Y183973D01*
X176889Y183926D01*
X176809Y183865D01*
X176616Y183697D01*
X176380Y183470D01*
X175320Y184530D01*
X175441Y184654D01*
X175776Y185039D01*
X175822Y185108D01*
X175854Y185167D01*
X175870Y185215D01*
X175872Y185252D01*
X175858Y185278D01*
X177128Y184009D01*
D02*
G37*
G36*
X173680Y183470D02*
X173559Y183346D01*
X173224Y182961D01*
X173178Y182892D01*
X173146Y182833D01*
X173130Y182785D01*
X173128Y182748D01*
X173142Y182722D01*
X171872Y183992D01*
X171898Y183978D01*
X171935Y183980D01*
X171983Y183996D01*
X172042Y184028D01*
X172111Y184074D01*
X172191Y184135D01*
X172384Y184303D01*
X172620Y184530D01*
X173680Y183470D01*
D02*
G37*
G36*
X164554Y183583D02*
X164442Y183673D01*
X164320Y183731D01*
X164187Y183757D01*
X164043Y183751D01*
X163889Y183713D01*
X163724Y183643D01*
X163547Y183541D01*
X163382Y183423D01*
X163349Y183386D01*
X163325Y183345D01*
X163310Y183311D01*
X163305Y183286D01*
X163264Y183327D01*
X163163Y183242D01*
X162954Y183044D01*
X161894Y184105D01*
X162092Y184313D01*
X162177Y184415D01*
X162136Y184455D01*
X162161Y184460D01*
X162195Y184475D01*
X162235Y184500D01*
X162264Y184520D01*
X162391Y184697D01*
X162493Y184874D01*
X162563Y185039D01*
X162601Y185194D01*
X162607Y185337D01*
X162581Y185470D01*
X162523Y185593D01*
X162433Y185704D01*
X164554Y183583D01*
D02*
G37*
G36*
X49000Y183000D02*
X48985Y183142D01*
X48940Y183270D01*
X48865Y183382D01*
X48760Y183480D01*
X48625Y183563D01*
X48460Y183630D01*
X48265Y183683D01*
X48040Y183720D01*
X47785Y183742D01*
X47500Y183750D01*
Y185250D01*
X47785Y185257D01*
X48040Y185280D01*
X48265Y185318D01*
X48460Y185370D01*
X48625Y185438D01*
X48760Y185520D01*
X48865Y185617D01*
X48940Y185730D01*
X48985Y185857D01*
X49000Y186000D01*
Y183000D01*
D02*
G37*
G36*
X46003Y185857D02*
X46048Y185730D01*
X46124Y185617D01*
X46230Y185520D01*
X46366Y185438D01*
X46532Y185370D01*
X46729Y185318D01*
X46955Y185280D01*
X47212Y185257D01*
X47500Y185250D01*
Y183750D01*
X47212Y183742D01*
X46955Y183720D01*
X46729Y183683D01*
X46532Y183630D01*
X46366Y183563D01*
X46230Y183480D01*
X46124Y183382D01*
X46048Y183270D01*
X46003Y183142D01*
X45988Y183000D01*
Y186000D01*
X46003Y185857D01*
D02*
G37*
G36*
X144438Y182880D02*
X144447Y182818D01*
X144463Y182755D01*
X144486Y182691D01*
X144516Y182627D01*
X144553Y182563D01*
X144596Y182498D01*
X144646Y182432D01*
X144703Y182366D01*
X144766Y182299D01*
X144201Y181734D01*
X144134Y181797D01*
X144002Y181904D01*
X143937Y181947D01*
X143873Y181984D01*
X143809Y182014D01*
X143745Y182037D01*
X143682Y182053D01*
X143620Y182062D01*
X143558Y182065D01*
X144435Y182942D01*
X144438Y182880D01*
D02*
G37*
G36*
X93809Y183977D02*
X93805Y183892D01*
X93832Y183786D01*
X93891Y183658D01*
X93983Y183509D01*
X94106Y183338D01*
X94261Y183146D01*
X94668Y182698D01*
X94919Y182441D01*
X93858Y181380D01*
X93602Y181632D01*
X92961Y182193D01*
X92791Y182317D01*
X92641Y182408D01*
X92514Y182467D01*
X92407Y182494D01*
X92323Y182490D01*
X92259Y182453D01*
X93846Y184040D01*
X93809Y183977D01*
D02*
G37*
G36*
X99768Y180142D02*
X99753Y180284D01*
X99708Y180412D01*
X99632Y180524D01*
X99526Y180622D01*
X99390Y180704D01*
X99224Y180772D01*
X99027Y180824D01*
X98800Y180862D01*
X98543Y180884D01*
X98256Y180892D01*
Y182392D01*
X98543Y182399D01*
X98800Y182422D01*
X99027Y182459D01*
X99224Y182512D01*
X99390Y182579D01*
X99526Y182662D01*
X99632Y182759D01*
X99708Y182872D01*
X99753Y182999D01*
X99768Y183142D01*
Y180142D01*
D02*
G37*
G36*
X170576Y180675D02*
X170530Y180665D01*
X170467Y180633D01*
X170387Y180581D01*
X170291Y180508D01*
X170045Y180300D01*
X169548Y179831D01*
X169349Y179633D01*
X168783Y180199D01*
X168981Y180398D01*
X169783Y181317D01*
X169815Y181380D01*
X169825Y181425D01*
X170576Y180675D01*
D02*
G37*
G36*
X176368Y179380D02*
X176323Y179422D01*
X176272Y179459D01*
X176216Y179492D01*
X176154Y179521D01*
X176088Y179545D01*
X176017Y179565D01*
X175940Y179580D01*
X175858Y179591D01*
X175771Y179598D01*
X175679Y179600D01*
Y180400D01*
X175771Y180402D01*
X175940Y180420D01*
X176017Y180435D01*
X176088Y180455D01*
X176154Y180479D01*
X176216Y180508D01*
X176272Y180541D01*
X176323Y180578D01*
X176368Y180620D01*
Y179380D01*
D02*
G37*
G36*
X169209Y178928D02*
X169149Y178975D01*
X169084Y179006D01*
X169013Y179020D01*
X168936Y179017D01*
X168853Y178996D01*
X168765Y178958D01*
X168670Y178903D01*
X168570Y178832D01*
X168464Y178742D01*
X168352Y178636D01*
X167786Y179202D01*
X167893Y179314D01*
X167982Y179420D01*
X168054Y179520D01*
X168108Y179615D01*
X168146Y179703D01*
X168167Y179786D01*
X168170Y179863D01*
X168157Y179934D01*
X168126Y179999D01*
X168078Y180059D01*
X169209Y178928D01*
D02*
G37*
G36*
X185851Y181069D02*
X185793Y180947D01*
X185767Y180814D01*
X185773Y180670D01*
X185811Y180515D01*
X185880Y180350D01*
X185982Y180174D01*
X186116Y179987D01*
X186282Y179789D01*
X186480Y179581D01*
X185419Y178520D01*
X185211Y178718D01*
X185013Y178884D01*
X184826Y179018D01*
X184650Y179120D01*
X184485Y179189D01*
X184330Y179227D01*
X184186Y179233D01*
X184054Y179207D01*
X183931Y179149D01*
X183820Y179059D01*
X185941Y181180D01*
X185851Y181069D01*
D02*
G37*
G36*
X182182Y178954D02*
X182175Y178951D01*
X182157Y178936D01*
X182039Y178824D01*
X181626Y178416D01*
X180566Y179476D01*
X181105Y180032D01*
X182182Y178954D01*
D02*
G37*
G36*
X162078Y178822D02*
X162041Y178771D01*
X162008Y178715D01*
X161979Y178654D01*
X161955Y178587D01*
X161935Y178516D01*
X161920Y178439D01*
X161909Y178357D01*
X161902Y178270D01*
X161900Y178178D01*
X161100D01*
X161098Y178270D01*
X161080Y178439D01*
X161065Y178516D01*
X161045Y178587D01*
X161021Y178654D01*
X160992Y178715D01*
X160959Y178771D01*
X160922Y178822D01*
X160880Y178867D01*
X162120D01*
X162078Y178822D01*
D02*
G37*
G36*
X124465Y179812D02*
X124499Y179799D01*
X124545Y179788D01*
X124604Y179778D01*
X124759Y179762D01*
X124965Y179753D01*
X125221Y179750D01*
Y178250D01*
X125087Y178249D01*
X124545Y178212D01*
X124499Y178201D01*
X124465Y178188D01*
X124443Y178173D01*
Y179827D01*
X124465Y179812D01*
D02*
G37*
G36*
X122757Y178173D02*
X122735Y178188D01*
X122701Y178201D01*
X122655Y178212D01*
X122596Y178222D01*
X122441Y178238D01*
X122235Y178247D01*
X121979Y178250D01*
Y179750D01*
X122113Y179751D01*
X122655Y179788D01*
X122701Y179799D01*
X122735Y179812D01*
X122757Y179827D01*
Y178173D01*
D02*
G37*
G36*
X127012Y177500D02*
X126997Y177643D01*
X126952Y177770D01*
X126876Y177883D01*
X126770Y177980D01*
X126634Y178062D01*
X126468Y178130D01*
X126271Y178182D01*
X126044Y178220D01*
X125787Y178243D01*
X125500Y178250D01*
Y179750D01*
X125787Y179757D01*
X126044Y179780D01*
X126271Y179817D01*
X126468Y179870D01*
X126634Y179938D01*
X126770Y180020D01*
X126876Y180117D01*
X126952Y180230D01*
X126997Y180358D01*
X127012Y180500D01*
Y177500D01*
D02*
G37*
G36*
X142813Y179909D02*
X143011Y179743D01*
X143198Y179609D01*
X143374Y179507D01*
X143539Y179437D01*
X143693Y179399D01*
X143837Y179393D01*
X143970Y179419D01*
X144093Y179477D01*
X144204Y179568D01*
X142083Y177446D01*
X142173Y177558D01*
X142231Y177680D01*
X142257Y177813D01*
X142251Y177957D01*
X142213Y178111D01*
X142143Y178277D01*
X142041Y178453D01*
X141908Y178639D01*
X141742Y178837D01*
X141544Y179046D01*
X142604Y180106D01*
X142813Y179909D01*
D02*
G37*
G36*
X181626Y175716D02*
X181488Y175573D01*
X181267Y175321D01*
X181185Y175211D01*
X181122Y175111D01*
X181078Y175023D01*
X181052Y174945D01*
X181045Y174878D01*
X181057Y174821D01*
X181088Y174776D01*
X179626Y176238D01*
X179671Y176207D01*
X179727Y176195D01*
X179795Y176202D01*
X179872Y176228D01*
X179961Y176272D01*
X180060Y176335D01*
X180171Y176418D01*
X180291Y176518D01*
X180566Y176777D01*
X181626Y175716D01*
D02*
G37*
G36*
X187787Y178284D02*
X187984Y178119D01*
X188169Y177987D01*
X188344Y177886D01*
X188509Y177817D01*
X188663Y177780D01*
X188806Y177775D01*
X188938Y177801D01*
X189060Y177859D01*
X189172Y177950D01*
X187050Y175828D01*
X187141Y175940D01*
X187199Y176062D01*
X187225Y176194D01*
X187220Y176337D01*
X187183Y176491D01*
X187114Y176656D01*
X187013Y176831D01*
X186881Y177016D01*
X186716Y177212D01*
X186520Y177419D01*
X187581Y178480D01*
X187787Y178284D01*
D02*
G37*
G36*
X145828Y176593D02*
X145848Y176492D01*
X145861Y176446D01*
X145876Y176403D01*
X145893Y176363D01*
X145913Y176326D01*
X145934Y176292D01*
X145958Y176260D01*
X145984Y176232D01*
X145419Y175666D01*
X145390Y175692D01*
X145359Y175716D01*
X145324Y175738D01*
X145287Y175757D01*
X145247Y175774D01*
X145204Y175790D01*
X145158Y175803D01*
X145109Y175813D01*
X145058Y175822D01*
X145003Y175829D01*
X145822Y176647D01*
X145828Y176593D01*
D02*
G37*
G36*
X137133Y176258D02*
X137082Y176226D01*
X137038Y176173D01*
X136999Y176099D01*
X136966Y176003D01*
X136939Y175886D01*
X136918Y175749D01*
X136904Y175590D01*
X136892Y175208D01*
X135392D01*
X135389Y175409D01*
X135365Y175749D01*
X135344Y175886D01*
X135317Y176003D01*
X135284Y176099D01*
X135246Y176173D01*
X135201Y176226D01*
X135150Y176258D01*
X135094Y176268D01*
X137190D01*
X137133Y176258D01*
D02*
G37*
G36*
X198106Y172896D02*
X197938Y172719D01*
X197988Y172669D01*
X197963Y172664D01*
X197930Y172649D01*
X197889Y172625D01*
X197840Y172590D01*
X197799Y172556D01*
X197743Y172489D01*
X197609Y172302D01*
X197507Y172126D01*
X197437Y171961D01*
X197399Y171807D01*
X197393Y171663D01*
X197419Y171530D01*
X197477Y171407D01*
X197567Y171296D01*
X195446Y173417D01*
X195558Y173327D01*
X195680Y173269D01*
X195813Y173243D01*
X195957Y173249D01*
X196111Y173287D01*
X196276Y173357D01*
X196453Y173459D01*
X196640Y173592D01*
X196669Y173617D01*
X196775Y173739D01*
X196800Y173779D01*
X196814Y173813D01*
X196819Y173838D01*
X196869Y173788D01*
X197046Y173956D01*
X198106Y172896D01*
D02*
G37*
G36*
X94919Y173559D02*
X94668Y173302D01*
X94106Y172662D01*
X93983Y172491D01*
X93891Y172342D01*
X93832Y172214D01*
X93805Y172108D01*
X93809Y172023D01*
X93846Y171960D01*
X92259Y173547D01*
X92323Y173510D01*
X92407Y173506D01*
X92514Y173533D01*
X92641Y173592D01*
X92791Y173684D01*
X92961Y173807D01*
X93153Y173962D01*
X93602Y174368D01*
X93858Y174619D01*
X94919Y173559D01*
D02*
G37*
G36*
X146425Y174109D02*
X146357Y174073D01*
X146298Y174013D01*
X146246Y173929D01*
X146201Y173821D01*
X146166Y173689D01*
X146137Y173533D01*
X146117Y173353D01*
X146101Y172921D01*
X145301D01*
X145298Y173149D01*
X145265Y173533D01*
X145237Y173689D01*
X145201Y173821D01*
X145157Y173929D01*
X145105Y174013D01*
X145045Y174073D01*
X144977Y174109D01*
X144901Y174121D01*
X146501D01*
X146425Y174109D01*
D02*
G37*
G36*
X99768Y172858D02*
X99753Y173001D01*
X99708Y173128D01*
X99632Y173241D01*
X99526Y173338D01*
X99390Y173421D01*
X99224Y173488D01*
X99027Y173541D01*
X98800Y173578D01*
X98543Y173601D01*
X98256Y173608D01*
Y175108D01*
X98543Y175116D01*
X98800Y175138D01*
X99027Y175176D01*
X99224Y175228D01*
X99390Y175296D01*
X99526Y175378D01*
X99632Y175476D01*
X99708Y175588D01*
X99753Y175716D01*
X99768Y175858D01*
Y172858D01*
D02*
G37*
G36*
X137663Y174758D02*
X137860Y174592D01*
X138047Y174459D01*
X138224Y174357D01*
X138389Y174287D01*
X138543Y174249D01*
X138687Y174243D01*
X138820Y174269D01*
X138942Y174327D01*
X139054Y174417D01*
X136933Y172296D01*
X137023Y172407D01*
X137081Y172530D01*
X137107Y172663D01*
X137101Y172807D01*
X137063Y172961D01*
X136993Y173126D01*
X136891Y173302D01*
X136757Y173489D01*
X136591Y173687D01*
X136394Y173896D01*
X137454Y174956D01*
X137663Y174758D01*
D02*
G37*
G36*
X172491Y172574D02*
X172429Y172571D01*
X172367Y172562D01*
X172304Y172545D01*
X172240Y172522D01*
X172176Y172493D01*
X172112Y172456D01*
X172047Y172413D01*
X171981Y172363D01*
X171915Y172306D01*
X171848Y172242D01*
X171282Y172808D01*
X171346Y172875D01*
X171453Y173006D01*
X171496Y173072D01*
X171533Y173136D01*
X171563Y173200D01*
X171586Y173264D01*
X171602Y173327D01*
X171611Y173389D01*
X171614Y173451D01*
X172491Y172574D01*
D02*
G37*
G36*
X178425Y172825D02*
X178380Y172815D01*
X178317Y172783D01*
X178237Y172731D01*
X178140Y172658D01*
X177895Y172450D01*
X177398Y171981D01*
X177199Y171783D01*
X176633Y172349D01*
X176831Y172548D01*
X177633Y173467D01*
X177664Y173530D01*
X177675Y173576D01*
X178425Y172825D01*
D02*
G37*
G36*
X90426Y174344D02*
X90929Y173906D01*
X91149Y173743D01*
X91348Y173619D01*
X91526Y173531D01*
X91682Y173482D01*
X91817Y173470D01*
X91931Y173495D01*
X92024Y173559D01*
X90142Y171677D01*
X90205Y171769D01*
X90231Y171883D01*
X90219Y172019D01*
X90169Y172175D01*
X90082Y172353D01*
X89957Y172551D01*
X89795Y172771D01*
X89595Y173013D01*
X89081Y173559D01*
X90142Y174619D01*
X90426Y174344D01*
D02*
G37*
G36*
X162713Y172519D02*
X162733Y172243D01*
X162751Y172121D01*
X162773Y172010D01*
X162801Y171911D01*
X162834Y171822D01*
X162871Y171744D01*
X162914Y171678D01*
X162962Y171622D01*
X161519Y171465D01*
X161593Y171484D01*
X161660Y171527D01*
X161719Y171591D01*
X161770Y171678D01*
X161813Y171788D01*
X161848Y171920D01*
X161875Y172075D01*
X161895Y172252D01*
X161911Y172673D01*
X162711D01*
X162713Y172519D01*
D02*
G37*
G36*
X158093Y172451D02*
X158125Y172075D01*
X158152Y171920D01*
X158187Y171788D01*
X158230Y171678D01*
X158281Y171591D01*
X158340Y171527D01*
X158406Y171484D01*
X158481Y171465D01*
X157038Y171622D01*
X157086Y171678D01*
X157129Y171744D01*
X157166Y171822D01*
X157199Y171911D01*
X157227Y172010D01*
X157249Y172121D01*
X157267Y172243D01*
X157287Y172519D01*
X157289Y172673D01*
X158089D01*
X158093Y172451D01*
D02*
G37*
G36*
X177059Y171078D02*
X176999Y171126D01*
X176934Y171157D01*
X176863Y171170D01*
X176786Y171167D01*
X176703Y171146D01*
X176615Y171108D01*
X176520Y171054D01*
X176420Y170982D01*
X176314Y170893D01*
X176202Y170786D01*
X175636Y171352D01*
X175742Y171464D01*
X175831Y171570D01*
X175903Y171670D01*
X175958Y171765D01*
X175996Y171853D01*
X176017Y171936D01*
X176020Y172013D01*
X176006Y172084D01*
X175976Y172150D01*
X175927Y172209D01*
X177059Y171078D01*
D02*
G37*
G36*
X164877Y170838D02*
X164770Y170731D01*
X164361Y170268D01*
X164351Y170244D01*
X164354Y170230D01*
X163703Y170881D01*
X163716Y170879D01*
X163741Y170888D01*
X163775Y170910D01*
X163820Y170944D01*
X163942Y171049D01*
X164311Y171404D01*
X164877Y170838D01*
D02*
G37*
G36*
X155797Y171297D02*
X156259Y170888D01*
X156284Y170879D01*
X156297Y170881D01*
X155646Y170230D01*
X155649Y170244D01*
X155639Y170268D01*
X155617Y170303D01*
X155583Y170348D01*
X155479Y170470D01*
X155123Y170838D01*
X155689Y171404D01*
X155797Y171297D01*
D02*
G37*
G36*
X140685Y171380D02*
X140717Y171317D01*
X140769Y171237D01*
X140842Y171140D01*
X141050Y170895D01*
X141519Y170398D01*
X141717Y170199D01*
X141151Y169633D01*
X140952Y169831D01*
X140033Y170633D01*
X139970Y170665D01*
X139924Y170675D01*
X140675Y171425D01*
X140685Y171380D01*
D02*
G37*
G36*
X166269Y169447D02*
X166162Y169339D01*
X165753Y168876D01*
X165743Y168852D01*
X165746Y168838D01*
X165094Y169489D01*
X165108Y169487D01*
X165132Y169497D01*
X165167Y169518D01*
X165212Y169552D01*
X165334Y169657D01*
X165703Y170012D01*
X166269Y169447D01*
D02*
G37*
G36*
X154405Y169905D02*
X154867Y169497D01*
X154892Y169487D01*
X154905Y169489D01*
X154254Y168838D01*
X154257Y168852D01*
X154247Y168876D01*
X154225Y168911D01*
X154191Y168956D01*
X154087Y169078D01*
X153731Y169447D01*
X154297Y170012D01*
X154405Y169905D01*
D02*
G37*
G36*
X142374Y169999D02*
X142343Y169934D01*
X142330Y169863D01*
X142333Y169786D01*
X142354Y169703D01*
X142392Y169615D01*
X142446Y169520D01*
X142518Y169420D01*
X142607Y169314D01*
X142714Y169202D01*
X142148Y168636D01*
X142036Y168742D01*
X141930Y168832D01*
X141830Y168904D01*
X141735Y168958D01*
X141647Y168996D01*
X141564Y169017D01*
X141487Y169020D01*
X141416Y169006D01*
X141350Y168975D01*
X141291Y168928D01*
X142422Y170059D01*
X142374Y169999D01*
D02*
G37*
G36*
X194576Y169675D02*
X194530Y169665D01*
X194467Y169633D01*
X194387Y169581D01*
X194290Y169508D01*
X194045Y169300D01*
X193549Y168831D01*
X193349Y168633D01*
X192783Y169199D01*
X192981Y169398D01*
X193783Y170317D01*
X193815Y170380D01*
X193825Y170425D01*
X194576Y169675D01*
D02*
G37*
G36*
X167660Y168055D02*
X167553Y167947D01*
X167145Y167484D01*
X167135Y167460D01*
X167138Y167446D01*
X166486Y168097D01*
X166500Y168095D01*
X166525Y168105D01*
X166559Y168126D01*
X166604Y168160D01*
X166726Y168265D01*
X167095Y168620D01*
X167660Y168055D01*
D02*
G37*
G36*
X70000Y217500D02*
X71980Y215520D01*
Y213500D01*
X72000Y213402D01*
X72000Y186500D01*
X70000Y184500D01*
X70000Y179500D01*
Y168000D01*
X56000Y168000D01*
X56000Y180944D01*
X57642D01*
Y184500D01*
X58142D01*
D01*
X57642D01*
Y188056D01*
X56000D01*
Y189500D01*
X48000Y189500D01*
Y235500D01*
X52500Y240000D01*
X70000D01*
Y217500D01*
D02*
G37*
G36*
X193209Y167928D02*
X193149Y167975D01*
X193084Y168006D01*
X193013Y168020D01*
X192936Y168017D01*
X192853Y167996D01*
X192765Y167958D01*
X192670Y167903D01*
X192570Y167832D01*
X192464Y167742D01*
X192352Y167636D01*
X191786Y168202D01*
X191893Y168314D01*
X191982Y168420D01*
X192054Y168520D01*
X192109Y168615D01*
X192146Y168703D01*
X192167Y168786D01*
X192170Y168863D01*
X192157Y168934D01*
X192126Y168999D01*
X192078Y169059D01*
X193209Y167928D01*
D02*
G37*
G36*
X153013Y168513D02*
X153475Y168105D01*
X153500Y168095D01*
X153514Y168097D01*
X152862Y167446D01*
X152865Y167460D01*
X152855Y167484D01*
X152833Y167519D01*
X152799Y167564D01*
X152695Y167686D01*
X152339Y168055D01*
X152905Y168620D01*
X153013Y168513D01*
D02*
G37*
G36*
X181121Y166999D02*
X181109Y167075D01*
X181073Y167142D01*
X181013Y167202D01*
X180929Y167254D01*
X180821Y167298D01*
X180689Y167334D01*
X180533Y167362D01*
X180353Y167383D01*
X179921Y167399D01*
Y168199D01*
X180149Y168202D01*
X180533Y168235D01*
X180689Y168263D01*
X180821Y168298D01*
X180929Y168342D01*
X181013Y168394D01*
X181073Y168455D01*
X181109Y168523D01*
X181121Y168598D01*
Y166999D01*
D02*
G37*
G36*
X129066Y168514D02*
X129100Y168501D01*
X129147Y168489D01*
X129206Y168479D01*
X129361Y168464D01*
X129567Y168455D01*
X129823Y168451D01*
Y166952D01*
X129688Y166951D01*
X129147Y166914D01*
X129100Y166902D01*
X129066Y166889D01*
X129045Y166875D01*
Y168528D01*
X129066Y168514D01*
D02*
G37*
G36*
X169053Y166663D02*
X168945Y166555D01*
X168537Y166092D01*
X168527Y166068D01*
X168529Y166054D01*
X167878Y166705D01*
X167892Y166703D01*
X167916Y166713D01*
X167951Y166735D01*
X167996Y166769D01*
X168118Y166873D01*
X168487Y167228D01*
X169053Y166663D01*
D02*
G37*
G36*
X133821Y166201D02*
X133799Y166344D01*
X133731Y166472D01*
X133618Y166584D01*
X133461Y166682D01*
X133258Y166764D01*
X133011Y166832D01*
X132719Y166884D01*
X132381Y166921D01*
X131571Y166952D01*
Y168451D01*
X131999Y168459D01*
X132719Y168519D01*
X133011Y168571D01*
X133258Y168639D01*
X133461Y168721D01*
X133618Y168819D01*
X133731Y168931D01*
X133799Y169059D01*
X133821Y169202D01*
Y166201D01*
D02*
G37*
G36*
X136328Y167093D02*
X136348Y166992D01*
X136361Y166946D01*
X136376Y166903D01*
X136393Y166863D01*
X136413Y166826D01*
X136434Y166792D01*
X136458Y166760D01*
X136484Y166732D01*
X135919Y166166D01*
X135890Y166192D01*
X135859Y166216D01*
X135824Y166237D01*
X135787Y166257D01*
X135747Y166274D01*
X135704Y166290D01*
X135658Y166303D01*
X135609Y166313D01*
X135558Y166322D01*
X135503Y166329D01*
X136322Y167147D01*
X136328Y167093D01*
D02*
G37*
G36*
X151621Y167121D02*
X152084Y166713D01*
X152108Y166703D01*
X152122Y166705D01*
X151470Y166054D01*
X151473Y166068D01*
X151463Y166092D01*
X151441Y166127D01*
X151407Y166172D01*
X151303Y166294D01*
X150947Y166663D01*
X151513Y167228D01*
X151621Y167121D01*
D02*
G37*
G36*
X138033Y167166D02*
X138069Y167099D01*
X138129Y167041D01*
X138214Y166990D01*
X138323Y166947D01*
X138456Y166911D01*
X138613Y166884D01*
X138794Y166864D01*
X139229Y166849D01*
Y166049D01*
X139000Y166045D01*
X138613Y166014D01*
X138456Y165986D01*
X138323Y165951D01*
X138214Y165908D01*
X138129Y165857D01*
X138069Y165798D01*
X138033Y165732D01*
X138021Y165657D01*
Y167240D01*
X138033Y167166D01*
D02*
G37*
G36*
X125745Y167857D02*
X125785Y167759D01*
X125852Y167673D01*
X125946Y167598D01*
X126066Y167535D01*
X126213Y167484D01*
X126387Y167443D01*
X126587Y167415D01*
X126814Y167397D01*
X127068Y167392D01*
Y165892D01*
X126814Y165886D01*
X126587Y165869D01*
X126387Y165840D01*
X126213Y165800D01*
X126066Y165748D01*
X125946Y165685D01*
X125852Y165610D01*
X125785Y165524D01*
X125745Y165427D01*
X125732Y165317D01*
Y167966D01*
X125745Y167857D01*
D02*
G37*
G36*
X170444Y165271D02*
X170337Y165163D01*
X169929Y164700D01*
X169919Y164676D01*
X169922Y164662D01*
X169270Y165313D01*
X169284Y165311D01*
X169308Y165321D01*
X169343Y165343D01*
X169388Y165377D01*
X169510Y165481D01*
X169879Y165836D01*
X170444Y165271D01*
D02*
G37*
G36*
X150229Y165729D02*
X150692Y165321D01*
X150716Y165311D01*
X150730Y165313D01*
X150078Y164662D01*
X150081Y164676D01*
X150071Y164700D01*
X150049Y164735D01*
X150015Y164780D01*
X149911Y164902D01*
X149556Y165271D01*
X150121Y165836D01*
X150229Y165729D01*
D02*
G37*
G36*
X173867Y164380D02*
X173822Y164422D01*
X173771Y164459D01*
X173715Y164492D01*
X173654Y164521D01*
X173587Y164545D01*
X173516Y164565D01*
X173439Y164580D01*
X173357Y164591D01*
X173270Y164598D01*
X173178Y164600D01*
Y165400D01*
X173270Y165402D01*
X173439Y165420D01*
X173516Y165435D01*
X173587Y165455D01*
X173654Y165479D01*
X173715Y165508D01*
X173771Y165541D01*
X173822Y165578D01*
X173867Y165620D01*
Y164380D01*
D02*
G37*
G36*
X45500Y164272D02*
X41556D01*
Y165642D01*
X34444D01*
Y164272D01*
X30500D01*
X30500Y173500D01*
X45500D01*
X45500Y164272D01*
D02*
G37*
G36*
X87429Y164000D02*
X72429Y164000D01*
Y181500D01*
X87429Y181500D01*
Y164000D01*
D02*
G37*
G36*
X171836Y163879D02*
X171729Y163771D01*
X171321Y163308D01*
X171311Y163284D01*
X171313Y163270D01*
X170662Y163921D01*
X170676Y163919D01*
X170700Y163929D01*
X170735Y163951D01*
X170780Y163985D01*
X170902Y164089D01*
X171271Y164444D01*
X171836Y163879D01*
D02*
G37*
G36*
X179413Y163380D02*
X179367Y163422D01*
X179316Y163459D01*
X179260Y163492D01*
X179199Y163521D01*
X179132Y163545D01*
X179061Y163565D01*
X178984Y163580D01*
X178902Y163591D01*
X178815Y163598D01*
X178723Y163600D01*
Y164400D01*
X178815Y164402D01*
X178984Y164420D01*
X179061Y164435D01*
X179132Y164455D01*
X179199Y164479D01*
X179260Y164508D01*
X179316Y164541D01*
X179367Y164578D01*
X179413Y164620D01*
Y163380D01*
D02*
G37*
G36*
X148837Y164337D02*
X149300Y163929D01*
X149324Y163919D01*
X149338Y163921D01*
X148687Y163270D01*
X148689Y163284D01*
X148679Y163308D01*
X148657Y163343D01*
X148623Y163388D01*
X148519Y163510D01*
X148164Y163879D01*
X148729Y164444D01*
X148837Y164337D01*
D02*
G37*
G36*
X141178Y164078D02*
X141229Y164041D01*
X141285Y164008D01*
X141346Y163979D01*
X141413Y163955D01*
X141484Y163935D01*
X141561Y163920D01*
X141643Y163909D01*
X141730Y163902D01*
X141822Y163900D01*
Y163100D01*
X141730Y163098D01*
X141561Y163080D01*
X141484Y163065D01*
X141413Y163045D01*
X141346Y163021D01*
X141285Y162992D01*
X141229Y162959D01*
X141178Y162922D01*
X141133Y162880D01*
Y164120D01*
X141178Y164078D01*
D02*
G37*
G36*
X173083Y162341D02*
X173003Y162261D01*
X172721Y161938D01*
X172707Y161911D01*
X172701Y161891D01*
X172705Y161878D01*
X172054Y162530D01*
X172066Y162526D01*
X172086Y162531D01*
X172114Y162546D01*
X172149Y162569D01*
X172191Y162602D01*
X172299Y162697D01*
X172517Y162907D01*
X173083Y162341D01*
D02*
G37*
G36*
X147445Y162945D02*
X147908Y162537D01*
X147932Y162527D01*
X147946Y162530D01*
X147295Y161878D01*
X147297Y161892D01*
X147287Y161916D01*
X147266Y161951D01*
X147231Y161996D01*
X147127Y162118D01*
X146772Y162487D01*
X147337Y163052D01*
X147445Y162945D01*
D02*
G37*
G36*
X146053Y161554D02*
X146516Y161145D01*
X146540Y161135D01*
X146554Y161138D01*
X145903Y160486D01*
X145905Y160500D01*
X145895Y160524D01*
X145873Y160559D01*
X145840Y160604D01*
X145735Y160726D01*
X145380Y161095D01*
X145945Y161661D01*
X146053Y161554D01*
D02*
G37*
G36*
X179178Y161578D02*
X179229Y161541D01*
X179285Y161508D01*
X179346Y161479D01*
X179413Y161455D01*
X179484Y161435D01*
X179561Y161420D01*
X179643Y161409D01*
X179730Y161402D01*
X179822Y161400D01*
Y160600D01*
X179730Y160598D01*
X179561Y160580D01*
X179484Y160565D01*
X179413Y160545D01*
X179346Y160521D01*
X179285Y160492D01*
X179229Y160459D01*
X179178Y160422D01*
X179133Y160380D01*
Y161620D01*
X179178Y161578D01*
D02*
G37*
G36*
X177867Y160380D02*
X177822Y160422D01*
X177771Y160459D01*
X177715Y160492D01*
X177654Y160521D01*
X177587Y160545D01*
X177516Y160565D01*
X177439Y160580D01*
X177357Y160591D01*
X177270Y160598D01*
X177178Y160600D01*
Y161400D01*
X177270Y161402D01*
X177439Y161420D01*
X177516Y161435D01*
X177587Y161455D01*
X177654Y161479D01*
X177715Y161508D01*
X177771Y161541D01*
X177822Y161578D01*
X177867Y161620D01*
Y160380D01*
D02*
G37*
G36*
X138678Y161078D02*
X138729Y161041D01*
X138785Y161008D01*
X138846Y160979D01*
X138913Y160955D01*
X138984Y160935D01*
X139061Y160920D01*
X139143Y160909D01*
X139230Y160902D01*
X139322Y160900D01*
Y160100D01*
X139230Y160098D01*
X139061Y160080D01*
X138984Y160065D01*
X138913Y160045D01*
X138846Y160021D01*
X138785Y159992D01*
X138729Y159959D01*
X138678Y159922D01*
X138633Y159880D01*
Y161120D01*
X138678Y161078D01*
D02*
G37*
G36*
X176012Y159703D02*
X175905Y159595D01*
X175496Y159133D01*
X175487Y159108D01*
X175489Y159095D01*
X174838Y159746D01*
X174852Y159743D01*
X174876Y159753D01*
X174911Y159775D01*
X174956Y159809D01*
X175078Y159913D01*
X175446Y160269D01*
X176012Y159703D01*
D02*
G37*
G36*
X45500Y151500D02*
X30500D01*
Y160728D01*
X34444D01*
Y159358D01*
X41556D01*
Y160728D01*
X45500D01*
Y151500D01*
D02*
G37*
G36*
X144661Y160162D02*
X145124Y159753D01*
X145148Y159743D01*
X145162Y159746D01*
X144511Y159095D01*
X144513Y159108D01*
X144503Y159133D01*
X144482Y159167D01*
X144448Y159212D01*
X144343Y159334D01*
X143988Y159703D01*
X144553Y160269D01*
X144661Y160162D01*
D02*
G37*
G36*
X133327Y160942D02*
X133269Y160820D01*
X133243Y160687D01*
X133249Y160543D01*
X133287Y160389D01*
X133357Y160223D01*
X133459Y160047D01*
X133592Y159861D01*
X133617Y159831D01*
X133739Y159725D01*
X133779Y159701D01*
X133813Y159686D01*
X133838Y159681D01*
X133788Y159631D01*
X133956Y159454D01*
X132896Y158394D01*
X132719Y158562D01*
X132669Y158512D01*
X132664Y158537D01*
X132649Y158570D01*
X132625Y158611D01*
X132590Y158660D01*
X132556Y158701D01*
X132489Y158757D01*
X132302Y158891D01*
X132126Y158993D01*
X131961Y159063D01*
X131807Y159101D01*
X131663Y159107D01*
X131530Y159081D01*
X131407Y159023D01*
X131296Y158932D01*
X133417Y161054D01*
X133327Y160942D01*
D02*
G37*
G36*
X177404Y158311D02*
X177297Y158203D01*
X176888Y157741D01*
X176879Y157716D01*
X176881Y157703D01*
X176230Y158354D01*
X176244Y158351D01*
X176268Y158361D01*
X176303Y158383D01*
X176348Y158417D01*
X176470Y158521D01*
X176839Y158877D01*
X177404Y158311D01*
D02*
G37*
G36*
X124357Y157497D02*
X124230Y157452D01*
X124118Y157376D01*
X124020Y157270D01*
X123937Y157134D01*
X123870Y156968D01*
X123818Y156771D01*
X123780Y156544D01*
X123758Y156288D01*
X123750Y156000D01*
X122250D01*
X122242Y156288D01*
X122220Y156544D01*
X122183Y156771D01*
X122130Y156968D01*
X122063Y157134D01*
X121980Y157270D01*
X121882Y157376D01*
X121770Y157452D01*
X121642Y157497D01*
X121500Y157512D01*
X124500D01*
X124357Y157497D01*
D02*
G37*
G36*
X177889Y155933D02*
X177869Y155884D01*
X177864Y155830D01*
X177872Y155769D01*
X177894Y155702D01*
X177930Y155630D01*
X177980Y155552D01*
X178044Y155468D01*
X178122Y155378D01*
X178213Y155283D01*
X177648Y154717D01*
X177552Y154809D01*
X177378Y154950D01*
X177300Y155000D01*
X177228Y155036D01*
X177162Y155058D01*
X177101Y155067D01*
X177046Y155061D01*
X176997Y155042D01*
X176954Y155008D01*
X177922Y155976D01*
X177889Y155933D01*
D02*
G37*
G36*
X129714Y151298D02*
X129607Y151186D01*
X129518Y151080D01*
X129446Y150980D01*
X129392Y150885D01*
X129354Y150797D01*
X129333Y150714D01*
X129330Y150637D01*
X129343Y150566D01*
X129374Y150501D01*
X129422Y150441D01*
X128291Y151573D01*
X128350Y151524D01*
X128416Y151494D01*
X128487Y151480D01*
X128564Y151483D01*
X128647Y151504D01*
X128735Y151542D01*
X128830Y151596D01*
X128930Y151669D01*
X129036Y151758D01*
X129148Y151864D01*
X129714Y151298D01*
D02*
G37*
G36*
X142378Y151038D02*
X142322Y151086D01*
X142256Y151129D01*
X142178Y151166D01*
X142089Y151199D01*
X141990Y151227D01*
X141879Y151249D01*
X141757Y151267D01*
X141481Y151287D01*
X141327Y151289D01*
Y152089D01*
X141549Y152093D01*
X141925Y152125D01*
X142080Y152152D01*
X142212Y152187D01*
X142322Y152230D01*
X142409Y152281D01*
X142473Y152340D01*
X142516Y152407D01*
X142535Y152481D01*
X142378Y151038D01*
D02*
G37*
G36*
X92024Y150941D02*
X91931Y151005D01*
X91817Y151030D01*
X91682Y151018D01*
X91526Y150969D01*
X91348Y150881D01*
X91149Y150757D01*
X90929Y150594D01*
X90688Y150394D01*
X90142Y149881D01*
X89081Y150941D01*
X89357Y151225D01*
X89795Y151729D01*
X89957Y151949D01*
X90082Y152147D01*
X90169Y152325D01*
X90219Y152481D01*
X90231Y152617D01*
X90205Y152731D01*
X90142Y152823D01*
X92024Y150941D01*
D02*
G37*
G36*
X178271Y151676D02*
X178280Y151651D01*
X178302Y151617D01*
X178336Y151572D01*
X178441Y151450D01*
X178796Y151081D01*
X178230Y150515D01*
X178122Y150622D01*
X177660Y151031D01*
X177636Y151041D01*
X177622Y151038D01*
X178273Y151689D01*
X178271Y151676D01*
D02*
G37*
G36*
X93809Y152477D02*
X93805Y152392D01*
X93832Y152286D01*
X93891Y152158D01*
X93983Y152009D01*
X94106Y151838D01*
X94261Y151646D01*
X94668Y151198D01*
X94919Y150941D01*
X93858Y149881D01*
X93602Y150132D01*
X92961Y150693D01*
X92791Y150817D01*
X92641Y150908D01*
X92514Y150967D01*
X92407Y150994D01*
X92323Y150990D01*
X92259Y150953D01*
X93846Y152540D01*
X93809Y152477D01*
D02*
G37*
G36*
X143770Y149646D02*
X143756Y149649D01*
X143732Y149639D01*
X143697Y149617D01*
X143652Y149583D01*
X143530Y149478D01*
X143161Y149123D01*
X142596Y149689D01*
X142703Y149797D01*
X143112Y150259D01*
X143121Y150284D01*
X143119Y150297D01*
X143770Y149646D01*
D02*
G37*
G36*
X125287Y151784D02*
X125484Y151619D01*
X125669Y151487D01*
X125844Y151386D01*
X126009Y151317D01*
X126163Y151280D01*
X126306Y151275D01*
X126438Y151301D01*
X126560Y151359D01*
X126672Y151450D01*
X124550Y149328D01*
X124641Y149440D01*
X124699Y149562D01*
X124725Y149694D01*
X124720Y149837D01*
X124683Y149991D01*
X124614Y150156D01*
X124513Y150331D01*
X124381Y150516D01*
X124216Y150712D01*
X124020Y150919D01*
X125081Y151980D01*
X125287Y151784D01*
D02*
G37*
G36*
X176879Y150284D02*
X176888Y150259D01*
X176910Y150225D01*
X176944Y150180D01*
X177049Y150058D01*
X177404Y149689D01*
X176839Y149123D01*
X176731Y149230D01*
X176268Y149639D01*
X176244Y149649D01*
X176230Y149646D01*
X176881Y150297D01*
X176879Y150284D01*
D02*
G37*
G36*
X128717Y150302D02*
X128519Y150102D01*
X127717Y149183D01*
X127685Y149120D01*
X127675Y149075D01*
X126924Y149825D01*
X126970Y149836D01*
X127033Y149867D01*
X127112Y149919D01*
X127209Y149992D01*
X127455Y150200D01*
X127952Y150669D01*
X128151Y150867D01*
X128717Y150302D01*
D02*
G37*
G36*
X99768Y148642D02*
X99753Y148784D01*
X99708Y148912D01*
X99632Y149024D01*
X99526Y149122D01*
X99390Y149204D01*
X99224Y149272D01*
X99027Y149324D01*
X98800Y149362D01*
X98543Y149384D01*
X98256Y149392D01*
Y150892D01*
X98543Y150899D01*
X98800Y150922D01*
X99027Y150959D01*
X99224Y151012D01*
X99390Y151079D01*
X99526Y151162D01*
X99632Y151259D01*
X99708Y151372D01*
X99753Y151499D01*
X99768Y151642D01*
Y148642D01*
D02*
G37*
G36*
X145162Y148254D02*
X145148Y148257D01*
X145124Y148247D01*
X145089Y148225D01*
X145044Y148191D01*
X144922Y148087D01*
X144553Y147731D01*
X143988Y148297D01*
X144095Y148405D01*
X144503Y148867D01*
X144513Y148892D01*
X144511Y148906D01*
X145162Y148254D01*
D02*
G37*
G36*
X175487Y148892D02*
X175496Y148867D01*
X175518Y148833D01*
X175552Y148788D01*
X175657Y148666D01*
X176012Y148297D01*
X175446Y147731D01*
X175339Y147838D01*
X174876Y148247D01*
X174852Y148257D01*
X174838Y148254D01*
X175489Y148906D01*
X175487Y148892D01*
D02*
G37*
G36*
X146554Y146862D02*
X146540Y146865D01*
X146516Y146855D01*
X146481Y146833D01*
X146436Y146799D01*
X146314Y146695D01*
X145945Y146339D01*
X145380Y146905D01*
X145487Y147013D01*
X145895Y147476D01*
X145905Y147500D01*
X145903Y147514D01*
X146554Y146862D01*
D02*
G37*
G36*
X174095Y147500D02*
X174105Y147476D01*
X174126Y147441D01*
X174161Y147396D01*
X174265Y147274D01*
X174620Y146905D01*
X174055Y146339D01*
X173947Y146447D01*
X173484Y146855D01*
X173460Y146865D01*
X173446Y146862D01*
X174097Y147514D01*
X174095Y147500D01*
D02*
G37*
G36*
X147946Y145470D02*
X147932Y145473D01*
X147908Y145463D01*
X147873Y145441D01*
X147828Y145407D01*
X147706Y145303D01*
X147337Y144948D01*
X146772Y145513D01*
X146879Y145621D01*
X147287Y146084D01*
X147297Y146108D01*
X147295Y146122D01*
X147946Y145470D01*
D02*
G37*
G36*
X172703Y146108D02*
X172713Y146084D01*
X172734Y146049D01*
X172768Y146004D01*
X172873Y145882D01*
X173228Y145513D01*
X172663Y144948D01*
X172555Y145054D01*
X172092Y145463D01*
X172068Y145473D01*
X172054Y145470D01*
X172705Y146122D01*
X172703Y146108D01*
D02*
G37*
G36*
X149338Y144079D02*
X149324Y144081D01*
X149300Y144071D01*
X149265Y144049D01*
X149220Y144015D01*
X149098Y143911D01*
X148729Y143556D01*
X148164Y144121D01*
X148271Y144229D01*
X148679Y144692D01*
X148689Y144716D01*
X148687Y144730D01*
X149338Y144079D01*
D02*
G37*
G36*
X134533Y145268D02*
X134569Y145202D01*
X134629Y145143D01*
X134714Y145092D01*
X134823Y145049D01*
X134956Y145014D01*
X135113Y144986D01*
X135294Y144967D01*
X135729Y144951D01*
Y144151D01*
X135500Y144147D01*
X135113Y144116D01*
X134956Y144089D01*
X134823Y144053D01*
X134714Y144010D01*
X134629Y143959D01*
X134569Y143901D01*
X134533Y143834D01*
X134521Y143760D01*
Y145343D01*
X134533Y145268D01*
D02*
G37*
G36*
X171311Y144716D02*
X171321Y144692D01*
X171343Y144657D01*
X171377Y144612D01*
X171481Y144490D01*
X171836Y144121D01*
X171271Y143555D01*
X171163Y143663D01*
X170700Y144071D01*
X170676Y144081D01*
X170662Y144079D01*
X171313Y144730D01*
X171311Y144716D01*
D02*
G37*
G36*
X87500Y143000D02*
X72500Y143000D01*
Y160500D01*
X87500Y160500D01*
Y143000D01*
D02*
G37*
G36*
X150730Y142687D02*
X150716Y142689D01*
X150692Y142679D01*
X150657Y142657D01*
X150612Y142623D01*
X150490Y142519D01*
X150121Y142164D01*
X149556Y142729D01*
X149663Y142837D01*
X150071Y143300D01*
X150081Y143324D01*
X150078Y143338D01*
X150730Y142687D01*
D02*
G37*
G36*
X94919Y142059D02*
X94668Y141802D01*
X94106Y141162D01*
X93983Y140991D01*
X93891Y140842D01*
X93832Y140714D01*
X93805Y140608D01*
X93809Y140523D01*
X93846Y140460D01*
X92259Y142047D01*
X92323Y142010D01*
X92407Y142006D01*
X92514Y142033D01*
X92641Y142092D01*
X92791Y142183D01*
X92961Y142307D01*
X93153Y142462D01*
X93602Y142868D01*
X93858Y143120D01*
X94919Y142059D01*
D02*
G37*
G36*
X99768Y141358D02*
X99753Y141501D01*
X99708Y141628D01*
X99632Y141741D01*
X99526Y141838D01*
X99390Y141921D01*
X99224Y141988D01*
X99027Y142041D01*
X98800Y142078D01*
X98543Y142101D01*
X98256Y142108D01*
Y143608D01*
X98543Y143616D01*
X98800Y143638D01*
X99027Y143676D01*
X99224Y143728D01*
X99390Y143796D01*
X99526Y143878D01*
X99632Y143976D01*
X99708Y144088D01*
X99753Y144216D01*
X99768Y144358D01*
Y141358D01*
D02*
G37*
G36*
X152122Y141295D02*
X152108Y141297D01*
X152084Y141287D01*
X152049Y141265D01*
X152004Y141232D01*
X151882Y141127D01*
X151513Y140772D01*
X150947Y141337D01*
X151055Y141445D01*
X151463Y141908D01*
X151473Y141932D01*
X151470Y141946D01*
X152122Y141295D01*
D02*
G37*
G36*
X164842Y138780D02*
X164783Y138828D01*
X164717Y138859D01*
X164646Y138873D01*
X164569Y138869D01*
X164486Y138849D01*
X164398Y138811D01*
X164303Y138756D01*
X164203Y138684D01*
X164191Y138674D01*
X164180Y138662D01*
X164108Y138561D01*
X164053Y138467D01*
X164016Y138378D01*
X163995Y138295D01*
X163992Y138218D01*
X164005Y138147D01*
X164036Y138082D01*
X164084Y138022D01*
X162953Y139154D01*
X163012Y139106D01*
X163078Y139075D01*
X163149Y139061D01*
X163226Y139065D01*
X163309Y139085D01*
X163397Y139123D01*
X163492Y139178D01*
X163592Y139250D01*
X163604Y139260D01*
X163615Y139273D01*
X163687Y139373D01*
X163742Y139467D01*
X163779Y139556D01*
X163800Y139639D01*
X163803Y139716D01*
X163789Y139787D01*
X163759Y139852D01*
X163711Y139912D01*
X164842Y138780D01*
D02*
G37*
G36*
X92263Y138540D02*
X92147Y138624D01*
X92009Y138667D01*
X91850D01*
X91669Y138624D01*
X91468Y138540D01*
X91245Y138412D01*
X91001Y138243D01*
X90736Y138030D01*
X90142Y137479D01*
X89081Y138540D01*
X89378Y138847D01*
X89845Y139399D01*
X90015Y139643D01*
X90142Y139865D01*
X90227Y140067D01*
X90269Y140247D01*
Y140406D01*
X90227Y140544D01*
X90142Y140661D01*
X92263Y138540D01*
D02*
G37*
G36*
X48512Y138500D02*
X48497Y138643D01*
X48452Y138770D01*
X48376Y138883D01*
X48270Y138980D01*
X48134Y139062D01*
X47968Y139130D01*
X47771Y139182D01*
X47545Y139220D01*
X47287Y139242D01*
X47000Y139250D01*
Y140750D01*
X47287Y140758D01*
X47545Y140780D01*
X47771Y140817D01*
X47968Y140870D01*
X48134Y140937D01*
X48270Y141020D01*
X48376Y141118D01*
X48452Y141230D01*
X48497Y141358D01*
X48512Y141500D01*
Y138500D01*
D02*
G37*
G36*
X45515Y141358D02*
X45560Y141230D01*
X45635Y141118D01*
X45740Y141020D01*
X45875Y140937D01*
X46040Y140870D01*
X46235Y140817D01*
X46460Y140780D01*
X46715Y140758D01*
X47000Y140750D01*
Y139250D01*
X46715Y139242D01*
X46460Y139220D01*
X46235Y139182D01*
X46040Y139130D01*
X45875Y139062D01*
X45740Y138980D01*
X45635Y138883D01*
X45560Y138770D01*
X45515Y138643D01*
X45500Y138500D01*
Y141500D01*
X45515Y141358D01*
D02*
G37*
G36*
X169718Y137652D02*
X169654Y137585D01*
X169547Y137453D01*
X169504Y137388D01*
X169467Y137324D01*
X169437Y137260D01*
X169414Y137196D01*
X169398Y137133D01*
X169388Y137071D01*
X169386Y137009D01*
X168509Y137886D01*
X168571Y137889D01*
X168633Y137898D01*
X168696Y137914D01*
X168760Y137937D01*
X168824Y137967D01*
X168888Y138004D01*
X168953Y138047D01*
X169019Y138097D01*
X169085Y138154D01*
X169152Y138217D01*
X169718Y137652D01*
D02*
G37*
G36*
X144214Y136798D02*
X144107Y136686D01*
X144018Y136580D01*
X143946Y136480D01*
X143891Y136385D01*
X143854Y136297D01*
X143833Y136214D01*
X143830Y136137D01*
X143843Y136066D01*
X143874Y136001D01*
X143922Y135941D01*
X142791Y137073D01*
X142850Y137024D01*
X142916Y136994D01*
X142987Y136980D01*
X143064Y136983D01*
X143147Y137004D01*
X143235Y137042D01*
X143330Y137097D01*
X143430Y137169D01*
X143536Y137258D01*
X143648Y137364D01*
X144214Y136798D01*
D02*
G37*
G36*
X164351Y137756D02*
X164361Y137732D01*
X164383Y137697D01*
X164417Y137652D01*
X164522Y137530D01*
X164877Y137162D01*
X164311Y136596D01*
X164203Y136703D01*
X163741Y137112D01*
X163716Y137121D01*
X163703Y137119D01*
X164354Y137770D01*
X164351Y137756D01*
D02*
G37*
G36*
X161976Y136078D02*
X161933Y136111D01*
X161884Y136131D01*
X161829Y136136D01*
X161769Y136128D01*
X161702Y136106D01*
X161630Y136070D01*
X161552Y136020D01*
X161468Y135956D01*
X161378Y135878D01*
X161283Y135787D01*
X160717Y136352D01*
X160809Y136448D01*
X160950Y136622D01*
X161000Y136700D01*
X161036Y136772D01*
X161058Y136838D01*
X161067Y136899D01*
X161061Y136954D01*
X161042Y137003D01*
X161009Y137046D01*
X161976Y136078D01*
D02*
G37*
G36*
X37716Y137253D02*
X37588Y137208D01*
X37476Y137132D01*
X37378Y137026D01*
X37296Y136890D01*
X37228Y136724D01*
X37176Y136527D01*
X37138Y136300D01*
X37116Y136043D01*
X37108Y135756D01*
X35608D01*
X35601Y136043D01*
X35578Y136300D01*
X35541Y136527D01*
X35488Y136724D01*
X35421Y136890D01*
X35338Y137026D01*
X35241Y137132D01*
X35128Y137208D01*
X35001Y137253D01*
X34858Y137268D01*
X37858D01*
X37716Y137253D01*
D02*
G37*
G36*
X70000Y134000D02*
X72000Y132000D01*
X72000Y103000D01*
X70000Y101000D01*
X70000Y96000D01*
Y84500D01*
X56000Y84500D01*
X56000Y106000D01*
X48000Y106000D01*
X48000Y135500D01*
X54000Y135500D01*
X54000Y156500D01*
X70000Y156500D01*
Y134000D01*
D02*
G37*
G36*
X79060Y134960D02*
X78271Y133816D01*
X77084Y134751D01*
X77178Y134847D01*
X77438Y135151D01*
X77475Y135208D01*
X77500Y135257D01*
X77514Y135298D01*
X77517Y135332D01*
X77508Y135358D01*
X79060Y134960D01*
D02*
G37*
G36*
X75420Y135248D02*
X75423Y135218D01*
X75438Y135180D01*
X75464Y135134D01*
X75501Y135080D01*
X75549Y135017D01*
X75680Y134867D01*
X75857Y134685D01*
X74622Y133797D01*
X73881Y134994D01*
X75428Y135270D01*
X75420Y135248D01*
D02*
G37*
G36*
X147605Y132849D02*
X147637Y132463D01*
X147664Y132306D01*
X147699Y132173D01*
X147742Y132064D01*
X147793Y131979D01*
X147852Y131919D01*
X147919Y131883D01*
X147993Y131870D01*
X146410D01*
X146484Y131883D01*
X146551Y131919D01*
X146610Y131979D01*
X146660Y132064D01*
X146704Y132173D01*
X146739Y132306D01*
X146766Y132463D01*
X146786Y132644D01*
X146801Y133079D01*
X147601D01*
X147605Y132849D01*
D02*
G37*
G36*
X173399Y132957D02*
X173422Y132700D01*
X173459Y132473D01*
X173512Y132276D01*
X173579Y132110D01*
X173662Y131974D01*
X173759Y131868D01*
X173872Y131792D01*
X173999Y131747D01*
X174142Y131732D01*
X171142D01*
X171284Y131747D01*
X171412Y131792D01*
X171524Y131868D01*
X171622Y131974D01*
X171704Y132110D01*
X171772Y132276D01*
X171824Y132473D01*
X171862Y132700D01*
X171884Y132957D01*
X171892Y133244D01*
X173392D01*
X173399Y132957D01*
D02*
G37*
G36*
X165762Y132390D02*
X165774Y132252D01*
X165794Y132130D01*
X165822Y132024D01*
X165858Y131935D01*
X165902Y131862D01*
X165954Y131805D01*
X166014Y131764D01*
X166082Y131740D01*
X166158Y131732D01*
X164558D01*
X164634Y131740D01*
X164702Y131764D01*
X164762Y131805D01*
X164814Y131862D01*
X164858Y131935D01*
X164894Y132024D01*
X164922Y132130D01*
X164942Y132252D01*
X164954Y132390D01*
X164958Y132544D01*
X165758D01*
X165762Y132390D01*
D02*
G37*
G36*
X75866Y131805D02*
X75772Y131710D01*
X75511Y131410D01*
X75474Y131355D01*
X75448Y131308D01*
X75434Y131269D01*
X75431Y131239D01*
X75439Y131217D01*
X73890Y131511D01*
X74640Y132700D01*
X75866Y131805D01*
D02*
G37*
G36*
X79051Y131545D02*
X77500Y131128D01*
X77508Y131155D01*
X77506Y131189D01*
X77492Y131231D01*
X77466Y131280D01*
X77429Y131337D01*
X77381Y131402D01*
X77251Y131555D01*
X77076Y131738D01*
X78254Y132680D01*
X79051Y131545D01*
D02*
G37*
G36*
X156757Y131215D02*
X156763Y131157D01*
X156827D01*
X156812Y131135D01*
X156799Y131101D01*
X156788Y131055D01*
X156778Y130996D01*
X156777Y130991D01*
X156780Y130960D01*
X156817Y130735D01*
X156870Y130540D01*
X156938Y130375D01*
X157020Y130240D01*
X157117Y130135D01*
X157230Y130060D01*
X157358Y130015D01*
X157500Y130000D01*
X154500D01*
X154642Y130015D01*
X154770Y130060D01*
X154883Y130135D01*
X154980Y130240D01*
X155062Y130375D01*
X155130Y130540D01*
X155183Y130735D01*
X155219Y130955D01*
X155212Y131055D01*
X155201Y131101D01*
X155188Y131135D01*
X155173Y131157D01*
X155237D01*
X155243Y131215D01*
X155250Y131500D01*
X156750D01*
X156757Y131215D01*
D02*
G37*
G36*
X103899Y129457D02*
X103922Y129200D01*
X103929Y129156D01*
X103969D01*
X103954Y129135D01*
X103941Y129101D01*
X103939Y129094D01*
X103959Y128973D01*
X104012Y128776D01*
X104079Y128610D01*
X104162Y128474D01*
X104259Y128368D01*
X104372Y128292D01*
X104499Y128247D01*
X104642Y128232D01*
X101642D01*
X101784Y128247D01*
X101912Y128292D01*
X102024Y128368D01*
X102122Y128474D01*
X102204Y128610D01*
X102272Y128776D01*
X102324Y128973D01*
X102344Y129094D01*
X102343Y129101D01*
X102330Y129135D01*
X102315Y129156D01*
X102355D01*
X102362Y129200D01*
X102384Y129457D01*
X102392Y129744D01*
X103892D01*
X103899Y129457D01*
D02*
G37*
G36*
X83616D02*
X83638Y129200D01*
X83676Y128973D01*
X83728Y128776D01*
X83796Y128610D01*
X83878Y128474D01*
X83976Y128368D01*
X84088Y128292D01*
X84216Y128247D01*
X84358Y128232D01*
X81358D01*
X81501Y128247D01*
X81628Y128292D01*
X81741Y128368D01*
X81838Y128474D01*
X81921Y128610D01*
X81988Y128776D01*
X82041Y128973D01*
X82078Y129200D01*
X82101Y129457D01*
X82108Y129744D01*
X83608D01*
X83616Y129457D01*
D02*
G37*
G36*
X133902Y128730D02*
X133920Y128561D01*
X133935Y128484D01*
X133955Y128413D01*
X133979Y128346D01*
X134008Y128285D01*
X134041Y128229D01*
X134078Y128178D01*
X134120Y128133D01*
X132880D01*
X132922Y128178D01*
X132959Y128229D01*
X132992Y128285D01*
X133021Y128346D01*
X133045Y128413D01*
X133065Y128484D01*
X133080Y128561D01*
X133091Y128643D01*
X133098Y128730D01*
X133100Y128822D01*
X133900D01*
X133902Y128730D01*
D02*
G37*
G36*
X81012Y124260D02*
X80997Y124402D01*
X80952Y124530D01*
X80876Y124642D01*
X80770Y124740D01*
X80634Y124822D01*
X80468Y124890D01*
X80271Y124942D01*
X80045Y124980D01*
X79787Y125002D01*
X79598Y125007D01*
X79409Y125002D01*
X79152Y124980D01*
X78926Y124942D01*
X78729Y124890D01*
X78563Y124822D01*
X78427Y124740D01*
X78321Y124642D01*
X78245Y124530D01*
X78200Y124402D01*
X78185Y124260D01*
Y127260D01*
X78200Y127117D01*
X78245Y126990D01*
X78321Y126877D01*
X78427Y126780D01*
X78563Y126697D01*
X78729Y126630D01*
X78926Y126577D01*
X79152Y126540D01*
X79409Y126517D01*
X79598Y126512D01*
X79787Y126517D01*
X80045Y126540D01*
X80271Y126577D01*
X80468Y126630D01*
X80634Y126697D01*
X80770Y126780D01*
X80876Y126877D01*
X80952Y126990D01*
X80997Y127117D01*
X81012Y127260D01*
Y124260D01*
D02*
G37*
G36*
X94012Y124000D02*
X93997Y124143D01*
X93952Y124270D01*
X93876Y124382D01*
X93770Y124480D01*
X93634Y124563D01*
X93468Y124630D01*
X93271Y124682D01*
X93045Y124720D01*
X93002Y124724D01*
X92960Y124720D01*
X92735Y124682D01*
X92540Y124630D01*
X92375Y124563D01*
X92240Y124480D01*
X92135Y124382D01*
X92060Y124270D01*
X92015Y124143D01*
X92000Y124000D01*
Y127000D01*
X92015Y126857D01*
X92060Y126730D01*
X92135Y126618D01*
X92240Y126520D01*
X92375Y126437D01*
X92540Y126370D01*
X92735Y126318D01*
X92960Y126280D01*
X93002Y126276D01*
X93045Y126280D01*
X93271Y126318D01*
X93468Y126370D01*
X93634Y126437D01*
X93770Y126520D01*
X93876Y126618D01*
X93952Y126730D01*
X93997Y126857D01*
X94012Y127000D01*
Y124000D01*
D02*
G37*
G36*
X128902Y126230D02*
X128920Y126061D01*
X128935Y125984D01*
X128955Y125913D01*
X128979Y125846D01*
X129008Y125785D01*
X129041Y125729D01*
X129078Y125678D01*
X129120Y125633D01*
X127880D01*
X127922Y125678D01*
X127959Y125729D01*
X127992Y125785D01*
X128021Y125846D01*
X128045Y125913D01*
X128065Y125984D01*
X128080Y126061D01*
X128091Y126143D01*
X128098Y126230D01*
X128100Y126322D01*
X128900D01*
X128902Y126230D01*
D02*
G37*
G36*
X173999Y126253D02*
X173872Y126208D01*
X173759Y126132D01*
X173662Y126026D01*
X173579Y125890D01*
X173512Y125724D01*
X173459Y125527D01*
X173422Y125300D01*
X173399Y125043D01*
X173398Y125000D01*
X173399Y124957D01*
X173422Y124700D01*
X173459Y124473D01*
X173512Y124276D01*
X173579Y124110D01*
X173662Y123974D01*
X173759Y123868D01*
X173872Y123792D01*
X173999Y123747D01*
X174142Y123732D01*
X171142D01*
X171284Y123747D01*
X171412Y123792D01*
X171524Y123868D01*
X171622Y123974D01*
X171704Y124110D01*
X171772Y124276D01*
X171824Y124473D01*
X171862Y124700D01*
X171884Y124957D01*
X171885Y125000D01*
X171884Y125043D01*
X171862Y125300D01*
X171824Y125527D01*
X171772Y125724D01*
X171704Y125890D01*
X171622Y126026D01*
X171524Y126132D01*
X171412Y126208D01*
X171284Y126253D01*
X171142Y126268D01*
X174142D01*
X173999Y126253D01*
D02*
G37*
G36*
X139678Y124578D02*
X139729Y124541D01*
X139785Y124508D01*
X139846Y124479D01*
X139913Y124455D01*
X139984Y124435D01*
X140061Y124420D01*
X140143Y124409D01*
X140230Y124402D01*
X140322Y124400D01*
Y123600D01*
X140230Y123598D01*
X140061Y123580D01*
X139984Y123565D01*
X139913Y123545D01*
X139846Y123521D01*
X139785Y123492D01*
X139729Y123459D01*
X139678Y123422D01*
X139633Y123380D01*
Y124620D01*
X139678Y124578D01*
D02*
G37*
G36*
X159310Y122716D02*
X159151Y122552D01*
X158902Y122258D01*
X158837Y122164D01*
X158868Y122117D01*
X158974Y122020D01*
X159110Y121938D01*
X159276Y121870D01*
X159473Y121818D01*
X159700Y121780D01*
X159957Y121757D01*
X160244Y121750D01*
Y120250D01*
X159957Y120243D01*
X159700Y120220D01*
X159473Y120183D01*
X159276Y120130D01*
X159110Y120062D01*
X158974Y119980D01*
X158868Y119883D01*
X158792Y119770D01*
X158747Y119642D01*
X158732Y119500D01*
Y121597D01*
X158473Y121856D01*
X157819Y121108D01*
X157788Y121045D01*
X157778Y121000D01*
X157027Y121750D01*
X157073Y121760D01*
X157135Y121792D01*
X157215Y121844D01*
X157312Y121917D01*
X157557Y122125D01*
X157890Y122439D01*
X157613Y122716D01*
X157675Y122671D01*
X157748Y122649D01*
X157833D01*
X157929Y122671D01*
X158037Y122716D01*
X158156Y122784D01*
X158286Y122875D01*
X158427Y122988D01*
X158744Y123282D01*
X159310Y122716D01*
D02*
G37*
G36*
X156551Y120421D02*
X156507Y120455D01*
X156423Y120512D01*
X156381Y120536D01*
X156340Y120555D01*
X156299Y120571D01*
X156259Y120584D01*
X156219Y120593D01*
X156180Y120598D01*
X156142Y120600D01*
Y121400D01*
X156180Y121402D01*
X156219Y121407D01*
X156259Y121416D01*
X156299Y121429D01*
X156340Y121445D01*
X156381Y121464D01*
X156423Y121488D01*
X156465Y121514D01*
X156507Y121545D01*
X156551Y121579D01*
Y120421D01*
D02*
G37*
G36*
X163512Y119500D02*
X163497Y119642D01*
X163452Y119770D01*
X163376Y119883D01*
X163270Y119980D01*
X163134Y120062D01*
X162968Y120130D01*
X162771Y120183D01*
X162545Y120220D01*
X162287Y120243D01*
X162000Y120250D01*
Y121750D01*
X162287Y121757D01*
X162545Y121780D01*
X162771Y121818D01*
X162968Y121870D01*
X163134Y121938D01*
X163270Y122020D01*
X163376Y122117D01*
X163452Y122230D01*
X163497Y122357D01*
X163512Y122500D01*
Y119500D01*
D02*
G37*
G36*
X122902Y117230D02*
X122920Y117061D01*
X122935Y116984D01*
X122955Y116913D01*
X122979Y116846D01*
X123008Y116785D01*
X123041Y116729D01*
X123078Y116678D01*
X123120Y116633D01*
X121880D01*
X121922Y116678D01*
X121959Y116729D01*
X121992Y116785D01*
X122021Y116846D01*
X122045Y116913D01*
X122065Y116984D01*
X122080Y117061D01*
X122091Y117143D01*
X122098Y117230D01*
X122100Y117322D01*
X122900D01*
X122902Y117230D01*
D02*
G37*
G36*
X79060Y116960D02*
X78271Y115816D01*
X77084Y116751D01*
X77178Y116847D01*
X77438Y117151D01*
X77475Y117208D01*
X77500Y117257D01*
X77514Y117298D01*
X77517Y117332D01*
X77508Y117358D01*
X79060Y116960D01*
D02*
G37*
G36*
X75420Y117248D02*
X75423Y117218D01*
X75438Y117180D01*
X75464Y117134D01*
X75501Y117079D01*
X75549Y117017D01*
X75680Y116867D01*
X75857Y116684D01*
X74622Y115797D01*
X73881Y116994D01*
X75428Y117270D01*
X75420Y117248D01*
D02*
G37*
G36*
X103899Y115457D02*
X103922Y115200D01*
X103929Y115156D01*
X103969D01*
X103954Y115135D01*
X103941Y115101D01*
X103939Y115094D01*
X103959Y114973D01*
X104012Y114776D01*
X104079Y114610D01*
X104162Y114474D01*
X104259Y114368D01*
X104372Y114292D01*
X104499Y114247D01*
X104642Y114232D01*
X101642D01*
X101784Y114247D01*
X101912Y114292D01*
X102024Y114368D01*
X102122Y114474D01*
X102204Y114610D01*
X102272Y114776D01*
X102324Y114973D01*
X102344Y115094D01*
X102343Y115101D01*
X102330Y115135D01*
X102315Y115156D01*
X102355D01*
X102362Y115200D01*
X102384Y115457D01*
X102392Y115744D01*
X103892D01*
X103899Y115457D01*
D02*
G37*
G36*
X75866Y113805D02*
X75772Y113710D01*
X75511Y113410D01*
X75474Y113355D01*
X75448Y113308D01*
X75434Y113269D01*
X75431Y113239D01*
X75439Y113216D01*
X73890Y113511D01*
X74640Y114700D01*
X75866Y113805D01*
D02*
G37*
G36*
X79051Y113545D02*
X77500Y113128D01*
X77508Y113155D01*
X77506Y113189D01*
X77492Y113231D01*
X77466Y113280D01*
X77429Y113338D01*
X77381Y113402D01*
X77251Y113555D01*
X77076Y113738D01*
X78254Y114680D01*
X79051Y113545D01*
D02*
G37*
G36*
X94012Y110000D02*
X93997Y110143D01*
X93952Y110270D01*
X93876Y110382D01*
X93770Y110480D01*
X93634Y110563D01*
X93468Y110630D01*
X93271Y110682D01*
X93045Y110720D01*
X93002Y110724D01*
X92960Y110720D01*
X92735Y110682D01*
X92540Y110630D01*
X92375Y110563D01*
X92240Y110480D01*
X92135Y110382D01*
X92060Y110270D01*
X92015Y110143D01*
X92000Y110000D01*
Y113000D01*
X92015Y112857D01*
X92060Y112730D01*
X92135Y112618D01*
X92240Y112520D01*
X92375Y112437D01*
X92540Y112370D01*
X92735Y112318D01*
X92960Y112280D01*
X93002Y112276D01*
X93045Y112280D01*
X93271Y112318D01*
X93468Y112370D01*
X93634Y112437D01*
X93770Y112520D01*
X93876Y112618D01*
X93952Y112730D01*
X93997Y112857D01*
X94012Y113000D01*
Y110000D01*
D02*
G37*
G36*
X163512Y113751D02*
X163621Y113750D01*
Y112250D01*
X163512Y112249D01*
Y111500D01*
X163497Y111643D01*
X163452Y111770D01*
X163376Y111882D01*
X163270Y111980D01*
X163134Y112063D01*
X162968Y112130D01*
X162771Y112182D01*
X162545Y112220D01*
X162287Y112242D01*
X162000Y112250D01*
Y113750D01*
X162287Y113758D01*
X162545Y113780D01*
X162771Y113818D01*
X162968Y113870D01*
X163134Y113937D01*
X163270Y114020D01*
X163376Y114118D01*
X163452Y114230D01*
X163497Y114357D01*
X163512Y114500D01*
Y113751D01*
D02*
G37*
G36*
X84632Y110761D02*
X84589Y110623D01*
Y110464D01*
X84632Y110283D01*
X84716Y110082D01*
X84844Y109859D01*
X85013Y109615D01*
X85225Y109350D01*
X85777Y108756D01*
X84716Y107695D01*
X84409Y107992D01*
X83857Y108459D01*
X83613Y108629D01*
X83390Y108756D01*
X83189Y108841D01*
X83009Y108883D01*
X82877D01*
X82993Y108768D01*
X82890Y108840D01*
X82792Y108866D01*
X82712Y108841D01*
X82595Y108756D01*
X82708Y108869D01*
X82620Y108865D01*
X82453Y108817D01*
X82265Y108730D01*
X82055Y108603D01*
X81823Y108436D01*
X81570Y108229D01*
X81000Y107695D01*
X79940Y108756D01*
X80226Y109052D01*
X80680Y109579D01*
X80847Y109810D01*
X80974Y110020D01*
X81061Y110209D01*
X81109Y110376D01*
X81116Y110522D01*
X81084Y110646D01*
X81012Y110749D01*
X82800Y108961D01*
X84716Y110877D01*
X84632Y110761D01*
D02*
G37*
G36*
X173999Y110253D02*
X173872Y110208D01*
X173759Y110132D01*
X173662Y110026D01*
X173579Y109890D01*
X173512Y109724D01*
X173459Y109527D01*
X173422Y109300D01*
X173399Y109043D01*
X173392Y108756D01*
X171892D01*
X171884Y109043D01*
X171862Y109300D01*
X171824Y109527D01*
X171772Y109724D01*
X171704Y109890D01*
X171622Y110026D01*
X171524Y110132D01*
X171412Y110208D01*
X171284Y110253D01*
X171142Y110268D01*
X174142D01*
X173999Y110253D01*
D02*
G37*
G36*
X78200Y109117D02*
X78245Y108990D01*
X78321Y108877D01*
X78427Y108780D01*
X78563Y108697D01*
X78729Y108630D01*
X78926Y108577D01*
X79152Y108540D01*
X79409Y108517D01*
X79697Y108510D01*
Y107010D01*
X79409Y107002D01*
X79152Y106980D01*
X78926Y106942D01*
X78729Y106890D01*
X78563Y106822D01*
X78427Y106740D01*
X78321Y106642D01*
X78245Y106530D01*
X78200Y106402D01*
X78185Y106260D01*
Y109260D01*
X78200Y109117D01*
D02*
G37*
G36*
X45000Y105500D02*
X26000D01*
X26000Y135500D01*
X45000D01*
X45000Y105500D01*
D02*
G37*
G36*
X92753Y103300D02*
X92776Y102964D01*
X92796Y102827D01*
X92822Y102711D01*
X92854Y102617D01*
X92892Y102543D01*
X92935Y102490D01*
X92984Y102459D01*
X93040Y102448D01*
X90960D01*
X91015Y102459D01*
X91065Y102490D01*
X91108Y102543D01*
X91146Y102617D01*
X91178Y102711D01*
X91204Y102827D01*
X91224Y102964D01*
X91238Y103121D01*
X91250Y103500D01*
X92750D01*
X92753Y103300D01*
D02*
G37*
G36*
X93809Y100477D02*
X93805Y100392D01*
X93832Y100286D01*
X93891Y100158D01*
X93983Y100009D01*
X94106Y99838D01*
X94261Y99646D01*
X94668Y99198D01*
X94919Y98941D01*
X93858Y97881D01*
X93602Y98132D01*
X92961Y98693D01*
X92791Y98817D01*
X92641Y98908D01*
X92514Y98967D01*
X92407Y98994D01*
X92323Y98990D01*
X92259Y98953D01*
X93846Y100540D01*
X93809Y100477D01*
D02*
G37*
G36*
X99768Y96642D02*
X99753Y96784D01*
X99708Y96912D01*
X99632Y97024D01*
X99526Y97122D01*
X99390Y97204D01*
X99224Y97272D01*
X99027Y97324D01*
X98800Y97362D01*
X98543Y97384D01*
X98256Y97392D01*
Y98892D01*
X98543Y98899D01*
X98800Y98922D01*
X99027Y98959D01*
X99224Y99012D01*
X99390Y99079D01*
X99526Y99162D01*
X99632Y99259D01*
X99708Y99372D01*
X99753Y99499D01*
X99768Y99642D01*
Y96642D01*
D02*
G37*
G36*
X172084Y95630D02*
X171786Y95321D01*
X171317Y94768D01*
X171146Y94524D01*
X171017Y94301D01*
X170931Y94099D01*
X170888Y93920D01*
X170887Y93761D01*
X170928Y93624D01*
X171011Y93508D01*
X168902Y95618D01*
X169018Y95534D01*
X169155Y95493D01*
X169313Y95494D01*
X169493Y95538D01*
X169695Y95624D01*
X169918Y95752D01*
X170162Y95923D01*
X170428Y96136D01*
X171023Y96690D01*
X172084Y95630D01*
D02*
G37*
G36*
X217028Y97575D02*
X217092Y97325D01*
X217200Y97056D01*
X217350Y96765D01*
X217544Y96455D01*
X217780Y96125D01*
X218382Y95403D01*
X218747Y95012D01*
X219156Y94601D01*
X214057D01*
X214465Y95012D01*
X215433Y96125D01*
X215669Y96455D01*
X215862Y96765D01*
X216013Y97056D01*
X216120Y97325D01*
X216185Y97575D01*
X216206Y97805D01*
X217006D01*
X217028Y97575D01*
D02*
G37*
G36*
X207185D02*
X207250Y97325D01*
X207357Y97056D01*
X207508Y96765D01*
X207701Y96455D01*
X207938Y96125D01*
X208539Y95403D01*
X208905Y95012D01*
X209313Y94601D01*
X204215D01*
X204623Y95012D01*
X205590Y96125D01*
X205826Y96455D01*
X206020Y96765D01*
X206170Y97056D01*
X206278Y97325D01*
X206342Y97575D01*
X206364Y97805D01*
X207164D01*
X207185Y97575D01*
D02*
G37*
G36*
X197343D02*
X197407Y97325D01*
X197515Y97056D01*
X197665Y96765D01*
X197859Y96455D01*
X198095Y96125D01*
X198697Y95403D01*
X199062Y95012D01*
X199470Y94601D01*
X194372D01*
X194780Y95012D01*
X195747Y96125D01*
X195984Y96455D01*
X196177Y96765D01*
X196328Y97056D01*
X196435Y97325D01*
X196500Y97575D01*
X196521Y97805D01*
X197321D01*
X197343Y97575D01*
D02*
G37*
G36*
X187500D02*
X187565Y97325D01*
X187672Y97056D01*
X187823Y96765D01*
X188016Y96455D01*
X188252Y96125D01*
X188854Y95403D01*
X189220Y95012D01*
X189628Y94601D01*
X184529D01*
X184938Y95012D01*
X185905Y96125D01*
X186141Y96455D01*
X186335Y96765D01*
X186485Y97056D01*
X186593Y97325D01*
X186657Y97575D01*
X186679Y97805D01*
X187479D01*
X187500Y97575D01*
D02*
G37*
G36*
X177658D02*
X177722Y97325D01*
X177830Y97056D01*
X177980Y96765D01*
X178173Y96455D01*
X178410Y96125D01*
X179012Y95403D01*
X179377Y95012D01*
X179785Y94601D01*
X174687D01*
X175095Y95012D01*
X176063Y96125D01*
X176299Y96455D01*
X176492Y96765D01*
X176643Y97056D01*
X176750Y97325D01*
X176815Y97575D01*
X176836Y97805D01*
X177636D01*
X177658Y97575D01*
D02*
G37*
G36*
X45000Y92772D02*
X41056D01*
Y94142D01*
X33944D01*
Y92772D01*
X30000D01*
Y102000D01*
X45000D01*
Y92772D01*
D02*
G37*
G36*
X94919Y90059D02*
X94668Y89802D01*
X94106Y89162D01*
X93983Y88991D01*
X93891Y88842D01*
X93832Y88714D01*
X93805Y88608D01*
X93809Y88523D01*
X93846Y88460D01*
X92259Y90047D01*
X92323Y90010D01*
X92407Y90006D01*
X92514Y90033D01*
X92641Y90092D01*
X92791Y90184D01*
X92961Y90307D01*
X93153Y90462D01*
X93602Y90868D01*
X93858Y91119D01*
X94919Y90059D01*
D02*
G37*
G36*
X99768Y89358D02*
X99753Y89501D01*
X99708Y89628D01*
X99632Y89741D01*
X99526Y89838D01*
X99390Y89921D01*
X99224Y89988D01*
X99027Y90041D01*
X98800Y90078D01*
X98543Y90101D01*
X98256Y90108D01*
Y91608D01*
X98543Y91616D01*
X98800Y91638D01*
X99027Y91676D01*
X99224Y91728D01*
X99390Y91796D01*
X99526Y91878D01*
X99632Y91976D01*
X99708Y92088D01*
X99753Y92216D01*
X99768Y92358D01*
Y89358D01*
D02*
G37*
G36*
X90426Y90844D02*
X90929Y90406D01*
X91149Y90244D01*
X91348Y90119D01*
X91526Y90031D01*
X91682Y89982D01*
X91817Y89970D01*
X91931Y89995D01*
X92024Y90059D01*
X90142Y88177D01*
X90205Y88269D01*
X90231Y88383D01*
X90219Y88519D01*
X90169Y88675D01*
X90082Y88853D01*
X89957Y89051D01*
X89795Y89271D01*
X89595Y89513D01*
X89081Y90059D01*
X90142Y91119D01*
X90426Y90844D01*
D02*
G37*
G36*
X45000Y80000D02*
X30000D01*
Y89228D01*
X33944D01*
Y87858D01*
X41056D01*
Y89228D01*
X45000D01*
Y80000D01*
D02*
G37*
G36*
X87429Y80500D02*
X72429Y80500D01*
Y98000D01*
X87429Y98000D01*
Y80500D01*
D02*
G37*
G36*
X76808Y57061D02*
X76308Y56852D01*
X76264Y56895D01*
X76101Y57003D01*
X75938Y57111D01*
X75935Y57112D01*
X75932Y57114D01*
X75740Y57151D01*
X75548Y57189D01*
X75545Y57188D01*
X75541Y57189D01*
X75350Y57149D01*
X75158Y57111D01*
X75155Y57109D01*
X75151Y57108D01*
X74990Y56999D01*
X74827Y56890D01*
X74825Y56887D01*
X74822Y56885D01*
X74715Y56722D01*
X74606Y56559D01*
X74606Y56556D01*
X74603Y56553D01*
X74567Y56361D01*
X74529Y56169D01*
Y54784D01*
X72315D01*
X71632Y54649D01*
X71053Y54262D01*
X70666Y53683D01*
X70531Y53000D01*
X70666Y52317D01*
X71053Y51738D01*
X71632Y51351D01*
X72315Y51216D01*
X74529D01*
Y49831D01*
X74567Y49640D01*
X74603Y49447D01*
X74606Y49444D01*
X74606Y49441D01*
X74715Y49278D01*
X74822Y49115D01*
X74825Y49113D01*
X74827Y49110D01*
X74990Y49001D01*
X75151Y48892D01*
X75155Y48891D01*
X75158Y48889D01*
X75349Y48851D01*
X75541Y48811D01*
X75545Y48812D01*
X75548Y48811D01*
X75740Y48849D01*
X75932Y48886D01*
X75935Y48888D01*
X75938Y48889D01*
X76101Y48997D01*
X76264Y49105D01*
X76308Y49148D01*
X76808Y48939D01*
Y34500D01*
X2094D01*
Y70500D01*
X76808D01*
Y57061D01*
D02*
G37*
G36*
X108452Y49831D02*
X107985Y50290D01*
X107100Y51065D01*
X106682Y51379D01*
X106279Y51645D01*
X105892Y51863D01*
X105521Y52032D01*
X105166Y52153D01*
X104827Y52226D01*
X104504Y52250D01*
Y53750D01*
X104827Y53774D01*
X105166Y53847D01*
X105521Y53968D01*
X105892Y54137D01*
X106279Y54355D01*
X106682Y54621D01*
X107100Y54935D01*
X107985Y55710D01*
X108452Y56169D01*
Y49831D01*
D02*
G37*
G36*
X76015Y55710D02*
X76900Y54935D01*
X77318Y54621D01*
X77721Y54355D01*
X78108Y54137D01*
X78479Y53968D01*
X78834Y53847D01*
X79173Y53774D01*
X79497Y53750D01*
Y52250D01*
X79173Y52226D01*
X78834Y52153D01*
X78479Y52032D01*
X78108Y51863D01*
X77721Y51645D01*
X77318Y51379D01*
X76900Y51065D01*
X76015Y50290D01*
X75548Y49831D01*
Y56169D01*
X76015Y55710D01*
D02*
G37*
G36*
X225905Y34500D02*
X107178Y34500D01*
Y48952D01*
X107678Y49161D01*
X107736Y49105D01*
X107899Y48997D01*
X108062Y48889D01*
X108065Y48888D01*
X108068Y48886D01*
X108260Y48849D01*
X108452Y48811D01*
X108455Y48812D01*
X108459Y48811D01*
X108650Y48851D01*
X108842Y48889D01*
X108845Y48891D01*
X108849Y48892D01*
X109010Y49001D01*
X109173Y49110D01*
X109175Y49113D01*
X109178Y49115D01*
X109285Y49278D01*
X109394Y49441D01*
X109394Y49444D01*
X109397Y49447D01*
X109433Y49639D01*
X109471Y49831D01*
Y51216D01*
X111685D01*
X112368Y51351D01*
X112947Y51738D01*
X113333Y52317D01*
X113469Y53000D01*
X113333Y53683D01*
X112947Y54262D01*
X112368Y54649D01*
X111685Y54784D01*
X109471D01*
Y56169D01*
X109433Y56360D01*
X109397Y56553D01*
X109394Y56556D01*
X109394Y56559D01*
X109285Y56722D01*
X109178Y56885D01*
X109175Y56887D01*
X109173Y56890D01*
X109010Y56999D01*
X108849Y57108D01*
X108845Y57109D01*
X108842Y57111D01*
X108651Y57149D01*
X108459Y57189D01*
X108455Y57188D01*
X108452Y57189D01*
X108261Y57151D01*
X108068Y57114D01*
X108065Y57112D01*
X108062Y57111D01*
X107899Y57003D01*
X107736Y56895D01*
X107678Y56839D01*
X107178Y57048D01*
Y70500D01*
X225905Y70500D01*
Y34500D01*
D02*
G37*
%LPC*%
G36*
X49221Y350481D02*
X45870D01*
Y349000D01*
X49221D01*
Y350481D01*
D02*
G37*
G36*
X44870D02*
X41519D01*
Y349000D01*
X44870D01*
Y350481D01*
D02*
G37*
G36*
X49221Y348000D02*
X45870D01*
Y346519D01*
X49221D01*
Y348000D01*
D02*
G37*
G36*
X44870D02*
X41519D01*
Y346519D01*
X44870D01*
Y348000D01*
D02*
G37*
G36*
X49221Y345481D02*
X45870D01*
Y344000D01*
X49221D01*
Y345481D01*
D02*
G37*
G36*
X44870D02*
X41519D01*
Y344000D01*
X44870D01*
Y345481D01*
D02*
G37*
G36*
X49221Y343000D02*
X45870D01*
Y341519D01*
X49221D01*
Y343000D01*
D02*
G37*
G36*
X44870D02*
X41519D01*
Y341519D01*
X44870D01*
Y343000D01*
D02*
G37*
G36*
X49221Y340481D02*
X45870D01*
Y339000D01*
X49221D01*
Y340481D01*
D02*
G37*
G36*
X44870D02*
X41519D01*
Y339000D01*
X44870D01*
Y340481D01*
D02*
G37*
G36*
X49221Y338000D02*
X45870D01*
Y336519D01*
X49221D01*
Y338000D01*
D02*
G37*
G36*
X44870D02*
X41519D01*
Y336519D01*
X44870D01*
Y338000D01*
D02*
G37*
G36*
X49221Y326481D02*
X45870D01*
Y325000D01*
X49221D01*
Y326481D01*
D02*
G37*
G36*
X44870D02*
X41519D01*
Y325000D01*
X44870D01*
Y326481D01*
D02*
G37*
G36*
X49221Y324000D02*
X45870D01*
Y322519D01*
X49221D01*
Y324000D01*
D02*
G37*
G36*
X44870D02*
X41519D01*
Y322519D01*
X44870D01*
Y324000D01*
D02*
G37*
G36*
X49221Y321481D02*
X45870D01*
Y320000D01*
X49221D01*
Y321481D01*
D02*
G37*
G36*
X44870D02*
X41519D01*
Y320000D01*
X44870D01*
Y321481D01*
D02*
G37*
G36*
X49221Y319000D02*
X45870D01*
Y317519D01*
X49221D01*
Y319000D01*
D02*
G37*
G36*
X44870D02*
X41519D01*
Y317519D01*
X44870D01*
Y319000D01*
D02*
G37*
G36*
X49221Y316481D02*
X45870D01*
Y315000D01*
X49221D01*
Y316481D01*
D02*
G37*
G36*
X44870D02*
X41519D01*
Y315000D01*
X44870D01*
Y316481D01*
D02*
G37*
G36*
X49221Y314000D02*
X45870D01*
Y312519D01*
X49221D01*
Y314000D01*
D02*
G37*
G36*
X44870D02*
X41519D01*
Y312519D01*
X44870D01*
Y314000D01*
D02*
G37*
G36*
X95221Y350481D02*
X91870D01*
Y349000D01*
X95221D01*
Y350481D01*
D02*
G37*
G36*
X70481D02*
X67130D01*
Y349000D01*
X70481D01*
Y350481D01*
D02*
G37*
G36*
X66130D02*
X62779D01*
Y349000D01*
X66130D01*
Y350481D01*
D02*
G37*
G36*
X90870D02*
X87519D01*
Y349000D01*
X90870D01*
Y350481D01*
D02*
G37*
G36*
X95221Y348000D02*
X91870D01*
Y346519D01*
X95221D01*
Y348000D01*
D02*
G37*
G36*
X90870D02*
X87519D01*
Y346519D01*
X90870D01*
Y348000D01*
D02*
G37*
G36*
X70481D02*
X67130D01*
Y346519D01*
X70481D01*
Y348000D01*
D02*
G37*
G36*
X66130D02*
X62779D01*
Y346519D01*
X66130D01*
Y348000D01*
D02*
G37*
G36*
X95221Y345481D02*
X91870D01*
Y344000D01*
X95221D01*
Y345481D01*
D02*
G37*
G36*
X70481D02*
X67130D01*
Y344000D01*
X70481D01*
Y345481D01*
D02*
G37*
G36*
X66130D02*
X62779D01*
Y344000D01*
X66130D01*
Y345481D01*
D02*
G37*
G36*
X90870D02*
X87519D01*
Y344000D01*
X90870D01*
Y345481D01*
D02*
G37*
G36*
X95221Y343000D02*
X91870D01*
Y341519D01*
X95221D01*
Y343000D01*
D02*
G37*
G36*
X90870D02*
X87519D01*
Y341519D01*
X90870D01*
Y343000D01*
D02*
G37*
G36*
X70481D02*
X67130D01*
Y341519D01*
X70481D01*
Y343000D01*
D02*
G37*
G36*
X66130D02*
X62779D01*
Y341519D01*
X66130D01*
Y343000D01*
D02*
G37*
G36*
X95221Y340481D02*
X91870D01*
Y339000D01*
X95221D01*
Y340481D01*
D02*
G37*
G36*
X70481D02*
X67130D01*
Y339000D01*
X70481D01*
Y340481D01*
D02*
G37*
G36*
X66130D02*
X62779D01*
Y339000D01*
X66130D01*
Y340481D01*
D02*
G37*
G36*
X90870D02*
X87519D01*
Y339000D01*
X90870D01*
Y340481D01*
D02*
G37*
G36*
X95221Y338000D02*
X91870D01*
Y336519D01*
X95221D01*
Y338000D01*
D02*
G37*
G36*
X90870D02*
X87519D01*
Y336519D01*
X90870D01*
Y338000D01*
D02*
G37*
G36*
X70481D02*
X67130D01*
Y336519D01*
X70481D01*
Y338000D01*
D02*
G37*
G36*
X66130D02*
X62779D01*
Y336519D01*
X66130D01*
Y338000D01*
D02*
G37*
G36*
X95221Y335481D02*
X91870D01*
Y334000D01*
X95221D01*
Y335481D01*
D02*
G37*
G36*
X70481D02*
X67130D01*
Y334000D01*
X70481D01*
Y335481D01*
D02*
G37*
G36*
X66130D02*
X62779D01*
Y334000D01*
X66130D01*
Y335481D01*
D02*
G37*
G36*
X90870D02*
X87519D01*
Y334000D01*
X90870D01*
Y335481D01*
D02*
G37*
G36*
X95221Y333000D02*
X91870D01*
Y331519D01*
X95221D01*
Y333000D01*
D02*
G37*
G36*
X90870D02*
X87519D01*
Y331519D01*
X90870D01*
Y333000D01*
D02*
G37*
G36*
X70481D02*
X67130D01*
Y331519D01*
X70481D01*
Y333000D01*
D02*
G37*
G36*
X66130D02*
X62779D01*
Y331519D01*
X66130D01*
Y333000D01*
D02*
G37*
G36*
X95221Y326481D02*
X91870D01*
Y325000D01*
X95221D01*
Y326481D01*
D02*
G37*
G36*
X70481D02*
X67130D01*
Y325000D01*
X70481D01*
Y326481D01*
D02*
G37*
G36*
X66130D02*
X62779D01*
Y325000D01*
X66130D01*
Y326481D01*
D02*
G37*
G36*
X90870D02*
X87519D01*
Y325000D01*
X90870D01*
Y326481D01*
D02*
G37*
G36*
X95221Y324000D02*
X91870D01*
Y322519D01*
X95221D01*
Y324000D01*
D02*
G37*
G36*
X90870D02*
X87519D01*
Y322519D01*
X90870D01*
Y324000D01*
D02*
G37*
G36*
X70481D02*
X67130D01*
Y322519D01*
X70481D01*
Y324000D01*
D02*
G37*
G36*
X66130D02*
X62779D01*
Y322519D01*
X66130D01*
Y324000D01*
D02*
G37*
G36*
X95221Y321481D02*
X91870D01*
Y320000D01*
X95221D01*
Y321481D01*
D02*
G37*
G36*
X70481D02*
X67130D01*
Y320000D01*
X70481D01*
Y321481D01*
D02*
G37*
G36*
X66130D02*
X62779D01*
Y320000D01*
X66130D01*
Y321481D01*
D02*
G37*
G36*
X90870D02*
X87519D01*
Y320000D01*
X90870D01*
Y321481D01*
D02*
G37*
G36*
X95221Y319000D02*
X91870D01*
Y317519D01*
X95221D01*
Y319000D01*
D02*
G37*
G36*
X90870D02*
X87519D01*
Y317519D01*
X90870D01*
Y319000D01*
D02*
G37*
G36*
X70481D02*
X67130D01*
Y317519D01*
X70481D01*
Y319000D01*
D02*
G37*
G36*
X66130D02*
X62779D01*
Y317519D01*
X66130D01*
Y319000D01*
D02*
G37*
G36*
X95221Y316481D02*
X91870D01*
Y315000D01*
X95221D01*
Y316481D01*
D02*
G37*
G36*
X70481D02*
X67130D01*
Y315000D01*
X70481D01*
Y316481D01*
D02*
G37*
G36*
X66130D02*
X62779D01*
Y315000D01*
X66130D01*
Y316481D01*
D02*
G37*
G36*
X90870D02*
X87519D01*
Y315000D01*
X90870D01*
Y316481D01*
D02*
G37*
G36*
X95221Y314000D02*
X91870D01*
Y312519D01*
X95221D01*
Y314000D01*
D02*
G37*
G36*
X90870D02*
X87519D01*
Y312519D01*
X90870D01*
Y314000D01*
D02*
G37*
G36*
X70481D02*
X67130D01*
Y312519D01*
X70481D01*
Y314000D01*
D02*
G37*
G36*
X66130D02*
X62779D01*
Y312519D01*
X66130D01*
Y314000D01*
D02*
G37*
G36*
X95221Y311481D02*
X91870D01*
Y310000D01*
X95221D01*
Y311481D01*
D02*
G37*
G36*
X70481D02*
X67130D01*
Y310000D01*
X70481D01*
Y311481D01*
D02*
G37*
G36*
X66130D02*
X62779D01*
Y310000D01*
X66130D01*
Y311481D01*
D02*
G37*
G36*
X90870D02*
X87519D01*
Y310000D01*
X90870D01*
Y311481D01*
D02*
G37*
G36*
X95221Y309000D02*
X91870D01*
Y307519D01*
X95221D01*
Y309000D01*
D02*
G37*
G36*
X90870D02*
X87519D01*
Y307519D01*
X90870D01*
Y309000D01*
D02*
G37*
G36*
X70481D02*
X67130D01*
Y307519D01*
X70481D01*
Y309000D01*
D02*
G37*
G36*
X66130D02*
X62779D01*
Y307519D01*
X66130D01*
Y309000D01*
D02*
G37*
G36*
X116481Y345481D02*
X113130D01*
Y344000D01*
X116481D01*
Y345481D01*
D02*
G37*
G36*
X112130D02*
X108779D01*
Y344000D01*
X112130D01*
Y345481D01*
D02*
G37*
G36*
X116481Y343000D02*
X113130D01*
Y341519D01*
X116481D01*
Y343000D01*
D02*
G37*
G36*
X112130D02*
X108779D01*
Y341519D01*
X112130D01*
Y343000D01*
D02*
G37*
G36*
X116481Y340481D02*
X113130D01*
Y339000D01*
X116481D01*
Y340481D01*
D02*
G37*
G36*
X112130D02*
X108779D01*
Y339000D01*
X112130D01*
Y340481D01*
D02*
G37*
G36*
X116481Y338000D02*
X113130D01*
Y336519D01*
X116481D01*
Y338000D01*
D02*
G37*
G36*
X112130D02*
X108779D01*
Y336519D01*
X112130D01*
Y338000D01*
D02*
G37*
G36*
X145500Y338216D02*
Y334500D01*
X149216D01*
X149136Y335108D01*
X148708Y336141D01*
X148028Y337028D01*
X147141Y337708D01*
X146108Y338136D01*
X145500Y338216D01*
D02*
G37*
G36*
X144500Y338216D02*
X143892Y338136D01*
X142859Y337708D01*
X141972Y337028D01*
X141292Y336141D01*
X140864Y335108D01*
X140784Y334500D01*
X144500D01*
Y338216D01*
D02*
G37*
G36*
X116481Y335481D02*
X113130D01*
Y334000D01*
X116481D01*
Y335481D01*
D02*
G37*
G36*
X112130D02*
X108779D01*
Y334000D01*
X112130D01*
Y335481D01*
D02*
G37*
G36*
X116481Y333000D02*
X113130D01*
Y331519D01*
X116481D01*
Y333000D01*
D02*
G37*
G36*
X112130D02*
X108779D01*
Y331519D01*
X112130D01*
Y333000D01*
D02*
G37*
G36*
X149216Y333500D02*
X145500D01*
Y329784D01*
X146108Y329864D01*
X147141Y330292D01*
X148028Y330973D01*
X148708Y331859D01*
X149136Y332892D01*
X149216Y333500D01*
D02*
G37*
G36*
X144500D02*
X140784D01*
X140864Y332892D01*
X141292Y331859D01*
X141972Y330973D01*
X142859Y330292D01*
X143892Y329864D01*
X144500Y329784D01*
Y333500D01*
D02*
G37*
G36*
X116481Y321481D02*
X113130D01*
Y320000D01*
X116481D01*
Y321481D01*
D02*
G37*
G36*
X112130D02*
X108779D01*
Y320000D01*
X112130D01*
Y321481D01*
D02*
G37*
G36*
X116481Y319000D02*
X113130D01*
Y317519D01*
X116481D01*
Y319000D01*
D02*
G37*
G36*
X112130D02*
X108779D01*
Y317519D01*
X112130D01*
Y319000D01*
D02*
G37*
G36*
X116481Y316481D02*
X113130D01*
Y315000D01*
X116481D01*
Y316481D01*
D02*
G37*
G36*
X112130D02*
X108779D01*
Y315000D01*
X112130D01*
Y316481D01*
D02*
G37*
G36*
X116481Y314000D02*
X113130D01*
Y312519D01*
X116481D01*
Y314000D01*
D02*
G37*
G36*
X112130D02*
X108779D01*
Y312519D01*
X112130D01*
Y314000D01*
D02*
G37*
G36*
X116481Y311481D02*
X113130D01*
Y310000D01*
X116481D01*
Y311481D01*
D02*
G37*
G36*
X112130D02*
X108779D01*
Y310000D01*
X112130D01*
Y311481D01*
D02*
G37*
G36*
X168556Y311312D02*
X165500D01*
Y309142D01*
X168556D01*
Y311312D01*
D02*
G37*
G36*
X164500D02*
X161444D01*
Y309142D01*
X164500D01*
Y311312D01*
D02*
G37*
G36*
X116481Y309000D02*
X113130D01*
Y308343D01*
X114130D01*
X113987Y308328D01*
X113860Y308282D01*
X113747Y308207D01*
X113650Y308101D01*
X113567Y307965D01*
X113500Y307799D01*
X113447Y307602D01*
X113434Y307519D01*
X116481D01*
Y309000D01*
D02*
G37*
G36*
X112130D02*
X108779D01*
Y307519D01*
X111826D01*
X111812Y307602D01*
X111760Y307799D01*
X111692Y307965D01*
X111610Y308101D01*
X111512Y308207D01*
X111400Y308282D01*
X111272Y308328D01*
X111130Y308343D01*
X112130D01*
Y309000D01*
D02*
G37*
G36*
X168556Y284858D02*
X165500D01*
Y282688D01*
X168556D01*
Y284858D01*
D02*
G37*
G36*
X164500D02*
X161444D01*
Y282688D01*
X164500D01*
Y284858D01*
D02*
G37*
G36*
X41556Y229358D02*
X38500D01*
Y227188D01*
X41556D01*
Y229358D01*
D02*
G37*
G36*
X37500D02*
X34444D01*
Y227188D01*
X37500D01*
Y229358D01*
D02*
G37*
G36*
X41556Y239812D02*
X38500D01*
Y237642D01*
X41556D01*
Y239812D01*
D02*
G37*
G36*
X37500D02*
X34444D01*
Y237642D01*
X37500D01*
Y239812D01*
D02*
G37*
G36*
X85686Y238828D02*
X80465D01*
Y234000D01*
X84862D01*
Y235000D01*
X84877Y234858D01*
X84922Y234730D01*
X84998Y234617D01*
X85104Y234520D01*
X85240Y234437D01*
X85406Y234370D01*
X85603Y234317D01*
X85686Y234304D01*
Y238828D01*
D02*
G37*
G36*
X79465D02*
X74243D01*
Y234000D01*
X79465D01*
Y238828D01*
D02*
G37*
G36*
X84862Y233000D02*
X80465D01*
Y228172D01*
X85686D01*
Y232696D01*
X85603Y232682D01*
X85406Y232630D01*
X85240Y232562D01*
X85104Y232480D01*
X84998Y232382D01*
X84922Y232270D01*
X84877Y232142D01*
X84862Y232000D01*
Y233000D01*
D02*
G37*
G36*
X79465D02*
X74243D01*
Y228172D01*
X79465D01*
Y233000D01*
D02*
G37*
G36*
X79009Y219115D02*
X76937D01*
Y217240D01*
X79009D01*
Y219115D01*
D02*
G37*
G36*
X75937D02*
X73865D01*
Y217240D01*
X75937D01*
Y219115D01*
D02*
G37*
G36*
X79009Y216240D02*
X76937D01*
Y214365D01*
X79009D01*
Y216240D01*
D02*
G37*
G36*
X75937D02*
X73865D01*
Y214365D01*
X75937D01*
Y216240D01*
D02*
G37*
G36*
X43363Y217202D02*
X38831D01*
Y204500D01*
X43363D01*
Y217202D01*
D02*
G37*
G36*
X37831D02*
X33298D01*
Y204500D01*
X37831D01*
Y217202D01*
D02*
G37*
G36*
X43363Y203500D02*
X38831D01*
Y190798D01*
X43363D01*
Y203500D01*
D02*
G37*
G36*
X37831D02*
X33298D01*
Y190798D01*
X37831D01*
Y203500D01*
D02*
G37*
G36*
X68757Y238828D02*
X63535D01*
Y234000D01*
X68757D01*
Y238828D01*
D02*
G37*
G36*
X62535D02*
X57314D01*
Y234000D01*
X62535D01*
Y238828D01*
D02*
G37*
G36*
X68757Y233000D02*
X63535D01*
Y228172D01*
X68757D01*
Y233000D01*
D02*
G37*
G36*
X62535D02*
X57314D01*
Y228172D01*
X62535D01*
Y233000D01*
D02*
G37*
G36*
X71135Y215375D02*
X69063D01*
Y213500D01*
X71135D01*
Y215375D01*
D02*
G37*
G36*
X68063D02*
X65991D01*
Y213500D01*
X68063D01*
Y215375D01*
D02*
G37*
G36*
X71135Y212500D02*
X69063D01*
Y210625D01*
X71135D01*
Y212500D01*
D02*
G37*
G36*
X68063D02*
X65991D01*
Y210625D01*
X68063D01*
Y212500D01*
D02*
G37*
G36*
X59702Y217202D02*
X55169D01*
Y204500D01*
X59702D01*
Y217202D01*
D02*
G37*
G36*
X54169D02*
X49637D01*
Y204500D01*
X54169D01*
Y217202D01*
D02*
G37*
G36*
X71135Y197375D02*
X69063D01*
Y195500D01*
X71135D01*
Y197375D01*
D02*
G37*
G36*
X68063D02*
X65991D01*
Y195500D01*
X68063D01*
Y197375D01*
D02*
G37*
G36*
X71135Y194500D02*
X69063D01*
Y192625D01*
X71135D01*
Y194500D01*
D02*
G37*
G36*
X68063D02*
X65991D01*
Y192625D01*
X68063D01*
Y194500D01*
D02*
G37*
G36*
X59702Y203500D02*
X55169D01*
Y190798D01*
X59702D01*
Y203500D01*
D02*
G37*
G36*
X54169D02*
X49637D01*
Y190798D01*
X54169D01*
Y203500D01*
D02*
G37*
G36*
X60812Y188056D02*
X58642D01*
Y185000D01*
X60812D01*
Y188056D01*
D02*
G37*
G36*
Y184000D02*
X58642D01*
Y180944D01*
X60812D01*
Y184000D01*
D02*
G37*
G36*
X68757Y179828D02*
X63535D01*
Y175000D01*
X68757D01*
Y179828D01*
D02*
G37*
G36*
X62535D02*
X57314D01*
Y175000D01*
X62535D01*
Y179828D01*
D02*
G37*
G36*
X68757Y174000D02*
X63535D01*
Y169172D01*
X68757D01*
Y174000D01*
D02*
G37*
G36*
X62535D02*
X57314D01*
Y169172D01*
X62535D01*
Y174000D01*
D02*
G37*
G36*
X41556Y168812D02*
X38500D01*
Y166642D01*
X41556D01*
Y168812D01*
D02*
G37*
G36*
X37500D02*
X34444D01*
Y166642D01*
X37500D01*
Y168812D01*
D02*
G37*
G36*
X85686Y179828D02*
X80465D01*
Y175000D01*
X84862D01*
Y176000D01*
X84877Y175857D01*
X84922Y175730D01*
X84998Y175618D01*
X85104Y175520D01*
X85240Y175437D01*
X85406Y175370D01*
X85603Y175318D01*
X85686Y175304D01*
Y179828D01*
D02*
G37*
G36*
X79465D02*
X74243D01*
Y175000D01*
X79465D01*
Y179828D01*
D02*
G37*
G36*
X84862Y174000D02*
X80465D01*
Y169172D01*
X85686D01*
Y173696D01*
X85603Y173682D01*
X85406Y173630D01*
X85240Y173563D01*
X85104Y173480D01*
X84998Y173382D01*
X84922Y173270D01*
X84877Y173143D01*
X84862Y173000D01*
Y174000D01*
D02*
G37*
G36*
X79465D02*
X74243D01*
Y169172D01*
X79465D01*
Y174000D01*
D02*
G37*
G36*
X41556Y158358D02*
X38500D01*
Y156188D01*
X41556D01*
Y158358D01*
D02*
G37*
G36*
X37500D02*
X34444D01*
Y156188D01*
X37500D01*
Y158358D01*
D02*
G37*
G36*
X85686Y155328D02*
X80465D01*
Y150500D01*
X84862D01*
Y151500D01*
X84877Y151357D01*
X84922Y151230D01*
X84998Y151118D01*
X85104Y151020D01*
X85240Y150937D01*
X85406Y150870D01*
X85603Y150818D01*
X85686Y150804D01*
Y155328D01*
D02*
G37*
G36*
X79465D02*
X74243D01*
Y150500D01*
X79465D01*
Y155328D01*
D02*
G37*
G36*
X84862Y149500D02*
X80465D01*
Y144672D01*
X85686D01*
Y149196D01*
X85603Y149182D01*
X85406Y149130D01*
X85240Y149063D01*
X85104Y148980D01*
X84998Y148882D01*
X84922Y148770D01*
X84877Y148643D01*
X84862Y148500D01*
Y149500D01*
D02*
G37*
G36*
X79465D02*
X74243D01*
Y144672D01*
X79465D01*
Y149500D01*
D02*
G37*
G36*
X68757Y155328D02*
X63535D01*
Y150500D01*
X68757D01*
Y155328D01*
D02*
G37*
G36*
X62535D02*
X57314D01*
Y150500D01*
X62535D01*
Y155328D01*
D02*
G37*
G36*
X68757Y149500D02*
X63535D01*
Y144672D01*
X68757D01*
Y149500D01*
D02*
G37*
G36*
X62535D02*
X57314D01*
Y144672D01*
X62535D01*
Y149500D01*
D02*
G37*
G36*
X60312Y143556D02*
X58142D01*
Y140500D01*
X60312D01*
Y143556D01*
D02*
G37*
G36*
X57142D02*
X54972D01*
Y140500D01*
X57142D01*
Y143556D01*
D02*
G37*
G36*
X60312Y139500D02*
X58142D01*
Y136444D01*
X60312D01*
Y139500D01*
D02*
G37*
G36*
X57142D02*
X54972D01*
Y136444D01*
X57142D01*
Y139500D01*
D02*
G37*
G36*
X71135Y131875D02*
X69063D01*
Y130000D01*
X71135D01*
Y131875D01*
D02*
G37*
G36*
X68063D02*
X65991D01*
Y130000D01*
X68063D01*
Y131875D01*
D02*
G37*
G36*
X71135Y129000D02*
X69063D01*
Y127125D01*
X71135D01*
Y129000D01*
D02*
G37*
G36*
X68063D02*
X65991D01*
Y127125D01*
X68063D01*
Y129000D01*
D02*
G37*
G36*
X59702Y133702D02*
X55169D01*
Y121000D01*
X59702D01*
Y133702D01*
D02*
G37*
G36*
X54169D02*
X49637D01*
Y121000D01*
X54169D01*
Y133702D01*
D02*
G37*
G36*
X71135Y113875D02*
X69063D01*
Y112000D01*
X71135D01*
Y113875D01*
D02*
G37*
G36*
X68063D02*
X65991D01*
Y112000D01*
X68063D01*
Y113875D01*
D02*
G37*
G36*
X71135Y111000D02*
X69063D01*
Y109125D01*
X71135D01*
Y111000D01*
D02*
G37*
G36*
X68063D02*
X65991D01*
Y109125D01*
X68063D01*
Y111000D01*
D02*
G37*
G36*
X59702Y120000D02*
X55169D01*
Y107298D01*
X59702D01*
Y120000D01*
D02*
G37*
G36*
X54169D02*
X49637D01*
Y107298D01*
X54169D01*
Y120000D01*
D02*
G37*
G36*
X68757Y96328D02*
X63535D01*
Y91500D01*
X68757D01*
Y96328D01*
D02*
G37*
G36*
X62535D02*
X57314D01*
Y91500D01*
X62535D01*
Y96328D01*
D02*
G37*
G36*
X68757Y90500D02*
X63535D01*
Y85672D01*
X68757D01*
Y90500D01*
D02*
G37*
G36*
X62535D02*
X57314D01*
Y85672D01*
X62535D01*
Y90500D01*
D02*
G37*
G36*
X158732Y121981D02*
X158699Y121902D01*
X158676Y121806D01*
Y121721D01*
X158699Y121647D01*
X158732Y121601D01*
Y121981D01*
D02*
G37*
G36*
X43363Y133702D02*
X38831D01*
Y121000D01*
X43363D01*
Y133702D01*
D02*
G37*
G36*
X37831D02*
X33298D01*
Y121000D01*
X37831D01*
Y133702D01*
D02*
G37*
G36*
X43363Y120000D02*
X38831D01*
Y107298D01*
X43363D01*
Y120000D01*
D02*
G37*
G36*
X37831D02*
X33298D01*
Y107298D01*
X37831D01*
Y120000D01*
D02*
G37*
G36*
X41056Y97312D02*
X38000D01*
Y95142D01*
X41056D01*
Y97312D01*
D02*
G37*
G36*
X37000D02*
X33944D01*
Y95142D01*
X37000D01*
Y97312D01*
D02*
G37*
G36*
X41056Y86858D02*
X38000D01*
Y84688D01*
X41056D01*
Y86858D01*
D02*
G37*
G36*
X37000D02*
X33944D01*
Y84688D01*
X37000D01*
Y86858D01*
D02*
G37*
G36*
X85686Y96328D02*
X80465D01*
Y91500D01*
X84862D01*
Y92500D01*
X84877Y92357D01*
X84922Y92230D01*
X84998Y92118D01*
X85104Y92020D01*
X85240Y91938D01*
X85406Y91870D01*
X85603Y91817D01*
X85686Y91804D01*
Y96328D01*
D02*
G37*
G36*
X79465D02*
X74243D01*
Y91500D01*
X79465D01*
Y96328D01*
D02*
G37*
G36*
X84862Y90500D02*
X80465D01*
Y85672D01*
X85686D01*
Y90196D01*
X85603Y90183D01*
X85406Y90130D01*
X85240Y90062D01*
X85104Y89980D01*
X84998Y89882D01*
X84922Y89770D01*
X84877Y89643D01*
X84862Y89500D01*
Y90500D01*
D02*
G37*
G36*
X79465D02*
X74243D01*
Y85672D01*
X79465D01*
Y90500D01*
D02*
G37*
%LPD*%
D15*
X122500Y126244D02*
X145663Y149407D01*
X122500Y116000D02*
Y126244D01*
X177930Y155000D02*
X191000D01*
X177121Y155809D02*
X177930Y155000D01*
X93000Y249000D02*
X95000Y247000D01*
X104500D02*
X115500Y236000D01*
X95000Y247000D02*
X104500D01*
X176733Y164000D02*
X180045D01*
X167000Y172000D02*
X175000Y180000D01*
X167000Y170744D02*
Y172000D01*
X175000Y180000D02*
X177001D01*
X187000Y161000D02*
X190000Y164000D01*
Y165850D02*
X194575Y170425D01*
X190000Y164000D02*
Y165850D01*
X194575Y170425D02*
X194575D01*
X178500Y161000D02*
X187000D01*
X175357Y162624D02*
X176733Y164000D01*
X172800Y162624D02*
X175357D01*
X174337Y158593D02*
X176744Y161000D01*
X178500D01*
X171553Y161377D02*
X172800Y162624D01*
X177227Y158700D02*
X190200D01*
X201500Y170000D01*
X172407Y167798D02*
X182949D01*
X152886Y198358D02*
X158744Y192500D01*
X186000D02*
X201500Y177000D01*
X158744Y192500D02*
X186000D01*
X173744Y194500D02*
X189500D01*
X163886Y204358D02*
X173744Y194500D01*
X189500D02*
X204500Y179500D01*
X77760Y255760D02*
X89520Y244000D01*
X103000D01*
X111500Y235500D01*
X128500Y125000D02*
Y129460D01*
X147055Y148015D01*
X201500Y170000D02*
Y177000D01*
X191000Y155000D02*
X204500Y168500D01*
X170161Y162769D02*
X172392Y165000D01*
X174500D01*
X165985Y166945D02*
X172500Y173460D01*
X164593Y168337D02*
X167000Y170744D01*
X163201Y169729D02*
X165000Y171528D01*
Y175850D02*
X170575Y181425D01*
X165000Y171528D02*
Y175850D01*
X171730Y140230D02*
Y143661D01*
X168500Y137000D02*
X171730Y140230D01*
X177236Y92000D02*
Y140940D01*
X171553Y146623D02*
X177236Y140940D01*
X170161Y145231D02*
X171730Y143661D01*
X172945Y148015D02*
X187079Y133881D01*
Y92000D02*
Y133881D01*
X156142Y121000D02*
X157027D01*
X161000Y124972D01*
X156000Y120858D02*
X156142Y121000D01*
X161000Y124972D02*
Y136070D01*
X161810Y136879D01*
X115500Y200000D02*
Y236000D01*
X133500Y131676D02*
X148447Y146623D01*
X133500Y127500D02*
Y131676D01*
X148000Y124000D02*
X151500Y127500D01*
X139000Y124000D02*
X148000D01*
X151500Y127500D02*
Y132000D01*
X150000Y133500D02*
X151500Y132000D01*
X141425Y134575D02*
X144500Y137650D01*
Y139892D02*
X149839Y145231D01*
X144500Y137650D02*
Y139892D01*
X142378Y151689D02*
X142879Y152190D01*
X129539Y151689D02*
X142378D01*
X126925Y149075D02*
X129539Y151689D01*
X126925Y149075D02*
X126925D01*
X139925Y171425D02*
X139925D01*
X143219Y168130D01*
X144478D01*
X142500Y188438D02*
X151333Y179604D01*
Y169626D02*
Y179604D01*
Y169626D02*
X154015Y166945D01*
X143549Y182951D02*
X149533Y176966D01*
Y168642D02*
Y176966D01*
Y168642D02*
X152623Y165553D01*
X111500Y200000D02*
X119500Y192000D01*
X144000D02*
X153600Y182400D01*
X119500Y192000D02*
X144000D01*
X115500Y200000D02*
X121500Y194000D01*
X145500D02*
X155400Y184100D01*
X121500Y194000D02*
X145500D01*
X146500Y196000D02*
X157689Y184811D01*
X119500Y200000D02*
X123500Y196000D01*
X146500D01*
X141551Y166449D02*
X142500Y165500D01*
X144324D02*
X148447Y161377D01*
X142500Y165500D02*
X144324D01*
X143756Y160500D02*
X145663Y158593D01*
X138000Y160500D02*
X143756D01*
X140500Y163500D02*
X143540D01*
X147055Y159985D01*
X157689Y171622D02*
X158191Y171121D01*
X157689Y171622D02*
Y184811D01*
X204500Y168500D02*
Y179500D01*
X153600Y170144D02*
Y182400D01*
X155400Y171127D02*
Y184100D01*
X163000Y204358D02*
X163886D01*
X119500Y200000D02*
Y236000D01*
X111500Y200000D02*
Y235500D01*
X109076Y246424D02*
X119500Y236000D01*
X102858Y252614D02*
Y253500D01*
Y252614D02*
X109049Y246424D01*
X109076D01*
X77563Y255760D02*
X77760D01*
X136201Y166449D02*
X141551D01*
X135575Y167075D02*
X136201Y166449D01*
X144478Y168130D02*
X149839Y162769D01*
X161500Y175121D02*
Y179500D01*
Y175121D02*
X162311Y174311D01*
Y171622D02*
Y174311D01*
X161810Y171121D02*
X162311Y171622D01*
X150000Y133500D02*
Y139824D01*
X172128Y170304D02*
X175154D01*
X167377Y165553D02*
X172128Y170304D01*
X175154D02*
X178425Y173575D01*
X153600Y170144D02*
X155407Y168337D01*
X155400Y171127D02*
X156799Y169729D01*
X168769Y164161D02*
X172407Y167798D01*
X182949D02*
X183575Y168425D01*
X150000Y139824D02*
X152623Y142447D01*
X145701Y169691D02*
X151231Y164161D01*
X145701Y169691D02*
Y175949D01*
X145075Y176575D02*
X145701Y175949D01*
X165358Y129000D02*
Y136114D01*
X196921Y92000D02*
Y126822D01*
X175729Y157202D02*
X177227Y158700D01*
X152000Y198358D02*
X152886D01*
X175729Y150798D02*
X206764Y119764D01*
Y92000D02*
Y119764D01*
X177121Y152190D02*
X216606Y112705D01*
Y92000D02*
Y112705D01*
X163201Y138271D02*
X165358Y136114D01*
X147202Y139810D02*
X151231Y143839D01*
X141425Y134575D02*
Y134575D01*
X138024Y144551D02*
X144271Y150798D01*
X132075Y143925D02*
X132701Y144551D01*
X138024D01*
X147202Y130051D02*
Y139810D01*
X146575Y129425D02*
X147202Y130051D01*
X163201Y138271D02*
X164593Y139663D01*
X174337Y149407D02*
X196921Y126822D01*
D19*
X92000Y236201D02*
D03*
Y223799D02*
D03*
Y140299D02*
D03*
Y152701D02*
D03*
Y184201D02*
D03*
Y171799D02*
D03*
Y88299D02*
D03*
Y100701D02*
D03*
D20*
X165358Y113000D02*
D03*
X172642D02*
D03*
Y121000D02*
D03*
X165358D02*
D03*
X172642Y129000D02*
D03*
X165358D02*
D03*
X136142Y179000D02*
D03*
X128858D02*
D03*
X136142Y186500D02*
D03*
X128858D02*
D03*
X103142Y125500D02*
D03*
X95858D02*
D03*
X82858D02*
D03*
X90142D02*
D03*
X82858Y111500D02*
D03*
X90142D02*
D03*
X103142D02*
D03*
X95858D02*
D03*
X50358Y140000D02*
D03*
X57642D02*
D03*
X43642D02*
D03*
X36358D02*
D03*
X36858Y184500D02*
D03*
X44142D02*
D03*
X58142D02*
D03*
X50858D02*
D03*
X103142Y195000D02*
D03*
X95858D02*
D03*
X82858D02*
D03*
X90142D02*
D03*
X82858Y209000D02*
D03*
X90142D02*
D03*
X103142D02*
D03*
X95858D02*
D03*
X102858Y253500D02*
D03*
X110142D02*
D03*
X102858Y288500D02*
D03*
X110142D02*
D03*
X35358Y253500D02*
D03*
X42642D02*
D03*
Y288500D02*
D03*
X35358D02*
D03*
X98358Y357000D02*
D03*
X105642D02*
D03*
X52358D02*
D03*
X59642D02*
D03*
D21*
X156000Y120858D02*
D03*
Y128142D02*
D03*
X123000Y166642D02*
D03*
Y159358D02*
D03*
X189000Y251642D02*
D03*
Y244358D02*
D03*
Y238642D02*
D03*
Y231358D02*
D03*
Y218642D02*
D03*
Y211358D02*
D03*
Y205642D02*
D03*
Y198358D02*
D03*
X163000Y211642D02*
D03*
Y204358D02*
D03*
X152000Y205642D02*
D03*
Y198358D02*
D03*
Y218642D02*
D03*
Y211358D02*
D03*
X163000Y244642D02*
D03*
Y237358D02*
D03*
X152000Y238642D02*
D03*
Y231358D02*
D03*
Y251642D02*
D03*
Y244358D02*
D03*
X126000Y244642D02*
D03*
Y237358D02*
D03*
Y211642D02*
D03*
Y204358D02*
D03*
X102500Y98142D02*
D03*
Y90858D02*
D03*
X37500Y94642D02*
D03*
Y87358D02*
D03*
X38000Y166142D02*
D03*
Y158858D02*
D03*
X102500Y181642D02*
D03*
Y174358D02*
D03*
Y233642D02*
D03*
Y226358D02*
D03*
X120000Y288642D02*
D03*
Y281358D02*
D03*
Y275142D02*
D03*
Y267858D02*
D03*
X91000Y289142D02*
D03*
Y281858D02*
D03*
Y274142D02*
D03*
Y266858D02*
D03*
X68500Y263142D02*
D03*
Y255858D02*
D03*
X52500Y288642D02*
D03*
Y281358D02*
D03*
X52500Y275142D02*
D03*
Y267858D02*
D03*
X38000Y237142D02*
D03*
Y229858D02*
D03*
X165000Y308642D02*
D03*
Y301358D02*
D03*
Y292642D02*
D03*
Y285358D02*
D03*
X102500Y150142D02*
D03*
Y142858D02*
D03*
D22*
X141425Y134575D02*
D03*
X146575Y129425D02*
D03*
X132075Y143925D02*
D03*
X126925Y149075D02*
D03*
X194575Y170425D02*
D03*
X189425Y175575D02*
D03*
X183575Y168425D02*
D03*
X178425Y173575D02*
D03*
Y186575D02*
D03*
X183575Y181425D02*
D03*
X165425Y186575D02*
D03*
X170575Y181425D02*
D03*
D23*
X142879Y152190D02*
D03*
X161810Y171121D02*
D03*
X149839Y145231D02*
D03*
X148447Y146623D02*
D03*
X147055Y148015D02*
D03*
X145663Y149407D02*
D03*
X164593Y168337D02*
D03*
X168769Y164161D02*
D03*
X167377Y165553D02*
D03*
X165985Y166945D02*
D03*
X155407Y139663D02*
D03*
X154015Y141055D02*
D03*
X152623Y142447D02*
D03*
X151231Y143839D02*
D03*
X170161Y162769D02*
D03*
X174337Y158593D02*
D03*
X172945Y159985D02*
D03*
X171553Y161377D02*
D03*
X158191Y136879D02*
D03*
X177121Y155809D02*
D03*
X144271Y150798D02*
D03*
X163201Y169729D02*
D03*
X156799Y138271D02*
D03*
X175729Y157202D02*
D03*
D24*
X142879Y155809D02*
D03*
X145663Y158593D02*
D03*
X147055Y159985D02*
D03*
X148447Y161377D02*
D03*
X149839Y162769D02*
D03*
X151231Y164161D02*
D03*
X152623Y165553D02*
D03*
X154015Y166945D02*
D03*
X155407Y168337D02*
D03*
X158191Y171121D02*
D03*
X161810Y136879D02*
D03*
X168769Y143839D02*
D03*
X167377Y142447D02*
D03*
X165985Y141055D02*
D03*
X164593Y139663D02*
D03*
X174337Y149407D02*
D03*
X172945Y148015D02*
D03*
X171553Y146623D02*
D03*
X170161Y145231D02*
D03*
X177121Y152190D02*
D03*
X144271Y157202D02*
D03*
X156799Y169729D02*
D03*
X163201Y138271D02*
D03*
X175729Y150798D02*
D03*
D25*
X139925Y171425D02*
D03*
X145075Y176575D02*
D03*
X130425Y161925D02*
D03*
X135575Y167075D02*
D03*
D26*
X176000Y201110D02*
D03*
Y214890D02*
D03*
Y234110D02*
D03*
Y247890D02*
D03*
X139000Y201110D02*
D03*
Y214890D02*
D03*
Y234110D02*
D03*
Y247890D02*
D03*
D27*
X68563Y129500D02*
D03*
X76437Y133240D02*
D03*
Y125760D02*
D03*
X68563Y111500D02*
D03*
X76437Y115240D02*
D03*
Y107760D02*
D03*
Y191260D02*
D03*
Y198740D02*
D03*
X68563Y195000D02*
D03*
X76437Y209260D02*
D03*
Y216740D02*
D03*
X68563Y213000D02*
D03*
X85437Y259500D02*
D03*
X77563Y255760D02*
D03*
Y263240D02*
D03*
D28*
X63035Y91000D02*
D03*
X79965D02*
D03*
Y150000D02*
D03*
X63035D02*
D03*
Y174500D02*
D03*
X79965D02*
D03*
X79965Y233500D02*
D03*
X63035D02*
D03*
D29*
X54669Y120500D02*
D03*
X38331D02*
D03*
X54669Y204000D02*
D03*
X38331D02*
D03*
D30*
X106500Y267937D02*
D03*
X110240Y260063D02*
D03*
X102760D02*
D03*
X106500Y274063D02*
D03*
X102760Y281937D02*
D03*
X110240D02*
D03*
X72500Y269563D02*
D03*
X68760Y277437D02*
D03*
X76240D02*
D03*
X39000Y267937D02*
D03*
X42740Y260063D02*
D03*
X35260D02*
D03*
X39000Y274063D02*
D03*
X35260Y281937D02*
D03*
X42740D02*
D03*
D31*
X65610Y286500D02*
D03*
X79390D02*
D03*
D32*
X91370Y333500D02*
D03*
Y338500D02*
D03*
Y343500D02*
D03*
Y348500D02*
D03*
X112630D02*
D03*
Y343500D02*
D03*
Y338500D02*
D03*
Y333500D02*
D03*
X91370Y309500D02*
D03*
Y314500D02*
D03*
Y319500D02*
D03*
Y324500D02*
D03*
X112630D02*
D03*
Y319500D02*
D03*
Y314500D02*
D03*
Y309500D02*
D03*
X66630Y324500D02*
D03*
Y319500D02*
D03*
Y314500D02*
D03*
Y309500D02*
D03*
X45370D02*
D03*
Y314500D02*
D03*
Y319500D02*
D03*
Y324500D02*
D03*
X66630Y348500D02*
D03*
Y343500D02*
D03*
Y338500D02*
D03*
Y333500D02*
D03*
X45370D02*
D03*
Y338500D02*
D03*
Y343500D02*
D03*
Y348500D02*
D03*
D57*
X160000Y154000D02*
D03*
D58*
X102858Y288500D02*
Y293358D01*
X120000Y288642D02*
Y292500D01*
X120000Y292500D01*
X120000Y288642D02*
X120000D01*
X106500Y297000D02*
X112630Y303130D01*
Y309500D01*
X110142Y288500D02*
Y293358D01*
X106500Y297000D02*
X110142Y293358D01*
X99744Y297000D02*
X106500D01*
X91886Y289142D02*
X99744Y297000D01*
X91000Y289142D02*
X91886D01*
X110240Y281937D02*
Y288402D01*
X110142Y288500D02*
X110240Y288402D01*
X102760Y281937D02*
Y288402D01*
X102858Y288500D01*
X42642D02*
Y293000D01*
X51500Y309500D02*
X52500Y308500D01*
Y288642D02*
Y308500D01*
X51500Y309500D02*
X55500Y313500D01*
X35358Y288500D02*
Y301358D01*
X43500Y309500D02*
X45370D01*
X35358Y301358D02*
X43500Y309500D01*
X45370D02*
X51500D01*
X42740Y281937D02*
Y288402D01*
X42642Y288500D02*
X42740Y288402D01*
X35260Y281937D02*
Y288402D01*
X35358Y288500D01*
X55500Y313500D02*
Y328500D01*
X45370Y333500D02*
X50500D01*
X55500Y328500D01*
X107004Y324500D02*
X112630D01*
X157587Y256343D02*
X216000D01*
X152886Y251642D02*
X157587Y256343D01*
X152000Y251642D02*
X152886D01*
X96500Y67000D02*
X116000Y86500D01*
Y174500D02*
X120500Y179000D01*
X116000Y86500D02*
Y174500D01*
X126000Y204358D02*
X126000Y204358D01*
Y201000D02*
Y204358D01*
X126000Y234000D02*
Y237358D01*
Y234000D02*
X126000Y234000D01*
X174927Y202183D02*
X176000Y203255D01*
X184500Y198358D02*
X189000D01*
X176000Y203255D02*
Y206500D01*
X174927Y202183D02*
X176000Y201110D01*
X103142Y195000D02*
Y199500D01*
X101000Y53000D02*
X111685D01*
X96500Y57500D02*
Y67000D01*
Y57500D02*
X101000Y53000D01*
X86500D02*
X91000Y57500D01*
X72315Y53000D02*
X86500D01*
X91000Y57500D02*
Y69000D01*
X111000Y89000D01*
X180319Y244358D02*
X189000D01*
X176787Y247890D02*
X180319Y244358D01*
X176000Y247890D02*
X176787D01*
X189000Y238642D02*
Y244358D01*
X163000Y244642D02*
X171965D01*
X175213Y247890D01*
X176000D01*
X111000Y89000D02*
Y177500D01*
X123600Y186500D02*
X128858D01*
X120000D02*
X123600D01*
Y179000D02*
X128858D01*
X120500D02*
X123600D01*
X111000Y177500D02*
X120000Y186500D01*
X76240Y115240D02*
X76437D01*
X74500Y113500D02*
X76240Y115240D01*
X74500Y112500D02*
Y113500D01*
Y116980D02*
Y118000D01*
Y116980D02*
X76240Y115240D01*
X78500Y117106D02*
Y118000D01*
X76634Y115240D02*
X78500Y117106D01*
X76437Y115240D02*
X76634D01*
X78500Y112500D02*
Y113374D01*
X76634Y115240D02*
X78500Y113374D01*
X87546Y105926D02*
X89574D01*
X92000Y100701D02*
Y103500D01*
X89574Y105926D02*
X92000Y103500D01*
X82858Y110614D02*
Y111500D01*
Y110614D02*
X87546Y105926D01*
X80004Y107760D02*
X82858Y110614D01*
X76437Y107760D02*
X80004D01*
X76634Y133240D02*
X78500Y131374D01*
Y130500D02*
Y131374D01*
X76437Y133240D02*
X76634D01*
X78500Y135106D01*
Y136000D01*
X76634Y198740D02*
X78500Y196874D01*
Y196000D02*
Y196874D01*
X87546Y189426D02*
X89574D01*
X92000Y184201D02*
Y187000D01*
X89574Y189426D02*
X92000Y187000D01*
X82858Y194114D02*
Y195000D01*
Y194114D02*
X87546Y189426D01*
X80004Y191260D02*
X82858Y194114D01*
X76437Y191260D02*
X80004D01*
X74500Y134980D02*
X76240Y133240D01*
X74500Y134980D02*
Y136000D01*
Y130500D02*
Y131500D01*
X76240Y133240D01*
X76437D01*
X76240Y198740D02*
X76437D01*
X74500Y197000D02*
X76240Y198740D01*
X74500Y196000D02*
Y197000D01*
Y200480D02*
Y201500D01*
Y200480D02*
X76240Y198740D01*
X76437D02*
X76634D01*
X78500Y200606D01*
Y201500D01*
X94657Y90858D02*
X102500D01*
X92098Y88299D02*
X94657Y90858D01*
X92000Y88299D02*
X92098D01*
X79965Y91000D02*
X89201D01*
X91902Y88299D01*
X92000D01*
Y152701D02*
X92098D01*
X79965Y150000D02*
X89201D01*
X91902Y152701D01*
X92000D01*
Y171799D02*
X92098D01*
X91902D02*
X92000D01*
X79965Y174500D02*
X89201D01*
X91902Y171799D01*
X94657Y174358D02*
X102500D01*
X92098Y171799D02*
X94657Y174358D01*
Y150142D02*
X102500D01*
X92098Y152701D02*
X94657Y150142D01*
X103142Y209000D02*
Y213500D01*
X103142Y125500D02*
Y130000D01*
Y111500D02*
Y116000D01*
X178425Y186575D02*
X178425D01*
X176000Y189000D02*
X178425Y186575D01*
X92000Y236201D02*
X92098D01*
X91902D02*
X92000D01*
X94657Y233642D02*
X102500D01*
X92098Y236201D02*
X94657Y233642D01*
X79965Y233500D02*
X89201D01*
X91902Y236201D01*
X183575Y181425D02*
X187000Y184850D01*
X36358Y134642D02*
Y140000D01*
X36858Y184500D02*
Y189858D01*
X194575Y170425D02*
X198000Y173850D01*
X189425Y175575D02*
X189425D01*
X183575Y181425D02*
X189425Y175575D01*
X178425Y173575D02*
X181096Y176246D01*
Y178946D01*
X183575Y181425D01*
X173150Y184000D02*
X175850D01*
X170575Y181425D02*
X173150Y184000D01*
X175850D02*
X178425Y186575D01*
X162124Y183274D02*
X165425Y186575D01*
X172642Y97248D02*
Y113000D01*
X167394Y92000D02*
X172642Y97248D01*
Y129000D02*
Y133500D01*
Y121000D02*
Y129000D01*
X157027Y121000D02*
X165358D01*
X156000Y128142D02*
Y132000D01*
X123000Y166642D02*
X127068D01*
X128128Y167701D01*
X128201D01*
X130425Y161925D02*
X133850Y158500D01*
X128201Y167701D02*
X134949D01*
X136142Y175208D02*
Y179000D01*
Y175208D02*
X139925Y171425D01*
X140500Y181150D02*
X145075Y176575D01*
X140500Y181150D02*
Y184500D01*
X136142Y186500D02*
X138500D01*
X140500Y184500D01*
X139000Y201110D02*
Y206500D01*
X163000Y211642D02*
X171965D01*
X175213Y214890D01*
X176000D01*
X180319Y211358D02*
X189000D01*
X176787Y214890D02*
X180319Y211358D01*
X176000Y214890D02*
X176787D01*
X189000Y205642D02*
Y211358D01*
X159244Y225000D02*
X205842D01*
X152886Y218642D02*
X159244Y225000D01*
X205842D02*
X216000Y214843D01*
X184000Y231358D02*
X189000D01*
X176000Y235110D02*
Y238500D01*
X163000Y237358D02*
X167358D01*
X139000Y234110D02*
Y238500D01*
X152000Y227500D02*
Y231358D01*
Y238642D02*
Y244358D01*
X210858Y251642D02*
X216000Y246500D01*
X189000Y251642D02*
X210858D01*
X110240Y260063D02*
X113635D01*
X102760D02*
X102809Y260014D01*
Y253549D02*
Y260014D01*
X106500Y267937D02*
X106539Y267898D01*
X119961D01*
X120000Y267858D01*
X106500Y274063D02*
X112483D01*
X113562Y275142D02*
X120000D01*
X112483Y274063D02*
X113562Y275142D01*
X120000D02*
Y281358D01*
X68500Y255858D02*
X68549Y255809D01*
X77514D01*
X77563Y255760D01*
X73500Y263142D02*
X77464D01*
X68500D02*
X73500D01*
X35309Y253549D02*
X35358Y253500D01*
Y249000D02*
Y253500D01*
X35260Y260063D02*
X35309Y260014D01*
Y253549D02*
Y260014D01*
X42740Y260063D02*
X46000D01*
X39000Y267937D02*
X39039Y267898D01*
X52461D01*
X52500Y267858D01*
Y275142D02*
Y281358D01*
X52500Y281358D01*
X45563Y274063D02*
X46642Y275142D01*
X52500D01*
X39000Y274063D02*
X45563D01*
X65610Y286500D02*
Y287287D01*
X74000Y295677D01*
Y309500D01*
X68760Y277437D02*
Y282563D01*
X65610Y285713D02*
X68760Y282563D01*
X65610Y285713D02*
Y286500D01*
X45370Y353870D02*
X48500Y357000D01*
X45370Y351630D02*
Y353870D01*
X48500Y357000D02*
X52358D01*
X120000Y344111D02*
Y349500D01*
X112500Y357000D02*
X120000Y349500D01*
X105642Y357000D02*
X112500D01*
X59642D02*
X98358D01*
X165000Y292642D02*
Y301358D01*
X107000Y348500D02*
X112630D01*
X45370Y351630D02*
X45500Y351500D01*
X162000Y113000D02*
X165358D01*
X123000Y153000D02*
Y159358D01*
Y153000D02*
X126925Y149075D01*
X134949Y167701D02*
X135575Y167075D01*
X43642Y140000D02*
X50358D01*
X44142Y184500D02*
X50858D01*
X94657Y226358D02*
X102500D01*
X92098Y223799D02*
X94657Y226358D01*
X92000Y223799D02*
X92098D01*
X82598Y209260D02*
X82858Y209520D01*
X91902Y223799D02*
X92000D01*
X90880Y222778D02*
X91902Y223799D01*
X90880Y222679D02*
Y222778D01*
X82858Y214657D02*
X90880Y222679D01*
X82858Y209520D02*
Y214657D01*
X92000Y140299D02*
X92098D01*
X91902D02*
X92000D01*
X94657Y142858D02*
X102500D01*
X92098Y140299D02*
X94657Y142858D01*
X82858Y125500D02*
Y131256D01*
X91902Y140299D01*
X94657Y98142D02*
X102500D01*
X92098Y100701D02*
X94657Y98142D01*
X92000Y100701D02*
X92098D01*
X90142Y111500D02*
X95858D01*
X90142Y125500D02*
X95858D01*
X76437Y125760D02*
X82598D01*
X82858Y125500D01*
X94657Y181642D02*
X102500D01*
X92098Y184201D02*
X94657Y181642D01*
X92000Y184201D02*
X92098D01*
X90142Y195000D02*
X95858D01*
X76437Y209260D02*
X82598D01*
X82858Y209000D01*
X90142D02*
X95858D01*
X152000Y218642D02*
X152886D01*
X202358D02*
X216000Y205000D01*
X189000Y218642D02*
X202358D01*
X85437Y262181D02*
X90114Y266858D01*
X85437Y259500D02*
Y262181D01*
X79390Y286500D02*
X85472D01*
X110142Y253500D02*
Y254000D01*
X110191Y260014D02*
X110240Y260063D01*
X110191Y254049D02*
Y260014D01*
X110142Y254000D02*
X110191Y254049D01*
X42642Y253500D02*
X42691Y253549D01*
Y260014D01*
X42740Y260063D01*
X152000Y205642D02*
Y211358D01*
X143319D02*
X152000D01*
X139787Y214890D02*
X143319Y211358D01*
X139000Y214890D02*
X139787D01*
X126000Y211642D02*
X134965D01*
X138213Y214890D01*
X139000D01*
X143319Y244358D02*
X152000D01*
X139787Y247890D02*
X143319Y244358D01*
X139000Y247890D02*
X139787D01*
X126000Y244642D02*
X134965D01*
X138213Y247890D01*
X139000D01*
X90114Y266858D02*
X91000D01*
X77464Y263142D02*
X77563Y263240D01*
X91000Y274142D02*
Y281858D01*
X85472Y286500D02*
X90114Y281858D01*
X91000D01*
X76240Y277437D02*
Y282563D01*
X79390Y285713D01*
Y286500D01*
D59*
X75500Y269563D02*
X75532D01*
X77969Y272000D01*
X78000D01*
X72500Y269563D02*
X75500D01*
D60*
X212000Y16000D02*
D03*
X16000D02*
D03*
X212000Y288000D02*
D03*
X16000D02*
D03*
D61*
X216000Y256343D02*
D03*
Y246500D02*
D03*
Y214843D02*
D03*
Y205000D02*
D03*
Y143579D02*
D03*
Y153421D02*
D03*
Y163264D02*
D03*
Y173106D02*
D03*
Y133736D02*
D03*
X177236Y92000D02*
D03*
X216606D02*
D03*
X206764D02*
D03*
X196921D02*
D03*
X187079D02*
D03*
X143500Y102421D02*
D03*
X12000Y167421D02*
D03*
Y157579D02*
D03*
Y147736D02*
D03*
D62*
X216000Y236658D02*
D03*
Y195158D02*
D03*
Y123894D02*
D03*
X143500Y92579D02*
D03*
X12000Y177264D02*
D03*
D63*
X167394Y92000D02*
D03*
D64*
X220000Y53000D02*
D03*
X8000D02*
D03*
Y329000D02*
D03*
X220000D02*
D03*
D65*
X111685Y53000D02*
D03*
X72315D02*
D03*
D66*
X189000Y327000D02*
D03*
D67*
Y277000D02*
D03*
D68*
X145000Y274000D02*
D03*
Y334000D02*
D03*
D69*
X102858Y293358D02*
D03*
X120000Y292500D02*
D03*
X42642Y293000D02*
D03*
X159000Y285500D02*
D03*
Y281500D02*
D03*
X163000Y279500D02*
D03*
X167000D02*
D03*
X171000Y285500D02*
D03*
Y281500D02*
D03*
X182500Y323000D02*
D03*
Y333000D02*
D03*
Y328000D02*
D03*
X31500Y98500D02*
D03*
Y94500D02*
D03*
X35500Y100500D02*
D03*
X39500D02*
D03*
X43500Y98500D02*
D03*
Y94500D02*
D03*
X43500Y83500D02*
D03*
Y87500D02*
D03*
X39500Y81500D02*
D03*
X35500D02*
D03*
X31500Y83500D02*
D03*
Y87500D02*
D03*
X175500Y176500D02*
D03*
X186000Y164500D02*
D03*
X126000Y201000D02*
D03*
Y234000D02*
D03*
X176000Y206500D02*
D03*
X139000D02*
D03*
X184500Y198358D02*
D03*
X103142Y199500D02*
D03*
X123600Y186500D02*
D03*
X83000Y186000D02*
D03*
X176000Y238500D02*
D03*
X172500Y308000D02*
D03*
Y313000D02*
D03*
X220000Y38000D02*
D03*
X74500Y112500D02*
D03*
Y118000D02*
D03*
X78500D02*
D03*
Y112500D02*
D03*
Y130500D02*
D03*
Y136000D02*
D03*
Y196000D02*
D03*
X74500Y136000D02*
D03*
Y130500D02*
D03*
Y196000D02*
D03*
Y201500D02*
D03*
X78500D02*
D03*
X74929Y83000D02*
D03*
X79929D02*
D03*
X84929D02*
D03*
Y166500D02*
D03*
X79929D02*
D03*
X74929D02*
D03*
X85000Y158000D02*
D03*
X80000D02*
D03*
X75000D02*
D03*
X93000Y249000D02*
D03*
X103142Y213500D02*
D03*
X103142Y130000D02*
D03*
Y116000D02*
D03*
X176000Y189000D02*
D03*
X79500Y242500D02*
D03*
X187000Y184850D02*
D03*
X29000Y132500D02*
D03*
Y128500D02*
D03*
Y124500D02*
D03*
Y120500D02*
D03*
Y116500D02*
D03*
Y112500D02*
D03*
Y108500D02*
D03*
X32000Y159000D02*
D03*
Y155000D02*
D03*
X36000Y153000D02*
D03*
X40000D02*
D03*
X44000Y159000D02*
D03*
Y155000D02*
D03*
Y166000D02*
D03*
Y170000D02*
D03*
X40000Y172000D02*
D03*
X36000D02*
D03*
X32000Y166000D02*
D03*
Y170000D02*
D03*
X29000Y192000D02*
D03*
Y196000D02*
D03*
Y200000D02*
D03*
Y204000D02*
D03*
Y208000D02*
D03*
Y212000D02*
D03*
Y216000D02*
D03*
X44000Y226000D02*
D03*
Y230000D02*
D03*
X40000Y224000D02*
D03*
X36000D02*
D03*
X32000Y226000D02*
D03*
Y230000D02*
D03*
X198000Y173850D02*
D03*
X162124Y183274D02*
D03*
X156000Y132000D02*
D03*
X128201Y167701D02*
D03*
X133850Y158500D02*
D03*
X184000Y231358D02*
D03*
X139000Y238500D02*
D03*
X167358Y237358D02*
D03*
X152000Y227500D02*
D03*
X113635Y260063D02*
D03*
X73500Y263142D02*
D03*
X75500Y269563D02*
D03*
X78000Y272000D02*
D03*
X35358Y249000D02*
D03*
X46000Y260063D02*
D03*
X195000Y68000D02*
D03*
Y63000D02*
D03*
Y58000D02*
D03*
Y53000D02*
D03*
Y48000D02*
D03*
Y43000D02*
D03*
Y38000D02*
D03*
X190000D02*
D03*
Y43000D02*
D03*
Y48000D02*
D03*
Y53000D02*
D03*
Y58000D02*
D03*
Y63000D02*
D03*
Y68000D02*
D03*
X205000D02*
D03*
Y63000D02*
D03*
Y58000D02*
D03*
Y53000D02*
D03*
Y48000D02*
D03*
Y43000D02*
D03*
Y38000D02*
D03*
X200000D02*
D03*
Y43000D02*
D03*
Y48000D02*
D03*
Y53000D02*
D03*
Y58000D02*
D03*
Y63000D02*
D03*
Y68000D02*
D03*
X215000D02*
D03*
Y38000D02*
D03*
X210000D02*
D03*
Y43000D02*
D03*
Y48000D02*
D03*
Y53000D02*
D03*
Y58000D02*
D03*
Y63000D02*
D03*
Y68000D02*
D03*
X220000D02*
D03*
X160000D02*
D03*
Y63000D02*
D03*
Y58000D02*
D03*
Y53000D02*
D03*
Y48000D02*
D03*
Y43000D02*
D03*
Y38000D02*
D03*
X155000D02*
D03*
Y43000D02*
D03*
Y48000D02*
D03*
Y53000D02*
D03*
Y58000D02*
D03*
Y63000D02*
D03*
Y68000D02*
D03*
X170000D02*
D03*
Y63000D02*
D03*
Y58000D02*
D03*
Y53000D02*
D03*
Y48000D02*
D03*
Y43000D02*
D03*
Y38000D02*
D03*
X165000D02*
D03*
Y43000D02*
D03*
Y48000D02*
D03*
Y53000D02*
D03*
Y58000D02*
D03*
Y63000D02*
D03*
Y68000D02*
D03*
X180000D02*
D03*
Y63000D02*
D03*
Y58000D02*
D03*
Y53000D02*
D03*
Y48000D02*
D03*
Y43000D02*
D03*
Y38000D02*
D03*
X175000D02*
D03*
Y43000D02*
D03*
Y48000D02*
D03*
Y53000D02*
D03*
Y58000D02*
D03*
Y63000D02*
D03*
Y68000D02*
D03*
X185000Y38000D02*
D03*
Y43000D02*
D03*
Y48000D02*
D03*
Y53000D02*
D03*
Y58000D02*
D03*
Y63000D02*
D03*
Y68000D02*
D03*
X125000D02*
D03*
Y63000D02*
D03*
Y58000D02*
D03*
Y53000D02*
D03*
Y48000D02*
D03*
Y43000D02*
D03*
Y38000D02*
D03*
X120000D02*
D03*
Y43000D02*
D03*
Y48000D02*
D03*
Y53000D02*
D03*
Y58000D02*
D03*
Y63000D02*
D03*
Y68000D02*
D03*
X135000D02*
D03*
Y63000D02*
D03*
Y58000D02*
D03*
Y53000D02*
D03*
Y48000D02*
D03*
Y43000D02*
D03*
Y38000D02*
D03*
X130000D02*
D03*
Y43000D02*
D03*
Y48000D02*
D03*
Y53000D02*
D03*
Y58000D02*
D03*
Y63000D02*
D03*
Y68000D02*
D03*
X145000D02*
D03*
Y63000D02*
D03*
Y58000D02*
D03*
Y53000D02*
D03*
Y48000D02*
D03*
Y43000D02*
D03*
Y38000D02*
D03*
X140000D02*
D03*
Y43000D02*
D03*
Y48000D02*
D03*
Y53000D02*
D03*
Y58000D02*
D03*
Y63000D02*
D03*
Y68000D02*
D03*
X150000Y38000D02*
D03*
Y43000D02*
D03*
Y48000D02*
D03*
Y53000D02*
D03*
Y58000D02*
D03*
Y63000D02*
D03*
Y68000D02*
D03*
X110000Y38000D02*
D03*
Y43000D02*
D03*
X115000Y38000D02*
D03*
Y43000D02*
D03*
X110000Y63000D02*
D03*
Y68000D02*
D03*
X115000Y63000D02*
D03*
Y68000D02*
D03*
X75000Y43000D02*
D03*
Y38000D02*
D03*
X70000Y43000D02*
D03*
Y38000D02*
D03*
X75000Y68000D02*
D03*
Y63000D02*
D03*
X70000Y68000D02*
D03*
Y63000D02*
D03*
X60000Y68000D02*
D03*
Y63000D02*
D03*
Y58000D02*
D03*
Y53000D02*
D03*
Y48000D02*
D03*
Y43000D02*
D03*
Y38000D02*
D03*
X65000D02*
D03*
Y43000D02*
D03*
Y48000D02*
D03*
Y53000D02*
D03*
Y58000D02*
D03*
Y63000D02*
D03*
Y68000D02*
D03*
X50000D02*
D03*
Y63000D02*
D03*
Y58000D02*
D03*
Y53000D02*
D03*
Y48000D02*
D03*
Y43000D02*
D03*
Y38000D02*
D03*
X55000D02*
D03*
Y43000D02*
D03*
Y48000D02*
D03*
Y53000D02*
D03*
Y58000D02*
D03*
Y63000D02*
D03*
Y68000D02*
D03*
X40000D02*
D03*
Y63000D02*
D03*
Y58000D02*
D03*
Y53000D02*
D03*
Y48000D02*
D03*
Y43000D02*
D03*
Y38000D02*
D03*
X45000D02*
D03*
Y43000D02*
D03*
Y48000D02*
D03*
Y53000D02*
D03*
Y58000D02*
D03*
Y63000D02*
D03*
Y68000D02*
D03*
X30000D02*
D03*
Y63000D02*
D03*
Y58000D02*
D03*
Y53000D02*
D03*
Y48000D02*
D03*
Y43000D02*
D03*
Y38000D02*
D03*
X35000D02*
D03*
Y43000D02*
D03*
Y48000D02*
D03*
Y53000D02*
D03*
Y58000D02*
D03*
Y63000D02*
D03*
Y68000D02*
D03*
X25000D02*
D03*
Y63000D02*
D03*
Y58000D02*
D03*
Y53000D02*
D03*
Y48000D02*
D03*
Y43000D02*
D03*
Y38000D02*
D03*
X5000D02*
D03*
X10000D02*
D03*
X15000D02*
D03*
X20000D02*
D03*
Y43000D02*
D03*
Y48000D02*
D03*
Y53000D02*
D03*
Y58000D02*
D03*
Y63000D02*
D03*
Y68000D02*
D03*
X15000D02*
D03*
X10000D02*
D03*
X5000D02*
D03*
X147500Y343000D02*
D03*
X142500D02*
D03*
X122500Y313000D02*
D03*
Y318000D02*
D03*
Y328000D02*
D03*
Y333000D02*
D03*
Y343000D02*
D03*
X127500Y313000D02*
D03*
Y318000D02*
D03*
Y328000D02*
D03*
Y333000D02*
D03*
Y343000D02*
D03*
X137500Y313000D02*
D03*
Y318000D02*
D03*
Y328000D02*
D03*
Y333000D02*
D03*
Y343000D02*
D03*
X142500Y313000D02*
D03*
Y318000D02*
D03*
X152500Y313000D02*
D03*
Y318000D02*
D03*
Y328000D02*
D03*
Y333000D02*
D03*
Y343000D02*
D03*
X157500Y313000D02*
D03*
Y318000D02*
D03*
X162500D02*
D03*
X157500Y328000D02*
D03*
X162500D02*
D03*
X157500Y333000D02*
D03*
X162500D02*
D03*
X157500Y343000D02*
D03*
X162500D02*
D03*
X167500Y318000D02*
D03*
Y328000D02*
D03*
Y333000D02*
D03*
Y343000D02*
D03*
X177500Y313000D02*
D03*
Y318000D02*
D03*
Y328000D02*
D03*
Y333000D02*
D03*
Y343000D02*
D03*
X182500Y313000D02*
D03*
Y318000D02*
D03*
Y343000D02*
D03*
X192500Y313000D02*
D03*
Y318000D02*
D03*
Y343000D02*
D03*
X197500Y313000D02*
D03*
X202500D02*
D03*
X197500Y318000D02*
D03*
X202500D02*
D03*
X197500Y328000D02*
D03*
X202500D02*
D03*
X197500Y333000D02*
D03*
X202500D02*
D03*
X197500Y343000D02*
D03*
X202500D02*
D03*
X207500Y313000D02*
D03*
Y318000D02*
D03*
Y328000D02*
D03*
Y333000D02*
D03*
Y343000D02*
D03*
X217500Y313000D02*
D03*
Y343000D02*
D03*
X222500Y313000D02*
D03*
Y343000D02*
D03*
X122500Y308000D02*
D03*
Y338000D02*
D03*
Y323000D02*
D03*
X127500Y308000D02*
D03*
Y323000D02*
D03*
Y338000D02*
D03*
X137500Y308000D02*
D03*
Y323000D02*
D03*
Y338000D02*
D03*
X142500Y308000D02*
D03*
Y323000D02*
D03*
X152500Y308000D02*
D03*
Y323000D02*
D03*
Y338000D02*
D03*
X157500Y308000D02*
D03*
Y323000D02*
D03*
Y338000D02*
D03*
X162500D02*
D03*
Y323000D02*
D03*
X167500Y338000D02*
D03*
Y323000D02*
D03*
X177500Y308000D02*
D03*
Y323000D02*
D03*
Y338000D02*
D03*
X182500Y308000D02*
D03*
Y338000D02*
D03*
X192500Y308000D02*
D03*
Y338000D02*
D03*
X197500Y308000D02*
D03*
X202500D02*
D03*
X197500Y323000D02*
D03*
Y338000D02*
D03*
X202500Y323000D02*
D03*
Y338000D02*
D03*
X207500Y308000D02*
D03*
Y323000D02*
D03*
Y338000D02*
D03*
X217500Y308000D02*
D03*
X222500D02*
D03*
X132500Y313000D02*
D03*
X147500D02*
D03*
X132500Y318000D02*
D03*
X147500D02*
D03*
X132500Y328000D02*
D03*
Y333000D02*
D03*
Y343000D02*
D03*
X187500Y313000D02*
D03*
X172500Y318000D02*
D03*
X187500D02*
D03*
X172500Y328000D02*
D03*
Y333000D02*
D03*
Y343000D02*
D03*
X187500D02*
D03*
X212500Y313000D02*
D03*
Y343000D02*
D03*
X132500Y308000D02*
D03*
X147500D02*
D03*
X132500Y323000D02*
D03*
Y338000D02*
D03*
X147500Y323000D02*
D03*
X187500Y308000D02*
D03*
X172500Y323000D02*
D03*
Y338000D02*
D03*
X187500D02*
D03*
X212500Y308000D02*
D03*
X5000Y315000D02*
D03*
X10000D02*
D03*
X15000D02*
D03*
X35000D02*
D03*
Y320000D02*
D03*
X30000Y315000D02*
D03*
Y320000D02*
D03*
X25000Y315000D02*
D03*
Y320000D02*
D03*
X20000Y315000D02*
D03*
Y320000D02*
D03*
X35000Y325000D02*
D03*
Y330000D02*
D03*
X30000Y325000D02*
D03*
Y330000D02*
D03*
X25000Y325000D02*
D03*
Y330000D02*
D03*
X35000Y335000D02*
D03*
Y340000D02*
D03*
X30000Y335000D02*
D03*
Y340000D02*
D03*
X25000Y335000D02*
D03*
Y340000D02*
D03*
Y350000D02*
D03*
Y345000D02*
D03*
X30000Y350000D02*
D03*
Y345000D02*
D03*
X35000Y350000D02*
D03*
Y345000D02*
D03*
X20000Y325000D02*
D03*
Y330000D02*
D03*
Y335000D02*
D03*
Y340000D02*
D03*
Y345000D02*
D03*
Y350000D02*
D03*
X15000Y345000D02*
D03*
Y350000D02*
D03*
X10000Y345000D02*
D03*
Y350000D02*
D03*
X5000Y345000D02*
D03*
Y350000D02*
D03*
X84000Y309500D02*
D03*
X79000D02*
D03*
X74000D02*
D03*
Y319500D02*
D03*
X79000D02*
D03*
X84000D02*
D03*
X74000Y314500D02*
D03*
X79000D02*
D03*
X84000D02*
D03*
X74000Y329500D02*
D03*
X79000D02*
D03*
X84000D02*
D03*
X74000Y324500D02*
D03*
X79000D02*
D03*
X84000D02*
D03*
X74000Y339500D02*
D03*
X79000D02*
D03*
X84000D02*
D03*
X74000Y334500D02*
D03*
X79000D02*
D03*
X84000D02*
D03*
Y344500D02*
D03*
X79000D02*
D03*
X74000D02*
D03*
X84000Y349500D02*
D03*
X79000D02*
D03*
X74000D02*
D03*
X107000Y348500D02*
D03*
X107002Y324502D02*
D03*
X162000Y113000D02*
D03*
X123600Y179000D02*
D03*
D70*
X180045Y164000D02*
D03*
X178500Y161000D02*
D03*
X177001Y180000D02*
D03*
X128500Y125000D02*
D03*
X122500Y116000D02*
D03*
X174500Y165000D02*
D03*
X172500Y173460D02*
D03*
X168500Y137000D02*
D03*
X172642Y133500D02*
D03*
X133500Y127500D02*
D03*
X138000Y160500D02*
D03*
X140500Y163500D02*
D03*
X142500Y188438D02*
D03*
X143549Y182951D02*
D03*
X161500Y179500D02*
D03*
X139000Y124000D02*
D03*
D71*
X163118Y164245D02*
D03*
X156437Y150437D02*
D03*
X163563Y157563D02*
D03*
X166681Y160681D02*
D03*
X160000Y154000D02*
D03*
X149755Y157118D02*
D03*
X156882Y164245D02*
D03*
X149755Y150882D02*
D03*
X152873Y154000D02*
D03*
X156882Y143755D02*
D03*
X160000Y146873D02*
D03*
X167127Y154000D02*
D03*
X170245Y157118D02*
D03*
X163118Y143755D02*
D03*
X170245Y150882D02*
D03*
X153319Y160681D02*
D03*
X156437Y157563D02*
D03*
X163563Y150437D02*
D03*
X166681Y147319D02*
D03*
X153319D02*
D03*
X160000Y161127D02*
D03*
M02*
