G04*
G04 #@! TF.GenerationSoftware,Altium Limited,Altium Designer,20.1.8 (145)*
G04*
G04 Layer_Color=8421504*
%FSLAX25Y25*%
%MOIN*%
G70*
G04*
G04 #@! TF.SameCoordinates,DCF3A4A8-B772-48C9-94DF-C36B93A42D3A*
G04*
G04*
G04 #@! TF.FilePolarity,Positive*
G04*
G01*
G75*
%ADD18P,0.05846X4X180.0*%
%ADD19R,0.03740X0.03543*%
%ADD20R,0.03740X0.05512*%
%ADD21R,0.05512X0.03740*%
G04:AMPARAMS|DCode=22|XSize=55.12mil|YSize=37.4mil|CornerRadius=0mil|HoleSize=0mil|Usage=FLASHONLY|Rotation=45.000|XOffset=0mil|YOffset=0mil|HoleType=Round|Shape=Rectangle|*
%AMROTATEDRECTD22*
4,1,4,-0.00626,-0.03271,-0.03271,-0.00626,0.00626,0.03271,0.03271,0.00626,-0.00626,-0.03271,0.0*
%
%ADD22ROTATEDRECTD22*%

G04:AMPARAMS|DCode=23|XSize=9.45mil|YSize=23.62mil|CornerRadius=0mil|HoleSize=0mil|Usage=FLASHONLY|Rotation=135.000|XOffset=0mil|YOffset=0mil|HoleType=Round|Shape=Rectangle|*
%AMROTATEDRECTD23*
4,1,4,0.01169,0.00501,-0.00501,-0.01169,-0.01169,-0.00501,0.00501,0.01169,0.01169,0.00501,0.0*
%
%ADD23ROTATEDRECTD23*%

G04:AMPARAMS|DCode=24|XSize=9.45mil|YSize=23.62mil|CornerRadius=0mil|HoleSize=0mil|Usage=FLASHONLY|Rotation=45.000|XOffset=0mil|YOffset=0mil|HoleType=Round|Shape=Rectangle|*
%AMROTATEDRECTD24*
4,1,4,0.00501,-0.01169,-0.01169,0.00501,-0.00501,0.01169,0.01169,-0.00501,0.00501,-0.01169,0.0*
%
%ADD24ROTATEDRECTD24*%

G04:AMPARAMS|DCode=25|XSize=55.12mil|YSize=37.4mil|CornerRadius=0mil|HoleSize=0mil|Usage=FLASHONLY|Rotation=315.000|XOffset=0mil|YOffset=0mil|HoleType=Round|Shape=Rectangle|*
%AMROTATEDRECTD25*
4,1,4,-0.03271,0.00626,-0.00626,0.03271,0.03271,-0.00626,0.00626,-0.03271,-0.03271,0.00626,0.0*
%
%ADD25ROTATEDRECTD25*%

%ADD26R,0.06693X0.05118*%
%ADD27R,0.03543X0.03150*%
%ADD28R,0.09843X0.09055*%
%ADD29R,0.08465X0.24803*%
%ADD30R,0.03150X0.03543*%
%ADD31R,0.05118X0.06693*%
%ADD32R,0.06102X0.02362*%
D18*
X160000Y164690D02*
D03*
X163563Y161127D02*
D03*
X160000Y157563D02*
D03*
X156437Y161127D02*
D03*
X152873Y157563D02*
D03*
X156437Y154000D02*
D03*
X149310Y154000D02*
D03*
X152873Y150437D02*
D03*
X160000Y143310D02*
D03*
X156437Y146873D02*
D03*
X160000Y150437D02*
D03*
X163563Y146873D02*
D03*
X167127Y150437D02*
D03*
X163563Y154000D02*
D03*
X170690D02*
D03*
X167127Y157563D02*
D03*
D19*
X92000Y236201D02*
D03*
Y223799D02*
D03*
Y140299D02*
D03*
Y152701D02*
D03*
Y184201D02*
D03*
Y171799D02*
D03*
Y88299D02*
D03*
Y100701D02*
D03*
D20*
X165358Y113000D02*
D03*
X172642D02*
D03*
Y121000D02*
D03*
X165358D02*
D03*
X172642Y129000D02*
D03*
X165358D02*
D03*
X136142Y179000D02*
D03*
X128858D02*
D03*
X136142Y186500D02*
D03*
X128858D02*
D03*
X103142Y125500D02*
D03*
X95858D02*
D03*
X82858D02*
D03*
X90142D02*
D03*
X82858Y111500D02*
D03*
X90142D02*
D03*
X103142D02*
D03*
X95858D02*
D03*
X50358Y140000D02*
D03*
X57642D02*
D03*
X43642D02*
D03*
X36358D02*
D03*
X36858Y184500D02*
D03*
X44142D02*
D03*
X58142D02*
D03*
X50858D02*
D03*
X103142Y195000D02*
D03*
X95858D02*
D03*
X82858D02*
D03*
X90142D02*
D03*
X82858Y209000D02*
D03*
X90142D02*
D03*
X103142D02*
D03*
X95858D02*
D03*
X102858Y253500D02*
D03*
X110142D02*
D03*
X102858Y288500D02*
D03*
X110142D02*
D03*
X35358Y253500D02*
D03*
X42642D02*
D03*
Y288500D02*
D03*
X35358D02*
D03*
X98358Y357000D02*
D03*
X105642D02*
D03*
X52358D02*
D03*
X59642D02*
D03*
D21*
X156000Y120858D02*
D03*
Y128142D02*
D03*
X123000Y166642D02*
D03*
Y159358D02*
D03*
X189000Y251642D02*
D03*
Y244358D02*
D03*
Y238642D02*
D03*
Y231358D02*
D03*
Y218642D02*
D03*
Y211358D02*
D03*
Y205642D02*
D03*
Y198358D02*
D03*
X163000Y211642D02*
D03*
Y204358D02*
D03*
X152000Y205642D02*
D03*
Y198358D02*
D03*
Y218642D02*
D03*
Y211358D02*
D03*
X163000Y244642D02*
D03*
Y237358D02*
D03*
X152000Y238642D02*
D03*
Y231358D02*
D03*
Y251642D02*
D03*
Y244358D02*
D03*
X126000Y244642D02*
D03*
Y237358D02*
D03*
Y211642D02*
D03*
Y204358D02*
D03*
X102500Y98142D02*
D03*
Y90858D02*
D03*
X37500Y94642D02*
D03*
Y87358D02*
D03*
X38000Y166142D02*
D03*
Y158858D02*
D03*
X102500Y181642D02*
D03*
Y174358D02*
D03*
Y233642D02*
D03*
Y226358D02*
D03*
X120000Y288642D02*
D03*
Y281358D02*
D03*
Y275142D02*
D03*
Y267858D02*
D03*
X91000Y289142D02*
D03*
Y281858D02*
D03*
Y274142D02*
D03*
Y266858D02*
D03*
X68500Y263142D02*
D03*
Y255858D02*
D03*
X52500Y288642D02*
D03*
Y281358D02*
D03*
X52500Y275142D02*
D03*
Y267858D02*
D03*
X38000Y237142D02*
D03*
Y229858D02*
D03*
X165000Y308642D02*
D03*
Y301358D02*
D03*
Y292642D02*
D03*
Y285358D02*
D03*
X102500Y150142D02*
D03*
Y142858D02*
D03*
D22*
X141425Y134575D02*
D03*
X146575Y129425D02*
D03*
X132075Y143925D02*
D03*
X126925Y149075D02*
D03*
X194575Y170425D02*
D03*
X189425Y175575D02*
D03*
X183575Y168425D02*
D03*
X178425Y173575D02*
D03*
Y186575D02*
D03*
X183575Y181425D02*
D03*
X165425Y186575D02*
D03*
X170575Y181425D02*
D03*
D23*
X142879Y152190D02*
D03*
X161810Y171121D02*
D03*
X149839Y145231D02*
D03*
X148447Y146623D02*
D03*
X147055Y148015D02*
D03*
X145663Y149407D02*
D03*
X164593Y168337D02*
D03*
X168769Y164161D02*
D03*
X167377Y165553D02*
D03*
X165985Y166945D02*
D03*
X155407Y139663D02*
D03*
X154015Y141055D02*
D03*
X152623Y142447D02*
D03*
X151231Y143839D02*
D03*
X170161Y162769D02*
D03*
X174337Y158593D02*
D03*
X172945Y159985D02*
D03*
X171553Y161377D02*
D03*
X158191Y136879D02*
D03*
X177121Y155809D02*
D03*
X144271Y150798D02*
D03*
X163201Y169729D02*
D03*
X156799Y138271D02*
D03*
X175729Y157202D02*
D03*
D24*
X142879Y155809D02*
D03*
X145663Y158593D02*
D03*
X147055Y159985D02*
D03*
X148447Y161377D02*
D03*
X149839Y162769D02*
D03*
X151231Y164161D02*
D03*
X152623Y165553D02*
D03*
X154015Y166945D02*
D03*
X155407Y168337D02*
D03*
X158191Y171121D02*
D03*
X161810Y136879D02*
D03*
X168769Y143839D02*
D03*
X167377Y142447D02*
D03*
X165985Y141055D02*
D03*
X164593Y139663D02*
D03*
X174337Y149407D02*
D03*
X172945Y148015D02*
D03*
X171553Y146623D02*
D03*
X170161Y145231D02*
D03*
X177121Y152190D02*
D03*
X144271Y157202D02*
D03*
X156799Y169729D02*
D03*
X163201Y138271D02*
D03*
X175729Y150798D02*
D03*
D25*
X139925Y171425D02*
D03*
X145075Y176575D02*
D03*
X130425Y161925D02*
D03*
X135575Y167075D02*
D03*
D26*
X176000Y201110D02*
D03*
Y214890D02*
D03*
Y234110D02*
D03*
Y247890D02*
D03*
X139000Y201110D02*
D03*
Y214890D02*
D03*
Y234110D02*
D03*
Y247890D02*
D03*
D27*
X68563Y129500D02*
D03*
X76437Y133240D02*
D03*
Y125760D02*
D03*
X68563Y111500D02*
D03*
X76437Y115240D02*
D03*
Y107760D02*
D03*
Y191260D02*
D03*
Y198740D02*
D03*
X68563Y195000D02*
D03*
X76437Y209260D02*
D03*
Y216740D02*
D03*
X68563Y213000D02*
D03*
X85437Y259500D02*
D03*
X77563Y255760D02*
D03*
Y263240D02*
D03*
D28*
X63035Y91000D02*
D03*
X79965D02*
D03*
Y150000D02*
D03*
X63035D02*
D03*
Y174500D02*
D03*
X79965D02*
D03*
X79965Y233500D02*
D03*
X63035D02*
D03*
D29*
X54669Y120500D02*
D03*
X38331D02*
D03*
X54669Y204000D02*
D03*
X38331D02*
D03*
D30*
X106500Y267937D02*
D03*
X110240Y260063D02*
D03*
X102760D02*
D03*
X106500Y274063D02*
D03*
X102760Y281937D02*
D03*
X110240D02*
D03*
X72500Y269563D02*
D03*
X68760Y277437D02*
D03*
X76240D02*
D03*
X39000Y267937D02*
D03*
X42740Y260063D02*
D03*
X35260D02*
D03*
X39000Y274063D02*
D03*
X35260Y281937D02*
D03*
X42740D02*
D03*
D31*
X65610Y286500D02*
D03*
X79390D02*
D03*
D32*
X91370Y333500D02*
D03*
Y338500D02*
D03*
Y343500D02*
D03*
Y348500D02*
D03*
X112630D02*
D03*
Y343500D02*
D03*
Y338500D02*
D03*
Y333500D02*
D03*
X91370Y309500D02*
D03*
Y314500D02*
D03*
Y319500D02*
D03*
Y324500D02*
D03*
X112630D02*
D03*
Y319500D02*
D03*
Y314500D02*
D03*
Y309500D02*
D03*
X66630Y324500D02*
D03*
Y319500D02*
D03*
Y314500D02*
D03*
Y309500D02*
D03*
X45370D02*
D03*
Y314500D02*
D03*
Y319500D02*
D03*
Y324500D02*
D03*
X66630Y348500D02*
D03*
Y343500D02*
D03*
Y338500D02*
D03*
Y333500D02*
D03*
X45370D02*
D03*
Y338500D02*
D03*
Y343500D02*
D03*
Y348500D02*
D03*
M02*
