M48
;Layer_Color=9474304
;FILE_FORMAT=2:5
INCH,LZ
;TYPE=PLATED
T1F00S00C0.00866
T2F00S00C0.00906
T3F00S00C0.01260
T4F00S00C0.04134
T5F00S00C0.04484
T6F00S00C0.04528
T7F00S00C0.05709
T8F00S00C0.05906
;TYPE=NON_PLATED
T9F00S00C0.13386
%
T01
X01225Y0116
X01285Y0125
X01335Y01275
X0139Y0124
X01685Y0137
X0172642Y01335
X01745Y0165
X0180045Y0164
X01785Y0161
X01725Y017346
X0177001Y018
X01615Y01795
X0143549Y0182951
X01425Y0188438
X01405Y01635
X0138Y01605
T02
X0149755Y0150882
Y0157118
X0152873Y0154
X0156437Y0150437
X0153319Y0147319
X0156882Y0143755
X016Y0146873
X0163118Y0143755
X0163563Y0150437
X0166681Y0147319
X0167127Y0154
X0170245Y0157118
Y0150882
X0163563Y0157563
X0166681Y0160681
X0163118Y0164245
X0156882
X016Y0161127
Y0154
X0156437Y0157563
X0153319Y0160681
T03
X0005Y0038
X001
X0015
X002
X0025
X003
Y0043
Y0048
Y0053
Y0058
Y0063
Y0068
X0035
X004
Y0063
Y0058
Y0053
Y0048
Y0043
Y0038
X0045
X005
Y0043
Y0048
Y0053
Y0058
Y0063
Y0068
X0055
Y0063
Y0058
Y0053
Y0048
Y0043
Y0038
X0045Y0043
Y0048
Y0053
Y0058
Y0063
Y0068
X0035Y0063
Y0058
Y0053
Y0048
Y0043
Y0038
X0025Y0043
Y0048
Y0053
Y0058
Y0063
Y0068
X002
Y0063
Y0058
Y0053
Y0048
Y0043
X0015Y0068
X001
X0005
X00315Y00835
Y00875
X00315Y00945
Y00985
X00355Y01005
X00395
X00435Y00985
Y00945
X00435Y00875
Y00835
X00395Y00815
X00355
X0029Y01085
Y01125
Y01165
Y01205
Y01245
Y01285
Y01325
X00745Y01305
X00785
Y0136
X00745
Y0118
X00785
Y01125
X00745
X0074929Y0083
X0079929
X0084929
X0075Y0068
Y0063
X007
Y0068
X0065
X006
Y0063
Y0058
Y0053
Y0048
Y0043
Y0038
X0065
X007
X0075
Y0043
X007
X0065
Y0048
Y0053
Y0058
Y0063
X011
Y0068
X0115
X012
X0125
Y0063
Y0058
Y0053
Y0048
Y0043
Y0038
X012
Y0043
Y0048
Y0053
Y0058
Y0063
X0115
X013
X0135
Y0068
X013
Y0058
X0135
Y0053
Y0048
Y0043
Y0038
X013
Y0043
Y0048
Y0053
X014
X0145
Y0058
Y0063
Y0068
X014
Y0063
Y0058
Y0048
X0145
Y0043
Y0038
X014
Y0043
X015
X0155
X016
Y0048
Y0053
Y0058
Y0063
Y0068
X0155
Y0063
Y0058
Y0053
Y0048
X015
Y0053
Y0058
Y0063
Y0068
X0165
X017
Y0063
Y0058
Y0053
Y0048
Y0043
Y0038
X0165
X016
X0155
X015
X0165Y0043
Y0048
Y0053
Y0058
Y0063
X0175
X018
Y0068
X0175
Y0058
X018
Y0053
Y0048
Y0043
Y0038
X0175
Y0043
Y0048
Y0053
X0185
X019
X0195
Y0058
Y0063
Y0068
X019
Y0063
Y0058
X0185
Y0063
Y0068
X02
X0205
Y0063
Y0058
Y0053
Y0048
Y0043
Y0038
X02
X0195
Y0043
Y0048
X019
Y0043
Y0038
X0185
Y0043
Y0048
X02
Y0043
Y0053
Y0058
Y0063
X021
Y0058
Y0053
Y0048
Y0043
Y0038
Y0068
X0162Y0113
X0156Y0132
X0103142Y013
Y0116
X011Y0043
Y0038
X0115
Y0043
X0215Y0038
X022
Y0068
X0215
X0198Y017385
X0186Y01645
X0187Y018485
X0176Y0189
X01755Y01765
X0162124Y0183274
X0176Y02065
X01845Y0198358
X0184Y0231358
X0176Y02385
X0167358Y0237358
X0152Y02275
X0139Y02385
X0126Y0234
Y0201
X01236Y01865
Y0179
X0128201Y0167701
X013385Y01585
X0085Y0158
X008
X0075
X0074929Y01665
X0079929
X0084929
X0083Y0186
X00785Y0196
X00745
Y02015
X00785
X0103142Y01995
Y02135
X0139Y02065
X0113635Y0260063
X0093Y0249
X00795Y02425
X00735Y0263142
X00755Y0269563
X0078Y0272
X0102858Y0293358
X012Y02925
X0159Y02855
Y02815
X0163Y02795
X0167
X0171Y02815
Y02855
X0042642Y0293
X0046Y0260063
X0035358Y0249
X0032Y023
Y0226
X0036Y0224
X004
X0044Y0226
Y023
X0029Y0216
Y0212
Y0208
Y0204
Y02
Y0196
Y0192
X0032Y017
Y0166
Y0159
Y0155
X0036Y0153
X004
X0044Y0155
Y0159
Y0166
Y017
X004Y0172
X0036
X0035Y0315
Y032
X003
Y0315
X0025
Y032
X002
Y0315
X0015
X001
X0005
X002Y0325
X0025
X003
X0035
Y033
X003
X0025
Y0335
X003
X0035
Y034
X003
X0025
Y0345
Y035
X003
Y0345
X0035
Y035
X002
Y0345
Y034
Y0335
Y033
X0015Y0345
Y035
X001
Y0345
X0005
Y035
X0074Y03495
Y03445
Y03395
X0079
X0084
Y03345
Y03295
X0079
X0074
Y03245
Y03195
X0079
X0084
Y03145
Y03095
X0079
X0074
Y03145
X0079
Y03245
X0084
X0079Y03345
X0074
X0079Y03445
X0084
Y03495
X0079
X0107Y03485
X01225Y0343
X01275
Y0338
Y0333
X01225
Y0328
X01275
Y0323
Y0318
X01225
Y0313
X01275
Y0308
X01225
X01325
X01375
Y0313
Y0318
X01425
Y0313
Y0308
X01475
X01525
Y0313
Y0318
X01575
Y0313
Y0308
X01725
Y0313
X01775
Y0318
X01825
Y0323
Y0328
Y0333
X01775
Y0328
Y0323
X01725
X01675
Y0318
X01625
Y0323
Y0328
X01575
X01525
Y0333
X01575
X01625
X01675
Y0328
X01725
Y0333
Y0338
X01675
Y0343
X01625
X01575
X01525
X01475
X01425
X01375
Y0338
Y0333
Y0328
Y0323
X01425
X01475
X01525
X01575
Y0338
X01525
X01625
X01775
Y0343
X01825
Y0338
X01875
X01925
Y0343
X01975
X02025
X02075
Y0338
Y0333
X02025
Y0328
X01975
Y0333
Y0338
X02025
X02075Y0328
Y0323
Y0318
X02025
Y0313
X01975
X01925
Y0318
X01975
Y0323
X02025
X02075Y0313
Y0308
X02025
X01975
X01925
X01875
X01825
Y0313
X01875
Y0318
X01725
X01775Y0308
X01475Y0313
Y0318
X01325
Y0313
Y0323
Y0328
Y0333
Y0338
Y0343
X01225Y0338
Y0323
X0107002Y0324502
X01725Y0343
X01875
X02125
X02175
X02225
Y0313
X02175
Y0308
X02225
X02125
Y0313
T04
X0145Y0274
Y0334
T05
X0189Y0277
Y0327
T06
X01435Y0092579
Y0102421
X0167394Y0092
X0177236
X0187079
X0196921
X0206764
X0216606
X0216Y0123894
Y0133736
Y0143579
Y0153421
Y0163264
Y0173106
Y0195158
Y0205
Y0214843
Y0236658
Y02465
Y0256343
X0012Y0177264
Y0167421
Y0157579
Y0147736
T07
X0072315Y0053
X0111685
T08
X0008Y0053
X022
X0008Y0329
X022
T09
X0016Y0016
X0212
Y0288
X0016
M30
